<svg width="102" height="24" viewBox="0 0 102 24" fill="none" xmlns="http://www.w3.org/2000/svg">
<g id="Group 1321317140">
<path id="Vector" fill-rule="evenodd" clip-rule="evenodd" d="M55.7113 8.6798L57.0653 10.2984L51.5977 10.3522L49.7129 8.12233L49.7395 8.0957H55.2337L55.7113 8.6798ZM87.7746 8.14896L87.803 18.3941L85.5725 20.4109L79.6274 20.3843V17.8372L84.8292 17.7845L85.2808 17.227V10.4848L81.485 10.5027L80.6155 11.2477L80.6474 13.1656L81.3785 13.8556H84.4836L84.5375 16.669L79.8919 16.6175L78.0082 14.4663V10.0072L78.2467 9.79415L80.0783 8.12233L87.7746 8.14896ZM98.499 11.1742L96.1621 13.4573L92.7391 13.4052H92.6853L92.7125 11.0422L95.1467 11.0156L95.8113 10.4188L92.287 10.4309L91.465 11.228V13.3775L92.0225 13.8817L98.4718 13.9094V16.6811L90.7472 16.669L88.9167 14.4924V10.0593L90.8815 8.17559H98.5251L98.499 11.1742Z" fill="#5B5B5B"/>
<g id="Group 1321317139">
<path id="Vector_2" fill-rule="evenodd" clip-rule="evenodd" d="M66.0885 3.50488L66.0624 5.97325H62.7193L59.5864 5.92057L59.1083 6.29164L58.9757 6.45141L59.0029 7.51309L59.2686 7.80426L59.5864 8.0966L63.5946 8.12323L66.0624 10.0081L66.0369 14.4672L63.4881 16.5906L56.4274 16.6184L56.4547 13.8565L62.6649 13.8299L63.4609 13.3784V12.2895L63.4881 10.9632L62.7193 10.3531L58.3395 10.3253L56.461 8.14986L56.4547 5.68207L58.7111 3.50488H66.0885ZM8.01412 13.5387L13.2623 3.58419H16.3153L9.44686 16.6427L6.60743 16.6184L0.130859 3.58419H2.9975L8.01412 13.5387ZM43.4222 8.14986H48.4325L50.2166 10.2993L50.1639 16.6184H47.8287L47.8547 13.4322L47.8287 11.0698L47.1908 10.4052H43.4749L43.369 16.6184H40.7941V4.75238L43.3962 4.72575L43.4222 8.14986ZM101.869 16.6699H99.3744V4.77843H101.842L101.869 16.6699ZM37.7156 8.06997L38.5115 8.12323H39.9715V10.4197L37.8481 10.4052L37.7949 13.2197L38.5376 13.9103L39.9443 13.8565V16.6184H37.6617L35.2472 14.3347L35.2206 10.4318L33.6014 10.4052L33.5482 14.3607L31.1863 16.6184L26.4348 16.5645L24.0191 14.4146L23.9665 13.2718L23.9392 8.16028L26.3816 8.13307L26.4609 13.1398L27.0982 13.8299H30.575L31.1325 13.1931L31.1064 8.16028L35.2206 8.13307L35.2472 6.55735L37.6617 5.17728L37.7156 8.06997ZM19.4002 10.3791L16.269 10.4052L15.7642 10.8035L15.7914 13.2996L16.2418 13.8565L20.3565 13.8826V8.14986H22.9575V16.6184H15.26L13.3758 14.5205V9.82226L15.1275 8.14986H19.4002V10.3791ZM73.4415 10.3791L70.3103 10.4052L69.8049 10.8035L69.8321 13.2996L70.2831 13.8565L74.3978 13.8826V8.14986H76.9981V16.6184H69.3007L67.417 14.5205V9.82226L69.1687 8.14986H73.4415V10.3791Z" fill="#5B5B5B"/>
<path id="Vector_3" d="M0.130859 23.4686H101.816V24H0.130859V23.4686ZM0.130859 22.4521H101.816V22.9835H0.130859V22.4521ZM0.130859 1.0171H101.816V1.54909H0.130859V1.0171ZM0.130859 0H101.816V0.531995H0.130859V0Z" fill="#5B5B5B"/>
</g>
</g>
</svg>
