<svg width="78" height="25" viewBox="0 0 78 25" fill="none" xmlns="http://www.w3.org/2000/svg">
<g id="Group">
<g id="Group 1321317138">
<path id="Vector" fill-rule="evenodd" clip-rule="evenodd" d="M7.37778 6.85226C7.37778 7.29801 7.22481 7.62576 6.9189 7.83989C6.67418 8.01032 6.25466 8.18513 5.66908 8.36868C5.07913 8.55222 4.66835 8.727 4.4411 8.89743C3.99536 9.20333 3.77688 9.72337 3.77688 10.4619V14.2332C3.77688 15.3389 3.23062 15.8895 2.13812 15.8895C1.80599 15.8895 1.48698 15.719 1.18108 15.3826C0.936358 15.1072 0.818359 14.7401 0.818359 14.2769V7.05329C0.818359 6.59444 0.953831 6.21423 1.22914 5.9127C1.50446 5.61554 1.86278 5.4626 2.30415 5.4626C3.06454 5.4626 3.56273 5.77288 3.78997 6.39779C4.41489 5.6243 5.14033 5.23535 5.96189 5.23535C6.35957 5.23535 6.69168 5.40141 6.96699 5.72917C7.23794 6.06566 7.37778 6.43711 7.37778 6.85226Z" fill="#5B5B5B"/>
<path id="Vector_2" fill-rule="evenodd" clip-rule="evenodd" d="M17.2001 14.3503C17.2001 14.7348 17.0689 15.0888 16.8111 15.4078C16.5533 15.7312 16.2299 15.8885 15.8497 15.8885C15.085 15.8885 14.5824 15.5695 14.3421 14.9315C13.7477 15.6788 12.9 16.0502 11.8031 16.0502C9.95893 16.0502 8.61732 15.1325 7.77827 13.2971C7.36749 12.3925 7.16211 11.5141 7.16211 10.6576C7.16211 8.59061 7.93122 7.0305 9.47385 5.97732C10.1905 5.48788 10.9465 5.24316 11.7375 5.24316C12.8213 5.24316 13.6909 5.63208 14.3464 6.40558C14.5912 5.78503 15.05 5.47041 15.7186 5.47041C16.16 5.47041 16.5183 5.61898 16.7936 5.92051C17.069 6.22204 17.2044 6.59786 17.2044 7.06108V14.3503H17.2001ZM14.2372 10.6576C14.2372 9.95842 14.0667 9.38157 13.7302 8.92709C13.3632 8.41143 12.8388 8.15359 12.1658 8.15359C11.5059 8.15359 10.9859 8.42452 10.6013 8.97078C10.2779 9.45585 10.1163 10.0414 10.1163 10.7232C10.1163 11.3743 10.2867 11.9293 10.6232 12.3838C11.0208 12.8863 11.5365 13.1354 12.1658 13.1354C12.8388 13.1354 13.3632 12.8863 13.7302 12.3838C14.0711 11.9337 14.2372 11.3568 14.2372 10.6576Z" fill="#5B5B5B"/>
<path id="Vector_3" fill-rule="evenodd" clip-rule="evenodd" d="M27.289 12.087C27.289 13.3761 26.8302 14.3856 25.9168 15.1067C25.0778 15.736 23.994 16.0506 22.6699 16.0506C21.3458 16.0506 20.262 15.7272 19.423 15.0848C18.5096 14.3769 18.0508 13.3805 18.0508 12.087V6.96971C18.0508 6.54145 18.1906 6.16998 18.4703 5.86408C18.75 5.55818 19.104 5.40086 19.5279 5.40086C19.9692 5.40086 20.3232 5.54945 20.5985 5.85098C20.8738 6.15251 21.0093 6.52397 21.0093 6.96971V11.6325C21.0093 12.1263 21.1622 12.524 21.4681 12.8343C21.774 13.1402 22.1673 13.2975 22.6568 13.2975C23.1462 13.2975 23.5439 13.1445 23.8585 12.8343C24.1688 12.5284 24.3261 12.1263 24.3261 11.6325V6.96971C24.3261 6.53708 24.4616 6.16998 24.7282 5.85971C24.9947 5.5538 25.3444 5.39648 25.7726 5.39648C26.2184 5.39648 26.5811 5.54508 26.8607 5.84661C27.1448 6.14377 27.2847 6.51959 27.2847 6.96533V12.087H27.289Z" fill="#5B5B5B"/>
<path id="Vector_4" fill-rule="evenodd" clip-rule="evenodd" d="M43.4147 14.3498C43.4147 14.7955 43.2793 15.1626 43.004 15.4554C42.7286 15.7482 42.3747 15.8924 41.9333 15.8924C41.5094 15.8924 41.1554 15.7482 40.8758 15.4554C40.5961 15.1626 40.4562 14.7955 40.4562 14.3542V9.61709C40.4562 9.11017 40.3339 8.69937 40.0935 8.37599C39.8182 7.99143 39.4468 7.80352 38.9792 7.80352C38.5072 7.80352 38.1445 7.98269 37.8867 8.3454C37.6288 8.70374 37.4977 9.13202 37.4977 9.62146V14.3586C37.4977 14.8043 37.3623 15.1714 37.0869 15.4598C36.8116 15.7526 36.4577 15.8968 36.0163 15.8968C35.5924 15.8968 35.2384 15.7526 34.9587 15.4598C34.6791 15.167 34.5392 14.7999 34.5392 14.3586V9.62146C34.5392 9.13202 34.4081 8.70374 34.1459 8.3454C33.8837 7.98706 33.5166 7.80352 33.0359 7.80352C32.5596 7.80352 32.1838 7.98269 31.9172 8.3454C31.6463 8.70374 31.5152 9.13202 31.5152 9.62146V14.3586C31.5152 14.8043 31.3797 15.1714 31.1044 15.4598C30.8291 15.7526 30.4751 15.8968 30.0337 15.8968C29.6098 15.8968 29.2559 15.7526 28.9762 15.4598C28.6965 15.167 28.5566 14.7999 28.5566 14.3498V6.98196C28.5566 6.54932 28.7008 6.18225 28.9893 5.87198C29.2777 5.56608 29.6273 5.40876 30.0381 5.40876C30.7985 5.40876 31.2923 5.74087 31.5239 6.40948C32.0396 5.63599 32.9005 5.24707 34.1066 5.24707C35.3258 5.24707 36.2392 5.66659 36.8466 6.50126C37.5021 6.04678 37.9653 5.74961 38.2406 5.61414C38.7432 5.36942 39.2851 5.25144 39.8619 5.25144C40.9413 5.25144 41.8066 5.57045 42.4534 6.20411C43.1001 6.84213 43.4235 7.70302 43.4235 8.79115V14.3498H43.4147Z" fill="#5B5B5B"/>
<path id="Vector_5" d="M54.6815 10.6534C54.6815 12.7379 53.908 14.3067 52.3653 15.3643C51.6793 15.8231 50.9451 16.0547 50.1628 16.0547C49.1708 16.0547 48.3143 15.7794 47.5976 15.2332V18.55C47.5976 18.9783 47.4622 19.3279 47.1868 19.5988C46.9115 19.8654 46.5663 20.0009 46.1381 20.0009C45.6836 20.0009 45.3165 19.8567 45.0455 19.5639C44.7702 19.2711 44.6348 18.8952 44.6348 18.4364M44.6391 18.4364V7.00878C44.6391 6.59363 44.7746 6.2353 45.0499 5.9294C45.3252 5.62349 45.6661 5.47055 46.0812 5.47055C46.811 5.47055 47.2917 5.7808 47.5233 6.40571C48.1046 5.65407 48.9349 5.27827 50.0186 5.27827C51.3908 5.27827 52.527 5.83761 53.4273 6.95634C54.2663 8.01388 54.6858 9.24624 54.6858 10.6578M58.4746 14.3504C58.4746 14.7961 58.3392 15.1632 58.0639 15.456C57.7885 15.7488 57.4433 15.893 57.015 15.893C56.5737 15.893 56.2153 15.7488 55.9313 15.456C55.6516 15.1632 55.5117 14.7961 55.5117 14.3504V2.56447C55.5117 2.11873 55.6516 1.74729 55.9313 1.45012C56.211 1.14859 56.5737 1 57.015 1C57.4389 1 57.7885 1.15295 58.0639 1.45885C58.3392 1.76475 58.4746 2.13621 58.4746 2.56447V14.3461M62.6786 6.96946C62.6786 6.52372 62.5431 6.15227 62.2678 5.85074C61.9925 5.54921 61.6385 5.40061 61.1972 5.40061C60.7733 5.40061 60.4193 5.55793 60.1396 5.86383C59.8599 6.16974 59.7201 6.5412 59.7201 6.96946V12.0867C59.7201 13.3803 60.1789 14.3767 61.0923 15.0846C61.9313 15.727 63.0151 16.0504 64.3392 16.0504C65.6633 16.0504 66.7471 15.7357 67.5862 15.1064C68.4995 14.3854 68.9584 13.3759 68.9584 12.0867V6.96946M62.6786 6.97384V11.6366C62.6786 12.1305 62.8316 12.5281 63.1375 12.8384C63.4434 13.1443 63.8367 13.3016 64.3261 13.3016C64.8156 13.3016 65.2132 13.1487 65.5279 12.8384C65.8381 12.5325 65.9955 12.1305 65.9955 11.6366V6.97384C65.9955 6.5412 66.1309 6.17411 66.3975 5.86383C66.6641 5.55793 67.0137 5.40061 67.4419 5.40061C67.8877 5.40061 68.2504 5.54921 68.5301 5.85074C68.8141 6.1479 68.954 6.52372 68.954 6.96946M51.7186 10.6403C51.7186 9.96728 51.5525 9.39481 51.216 8.92285C50.8358 8.38971 50.3245 8.12313 49.6821 8.12313C49.0266 8.12313 48.5066 8.38971 48.1264 8.92285C47.7768 9.39481 47.602 9.97165 47.602 10.6403C47.602 11.3438 47.7681 11.9251 48.1046 12.3796C48.4848 12.8821 49.0135 13.1356 49.6821 13.1356C50.3376 13.1356 50.8489 12.8777 51.216 12.3577C51.5525 11.9032 51.7186 11.3307 51.7186 10.6403ZM77.4012 12.7204C77.4012 13.7474 77.0123 14.5733 76.2344 15.2026C75.5003 15.7707 74.6132 16.0547 73.5775 16.0547C72.7078 16.0547 71.895 15.9149 71.1477 15.6396C70.1251 15.2725 69.6139 14.7219 69.6139 13.9877C69.6139 13.6075 69.7187 13.271 69.9329 12.9782C70.147 12.6898 70.4354 12.5412 70.8025 12.5412C71.1521 12.5412 71.6328 12.6898 72.2359 12.987C72.8389 13.2841 73.3021 13.4327 73.6211 13.4327C74.233 13.4327 74.5388 13.2317 74.5388 12.8384C74.5388 12.6417 74.4733 12.4888 74.3422 12.3796C74.2111 12.2703 73.8746 12.113 73.324 11.8988C72.2577 11.4706 71.6022 11.1865 71.3575 11.051C70.5927 10.6228 70.1295 10.1202 69.9634 9.53904C69.9023 9.28121 69.8717 8.98841 69.8717 8.66503C69.8717 7.65556 70.2693 6.82087 71.0603 6.16537C71.8076 5.55356 72.6991 5.24767 73.7348 5.24767C74.4952 5.24767 75.2119 5.41809 75.8848 5.75021C76.7239 6.14788 77.1434 6.68978 77.1434 7.37587C77.1434 7.74295 77.0298 8.04884 76.8025 8.29356C76.5753 8.53829 76.2781 8.66066 75.9154 8.66066C75.7494 8.66066 75.3866 8.53393 74.8317 8.28047C74.2767 8.02701 73.8484 7.90028 73.5425 7.90028C73.0269 7.90028 72.769 8.1144 72.769 8.54266C72.769 8.81797 73.1711 9.11076 73.9795 9.41666C75.0895 9.84493 75.8368 10.1902 76.217 10.4524C77.0079 11.0292 77.4012 11.7852 77.4012 12.7204Z" stroke="#5B5B5B" stroke-width="0.785913" stroke-miterlimit="2.6131"/>
<path id="Vector_6" d="M0.78125 17.6191H42.9258V18.9083H0.78125V17.6191ZM48.8472 17.6191H76.9858V18.9126H48.8472V17.6191Z" fill="#5B5B5B"/>
<path id="Vector_7" fill-rule="evenodd" clip-rule="evenodd" d="M0.597656 21.2725H2.56417V21.6701H1.074V22.885H2.45054V23.2783H1.074V24.9345H0.597656V21.2725Z" fill="#5B5B5B"/>
<path id="Vector_8" fill-rule="evenodd" clip-rule="evenodd" d="M4.62724 24.9963C3.92367 24.9963 3.37305 24.4762 3.37305 23.6415C3.37305 22.7588 3.9499 22.2432 4.67096 22.2432C5.4226 22.2432 5.92953 22.7938 5.92953 23.5935C5.92953 24.5724 5.25216 24.9963 4.63162 24.9963H4.62724ZM4.64911 24.6379C5.1036 24.6379 5.44446 24.2096 5.44446 23.611C5.44446 23.1652 5.22157 22.6059 4.66221 22.6059C4.10722 22.6059 3.86249 23.1259 3.86249 23.6285C3.86249 24.2053 4.18589 24.6379 4.64474 24.6379H4.64911Z" fill="#5B5B5B"/>
<path id="Vector_9" fill-rule="evenodd" clip-rule="evenodd" d="M7.03942 23.1259C7.03942 22.8156 7.03506 22.549 7.01758 22.3043H7.43274L7.45458 22.82H7.47205C7.59004 22.466 7.88285 22.2432 8.20187 22.2432C8.24994 22.2432 8.28926 22.2475 8.33296 22.2519V22.702C8.28489 22.6976 8.23682 22.6889 8.17127 22.6889C7.83478 22.6889 7.59879 22.9424 7.53324 23.2963C7.5245 23.3662 7.51577 23.4449 7.51577 23.5192V24.9263H7.03942V23.1259Z" fill="#5B5B5B"/>
<path id="Vector_10" fill-rule="evenodd" clip-rule="evenodd" d="M9.3363 23.0166C9.3363 22.7413 9.32756 22.5228 9.31445 22.3043H9.72961L9.75146 22.7282H9.76893C9.91314 22.4791 10.1579 22.2432 10.5949 22.2432C10.9445 22.2432 11.2154 22.4616 11.329 22.7719H11.3378C11.4208 22.619 11.5257 22.5097 11.6349 22.4311C11.7923 22.3131 11.9583 22.2475 12.2074 22.2475C12.557 22.2475 13.0727 22.4748 13.0727 23.3881V24.9395H12.6138V23.4493C12.6138 22.938 12.4259 22.6408 12.0457 22.6408C11.7704 22.6408 11.565 22.8418 11.4776 23.0691C11.4558 23.139 11.4383 23.2264 11.4383 23.3094V24.9395H10.9751V23.3575C10.9751 22.938 10.7915 22.6408 10.4288 22.6408C10.136 22.6408 9.91315 22.8812 9.83886 23.1215C9.81264 23.1914 9.79952 23.2745 9.79952 23.3531V24.9395H9.3363V23.0166Z" fill="#5B5B5B"/>
<path id="Vector_11" fill-rule="evenodd" clip-rule="evenodd" d="M16.198 24.3049C16.198 24.5321 16.2067 24.755 16.2373 24.9342H15.809L15.7654 24.602H15.7479C15.608 24.8074 15.3196 24.9954 14.9482 24.9954C14.4194 24.9954 14.1484 24.6195 14.1484 24.2393C14.1484 23.6013 14.7122 23.2561 15.7216 23.2605V23.208C15.7216 22.9895 15.6605 22.5918 15.1273 22.6006C14.8782 22.6006 14.6248 22.6705 14.4412 22.7972L14.332 22.4782C14.5461 22.3428 14.8651 22.251 15.1972 22.251C16.0013 22.251 16.198 22.8016 16.198 23.326V24.3049ZM15.7348 23.5926C15.2147 23.5838 14.6248 23.6756 14.6248 24.1869C14.6248 24.5015 14.8302 24.6458 15.0661 24.6458C15.4114 24.6458 15.6343 24.4273 15.7085 24.2044C15.726 24.1563 15.7304 24.0995 15.7304 24.0514V23.5926H15.7348Z" fill="#5B5B5B"/>
<path id="Vector_12" fill-rule="evenodd" clip-rule="evenodd" d="M20.7954 21.3204C21.0226 21.2767 21.3198 21.2461 21.7 21.2461C22.1632 21.2461 22.5041 21.3553 22.7226 21.552C22.9236 21.7268 23.0459 21.9934 23.0459 22.3124C23.0459 22.6445 22.9498 22.9067 22.7575 23.0946C22.5084 23.3612 22.102 23.4967 21.6431 23.4967C21.5033 23.4967 21.3722 23.4923 21.263 23.4661V24.9388H20.791V21.3204H20.7954ZM21.2673 23.0771C21.3678 23.1034 21.499 23.1165 21.6563 23.1165C22.2244 23.1165 22.5696 22.8412 22.5696 22.3386C22.5696 21.8535 22.2287 21.6219 21.7087 21.6219C21.5033 21.6219 21.346 21.6394 21.2673 21.6613V23.0771Z" fill="#5B5B5B"/>
<path id="Vector_13" fill-rule="evenodd" clip-rule="evenodd" d="M24.0765 23.1259C24.0765 22.8156 24.0722 22.549 24.0547 22.3043H24.4698L24.4917 22.82H24.5092C24.6272 22.466 24.92 22.2432 25.239 22.2432C25.287 22.2432 25.3264 22.2475 25.3701 22.2519V22.702C25.322 22.6976 25.2739 22.6889 25.2084 22.6889C24.8719 22.6889 24.6359 22.9424 24.5703 23.2963C24.5616 23.3662 24.5529 23.4449 24.5529 23.5192V24.9263H24.0765V23.1259Z" fill="#5B5B5B"/>
<path id="Vector_14" fill-rule="evenodd" clip-rule="evenodd" d="M28.1726 24.3049C28.1726 24.5321 28.1813 24.755 28.2119 24.9342H27.7837L27.74 24.602H27.7225C27.5827 24.8074 27.2942 24.9954 26.9228 24.9954C26.394 24.9954 26.123 24.6195 26.123 24.2393C26.123 23.6013 26.6868 23.2561 27.6963 23.2605V23.208C27.6963 22.9895 27.6351 22.5918 27.102 22.6006C26.8529 22.6006 26.5994 22.6705 26.4159 22.7972L26.3066 22.4782C26.5207 22.3428 26.8397 22.251 27.1719 22.251C27.9759 22.251 28.1726 22.8016 28.1726 23.326V24.3049ZM27.705 23.5926C27.185 23.5838 26.595 23.6756 26.595 24.1869C26.595 24.5015 26.8004 24.6458 27.0364 24.6458C27.3816 24.6458 27.6045 24.4273 27.6788 24.2044C27.6963 24.1563 27.7006 24.0995 27.7006 24.0514V23.5926H27.705Z" fill="#5B5B5B"/>
<path id="Vector_15" fill-rule="evenodd" clip-rule="evenodd" d="M29.9931 21.6738V22.3031H30.6749V22.6658H29.9931V24.0817C29.9931 24.4095 30.0849 24.593 30.3515 24.593C30.4826 24.593 30.5569 24.5843 30.6268 24.5624L30.6487 24.9251C30.5569 24.9557 30.4127 24.9907 30.2247 24.9907C30.0019 24.9907 29.8227 24.9164 29.7091 24.7897C29.578 24.6411 29.5256 24.4095 29.5256 24.0992V22.6702H29.1191V22.3075H29.5256V21.8224L29.9931 21.6738Z" fill="#5B5B5B"/>
<path id="Vector_16" fill-rule="evenodd" clip-rule="evenodd" d="M31.9486 21.8585C31.7738 21.8585 31.6602 21.723 31.6602 21.5657C31.6602 21.3953 31.7781 21.2686 31.9573 21.2686C32.1321 21.2686 32.2501 21.3997 32.2501 21.5657C32.2501 21.723 32.1365 21.8585 31.9529 21.8585H31.9486ZM31.7213 24.935V22.3042H32.1977V24.935H31.7213Z" fill="#5B5B5B"/>
<path id="Vector_17" fill-rule="evenodd" clip-rule="evenodd" d="M36.8105 21.2725H38.7727V21.6701H37.2869V22.885H38.6591V23.2783H37.2869V24.9345H36.8105V21.2725Z" fill="#5B5B5B"/>
<path id="Vector_18" fill-rule="evenodd" clip-rule="evenodd" d="M41.9432 24.2139C41.9432 24.4892 41.9476 24.7296 41.965 24.9394H41.5412L41.5149 24.5111H41.5062C41.3882 24.7252 41.1042 25.0005 40.6409 25.0005C40.2301 25.0005 39.7363 24.7646 39.7363 23.8468V22.3086H40.2127V23.7594C40.2127 24.2576 40.37 24.6029 40.7982 24.6029C41.1173 24.6029 41.3401 24.38 41.4275 24.1615C41.4537 24.0959 41.4712 24.0085 41.4712 23.9168V22.3086H41.9476V24.2139H41.9432Z" fill="#5B5B5B"/>
<path id="Vector_19" fill-rule="evenodd" clip-rule="evenodd" d="M43.2386 23.0166C43.2386 22.7413 43.2343 22.5228 43.2168 22.3043H43.6407L43.6669 22.7326H43.6756C43.8067 22.4879 44.1083 22.2432 44.5409 22.2432C44.9036 22.2432 45.4673 22.4617 45.4673 23.3619V24.9351H44.991V23.4187C44.991 22.9948 44.8337 22.6364 44.3836 22.6364C44.0777 22.6364 43.833 22.8593 43.7456 23.1259C43.7237 23.1871 43.715 23.2745 43.715 23.3488V24.9351H43.2386V23.0166Z" fill="#5B5B5B"/>
<path id="Vector_20" fill-rule="evenodd" clip-rule="evenodd" d="M47.2259 23.5103H47.2346C47.3001 23.4185 47.3876 23.3049 47.4618 23.2131L48.2354 22.3041H48.8035L47.794 23.3879L48.9477 24.9393H48.3708L47.475 23.6763L47.2303 23.9473V24.9349H46.7539V21.0762H47.2303V23.5103H47.2259Z" fill="#5B5B5B"/>
<path id="Vector_21" fill-rule="evenodd" clip-rule="evenodd" d="M51.6613 24.8385C51.539 24.8997 51.2593 24.9915 50.9097 24.9915C50.1187 24.9915 49.6074 24.4539 49.6074 23.6499C49.6074 22.8414 50.158 22.2471 51.0146 22.2471C51.2942 22.2471 51.5433 22.317 51.6744 22.3869L51.5652 22.7496C51.4516 22.6885 51.2724 22.6229 51.0146 22.6229C50.4159 22.6229 50.0881 23.073 50.0881 23.6193C50.0881 24.2267 50.4771 24.6025 50.9971 24.6025C51.268 24.6025 51.4472 24.537 51.5827 24.4758L51.6613 24.8385Z" fill="#5B5B5B"/>
<path id="Vector_22" fill-rule="evenodd" clip-rule="evenodd" d="M52.9544 21.8585C52.7796 21.8585 52.666 21.723 52.666 21.5657C52.666 21.3953 52.784 21.2686 52.9632 21.2686C53.138 21.2686 53.256 21.3997 53.256 21.5657C53.256 21.723 53.1423 21.8585 52.9588 21.8585H52.9544ZM52.7272 24.935V22.3042H53.2035V24.935H52.7272Z" fill="#5B5B5B"/>
<path id="Vector_23" fill-rule="evenodd" clip-rule="evenodd" d="M55.5628 24.9963C54.8592 24.9963 54.3086 24.4762 54.3086 23.6415C54.3086 22.7588 54.8855 22.2432 55.6065 22.2432C56.3582 22.2432 56.8651 22.7938 56.8651 23.5935C56.8651 24.5724 56.1877 24.9963 55.5672 24.9963H55.5628ZM55.5847 24.6379C56.0391 24.6379 56.38 24.2096 56.38 23.611C56.38 23.1652 56.1571 22.6059 55.5978 22.6059C55.0428 22.6059 54.7981 23.1259 54.7981 23.6285C54.7981 24.2053 55.1214 24.6379 55.5803 24.6379H55.5847Z" fill="#5B5B5B"/>
<path id="Vector_24" fill-rule="evenodd" clip-rule="evenodd" d="M57.975 23.0166C57.975 22.7413 57.9706 22.5228 57.9531 22.3043H58.3727L58.3989 22.7326H58.4076C58.5387 22.4879 58.8402 22.2432 59.2729 22.2432C59.6356 22.2432 60.1993 22.4617 60.1993 23.3619V24.9351H59.723V23.4187C59.723 22.9948 59.5657 22.6364 59.1155 22.6364C58.8053 22.6364 58.5649 22.8593 58.4775 23.1259C58.4557 23.1871 58.4469 23.2745 58.4469 23.3488V24.9351H57.9706V23.0166H57.975Z" fill="#5B5B5B"/>
<path id="Vector_25" fill-rule="evenodd" clip-rule="evenodd" d="M63.3288 24.3049C63.3288 24.5321 63.3376 24.755 63.3682 24.9342H62.9399L62.8962 24.602H62.8787C62.7389 24.8074 62.4505 24.9954 62.079 24.9954C61.5502 24.9954 61.2793 24.6195 61.2793 24.2393C61.2793 23.6013 61.843 23.2561 62.8525 23.2605V23.208C62.8525 22.9895 62.7913 22.5918 62.2582 22.6006C62.0091 22.6006 61.7556 22.6705 61.5721 22.7972L61.4629 22.4782C61.677 22.3428 61.996 22.251 62.3281 22.251C63.1322 22.251 63.3288 22.8016 63.3288 23.326V24.3049ZM62.8656 23.5926C62.3456 23.5838 61.7556 23.6756 61.7556 24.1869C61.7556 24.5015 61.961 24.6458 62.197 24.6458C62.5423 24.6458 62.7651 24.4273 62.8394 24.2044C62.8569 24.1563 62.8612 24.0995 62.8612 24.0514V23.5926H62.8656Z" fill="#5B5B5B"/>
<path id="Vector_26" fill-rule="evenodd" clip-rule="evenodd" d="M64.6016 21.0762H65.0779V24.9349H64.6016V21.0762Z" fill="#5B5B5B"/>
<path id="Vector_27" fill-rule="evenodd" clip-rule="evenodd" d="M66.3851 23.0166C66.3851 22.7413 66.3808 22.5228 66.3633 22.3043H66.7872L66.8134 22.7326H66.8221C66.9532 22.4879 67.2548 22.2432 67.6874 22.2432C68.0501 22.2432 68.6139 22.4617 68.6139 23.3619V24.9351H68.1375V23.4187C68.1375 22.9948 67.9802 22.6364 67.5301 22.6364C67.2198 22.6364 66.9795 22.8593 66.8921 23.1259C66.8702 23.1871 66.8615 23.2745 66.8615 23.3488V24.9351H66.3851V23.0166Z" fill="#5B5B5B"/>
<path id="Vector_28" fill-rule="evenodd" clip-rule="evenodd" d="M70.9593 24.9963C70.2557 24.9963 69.7051 24.4762 69.7051 23.6415C69.7051 22.7588 70.2819 22.2432 71.003 22.2432C71.7546 22.2432 72.2615 22.7938 72.2615 23.5935C72.2615 24.5724 71.5842 24.9963 70.9636 24.9963H70.9593ZM70.9811 24.6379C71.4356 24.6379 71.7765 24.2096 71.7765 23.611C71.7765 23.1652 71.5536 22.6059 70.9942 22.6059C70.4392 22.6059 70.1945 23.1259 70.1945 23.6285C70.1945 24.2053 70.5179 24.6379 70.9768 24.6379H70.9811Z" fill="#5B5B5B"/>
<path id="Vector_29" fill-rule="evenodd" clip-rule="evenodd" d="M73.3065 24.4442C73.4507 24.5316 73.6998 24.6277 73.9401 24.6277C74.281 24.6277 74.4427 24.4573 74.4427 24.2344C74.4427 24.0072 74.3073 23.8848 73.962 23.7537C73.4857 23.5789 73.2628 23.3211 73.2628 23.0108C73.2628 22.5869 73.608 22.2373 74.1674 22.2373C74.434 22.2373 74.6656 22.3072 74.8055 22.399L74.6918 22.7398C74.587 22.6787 74.399 22.5869 74.1587 22.5869C73.879 22.5869 73.726 22.7486 73.726 22.9452C73.726 23.1637 73.879 23.2599 74.2198 23.3953C74.67 23.5658 74.906 23.793 74.906 24.1819C74.906 24.6495 74.5433 24.9773 73.9315 24.9773C73.643 24.9773 73.3808 24.903 73.1973 24.7938L73.3065 24.4442Z" fill="#5B5B5B"/>
<path id="Vector_30" fill-rule="evenodd" clip-rule="evenodd" d="M76.5962 21.6738V22.3031H77.2779V22.6658H76.5962V24.0817C76.5962 24.4095 76.6879 24.593 76.9545 24.593C77.0856 24.593 77.1599 24.5843 77.2298 24.5624L77.2517 24.9251C77.1599 24.9557 77.0157 24.9907 76.8321 24.9907C76.6093 24.9907 76.4301 24.9164 76.3165 24.7897C76.1854 24.6411 76.1329 24.4095 76.1329 24.0992V22.6702H75.7266V22.3075H76.1329V21.8224L76.5962 21.6738Z" fill="#5B5B5B"/>
</g>
</g>
</svg>
