<svg width="90" height="24" viewBox="0 0 90 24" fill="none" xmlns="http://www.w3.org/2000/svg">
<g id="Group">
<g id="Group_2">
<path id="Vector" d="M26.7949 23.3376H33.568L41.449 1.13281H34.6481L26.7949 23.3376Z" fill="#BCA584"/>
<path id="Vector_2" d="M53.8926 23.3357H60.6101L64.1162 13.5584C65.5182 11.2012 68.3234 11.7343 67.804 13.7969L64.4384 23.3357H71.4496L74.7739 14.0068C75.6574 11.6645 79.3313 11.5244 78.5321 14.2875L75.4047 23.3357H82.1781L85.9645 12.6042C87.2266 8.95692 82.7679 4.07573 75.0961 9.44815C74.1851 6.9936 70.3977 5.45015 65.3498 9.02732L65.6863 7.56855H59.3898L53.8926 23.3357Z" fill="#BCA584"/>
<path id="Vector_3" d="M86.085 1.41692C86.2813 0.715752 86.9263 0.211205 87.6976 0.211205C88.6232 0.211205 89.3808 0.968183 89.3808 1.89387C89.3808 2.83383 88.6232 3.57717 87.6976 3.57717C86.7583 3.57717 86.0007 2.83383 86.0007 1.89387C86.0007 1.7258 86.0289 1.57136 86.085 1.41692L85.8884 1.3332C85.8329 1.51554 85.8047 1.69789 85.8047 1.89387C85.8047 2.94609 86.6457 3.78743 87.6979 3.78743C88.7358 3.78743 89.5914 2.94578 89.5914 1.89387C89.5914 0.855921 88.7358 0 87.6979 0C86.8423 0 86.1269 0.561312 85.8887 1.33288L86.085 1.41692Z" fill="#BCA584"/>
<path id="Vector_4" d="M87.3598 1.85154H87.2894V1.28991H88.0756C88.4257 1.38853 88.2712 1.85154 88.0045 1.85154H87.3598V2.04784H87.8228C88.4111 2.13219 88.1171 2.66528 88.2573 2.83368H88.4539C88.2998 2.6231 88.5658 2.20228 88.1875 2.00598C88.6924 1.78177 88.4818 1.06602 88.0048 1.08029H87.0938V2.82004H87.2761V2.04816H87.3598V1.85154Z" fill="#BCA584"/>
<path id="Vector_5" d="M47.0147 7.55371H40.6619L36.917 18.0464C35.0517 23.9659 41.0123 25.9302 46.6919 21.8335L46.3132 23.3351H52.3715L57.9528 7.56766H51.4744L48.1643 16.5737C47.393 18.7761 43.0878 20.0098 43.7465 16.6438L47.0147 7.55371Z" fill="#BCA584"/>
<path id="Vector_6" d="M10.9736 11.4765L6.80859 23.33H13.1894L13.9187 21.5763C14.3113 24.2414 23.1041 26.4857 27.8019 17.0173C31.4897 10.1861 27.2828 3.41074 18.8966 8.39024L21.4211 1.09668H14.6199L10.9736 11.4765L17.8171 12.6686C19.0091 11.5466 20.3693 11.1819 21.4633 11.8973C22.7537 12.739 22.5431 15.1935 21.2106 16.8489C19.9484 18.4057 17.929 19.1909 16.7649 18.42C15.5031 17.5783 15.5735 15.6565 16.835 13.8327C17.1435 13.384 17.466 12.9914 17.8171 12.6686L10.9736 11.4765Z" fill="#BCA584"/>
<path id="Vector_7" d="M4.66268 14.3477C4.66268 14.3477 5.14311 13.1515 6.01773 13.7746L7.26147 14.8161C7.26147 14.8161 7.89666 15.3013 7.74825 14.3765L7.00524 7.9871C7.00524 7.9871 6.87046 6.97833 6.17502 7.65761L1.72679 12.1567C1.72679 12.1567 1.11474 12.7376 1.56442 12.8315L3.35932 12.8163C3.35932 12.8163 4.62114 12.8052 4.10296 14.4089L0.997412 23.3429L0.408203 23.348L3.58257 14.2589C3.58257 14.2589 3.79885 13.3449 3.18236 13.3931L1.45787 13.422C0.587692 13.4157 0.552175 12.4763 1.13599 11.9236L5.93179 7.08457C6.52956 6.46205 7.45809 6.80486 7.5491 7.64556C7.72986 9.0888 8.3679 14.6658 8.3679 14.6658C8.48778 15.5626 7.57954 15.9355 6.95704 15.3235L5.99648 14.5322C5.99648 14.5322 5.38793 13.878 5.12853 14.7225L2.11874 23.3331L1.54349 23.3385L4.66268 14.3477Z" fill="#BCA584"/>
</g>
</g>
</svg>
