<svg width="172" height="24" viewBox="0 0 172 24" fill="none" xmlns="http://www.w3.org/2000/svg">
<g id="Kesseboehmer 1" clip-path="url(#clip0_2193_768)">
<path id="Vector" fill-rule="evenodd" clip-rule="evenodd" d="M3.50985 21.4352C1.67952 19.6199 0.746516 16.169 0.666016 12.6695V11.8659C0.731682 8.36838 1.67952 4.91372 3.50985 3.08338C6.92702 -0.333784 22.0042 -0.333784 25.4232 3.08338C29.1962 6.87322 29.1962 17.6624 25.4232 21.4354C22.0042 24.8562 6.92702 24.8562 3.50985 21.4352Z" fill="#5B5B5B"/>
<path id="Vector_2" fill-rule="evenodd" clip-rule="evenodd" d="M56.6345 8.02863H50.1975L50.2442 8.1578V10.5501L50.1975 10.7113H56.2187V13.5046H50.1975L50.278 13.6321V16.2325L50.1825 16.3936H56.6345V19.4135H49.4594C48.2547 19.4135 47.1794 18.4805 47.1794 17.068V7.3543C47.1794 5.8293 48.3034 5.01047 49.4594 5.01047H56.6345V8.02863ZM91.0585 8.02863H84.6177L84.6834 8.1578V10.5501L84.6365 10.7113H90.6559V13.5046H84.6365L84.6834 13.6321V16.2325L84.6029 16.3936H91.0587V19.4135H83.8815C82.6769 19.4135 81.6015 18.4805 81.6015 17.068V7.3543C81.6015 5.8293 82.7575 5.01047 83.8815 5.01047H91.0587V8.02863H91.0585ZM96.3884 16.3935L96.484 16.2173V13.6003L96.4202 13.4878H99.2135C99.9517 13.4878 100.643 13.9056 100.643 14.981C100.643 16.0076 99.9047 16.3936 99.1815 16.3936L96.3884 16.3935ZM98.749 8.02863C99.4852 8.02863 100.113 8.51013 100.113 9.29697C100.113 10.245 99.4852 10.7113 98.749 10.7113H96.4202L96.484 10.5651V8.1428L96.4052 8.02847L98.749 8.02863ZM101.816 11.8355C101.816 11.8355 103.644 12.6861 103.644 15.2395C103.644 17.9505 101.767 19.4135 99.4234 19.4135H93.3854V5.01063H98.749C101.093 5.01063 102.972 6.6163 102.972 9.13597C102.972 10.0838 102.505 11 101.816 11.8355ZM62.1572 13.3755C59.5889 13.0383 58.2249 11.5938 58.2249 9.16963C58.1444 6.4083 60.1359 4.9938 62.8485 4.9938H67.2324V7.88613H62.736C61.6289 7.88613 61.1624 8.33397 61.1624 9.15263C61.1624 10.2768 62.0149 10.4846 63.6017 10.6458C67.1519 11 68.5644 12.3318 68.5644 15.1588C68.5644 17.999 66.348 19.4133 64.0532 19.4133H58.4649V16.3935H63.6205C64.4692 16.3935 65.434 15.9438 65.434 15.0128C65.434 14.3383 65.0969 13.9691 64.5347 13.7613C63.9877 13.5683 63.345 13.5366 62.1572 13.3755ZM73.4934 13.3755C70.925 13.0383 69.5594 11.5938 69.5594 9.16963C69.4789 6.4083 71.4702 4.9938 74.1847 4.9938H78.5837V7.88613H74.0705C72.9652 7.88613 72.5137 8.33397 72.5137 9.15263C72.5137 10.2768 73.3474 10.4846 74.938 10.6458C78.4882 11 79.9155 12.3318 79.9155 15.1588C79.9155 17.999 77.6675 19.4133 75.3875 19.4133H69.8009V16.3935H74.9547C75.8054 16.3935 76.7682 15.9438 76.7682 15.0128C76.7682 14.3383 76.431 13.9691 75.8689 13.7613C75.2919 13.5683 74.6962 13.5366 73.4934 13.3755ZM108.429 13.9861V10.436C108.429 8.87913 109.65 7.46663 111.046 7.46663C112.524 7.46663 113.744 8.8793 113.744 10.436V13.9861C113.744 15.526 112.524 16.7308 111.046 16.7308C109.65 16.7308 108.429 15.526 108.429 13.9861ZM113.229 3.51747C112.363 3.51747 111.64 2.7793 111.64 1.83147C111.64 0.900466 112.363 0.0986328 113.229 0.0986328C114.162 0.0986328 114.915 0.900633 114.915 1.83147C114.915 2.7793 114.162 3.51747 113.229 3.51747ZM108.879 3.51747C107.947 3.51747 107.194 2.7793 107.194 1.83147C107.194 0.900466 107.948 0.0986328 108.879 0.0986328C109.827 0.0986328 110.501 0.900633 110.501 1.83147C110.501 2.7793 109.827 3.51747 108.879 3.51747ZM116.794 13.9861C116.794 17.2608 114.272 19.9416 111.046 19.9416C107.882 19.9416 105.362 17.2608 105.362 13.9861V10.436C105.362 7.1463 107.882 4.46547 111.046 4.46547C114.272 4.46547 116.794 7.1463 116.794 10.436V13.9861ZM42.7955 19.4135L38.6365 12.718V19.4135H35.5547V5.01063H38.6365V10.9195L42.668 5.01063H46.1845L41.6714 11.8355L41.8157 11.8655L46.5517 19.4135H42.7955ZM168.654 13.1993L169.055 13.4876L171.333 19.4135H167.85L165.538 13.4878H163.227L163.29 13.6003V19.4135H160.224V5.01063H166.181C168.588 5.01063 170.546 6.79213 170.546 9.3458C170.546 10.7413 169.712 12.3956 168.654 13.1993ZM163.258 10.7115L163.29 10.5971V8.12613L163.258 8.02863H166.181C166.902 8.02863 167.511 8.59063 167.511 9.37763C167.511 10.1325 166.902 10.7115 166.181 10.7115H163.258ZM126.571 5.01063H129.655V19.4135H126.571V13.649L126.686 13.4878H122.028L122.107 13.649V19.4135H119.027V5.01063H122.107V10.5336L122.028 10.7115H126.669L126.571 10.5503L126.571 5.01063ZM157.88 8.02863H151.458L151.521 8.1578V10.5501L151.475 10.7113H157.479V13.5046H151.475L151.521 13.6321V16.2325L151.426 16.3936H157.88V19.4135H150.703C149.498 19.4135 148.44 18.4805 148.44 17.068V7.3543C148.44 5.8293 149.579 5.01047 150.703 5.01047H157.88V8.02863H157.88ZM135.402 8.78363L137.827 19.4133H140.219L142.692 8.78363V19.4133H145.774V5.01063H141.118L139.08 14.597L139.014 14.9811L138.966 14.597L136.928 5.01063H132.304V19.4135H135.403L135.402 8.78363Z" fill="#5B5B5B"/>
<path id="Vector_3" fill-rule="evenodd" clip-rule="evenodd" d="M16.2889 5.87775C20.6709 5.70175 24.6069 4.91309 24.6069 4.91309L20.9126 11.7379H13.3984L16.2889 5.87775Z" fill="white"/>
<path id="Vector_4" fill-rule="evenodd" clip-rule="evenodd" d="M12.742 18.6895C10.1416 18.817 7.3803 18.817 4.98596 19.4765C6.36663 15.1245 6.22446 9.34499 4.8418 4.78516C7.3803 5.28349 10.0611 5.65249 12.742 5.65249V18.6895Z" fill="white"/>
<path id="Vector_5" fill-rule="evenodd" clip-rule="evenodd" d="M16.434 18.7546L13.3184 12.5254H20.9769C20.9769 12.5254 23.4499 17.1641 24.4614 19.4759C21.8444 19.1217 19.9504 18.6554 16.434 18.7546Z" fill="white"/>
</g>
<defs>
<clipPath id="clip0_2193_768">
<rect width="170.667" height="24" fill="white" transform="translate(0.666016)"/>
</clipPath>
</defs>
</svg>
