<svg width="112" height="24" viewBox="0 0 112 24" fill="none" xmlns="http://www.w3.org/2000/svg">
<g id="logo" clip-path="url(#clip0_2299_759)">
<path id="Vector" d="M49.3629 8.40686L42.9717 24H51.6098L57.9941 8.40686H49.3629ZM49.3013 0.144H43.6499L35.9572 18.9257V0.144H27.6068V23.9863H39.5329L47.4517 4.66286L49.3013 0.144ZM61.3781 0.144H52.8017L50.9384 4.66286H59.5285L61.3781 0.144ZM109.35 0.459429C108.856 0.253714 108.329 0.150857 107.795 0.150857H107.774L93.8135 0.144C92.1627 0.157714 90.683 1.152 90.046 2.67429L83.6959 18.1097C82.7985 20.2903 83.8329 22.7794 86.0112 23.6777C86.5387 23.8971 87.1004 24.0069 87.669 24H101.369C103.02 24 104.513 22.9989 105.137 21.4697L111.562 5.77371C112.419 3.696 111.425 1.30971 109.35 0.459429ZM102.808 6.53486L97.5126 19.4606H93.9094C93.1559 19.4469 92.5463 18.8229 92.56 18.0686C92.56 17.904 92.5942 17.7394 92.6559 17.5886L97.951 4.656H101.547C102.301 4.656 102.911 5.28 102.904 6.04114C102.904 6.21257 102.869 6.37714 102.808 6.53486ZM80.7709 8.67429C80.3461 8.51657 79.9009 8.42743 79.4488 8.41371H79.4214L78.113 8.42057L79.1542 5.91086L79.6748 4.57371C79.8118 4.21714 79.8803 3.83314 79.8803 3.44914C79.8803 1.68 78.4761 0.226286 76.7087 0.164571H64.8168L62.9673 4.67657H71.5368C72.2287 4.704 72.7836 5.27314 72.7836 5.96571C72.7836 6.10286 72.763 6.23314 72.7219 6.36343L72.3863 7.18629L72.3246 7.32343C72.0095 7.968 71.3587 8.37257 70.6463 8.37257H61.4397L55.0485 24H73.9344C77.154 24 80.0447 22.0114 81.2024 19.0011L83.2575 14.0709C84.0589 11.8903 82.9492 9.47657 80.7709 8.67429ZM73.9413 14.4891L73.9138 14.4754L72.8521 17.0949C72.3657 18.384 71.1327 19.2411 69.7558 19.2411H64.7757L66.1869 15.8126L67.3651 12.9326H72.8452C73.4891 12.9531 73.9961 13.4743 74.0029 14.1189C74.0029 14.2423 73.9824 14.3726 73.9413 14.4891ZM12.3789 13.3646L4.77526 8.96229V17.9109L12.3789 22.2857V13.3646ZM6.06994 17.7531L5.61098 17.4857V10.3817L6.06994 10.6491V17.7531ZM7.40572 18.5211L6.85771 18.2057V11.1086L7.40572 11.4171V18.5211ZM8.7278 19.2754L8.20034 18.9669V11.8766L8.7278 12.1851V19.2754ZM10.0704 20.0571L9.52242 19.7417V12.6446L10.0704 12.96V20.0571ZM11.4062 20.832L10.8582 20.5097V13.4126L11.4062 13.728V20.832ZM20.2361 8.74286L12.6118 4.36114V5.29371L18.5372 8.67429L18.0029 8.99657L12.6118 5.91771V6.82286L17.222 9.46286L16.6808 9.78514L12.6118 7.45371V8.37257L15.8931 10.2514L15.3519 10.5737L12.6118 9.00343V9.90857L14.5778 11.0331L14.0367 11.3554L12.6118 10.5394V13.1314L20.1402 8.79771L20.2361 8.74286ZM0.130859 23.8903H23.9968V0H0.130859V23.8903ZM12.6118 1.60457V3.888L20.832 8.61943V18.1371L20.4073 18.384L12.6118 22.8823L4.39165 18.1714V8.74286L2.33661 7.54971L12.6118 1.60457ZM12.8379 13.488V22.2857L20.3731 17.9314L20.4073 17.9109V9.11314L12.8721 13.488H12.8379ZM13.6531 13.8583L19.5579 10.464V11.0606L13.6531 14.4617V13.8583ZM13.6531 15.456L19.5579 12.0549V12.6857L13.6531 16.0869V15.456ZM13.6531 17.0606L19.5579 13.6594V14.2766L13.6531 17.6777V17.0606ZM13.6531 18.6514L19.5579 15.2503V15.8811L13.6531 19.2754V18.6514ZM13.6531 20.2423L19.5579 16.8411V17.472L13.6531 20.8731V20.2423Z" fill="#5B5B5B"/>
</g>
<defs>
<clipPath id="clip0_2299_759">
<rect width="112" height="24" fill="white"/>
</clipPath>
</defs>
</svg>
