<svg width="50" height="40" viewBox="0 0 50 40" fill="none" xmlns="http://www.w3.org/2000/svg">
<g id="Group 1321317141">
<path id="Vector" fill-rule="evenodd" clip-rule="evenodd" d="M2.23242 34.8981H3.8889V36.5104L5.36868 34.8981H7.29019L5.45703 36.7755L7.48897 39.8676H5.5012L4.28645 37.8798L3.8889 38.2994V39.8676H2.23242V34.8981ZM10.4706 34.7656C11.3099 34.7656 11.9946 35.0307 12.4805 35.5607C12.9001 36.0246 13.121 36.6209 13.121 37.3276C13.121 38.0786 12.9001 38.7191 12.4584 39.205C11.9725 39.7351 11.3099 40.0001 10.4927 40.0001C9.56509 40.0001 8.88041 39.713 8.4166 39.1387C8.01904 38.6749 7.82027 38.0565 7.82027 37.3276C7.82027 36.6209 8.04113 36.0025 8.46077 35.5386C8.94667 35.0307 9.60926 34.7656 10.4706 34.7656ZM10.4706 35.9804C10.1614 35.9804 9.91847 36.0908 9.74178 36.3338C9.56509 36.5767 9.47674 36.9301 9.47674 37.3718C9.47674 37.8356 9.56509 38.189 9.74178 38.432C9.91847 38.6749 10.1614 38.7853 10.4927 38.7853C10.824 38.7853 11.089 38.6528 11.2436 38.3878C11.3983 38.1448 11.4645 37.8356 11.4645 37.4381C11.4645 37.0184 11.3983 36.6651 11.2436 36.4221C11.067 36.1129 10.8019 35.9804 10.4706 35.9804ZM15.8155 34.8981L16.699 37.9902L17.6045 34.8981H19.5923V39.8676H18.0904L18.1346 37.5706L18.2229 36.6651L17.2732 39.8676H16.1247L15.2192 36.6651L15.2634 37.3718C15.2634 37.6148 15.2634 37.8356 15.2634 38.0786C15.2855 38.2994 15.2855 38.5424 15.2855 38.7633V39.8676H13.8057V34.8981H15.8155ZM21.8893 34.8981H23.5899L25.401 39.8676H23.7445L23.5457 39.205H21.8893L21.7126 39.8676H20.1003L21.8893 34.8981ZM22.1985 38.1669H23.2586L22.7285 36.4L22.1985 38.1669ZM25.9311 34.8981H27.4992L29.2882 37.6148L29.244 36.5104V34.8981H30.8342V39.8676H29.2661L27.4771 37.151L27.5213 38.2994V39.8676H25.9311V34.8981ZM31.7398 34.8981H33.9263C34.7656 34.8981 35.4061 35.0748 35.8699 35.4282C36.3558 35.8258 36.6209 36.4442 36.6209 37.2614C36.6209 38.189 36.3779 38.8737 35.8699 39.2933C35.4282 39.6688 34.7656 39.8676 33.9263 39.8676H31.7398V34.8981ZM33.4183 36.0466V38.7191H33.7717C34.1693 38.7191 34.4564 38.6087 34.6331 38.4099C34.8539 38.1669 34.9423 37.8135 34.9423 37.3276C34.9423 36.8638 34.854 36.5325 34.6773 36.3338C34.5006 36.1571 34.1693 36.0466 33.7055 36.0466H33.4183ZM39.6688 34.7656C40.5301 34.7656 41.1927 35.0307 41.6786 35.5607C42.1204 36.0246 42.3191 36.6209 42.3191 37.3276C42.3191 38.0786 42.0983 38.7191 41.6565 39.205C41.1706 39.7351 40.5301 40.0001 39.6909 40.0001C38.7632 40.0001 38.0786 39.713 37.6147 39.1387C37.2172 38.6749 37.0184 38.0565 37.0184 37.3276C37.0184 36.6209 37.2393 36.0025 37.6589 35.5386C38.1448 35.0307 38.8074 34.7656 39.6688 34.7656ZM39.6688 35.9804C39.3596 35.9804 39.1166 36.0908 38.9399 36.3338C38.7632 36.5767 38.6749 36.9301 38.6749 37.3718C38.6749 37.8356 38.7632 38.189 38.9399 38.432C39.1166 38.6749 39.3596 38.7853 39.6909 38.7853C40.0222 38.7853 40.2872 38.6528 40.4639 38.3878C40.5964 38.1448 40.6627 37.8356 40.6627 37.4381C40.6627 37.0184 40.5964 36.6651 40.4418 36.4221C40.2651 36.1129 40.0222 35.9804 39.6688 35.9804ZM44.6603 36.0466V37.0405H45.3671C45.6542 37.0405 45.853 36.9964 45.9855 36.8859C46.0738 36.8197 46.118 36.7092 46.118 36.5546C46.118 36.4 46.0517 36.2675 45.9192 36.1792C45.8088 36.0908 45.6542 36.0466 45.4775 36.0466H44.6603ZM43.0259 34.8981H45.4775C46.3388 34.8981 46.9352 35.0307 47.2665 35.3178C47.5315 35.5387 47.6419 35.8699 47.6419 36.3117C47.6419 36.643 47.5757 36.9301 47.4211 37.1289C47.2444 37.3276 47.0456 37.4602 46.8027 37.5264C47.1781 37.681 47.4211 37.8356 47.5094 38.0344C47.5978 38.2111 47.6419 38.4761 47.6419 38.8516V39.2271C47.6419 39.4258 47.664 39.5363 47.6861 39.6246C47.7082 39.6909 47.7524 39.7351 47.8186 39.7351V39.8676H46.1622C46.118 39.7571 46.0738 39.47 46.0738 39.0062C46.0517 38.5424 45.9413 38.2774 45.7425 38.2111C45.6542 38.189 45.5437 38.1669 45.4112 38.1448C45.2787 38.1448 45.1241 38.1228 44.9253 38.1228H44.6603V39.8676H43.0259V34.8981Z" fill="#5B5B5B"/>
<path id="Vector_2" fill-rule="evenodd" clip-rule="evenodd" d="M13.7028 7.20015C12.4439 6.89094 11.2071 6.55965 9.99234 6.1621C9.32975 5.89706 8.66716 5.65411 8.07083 5.32281C6.1714 6.53756 4.60327 7.95109 3.49895 9.98304C2.90262 11.0432 2.43881 12.1917 2.39464 13.4285H11.2954C11.3838 12.2358 11.6709 11.1094 12.1347 10.0051C12.5323 8.98915 13.0844 8.08361 13.7028 7.20015ZM25.519 26.4153V21.49C25.519 21.1366 25.5853 20.6728 25.8945 20.5182C26.2479 20.2974 26.8 20.4741 27.1313 20.5624C27.8602 20.6728 28.5449 20.8937 29.2075 21.0925C28.1915 21.0262 27.1534 20.96 26.1595 20.9379V26.9674C27.043 26.9674 27.9264 26.9233 28.7878 26.8349C29.8038 26.0398 30.7314 25.2447 31.6149 24.295C32.3879 23.4999 33.0726 22.6385 33.7352 21.733C32.94 21.6005 32.1449 21.4459 31.3498 21.3354C31.2615 21.0925 31.2173 20.8495 31.129 20.6066C31.1069 20.4078 31.0627 20.209 31.0185 20.0102C32.2333 20.1648 33.4259 20.4078 34.5965 20.6287C35.2149 19.6569 35.7671 18.7071 36.1205 17.6249C36.3634 16.8077 36.518 15.9463 36.6285 15.0629L37.4898 14.4224C37.3131 13.6935 37.0702 12.9205 36.8272 12.1917C36.6506 11.4186 36.3634 10.6677 36.2088 9.89469C36.0763 9.85051 35.9217 9.82843 35.7671 9.78426C35.4358 9.05541 35.0382 8.37073 34.5965 7.66397C33.3155 7.90691 32.0345 8.12778 30.7314 8.32656C29.9805 8.43699 29.2295 8.52533 28.4786 8.59159L28.8762 7.24433C29.1854 7.20015 29.4946 7.17807 29.8259 7.1339C31.129 7.00138 32.4321 6.8026 33.7352 6.53756C33.0726 5.63202 32.3879 4.77065 31.6149 3.97555C30.7314 3.04791 29.8038 2.23072 28.7878 1.43561C27.9264 1.36935 27.043 1.32518 26.1595 1.28101V2.53993C25.762 2.29698 25.3644 2.05403 25.0111 1.78899C24.6356 2.05403 24.238 2.29698 23.8846 2.53993V1.28101C23.0012 1.32518 22.1398 1.36935 21.2343 1.43561C20.2625 2.23072 19.3128 3.04791 18.4072 3.97555C17.6563 4.77065 16.9495 5.63202 16.2869 6.53756C17.59 6.8026 18.9152 7.00138 20.2404 7.1339C20.5496 7.17807 20.8588 7.20015 21.168 7.24433L21.5435 8.59159C20.7926 8.52533 20.0637 8.43699 19.3349 8.32656C18.0097 8.12778 16.7287 7.90691 15.4256 7.66397C14.9838 8.37073 14.5863 9.05541 14.255 9.78426C14.1225 9.82843 13.99 9.85051 13.8354 9.89469C13.6366 10.6677 13.4157 11.4186 13.1728 12.1917C12.9298 12.9205 12.709 13.6935 12.5102 14.4224L13.4157 15.0629C13.5041 15.9463 13.6366 16.8077 13.9237 17.6249C14.2771 18.7071 14.8292 19.6569 15.4256 20.6287C16.6182 20.3857 17.7888 20.1648 19.0036 20.0102C18.9815 20.2532 18.9373 20.4741 18.871 20.6728C18.8269 20.9379 18.7606 21.1146 18.6944 21.3354C17.8772 21.4459 17.0821 21.6005 16.2869 21.733C16.9495 22.6385 17.6563 23.4999 18.4072 24.295C19.3128 25.2447 20.2625 26.0398 21.2343 26.8349C22.1398 26.9233 23.0012 26.9674 23.8846 26.9674V20.9379C22.8466 20.96 21.8306 21.0262 20.7926 21.0925C21.4993 20.8937 22.184 20.6728 22.8687 20.5182C23.2221 20.452 23.7521 20.2974 24.1055 20.4741C24.4147 20.6728 24.4589 21.1366 24.4589 21.49V26.4153H25.519ZM18.8931 1.67856C17.1704 1.98777 15.4918 2.36324 13.7912 2.84914C12.2672 3.26878 10.7654 3.82094 9.35183 4.59396C10.0144 4.859 10.677 5.10195 11.3396 5.32281C12.3556 5.65411 13.3715 5.89706 14.3875 6.11792C14.9838 5.36699 15.5802 4.61605 16.2207 3.95346C17.06 3.11418 17.9434 2.36324 18.8931 1.67856ZM36.3634 7.20015C37.6003 6.89094 38.815 6.53756 40.0298 6.1621C40.6924 5.89706 41.3549 5.65411 41.9734 5.32281C43.8728 6.53756 45.4409 7.95109 46.5452 9.98304C47.1416 11.0432 47.6054 12.1917 47.6716 13.4285H38.7488C38.6383 12.2358 38.3733 11.1094 37.9316 10.0051C37.4898 8.98915 36.9818 8.08361 36.3634 7.20015ZM31.129 1.67856C32.8517 1.98777 34.5744 2.36324 36.2309 2.84914C37.777 3.26878 39.2788 3.82094 40.6924 4.59396C40.0077 4.859 39.3672 5.10195 38.7046 5.32281C37.6665 5.65411 36.6726 5.89706 35.6346 6.11792C35.0824 5.36699 34.464 4.61605 33.8235 3.95346C33.0063 3.11418 32.0787 2.36324 31.129 1.67856ZM13.7028 21.0925C12.4439 21.3796 11.2071 21.7109 9.99234 22.1305C9.32975 22.3735 8.68924 22.6385 8.07083 22.9698C6.1714 21.733 4.60327 20.3195 3.49895 18.3096C2.90262 17.2494 2.43881 16.0789 2.39464 14.8641H11.2954C11.3838 16.0568 11.6709 17.1832 12.1347 18.2875C12.5323 19.3035 13.0844 20.209 13.7028 21.0925ZM18.8931 26.592C17.2367 26.3049 15.5581 25.9736 13.9237 25.4877C12.3556 25.0459 10.8095 24.4938 9.35183 23.6987C10.0144 23.4115 10.677 23.1686 11.3396 22.9698C12.3556 22.6164 13.3936 22.3735 14.3875 22.1747C14.9838 22.9256 15.5802 23.6545 16.2207 24.3171C17.06 25.1564 17.9434 25.9073 18.8931 26.592ZM36.3634 21.0925C37.6003 21.3796 38.8371 21.7109 40.0298 22.1305C40.6924 22.3735 41.3549 22.6385 41.9734 22.9698C43.8728 21.733 45.4409 20.3195 46.5452 18.3096C47.1416 17.2274 47.6054 16.0789 47.6716 14.8641H38.7488C38.6383 16.0568 38.3733 17.1832 37.9316 18.2875C37.4898 19.3035 36.9818 20.209 36.3634 21.0925ZM31.129 26.592C32.8296 26.3049 34.4861 25.9736 36.1205 25.4877C37.7107 25.0459 39.2347 24.4938 40.6924 23.6987C40.0077 23.4115 39.3672 23.1686 38.7046 22.9698C37.6886 22.6164 36.6726 22.3735 35.6346 22.1747C35.0824 22.9256 34.464 23.6545 33.8235 24.3171C33.0063 25.1785 32.0787 25.9073 31.129 26.592ZM24.989 0C19.2686 0 13.6145 1.08223 8.33586 3.44547C4.7137 5.07986 1.0032 8.08361 0.252257 12.28C0.141826 12.8543 0.0976562 13.4727 0.0976562 14.0248C0.0976562 14.7758 0.186002 15.5267 0.362692 16.2556C0.959019 18.7734 2.57133 21.0262 4.7137 22.6606C8.66716 25.6643 13.7912 27.0558 18.5618 27.8509C20.4833 28.138 22.449 28.3368 24.4147 28.3589C26.1375 28.3589 27.8823 28.2705 29.5608 28.0939C33.7131 27.7184 37.8874 26.5699 41.6862 24.8472C45.3084 23.1907 49.306 20.2311 49.7919 16.0126C49.8803 15.3942 49.9024 14.7758 49.9024 14.1574C49.8582 11.9487 49.1735 9.78426 47.8262 8.06152C45.4409 4.90317 41.6642 3.18044 37.9757 1.98777C33.7352 0.618418 29.4504 0 24.989 0Z" fill="#5B5B5B"/>
<path id="Vector_3" fill-rule="evenodd" clip-rule="evenodd" d="M25.2937 26.173V21.4686C25.2937 21.071 25.36 20.5189 25.7575 20.3201C26.0888 20.0992 26.5084 20.1876 26.8839 20.2538C28.0987 20.4968 29.2913 20.8943 30.484 21.1815C30.6828 21.2256 30.8815 21.2698 31.0582 21.2698C30.992 21.071 30.9257 20.8502 30.8815 20.6293C30.7711 20.1876 30.6828 19.6796 30.9036 19.26C31.2128 18.752 31.7871 18.3765 32.273 18.0452L37.2424 14.3347C37.0436 13.6942 36.8669 13.0316 36.6682 12.3911C36.4473 11.6181 36.2043 10.8451 36.0056 10.072L34.4153 9.56405C33.5319 9.29901 32.7368 9.01189 31.8975 8.63643C31.8312 8.70268 31.765 8.79103 31.6987 8.87937C31.257 9.54196 30.8153 10.1825 30.3735 10.8451C29.9097 11.5076 29.3355 12.3469 28.5404 12.612C28.2753 12.7003 27.8999 12.7887 27.6348 12.6561C27.5023 12.5899 27.414 12.4574 27.3698 12.3028C27.3256 12.0819 27.3919 11.8389 27.4361 11.6181L27.7011 10.4475L29.3355 4.59462C28.5183 4.17498 27.7232 3.73325 26.9502 3.29152C26.2655 2.89397 25.625 2.47433 24.9845 2.05469C24.3219 2.47433 23.7035 2.89397 23.0188 3.29152C22.2237 3.73325 21.4286 4.17498 20.6335 4.59462L22.2679 10.4475L22.5329 11.6181C22.5992 11.9052 22.6654 12.2144 22.5108 12.4794C22.3562 12.7666 22.0028 12.7445 21.7157 12.7003C20.8985 12.5236 20.3243 11.861 19.8384 11.2205C19.3525 10.5358 18.8224 9.78492 18.3807 9.05606C18.2923 8.90146 18.1819 8.76894 18.0715 8.63643C17.2322 9.01189 16.415 9.29901 15.5536 9.56405L13.9634 10.072C13.7646 10.7788 13.5658 11.5076 13.345 12.2144C13.1462 12.9212 12.9474 13.6279 12.7266 14.3347L17.696 18.0452C18.1819 18.3986 18.7561 18.752 19.0653 19.282C19.3304 19.7238 19.1537 20.2759 19.0433 20.7397C18.9991 20.9164 18.9549 21.0931 18.9107 21.2698C19.2199 21.2698 19.5512 21.1594 19.8604 21.0931C20.9427 20.7839 22.0028 20.4526 23.0851 20.2538C23.4605 20.1655 23.9464 20.0772 24.2998 20.3643C24.5869 20.6072 24.6753 21.071 24.6753 21.4686V26.173H25.2937Z" fill="#5B5B5B"/>
</g>
</svg>
