<svg width="72" height="37" viewBox="0 0 72 37" fill="none" xmlns="http://www.w3.org/2000/svg">
<g clip-path="url(#clip0_590_9253)">
<path d="M30.7833 9.62109H30.4516C25.4065 9.62109 21.3242 13.7037 21.3242 18.7485V27.1291C21.3242 32.1742 25.4068 36.2565 30.4516 36.2565H30.7836C35.8288 36.2565 39.911 32.1739 39.911 27.1291V18.7488C39.911 13.7037 35.8284 9.62109 30.7833 9.62109ZM32.5259 27.7103C32.5259 28.7724 31.6796 29.6187 30.6174 29.6187C29.5553 29.6187 28.709 28.7724 28.709 27.7103V18.168C28.709 17.1058 29.5553 16.2596 30.6174 16.2596C31.6796 16.2596 32.5259 17.1058 32.5259 18.168V27.7103Z" fill="#1D1D1F"/>
<path d="M16.0146 0.576172C13.9567 0.576172 12.2807 2.25244 12.2807 4.31005V11.6119H7.46809V4.31005C7.46809 2.25244 5.79183 0.576172 3.73388 0.576172C1.67593 0.576172 0 2.25244 0 4.3267V32.5391C0 34.5971 1.67627 36.273 3.73388 36.273C5.79149 36.273 7.46775 34.5967 7.46775 32.5391V27.5936V18.2504H10.4549C11.4674 18.2504 12.2804 19.0637 12.2804 20.0759V32.5225C12.2804 34.5804 13.9567 36.2563 16.0143 36.2563C18.0719 36.2563 19.7482 34.5801 19.7482 32.5225V4.31005C19.7485 2.25244 18.0726 0.576172 16.0146 0.576172Z" fill="#1D1D1F"/>
<path d="M60.4907 36.4227C62.782 36.4227 64.6395 34.5652 64.6395 32.2739C64.6395 29.9825 62.782 28.125 60.4907 28.125C58.1993 28.125 56.3418 29.9825 56.3418 32.2739C56.3418 34.5652 58.1993 36.4227 60.4907 36.4227Z" fill="#1D1D1F"/>
<path d="M50.8655 8.5426H53.2718C55.1473 8.5426 56.674 7.01587 56.674 5.14044C56.674 3.265 55.1473 1.73828 53.2718 1.73828H50.6996C45.6545 1.73828 41.5723 5.82087 41.5723 10.8657V32.5229C41.5723 34.5808 43.2485 36.2568 45.3061 36.2568C47.3638 36.2568 49.04 34.5805 49.04 32.5229V18.3337H51.9443C53.8197 18.3337 55.3464 16.807 55.3464 14.9316C55.3464 13.0561 53.8197 11.5294 51.9443 11.5294H49.04V10.3677C49.04 9.35558 49.8533 8.5426 50.8655 8.5426Z" fill="#1D1D1F"/>
<path d="M68.4574 1.73828H65.8852C60.8401 1.73828 56.7578 5.82087 56.7578 10.8657V23.3952C56.7578 25.4531 58.4341 27.1291 60.4917 27.1291C62.5493 27.1291 64.2256 25.4528 64.2256 23.3952V18.3337H67.1298C69.0052 18.3337 70.532 16.807 70.532 14.9316C70.532 13.0562 69.0052 11.5294 67.1298 11.5294H64.2256V10.3677C64.2256 9.35524 65.0389 8.54226 66.051 8.54226H68.4574C70.3328 8.54226 71.8595 7.01554 71.8595 5.1401C71.8595 3.26466 70.3328 1.73828 68.4574 1.73828Z" fill="#1D1D1F"/>
</g>
<defs>
<clipPath id="clip0_590_9253">
<rect width="72" height="35.8464" fill="white" transform="translate(0 0.576172)"/>
</clipPath>
</defs>
</svg>
