<svg width="58" height="37" viewBox="0 0 58 37" fill="none" xmlns="http://www.w3.org/2000/svg">
<path fill-rule="evenodd" clip-rule="evenodd" d="M50.2696 9.33395H57.5898L56.8705 13.2444H53.8982L53.2096 16.9358H55.8691L55.2122 20.6274H52.5527L49.7059 36.6137H45.358L50.2696 9.33395ZM48.7051 9.33395H44.263L41.5722 23.6933C41.3848 24.6634 41.2282 25.2886 41.1033 25.5701C40.9467 25.8205 40.7587 25.9454 40.4772 25.9454C40.2273 25.9454 40.0707 25.8205 40.0391 25.6015C40.008 25.351 40.0707 24.8191 40.227 23.9432L42.9797 9.33364H38.506L36.3471 20.8773C35.9406 23.0672 35.6902 24.5065 35.6277 25.1944C35.5967 25.883 35.6902 26.5399 35.9723 27.1653C36.2222 27.7914 36.7227 28.2917 37.4421 28.6674C38.162 29.0738 39.0065 29.2618 40.0388 29.2618C40.9771 29.2618 41.7906 29.1052 42.5416 28.7612C43.2926 28.4483 43.9181 27.9477 44.4501 27.3216C44.982 26.6961 45.3577 26.0704 45.545 25.4756C45.7641 24.8818 45.9832 23.8493 46.2644 22.3473L48.7051 9.33395ZM30.5291 21.8793C30.7165 19.658 30.998 16.9674 31.405 13.7139C30.2476 17.4366 29.4652 20.1269 29.0585 21.8793H30.5291ZM35.065 9.33395L33.6885 28.855H29.5904L30.0285 25.3203H28.4644L27.5257 28.855H23.0836L29.3403 9.33395H35.065ZM25.8052 9.33395H22.0511L20.4241 18.1249L19.5482 9.33395H15.8254L12.1652 28.855H15.9193L17.5773 19.9709L18.2342 28.855H22.1446L25.8052 9.33395ZM13.8235 9.49055L10.1318 18.3126L11.0391 28.855H6.94068L6.18997 21.8793L4.87624 28.855H0.589844L5.06361 0.386719H9.3494L7.15943 15.9663L9.88135 9.49055H13.8235Z" fill="#1D1D1F"/>
</svg>
