<svg width="198" height="37" viewBox="0 0 198 37" fill="none" xmlns="http://www.w3.org/2000/svg">
<path fill-rule="evenodd" clip-rule="evenodd" d="M30.0963 16.1742V4.23068C27.1561 3.15596 24.0497 2.60665 20.9192 2.60783C8.79341 2.60783 0 9.77396 0 19.5537C0 25.1881 2.84 29.92 8.0834 33.1201C11.6334 35.2839 16.0036 36.4629 20.7561 36.4629C23.8151 36.4629 26.8197 35.9675 29.9317 34.9223L30.3697 22.7994C27.2563 24.6913 24.5795 25.7732 21.6851 25.7732C17.0973 25.7732 14.3117 23.2492 14.3117 19.5537C14.3117 15.6333 17.4251 13.1534 21.9585 13.1534C24.9073 13.1549 27.5283 14.1471 30.0963 16.1742ZM47.6287 21.0869C47.9021 19.3303 48.9943 18.4748 50.6877 18.4748C52.5987 18.4748 53.5292 19.2862 53.6909 21.0869H47.6287ZM66.5267 26.0451C66.5811 25.6409 66.5811 25.2337 66.5811 24.828C66.5811 17.3473 59.8089 12.1186 50.3599 12.1186C40.9095 12.1186 34.2475 17.6163 34.2475 24.287C34.2475 30.9563 40.9653 36.4629 50.3599 36.4629C58.1699 36.4629 63.6853 33.5258 65.708 28.7484L53.3087 28.0722C52.7075 29.2438 51.7785 29.8303 50.5775 29.8303C48.5019 29.8303 47.5185 28.7014 47.5185 26.4038V26.0437L66.5267 26.0451ZM70.7353 35.6H84.1709V26.5861C84.1709 23.7917 86.1377 22.2144 89.5245 22.2144C90.6167 22.2144 91.8735 22.5731 93.2935 23.2051V12.1627C92.9643 12.1186 92.6379 12.1186 92.3101 12.1186C88.7601 12.1186 85.9187 13.4695 83.7343 16.039V12.8389H70.7353V35.6ZM109.515 21.0869C109.788 19.3303 110.88 18.4748 112.574 18.4748C114.485 18.4748 115.415 19.2862 115.578 21.0869H109.515ZM128.413 26.0451C128.467 25.6409 128.467 25.2337 128.467 24.828C128.467 17.3473 121.695 12.1186 112.246 12.1186C102.795 12.1186 96.1321 17.6163 96.1321 24.287C96.1321 30.9563 102.85 36.4629 112.246 36.4629C120.056 36.4629 125.571 33.5258 127.593 28.7484L115.195 28.0722C114.593 29.2438 113.664 29.8303 112.464 29.8303C110.388 29.8303 109.404 28.7014 109.404 26.4038V26.0437L128.413 26.0451ZM129.725 33.9771C133.764 35.6309 138.087 36.4755 142.451 36.4629C150.972 36.4629 156.051 32.6248 156.051 27.8003C156.051 24.4208 153.485 22.5275 148.243 21.4911C145.456 20.9502 143.925 20.8605 143.925 19.8683C143.925 19.1921 144.691 18.6953 145.947 18.6953C147.421 18.6953 149.442 19.417 151.9 20.7694L155.178 13.9178C152.063 12.7463 148.404 12.1156 144.635 12.1156C136.606 12.1156 131.581 15.6759 131.581 20.2284C131.581 23.6535 133.984 25.7262 139.01 26.6743C141.249 27.0785 142.669 27.0785 142.669 28.1619C142.669 28.9733 141.904 29.4687 140.486 29.4687C138.792 29.4687 136.333 28.6573 133.275 26.9448L129.725 33.9771ZM159.547 35.6H172.93V12.8389H159.547V35.6ZM173.475 5.76239C173.475 2.60782 170.854 0.535156 166.266 0.535156C161.677 0.535156 159.003 2.60782 159.003 5.76239C159.003 8.91696 161.731 11.0822 166.266 11.0822C170.8 11.0822 173.475 8.91843 173.475 5.76239ZM180.795 35.6H194.177V21.2221H198V12.8389H194.177V5.31258H180.795V12.8389H177.026V21.2221H180.795V35.6Z" fill="#1D1D1F"/>
</svg>
