<svg width="89" height="37" viewBox="0 0 89 37" fill="none" xmlns="http://www.w3.org/2000/svg">
<path fill-rule="evenodd" clip-rule="evenodd" d="M80.9972 3.90633V6.48951H86.6254V9.52044H80.9972V12.8262H88.4906V15.8619H77.1153V0.870232H87.7271V3.90586L80.9972 3.90633ZM72.7261 0.870232V15.8619H68.8401V9.52044H61.411V15.8619H57.5249V0.870232H61.411V6.48904H68.8401V0.870232H72.7261ZM45.3312 0.5C50.6526 0.5 54.9958 4.03413 54.9958 8.36839C54.9958 12.7027 50.6526 16.2368 45.3312 16.2368C40.0089 16.2368 35.6657 12.7027 35.6657 8.36839C35.6657 4.03413 40.0093 0.5 45.3312 0.5ZM45.3312 3.35286C48.1831 3.35286 50.5149 5.60715 50.5149 8.36839C50.5149 11.1301 48.1831 13.3797 45.3312 13.3797C42.4779 13.3797 40.1508 11.1301 40.1508 8.36839C40.1512 5.60715 42.4783 3.35286 45.3312 3.35286ZM20.3907 0.870232H27.7879C32.2091 0.870232 33.6994 3.28426 33.6994 5.53385C33.7041 7.78344 32.6798 9.20048 30.6224 9.96867L35.9715 15.8619H30.614C28.6068 13.3473 26.5997 10.828 24.593 8.31342H27.0249C27.6115 8.31292 28.1741 8.07968 28.5889 7.66488C29.0038 7.25009 29.2372 6.68762 29.2378 6.10095C29.2366 5.51442 29.003 4.95227 28.5883 4.53754C28.1735 4.1228 27.6114 3.88925 27.0249 3.88801H24.2726V15.8619H20.3912L20.3907 0.870232ZM10.2549 0.5C12.6732 0.5 14.8861 1.22684 16.5827 2.42493V5.0767C14.3331 3.87391 12.2259 3.29789 10.2549 3.35286C7.40204 3.35286 5.07493 5.60715 5.07493 8.36839C5.07493 11.1301 7.40204 13.3797 10.2549 13.3797C11.1922 13.3797 12.0746 13.1373 12.8334 12.7168V8.48773H16.843V14.1159C15.1149 15.4329 12.7967 16.2373 10.2549 16.2373C4.93304 16.2373 0.589844 12.7031 0.589844 8.36886C0.589374 4.03413 4.93304 0.5 10.2549 0.5Z" fill="#1D1D1F"/>
<path fill-rule="evenodd" clip-rule="evenodd" d="M35.1173 21.0602C38.1895 22.1887 41.3718 23.3553 45.1295 23.3553C48.8835 23.3553 52.0653 22.1892 55.1376 21.0602C62.919 18.2021 65.3796 18.2162 73.2062 20.9592C76.2831 22.0337 79.4654 23.1495 83.2325 23.1495C84.3437 23.1495 85.4046 23.0485 86.4194 22.8752C85.9772 23.4939 85.5008 24.0876 84.9925 24.6535C84.4073 24.7045 83.82 24.7302 83.2325 24.7306C79.214 24.7306 75.8951 23.5696 72.6898 22.4448C69.8783 21.4619 67.1584 20.5114 64.1857 20.4748H64.181H64.1491H64.1538C61.2008 20.5161 58.4847 21.5079 55.6821 22.5411C52.4778 23.7157 49.1584 24.9373 45.13 24.9373C41.0978 24.9373 37.7784 23.7157 34.5784 22.5411C31.7711 21.5079 29.0554 20.5156 26.102 20.4748H26.1067H26.07C23.0983 20.5114 20.3779 21.4624 17.5664 22.4448C14.3659 23.5701 11.0469 24.7306 7.02324 24.7306C6.38366 24.7304 5.74444 24.7002 5.1077 24.6399C4.59491 24.0708 4.1155 23.4724 3.67188 22.8479C4.77782 23.0478 5.89937 23.1489 7.02324 23.15C10.7909 23.15 13.9773 22.0341 17.0496 20.9596C24.8757 18.2162 27.3358 18.2026 35.1173 21.0602ZM35.1173 26.8387C38.1895 27.9682 41.3718 29.1386 45.1295 29.1386C48.8835 29.1386 52.0653 27.9687 55.1376 26.8387C62.919 23.9812 65.3796 23.9995 73.2062 26.7433C75.46 27.5289 77.7735 28.3384 80.3336 28.7181C79.7071 29.1535 79.0685 29.5712 78.4186 29.9707C76.3978 29.5276 74.5231 28.8684 72.6898 28.229C69.8783 27.2414 67.1584 26.2899 64.1857 26.258H64.181H64.1491H64.1538C61.2008 26.2946 58.4847 27.2912 55.6821 28.3201C52.4778 29.5004 49.1584 30.7163 45.13 30.7163C41.0978 30.7163 37.7784 29.5004 34.5784 28.3201C31.7711 27.2916 29.0554 26.2946 26.102 26.258H26.1067H26.07C23.0983 26.2899 20.3779 27.2418 17.5664 28.229C15.7012 28.8825 13.7946 29.5502 11.7324 29.9937C11.0768 29.5924 10.4333 29.1715 9.8028 28.7317C12.4085 28.3657 14.7587 27.5425 17.0496 26.7433C24.8757 23.9995 27.3358 23.9812 35.1173 26.8387ZM35.1173 32.6229C38.1895 33.7515 41.3718 34.9181 45.1295 34.9181C48.8835 34.9181 52.0653 33.7519 55.1376 32.6229C62.919 29.7653 65.3796 29.779 73.2062 32.5219C73.2748 32.5449 73.3391 32.5679 73.4073 32.5905C72.6921 32.9114 71.9698 33.2161 71.2408 33.5043C68.932 32.7225 66.6463 32.0647 64.1857 32.037H64.181H64.1491H64.1538C61.2008 32.0784 58.4847 33.0749 55.6821 34.1034C52.4778 35.278 49.1584 36.4995 45.13 36.4995C41.0978 36.4995 37.7784 35.278 34.5784 34.1034C31.7711 33.0749 29.0554 32.0779 26.102 32.037H26.1067H26.07C23.5832 32.0647 21.2739 32.7361 18.9426 33.532C18.2115 33.2446 17.4872 32.9399 16.7705 32.6182L17.0496 32.5219C24.8757 29.779 27.3358 29.7649 35.1173 32.6229Z" fill="#1D1D1F"/>
</svg>
