<svg width="155" height="37" viewBox="0 0 155 37" fill="none" xmlns="http://www.w3.org/2000/svg">
<path fill-rule="evenodd" clip-rule="evenodd" d="M17.9504 0.5L35.9 18.5331L17.9504 36.5L0 18.5331L17.9504 0.5Z" fill="#1D1D1F"/>
<path fill-rule="evenodd" clip-rule="evenodd" d="M9.17578 9.90527L9.63868 9.98049L9.95278 10.1425L10.3413 10.2938L10.5686 10.5318L10.8819 10.8451L11.0315 11.1468L11.1935 11.5362V11.9246L11.1183 12.4752L10.9554 12.8637L11.3448 12.9397L11.7333 13.0902L12.0466 13.253L12.3607 13.4795L12.5863 13.7919L12.7475 14.1052L12.8996 14.8822L12.8236 15.2724L12.6731 15.6609L12.5103 15.9733L12.2846 16.2866L11.9713 16.5139L11.6572 16.7512L11.2696 16.8272L10.8819 16.9024L10.3413 16.8272L9.86682 16.59V16.9024L9.95278 17.6794L10.1801 18.3812L10.5686 19.0078L10.9554 19.6228L11.5837 20.0881L12.1978 20.4014L12.8996 20.6386L13.675 20.713L14.4528 20.6386L15.1537 20.4014L15.782 20.0881L16.3217 19.6228L16.7846 19.0078L17.1731 18.3812L17.3351 17.6794L17.4856 16.9024L17.4104 16.5139L17.1731 16.6759L16.8598 16.7512L16.5573 16.8272L16.2448 16.9024L15.8563 16.8272L15.4678 16.7512L15.1537 16.5139L14.8421 16.2866L14.6148 15.9733L14.4528 15.6609L14.3032 14.8822L14.4528 14.1052L14.6148 13.7919L14.8421 13.4795L15.1537 13.253L15.4678 13.0902L15.8563 12.9397L16.1696 12.8637L16.0084 12.4752L15.9316 11.9246L16.0084 11.5362L16.1696 11.1468L16.3217 10.8451L16.5573 10.5318L16.8598 10.2938L17.1731 10.1425L17.5616 9.98049H18.3394L18.7271 10.1425L19.0412 10.2938L19.3537 10.5318L19.5802 10.8451L19.7422 11.1468L19.8926 11.5362L19.9687 11.9246L19.8926 12.4752L19.6661 12.8637L20.0546 12.9397L20.444 13.0902L20.7457 13.253L21.0598 13.4795L21.2954 13.7919L21.4475 14.1052L21.5235 14.4945L21.6086 14.8822L21.5235 15.2724L21.4475 15.6609L21.2954 15.9733L21.0598 16.2866L20.7457 16.5139L20.3572 16.7512L20.0546 16.8272L19.6661 16.9024L19.3537 16.8272L18.9644 16.7512L18.7271 16.6759L18.5015 16.5139L18.4155 16.9024L18.5759 17.6794L18.7271 18.3812L19.1165 19.0078L19.5802 19.6228L20.1307 20.0881L20.7457 20.4014L21.4475 20.6386L22.2253 20.713L23.0015 20.6386L23.7032 20.4014L24.3298 20.0881L24.8687 19.6228L25.3333 19.0078L25.721 18.3812L25.9599 17.6794V16.59L25.5705 16.8272L25.02 16.9024L24.6323 16.8272L24.2438 16.7512L23.8545 16.5139L23.628 16.2866L23.39 15.9733L23.1635 15.6609L23.0775 15.2724L23.0015 14.8822L23.0775 14.4945L23.1635 14.1052L23.39 13.7919L23.552 13.4795L23.8545 13.253L24.2438 13.0902L24.5563 12.9397L24.9448 12.8637L24.7927 12.4752L24.7191 11.9246V11.5362L24.8687 11.1468L25.02 10.8451L25.2581 10.5318L25.5705 10.2938L25.9599 10.1425L26.2715 9.98049H26.6608V24.9899H9.17578V9.90527Z" fill="white"/>
<path fill-rule="evenodd" clip-rule="evenodd" d="M44.0593 24.9898H48.1824V12.9397H52.9205V9.98047H39.3965V12.9397H44.0593V24.9898ZM54.0107 24.9898H58.2099V9.98047H54.0107V24.9898ZM64.4267 16.5899V9.98047H60.2284V24.9898H64.4267V17.0644L69.402 24.9898H74.6046L69.0135 16.5899L74.1401 9.98047H69.24L64.4267 16.5899ZM79.7312 16.5899V9.98047H75.532V24.9898H79.7312V17.0644L84.7056 24.9898H89.833L84.2436 16.5899L89.4437 9.98047H84.4692L79.7312 16.5899ZM100.876 9.98047V19.3095L100.789 20.0121L100.638 20.6386L100.399 21.1015L100.099 21.5669L99.71 21.9562L99.1579 22.1935L98.5429 22.3447L97.8419 22.4191L97.2154 22.3447L96.6004 22.1935L96.0499 21.9562L95.6605 21.5669L95.2737 21.1015L95.0455 20.6386L94.8844 20.0121V9.98047H90.6852V20.2493L90.8481 20.9519L90.9985 21.5669L91.3135 22.1935L91.6251 22.7324L92.0136 23.1978L92.4029 23.5863L92.865 23.9756L93.4056 24.2889L93.9561 24.6005L94.4967 24.8377L95.1976 24.9898L95.8242 25.1411L96.4392 25.3039H99.2356L99.9357 25.1411L100.562 24.9898L101.177 24.8377L101.802 24.6005L102.343 24.2889L102.893 23.9756L103.357 23.5863L103.746 23.1978L104.135 22.7324L104.448 22.1935L104.675 21.5669L104.912 20.9519L105.062 19.5483V9.98047H100.876ZM111.592 16.3626V12.9389H114.237L114.7 13.0901L115.091 13.1761L115.403 13.4026L115.64 13.7167L115.792 14.1044L115.867 14.6458L115.792 15.1955L115.64 15.5088L115.403 15.8973L115.091 16.0494L114.7 16.2006L114.237 16.2866L113.222 16.3635L111.592 16.3626ZM111.592 19.3095H113.925L114.389 19.3962L114.776 19.6219L115.091 19.8591L115.329 20.2485L115.403 20.7122L115.553 21.8033L115.792 23.4342L116.03 24.989H120.53L120.303 24.1368L120.066 23.1969L119.99 22.3447L119.829 21.4165L119.753 20.5642L119.602 19.7847L119.365 19.1598L119.052 18.6953L118.826 18.4581L118.587 18.2324L118.361 18.0696L118.048 17.9175L117.347 17.6802L116.419 17.605L117.195 17.4537L117.886 17.2157L118.587 16.9024L119.138 16.5139L119.602 15.9733L119.99 15.3484L120.142 14.6466L120.218 13.868V13.329L120.066 12.7884L119.915 12.314L119.677 11.9246L119.365 11.5361L119.052 11.2336L118.274 10.7591L117.347 10.3698L116.419 10.1433L115.403 9.98129H107.481V24.9907H111.593V19.3095H111.592ZM122.083 24.9898H126.282V9.98047H122.083V24.9898ZM137.549 24.9898V22.1174H132.65V9.98047H128.538V24.9898H137.549ZM141.824 24.9898L142.84 22.1174H148.894L149.909 24.9898H154.647L148.669 9.98047H143.617L137.704 24.9898H141.824ZM143.843 19.1598L145.862 12.9397L147.89 19.1598H143.843Z" fill="#1D1D1F"/>
</svg>
