<svg width="149" height="37" viewBox="0 0 149 37" fill="none" xmlns="http://www.w3.org/2000/svg">
<path d="M33.2969 1.47858H39.3191V27.3297H33.2969V1.47858ZM58.6732 19.2314H46.0214C46.0214 21.8857 47.3037 23.3221 49.7853 23.3221C51.0728 23.3221 52.0021 22.8537 52.6614 21.6359H58.4396C57.474 25.9609 53.6737 27.9386 49.8164 27.9386C44.194 27.9386 39.9992 24.4984 39.9992 18.1592C39.9992 12.0334 43.8617 8.3434 49.3803 8.3434C55.2624 8.3434 58.6628 12.2833 58.6628 18.5496V19.2314H58.6732ZM53.0923 15.4737C52.9602 14.6639 52.545 13.9276 51.9211 13.3965C51.2972 12.8654 50.5051 12.5741 49.6866 12.5747C47.9423 12.5747 46.4886 13.5844 46.12 15.4737H53.0923ZM78.7334 25.5393C78.7334 33.3461 75.1616 36.5001 68.9161 36.5001C65.0173 36.5001 59.7946 34.3142 59.265 29.4844H66.0141C66.1646 30.1297 66.6007 30.5929 67.1354 30.8844C67.6598 31.1602 68.2932 31.306 68.8487 31.306C72.0934 31.306 72.7216 29.0264 72.7216 26.0389V25.1854C71.1693 26.8665 69.5755 27.6836 67.3379 27.6836C62.3748 27.6836 58.9691 23.598 58.9691 18.3102C58.9691 12.9286 62.4734 8.34861 67.6546 8.34861C69.643 8.34861 71.4652 9.06163 72.6541 10.8988H72.7164V8.95234H78.7282V25.5393H78.7334ZM65.1834 18.0187C65.1834 20.3451 66.6007 22.1355 69.0459 22.1355C71.4912 22.1355 72.9136 20.3451 72.9136 18.0187C72.9136 15.7703 71.4912 13.8602 69.0459 13.8602C66.6007 13.8602 65.1834 15.7703 65.1834 18.0187ZM112.24 11.3204H112.307C113.699 9.09286 115.142 8.90549 117.483 8.82743C121.32 8.71813 123.142 10.6178 123.142 15.9785V27.3349H117.125V19.3407C117.125 17.5867 117.032 14.2662 114.654 14.5056C112.219 14.7502 112.235 16.4833 112.235 18.7682V27.3297H106.228V8.95234H112.235V11.3204H112.24ZM137.481 25.2947H137.424C136.354 27.1163 134.278 27.9438 132.295 27.9438C127.269 27.9438 123.734 23.3846 123.734 18.1332C123.734 12.8662 127.202 8.35381 132.227 8.35381C134.184 8.35381 136.23 9.1397 137.486 10.7479V1.47858H143.508V27.3297H137.486V25.2947H137.481ZM129.953 18.1644C129.953 20.4909 131.365 22.2812 133.816 22.2812C136.256 22.2812 137.673 20.4909 137.673 18.1644C137.673 15.9056 136.256 14.006 133.816 14.006C131.365 14.006 129.953 15.9056 129.953 18.1644ZM144.547 3.50315C144.547 2.37376 145.435 1.47858 146.561 1.47858C146.827 1.47651 147.091 1.52739 147.338 1.62828C147.584 1.72916 147.809 1.87805 147.997 2.06632C148.186 2.25459 148.336 2.47852 148.438 2.72515C148.54 2.97178 148.592 3.23621 148.591 3.50315C148.591 4.63254 147.693 5.52773 146.561 5.52773C146.296 5.52912 146.033 5.47766 145.787 5.37634C145.542 5.27502 145.319 5.12586 145.132 4.93752C144.944 4.74917 144.796 4.52539 144.696 4.27916C144.595 4.03294 144.545 3.76916 144.547 3.50315ZM144.874 3.50315C144.874 4.45559 145.642 5.19464 146.561 5.19464C147.485 5.19464 148.259 4.45038 148.259 3.50315C148.259 2.54551 147.485 1.80646 146.561 1.80646C145.642 1.80646 144.874 2.54551 144.874 3.50315ZM147.49 4.65857H147.117L146.535 3.61245H146.115V4.65857H145.788V2.37897H146.743C147.158 2.37897 147.527 2.50388 147.527 2.9827C147.527 3.42508 147.22 3.59163 146.919 3.60724L147.49 4.65857ZM146.115 2.71206V3.27415H146.468C146.779 3.27415 147.194 3.3262 147.194 3.01913C147.194 2.73288 146.956 2.71206 146.686 2.71206H146.115ZM105.216 13.9019V13.5532C105.216 12.403 103.933 9.00959 98.1913 8.94193C95.6527 8.9159 93.0154 8.94193 93.0154 8.94193V13.0952C93.0154 13.0952 96.9298 12.8662 98.425 13.6729C99.4685 14.2454 99.2608 15.0313 99.3958 15.4528C98.5184 14.4327 97.1115 14.235 94.8999 14.235C91.4164 14.235 89.0127 17.3629 89.0127 21.0217C89.0127 24.6597 91.4631 27.8189 94.9466 27.8189C96.3172 27.8189 98.4146 27.7825 99.4477 25.9817L99.51 27.4181H105.252V13.9175L105.216 13.9019ZM96.8415 23.4523C95.1335 23.4523 94.1367 22.5415 94.1367 20.9176C94.1367 19.3355 95.1335 18.2477 96.8415 18.2477C98.5547 18.2477 99.5463 19.3355 99.5463 20.9176C99.5411 22.5415 98.5547 23.4523 96.8415 23.4523Z" fill="#1D1D1F"/>
<path d="M85.6634 11.94H85.7205C86.8419 9.77491 88.5188 9.39497 91.0107 9.04627H92.1269V12.9757C90.9796 13.0746 90.2112 13.3192 88.9756 14.1467C87.0859 15.4063 85.6634 17.1446 85.6634 20.184V27.3247H79.8748V9.04627H85.6634V11.94ZM11.149 2.3584V9.33772H17.6956V19.2576H17.7007V26.4191H24.6626V2.3584H11.149ZM7.61355 9.51988H7.56164V2.3584H0.646484V26.4191H14.103V19.4346H7.61355V9.51988Z" fill="#1D1D1F"/>
<path d="M15.1888 19.3978H16.5542V28.2508H15.1888V19.3978ZM8.5332 0.5H9.89858V9.36338H8.5332V0.5Z" fill="#1D1D1F"/>
</svg>
