<svg width="17" height="19" viewBox="0 0 17 19" fill="none" xmlns="http://www.w3.org/2000/svg">
<path d="M9 11.7929L12.1464 8.64645C12.3417 8.45118 12.6583 8.45118 12.8536 8.64645C13.0488 8.84171 13.0488 9.15829 12.8536 9.35355L8.85355 13.3536C8.65829 13.5488 8.34171 13.5488 8.14645 13.3536L4.14645 9.35355C3.95118 9.15829 3.95118 8.84171 4.14645 8.64645C4.34171 8.45118 4.65829 8.45118 4.85355 8.64645L8 11.7929V1C8 0.723858 8.22386 0.5 8.5 0.5C8.77614 0.5 9 0.723858 9 1V11.7929ZM16 13C16 12.7239 16.2239 12.5 16.5 12.5C16.7761 12.5 17 12.7239 17 13V16C17 17.3807 15.8807 18.5 14.5 18.5H2.5C1.11929 18.5 0 17.3807 0 16V13C0 12.7239 0.223858 12.5 0.5 12.5C0.776142 12.5 1 12.7239 1 13L1 16C1 16.8284 1.67157 17.5 2.5 17.5H14.5C15.3284 17.5 16 16.8284 16 16V13Z" fill="currentColor"/>
</svg>
