<svg width="24" height="24" viewBox="0 0 24 24" fill="none" xmlns="http://www.w3.org/2000/svg">
<path fill-rule="evenodd" clip-rule="evenodd" d="M16.969 10.6071C16.969 10.8636 16.7612 11.0714 16.5047 11.0714L13.719 11.0714C13.4626 11.0714 13.2547 10.8636 13.2547 10.6071V7.82143C13.2547 7.56501 13.4626 7.35714 13.719 7.35714C13.9754 7.35714 14.1833 7.56501 14.1833 7.82143V9.48626L17.105 6.56456C17.2863 6.38324 17.5803 6.38324 17.7616 6.56456C17.9429 6.74587 17.9429 7.03984 17.7616 7.22116L14.8399 10.1429L16.5047 10.1429C16.7612 10.1429 16.969 10.3507 16.969 10.6071Z" fill="currentColor"/>
<path fill-rule="evenodd" clip-rule="evenodd" d="M5.82617 7.35714C5.82617 6.33147 6.65764 5.5 7.68331 5.5H8.53242C9.06503 5.5 9.5293 5.86249 9.65847 6.3792L10.343 9.11736C10.4563 9.57042 10.287 10.0472 9.91339 10.3274L9.11257 10.9281C9.02942 10.9904 9.01134 11.0818 9.0347 11.1455C9.73763 13.0644 11.2617 14.5885 13.1807 15.2915C13.2444 15.3148 13.3357 15.2968 13.3981 15.2136L13.9987 14.4128C14.2789 14.0392 14.7557 13.8699 15.2088 13.9832L17.947 14.6677C18.4637 14.7969 18.8262 15.2611 18.8262 15.7938V16.6429C18.8262 17.6685 17.9947 18.5 16.969 18.5H15.5762C10.1914 18.5 5.82617 14.1348 5.82617 8.75V7.35714Z" fill="currentColor"/>
</svg>
