<svg width="18" height="18" viewBox="0 0 18 18" fill="none" xmlns="http://www.w3.org/2000/svg">
<path d="M14.2413 16.9999H11.4829C11.4097 16.9999 11.3396 16.9708 11.2878 16.9191C11.2361 16.8673 11.207 16.7972 11.207 16.724V12.3105C11.207 12.2374 11.2361 12.1672 11.2878 12.1155C11.3396 12.0637 11.4097 12.0347 11.4829 12.0347H14.2413C14.3145 12.0347 14.3846 12.0637 14.4364 12.1155C14.4881 12.1672 14.5172 12.2374 14.5172 12.3105V16.724C14.5172 16.7972 14.4881 16.8673 14.4364 16.9191C14.3846 16.9708 14.3145 16.9999 14.2413 16.9999ZM11.7587 16.4482H13.9655V12.5864H11.7587V16.4482Z" fill="currentColor"/>
<path d="M8.7245 14.2418H4.311C4.23784 14.2418 4.16768 14.2127 4.11595 14.161C4.06422 14.1092 4.03516 14.0391 4.03516 13.9659V11.2075C4.03516 11.1343 4.06422 11.0642 4.11595 11.0124C4.16768 10.9607 4.23784 10.9316 4.311 10.9316H8.7245C8.79765 10.9316 8.86782 10.9607 8.91955 11.0124C8.97128 11.0642 9.00034 11.1343 9.00034 11.2075V13.9659C9.00034 14.0391 8.97128 14.1092 8.91955 14.161C8.86782 14.2127 8.79765 14.2418 8.7245 14.2418ZM4.58684 13.6901H8.44865V11.4833H4.58684V13.6901Z" fill="currentColor"/>
<path d="M6.51803 14.2418C6.44487 14.2418 6.37471 14.2127 6.32298 14.161C6.27125 14.1092 6.24219 14.0391 6.24219 13.9659V11.2075C6.24219 11.1343 6.27125 11.0642 6.32298 11.0124C6.37471 10.9607 6.44487 10.9316 6.51803 10.9316C6.59119 10.9316 6.66135 10.9607 6.71308 11.0124C6.76481 11.0642 6.79387 11.1343 6.79387 11.2075V13.9659C6.79387 14.0391 6.76481 14.1092 6.71308 14.161C6.66135 14.2127 6.59119 14.2418 6.51803 14.2418Z" fill="currentColor"/>
<path d="M16.7231 16.9999H1.27584C1.20269 16.9999 1.13252 16.9709 1.08079 16.9191C1.02906 16.8674 1 16.7972 1 16.7241V9.00045C1 8.92729 1.02906 8.85713 1.08079 8.8054C1.13252 8.75367 1.20269 8.72461 1.27584 8.72461H16.7231C16.7962 8.72461 16.8664 8.75367 16.9181 8.8054C16.9699 8.85713 16.9989 8.92729 16.9989 9.00045V16.7241C16.9989 16.7972 16.9699 16.8674 16.9181 16.9191C16.8664 16.9709 16.7962 16.9999 16.7231 16.9999ZM1.55169 16.4482H16.4472V9.2763H1.55169V16.4482Z" fill="currentColor"/>
<path d="M16.7221 9.27627H8.9985C8.92534 9.27627 8.85518 9.24721 8.80345 9.19548C8.75172 9.14375 8.72266 9.07358 8.72266 9.00043V1.27681C8.72293 1.22235 8.73931 1.16919 8.76975 1.12403C8.80018 1.07887 8.84331 1.04373 8.89368 1.02303C8.94391 1.00191 8.99928 0.996137 9.05279 1.00645C9.1063 1.01676 9.15556 1.04268 9.19435 1.08096L16.918 8.80458C16.9562 8.84337 16.9822 8.89262 16.9925 8.94614C17.0028 8.99965 16.997 9.05501 16.9759 9.10525C16.9552 9.15562 16.9201 9.19874 16.8749 9.22918C16.8297 9.25961 16.7766 9.276 16.7221 9.27627ZM9.27434 8.72458H16.0573L9.27434 1.94159V8.72458Z" fill="currentColor"/>
<path d="M8.99884 9.2764H4.03366C3.9605 9.2764 3.89034 9.24734 3.83861 9.19561C3.78687 9.14388 3.75781 9.07372 3.75781 9.00056V4.03537C3.7579 3.9865 3.77097 3.93852 3.79569 3.89635C3.8204 3.85418 3.85588 3.81934 3.89849 3.79539L8.86368 1.03696C8.90561 1.01275 8.95318 1 9.0016 1C9.05002 1 9.09759 1.01275 9.13952 1.03696C9.1811 1.06161 9.21548 1.09675 9.2392 1.13887C9.26292 1.18099 9.27516 1.2286 9.27468 1.27694V9.00056C9.27468 9.07372 9.24562 9.14388 9.19389 9.19561C9.14216 9.24734 9.072 9.2764 8.99884 9.2764ZM4.3095 8.72471H8.723V1.74587L4.3095 4.19812V8.72471Z" fill="currentColor"/>
<path d="M7.89756 8.17282H5.13912C5.06597 8.17282 4.9958 8.14376 4.94407 8.09203C4.89234 8.0403 4.86328 7.97014 4.86328 7.89698V5.05855C4.86357 5.01041 4.87646 4.96319 4.90065 4.92157C4.92485 4.87995 4.95951 4.84539 5.0012 4.82132L7.75964 3.2435C7.80157 3.21929 7.84914 3.20654 7.89756 3.20654C7.94598 3.20654 7.99355 3.21929 8.03548 3.2435C8.07758 3.2678 8.1125 3.3028 8.13672 3.34494C8.16094 3.38708 8.1736 3.43488 8.1734 3.48348V7.89698C8.1734 7.97014 8.14434 8.0403 8.09261 8.09203C8.04088 8.14376 7.97072 8.17282 7.89756 8.17282ZM5.41497 7.62114H7.62172V3.95793L5.41497 5.21854V7.62114Z" fill="currentColor"/>
</svg>
