<svg width="16" height="16" viewBox="0 0 16 16" fill="none" xmlns="http://www.w3.org/2000/svg">
<path d="M13.2501 6.00875C12.5082 6.00875 11.8926 6.5505 11.773 7.25875H11.7541C10.6513 7.25875 9.7542 8.156 9.7542 9.25875V9.75V11.7275V13.5C9.7542 14.6027 8.85795 15.5 7.7567 15.5C6.65533 15.5 5.75933 14.6027 5.75933 13.5V8.72787C7.87008 8.37025 9.50758 3.5955 9.7517 2.03863C9.81545 1.63162 9.69345 1.22362 9.4082 0.890125C9.06508 0.489375 8.54095 0.25 8.0062 0.25H7.3037C7.3037 0.112 6.55458 0 6.55458 0C6.41658 0 6.30483 0.112 6.30483 0.25V0.75C6.30483 0.888 6.4167 1 6.55458 1C6.55458 1 7.3037 0.888 7.3037 0.75H8.0062C8.39095 0.75 8.78245 0.92825 9.02808 1.21525C9.16158 1.3715 9.30983 1.62762 9.25758 1.96137C8.96483 3.828 7.19945 8.25 5.50908 8.25C3.81845 8.25 2.0532 3.828 1.76058 1.96125C1.70833 1.62762 1.85645 1.3715 1.98995 1.21537C2.23545 0.92825 2.62708 0.75 3.01183 0.75H3.80758C3.80758 0.888 4.5567 1 4.5567 1C4.69458 1 4.80645 0.888 4.80645 0.75V0.25C4.80645 0.112 4.69458 0 4.5567 0C4.5567 0 3.80758 0.112 3.80758 0.25H3.01183C2.47695 0.25 1.95283 0.489375 1.60995 0.890375C1.3247 1.22388 1.2027 1.63175 1.26658 2.03875C1.51058 3.59562 3.14808 8.37025 5.25908 8.728V13.5C5.25908 14.8784 6.37945 16 7.75645 16C9.13358 16 10.254 14.8784 10.254 13.5V11.7275V9.75V9.25875C10.254 8.43163 10.9268 7.75875 11.7538 7.75875H11.7726C11.8922 8.46712 12.5082 9.00875 13.2498 9.00875C14.0768 9.00875 14.7497 8.33587 14.7497 7.50875C14.75 6.68175 14.0771 6.00875 13.2501 6.00875ZM13.2501 8.75875C12.6465 8.75875 12.1416 8.32862 12.0253 7.75875H12.8196C12.9061 7.9075 13.0657 8.00875 13.2501 8.00875C13.5262 8.00875 13.7501 7.78487 13.7501 7.50875C13.7501 7.23263 13.5262 7.00875 13.2501 7.00875C13.0653 7.00875 12.9061 7.11 12.8196 7.25875H12.0253C12.1416 6.68888 12.6465 6.25875 13.2501 6.25875C13.9395 6.25875 14.5 6.8195 14.5 7.50875C14.5 8.198 13.9395 8.75875 13.2501 8.75875Z" fill="currentColor"/>
</svg>
