<svg width="18" height="18" viewBox="0 0 18 18" fill="none" xmlns="http://www.w3.org/2000/svg">
<path fill-rule="evenodd" clip-rule="evenodd" d="M3.83021 9.84891V10.3636C3.83021 10.6349 4.05028 10.8552 4.32163 10.8552H4.44375V16.168C4.44375 16.6271 4.81666 17 5.27608 17C5.73551 17 6.10808 16.6271 6.10808 16.168V10.8552H6.23053C6.50188 10.8552 6.72196 10.6349 6.72196 10.3636V9.84891C7.80604 9.31432 8.55216 8.19804 8.55216 6.90883V4.27611C8.55216 2.46798 7.08441 1 5.27608 1C3.46808 1 2 2.46798 2 4.27611V6.90883C2 8.19804 2.74612 9.31432 3.83021 9.84891ZM5.78155 10.8552H4.77028V16.168C4.77028 16.4469 4.9969 16.6735 5.27608 16.6735C5.55527 16.6735 5.78155 16.4469 5.78155 16.168V10.8552ZM12.2949 10.4883C12.3458 10.6127 12.4255 10.7224 12.5254 10.8093L11.9135 11.8694C11.3198 11.6197 10.6185 11.8449 10.2883 12.4169C9.93045 13.0368 10.143 13.8306 10.7631 14.1885C11.3829 14.5463 12.1767 14.3336 12.5345 13.7138C12.8647 13.1418 12.7092 12.4218 12.1962 12.0327L12.8082 10.9728C12.8957 11.003 12.9894 11.0194 13.087 11.0194C13.1827 11.0194 13.2748 11.0036 13.361 10.9746L13.9719 12.0327C13.4586 12.4218 13.3032 13.1418 13.6333 13.7138C13.9912 14.3336 14.785 14.5463 15.4051 14.1885C16.0248 13.8306 16.2374 13.0368 15.8795 12.4169C15.5494 11.8449 14.848 11.6197 14.2547 11.8694L13.6447 10.8129C13.7551 10.7178 13.8413 10.595 13.8922 10.4553L16.8614 5.31246C16.8895 5.2641 16.8905 5.20486 16.865 5.15536L16.1195 3.72555C16.0921 3.67272 16.0379 3.63909 15.9784 3.63781C15.9187 3.63651 15.8632 3.66779 15.8335 3.71941L13.0841 8.4816L10.3344 3.71941C10.3047 3.66779 10.2491 3.63651 10.1897 3.63781C10.13 3.63909 10.0758 3.67272 10.0483 3.72555L9.30318 5.15536C9.27739 5.20486 9.27869 5.2641 9.30645 5.31246L12.2949 10.4883ZM11.8965 12.225C12.3605 12.4928 12.5195 13.0867 12.2518 13.5505C11.984 14.0143 11.39 14.1735 10.9264 13.9057C10.4624 13.6379 10.3033 13.044 10.5711 12.5802C10.8389 12.1164 11.4328 11.9572 11.8965 12.225ZM14.2713 12.225C14.735 11.9572 15.329 12.1164 15.5967 12.5802C15.8645 13.044 15.7055 13.6379 15.2418 13.9057C14.7778 14.1735 14.1838 14.0143 13.9161 13.5505C13.6483 13.0867 13.8073 12.4928 14.2713 12.225ZM15.1004 12.4696C14.7716 12.2797 14.3507 12.3925 14.1607 12.7213C13.9709 13.0502 14.0836 13.4713 14.4124 13.6611C14.7412 13.851 15.1624 13.7382 15.3522 13.4093C15.5422 13.0805 15.4292 12.6594 15.1004 12.4696ZM11.7554 12.4696C11.4266 12.2797 11.0054 12.3925 10.8157 12.7213C10.6256 13.0502 10.7386 13.4713 11.0674 13.6611C11.3962 13.851 11.8175 13.7382 12.0072 13.4093C12.1969 13.0805 12.0842 12.6594 11.7554 12.4696ZM14.9371 12.7523C15.1099 12.852 15.1693 13.0733 15.0694 13.2461C14.9698 13.4188 14.7484 13.4781 14.5757 13.3783C14.4029 13.2786 14.3438 13.0574 14.4434 12.8846C14.5433 12.7119 14.7644 12.6526 14.9371 12.7523ZM11.5922 12.7523C11.7649 12.8521 11.8243 13.0733 11.7244 13.2461C11.6248 13.4188 11.4034 13.4781 11.2307 13.3783C11.058 13.2786 10.9985 13.0574 11.0984 12.8846C11.198 12.7119 11.4194 12.6526 11.5922 12.7523ZM12.6851 9.81793C12.6054 9.91066 12.5574 10.0312 12.5574 10.163C12.5574 10.4554 12.7948 10.6928 13.087 10.6928C13.3796 10.6928 13.617 10.4554 13.617 10.163C13.617 9.87056 13.3796 9.63314 13.087 9.63314C12.929 9.63314 12.7869 9.70256 12.69 9.81251C12.6883 9.81437 12.6867 9.81616 12.6851 9.81793ZM6.39543 9.98841C6.04637 10.1156 5.66923 10.1849 5.27608 10.1849C4.88294 10.1849 4.50612 10.1156 4.15674 9.98841V10.3636C4.15674 10.4547 4.23053 10.5287 4.32163 10.5287H6.23053C6.32163 10.5287 6.39543 10.4547 6.39543 10.3636V9.98841ZM8.22563 4.27611V6.90883C8.22563 8.53675 6.90417 9.85842 5.27608 9.85842C3.64833 9.85842 2.32653 8.53675 2.32653 6.90883V4.27611C2.32653 2.6482 3.64833 1.32653 5.27608 1.32653C6.90417 1.32653 8.22563 2.6482 8.22563 4.27611ZM12.8953 8.80813L10.2005 4.14021L9.63396 5.22681L12.2952 9.83624C12.3288 9.75494 12.3749 9.6799 12.4304 9.61342L12.8953 8.80813ZM13.2447 8.85642C13.2372 8.88333 13.2232 8.90838 13.2029 8.92872L12.9809 9.31314C13.0155 9.30883 13.0511 9.30661 13.087 9.30661C13.4416 9.30661 13.746 9.52252 13.8762 9.82998L16.5339 5.22681L15.9674 4.14021L13.2447 8.85642ZM7.90596 4.3741C7.90596 2.92268 6.72751 1.74429 5.27608 1.74429C3.82466 1.74429 2.64621 2.92268 2.64621 4.3741V6.81084C2.64621 8.26227 3.82466 9.44065 5.27608 9.44065C6.72751 9.44065 7.90596 8.26227 7.90596 6.81084V4.3741ZM7.57943 4.3741V6.81084C7.57943 8.08206 6.54727 9.11412 5.27608 9.11412C4.0049 9.11412 2.97274 8.08206 2.97274 6.81084V4.3741C2.97274 3.10289 4.0049 2.07082 5.27608 2.07082C6.54727 2.07082 7.57943 3.10289 7.57943 4.3741ZM5.11282 7.48875V7.84741C5.11282 7.93754 5.18596 8.01068 5.27608 8.01068C5.36621 8.01068 5.43935 7.93754 5.43935 7.84741V7.48875C5.43935 7.39863 5.36621 7.32549 5.27608 7.32549C5.18596 7.32549 5.11282 7.39863 5.11282 7.48875ZM3.83021 7.48875V7.84741C3.83021 7.93754 3.90335 8.01068 3.99347 8.01068C4.08359 8.01068 4.15674 7.93754 4.15674 7.84741V7.48875C4.15674 7.39863 4.08359 7.32549 3.99347 7.32549C3.90335 7.32549 3.83021 7.39863 3.83021 7.48875ZM6.39543 7.48875V7.84741C6.39543 7.93754 6.46857 8.01068 6.55869 8.01068C6.64882 8.01068 6.72196 7.93754 6.72196 7.84741V7.48875C6.72196 7.39863 6.64882 7.32549 6.55869 7.32549C6.46857 7.32549 6.39543 7.39863 6.39543 7.48875ZM6.39543 6.10387V6.46256C6.39543 6.55265 6.46857 6.62583 6.55869 6.62583C6.64882 6.62583 6.72196 6.55265 6.72196 6.46256V6.10387C6.72196 6.01378 6.64882 5.9406 6.55869 5.9406C6.46857 5.9406 6.39543 6.01378 6.39543 6.10387ZM3.83021 6.10387V6.46256C3.83021 6.55265 3.90335 6.62583 3.99347 6.62583C4.08359 6.62583 4.15674 6.55265 4.15674 6.46256V6.10387C4.15674 6.01378 4.08359 5.9406 3.99347 5.9406C3.90335 5.9406 3.83021 6.01378 3.83021 6.10387ZM5.11282 6.10387V6.46256C5.11282 6.55265 5.18596 6.62583 5.27608 6.62583C5.36621 6.62583 5.43935 6.55265 5.43935 6.46256V6.10387C5.43935 6.01378 5.36621 5.9406 5.27608 5.9406C5.18596 5.9406 5.11282 6.01378 5.11282 6.10387ZM6.39543 4.73894V5.0976C6.39543 5.18772 6.46857 5.26087 6.55869 5.26087C6.64882 5.26087 6.72196 5.18772 6.72196 5.0976V4.73894C6.72196 4.64885 6.64882 4.57567 6.55869 4.57567C6.46857 4.57567 6.39543 4.64885 6.39543 4.73894ZM3.83021 4.73894V5.0976C3.83021 5.18772 3.90335 5.26087 3.99347 5.26087C4.08359 5.26087 4.15674 5.18772 4.15674 5.0976V4.73894C4.15674 4.64885 4.08359 4.57567 3.99347 4.57567C3.90335 4.57567 3.83021 4.64885 3.83021 4.73894ZM5.11282 4.73894V5.0976C5.11282 5.18772 5.18596 5.26087 5.27608 5.26087C5.36621 5.26087 5.43935 5.18772 5.43935 5.0976V4.73894C5.43935 4.64885 5.36621 4.57567 5.27608 4.57567C5.18596 4.57567 5.11282 4.64885 5.11282 4.73894ZM6.39543 3.44376V3.80242C6.39543 3.89251 6.46857 3.96568 6.55869 3.96568C6.64882 3.96568 6.72196 3.89251 6.72196 3.80242V3.44376C6.72196 3.35363 6.64882 3.28049 6.55869 3.28049C6.46857 3.28049 6.39543 3.35363 6.39543 3.44376ZM3.83021 3.44376V3.80242C3.83021 3.89251 3.90335 3.96568 3.99347 3.96568C4.08359 3.96568 4.15674 3.89251 4.15674 3.80242V3.44376C4.15674 3.35363 4.08359 3.28049 3.99347 3.28049C3.90335 3.28049 3.83021 3.35363 3.83021 3.44376ZM5.11282 3.44376V3.80242C5.11282 3.89251 5.18596 3.96568 5.27608 3.96568C5.36621 3.96568 5.43935 3.89251 5.43935 3.80242V3.44376C5.43935 3.35363 5.36621 3.28049 5.27608 3.28049C5.18596 3.28049 5.11282 3.35363 5.11282 3.44376Z" fill="currentColor"/>
</svg>
