<svg width="18" height="18" viewBox="0 0 18 18" fill="none" xmlns="http://www.w3.org/2000/svg">
<path d="M14.6343 6.65163H13.1909C13.0502 6.65163 12.913 6.77612 12.9203 6.92226C12.9275 7.06841 12.9672 7.18208 13.3154 7.1929C13.3298 8.31153 13.3208 9.43017 13.3154 10.5488C13.0736 10.6444 12.8318 10.7382 12.5865 10.8212C12.5251 10.473 12.2797 10.1681 11.9297 10.0526C11.6392 9.95701 9.8386 10.0021 9.27206 10.0021V9.3165H10.7696C11.1792 9.3165 11.5725 9.30387 11.9315 9.06391C12.3916 8.75538 12.6045 8.2556 12.6045 7.71433C12.6045 7.37152 12.6063 2.85369 12.6045 2.55418C12.5991 1.91728 12.2382 1.34173 11.6356 1.10717C11.3145 0.982682 10.9681 1.00614 10.6307 1.00614C10.1165 1.00614 6.89046 0.979073 6.58915 1.03861C5.88549 1.18115 5.40917 1.81985 5.39474 2.5217C5.38932 2.78152 5.39474 5.44278 5.39474 6.5145C5.39474 7.29755 5.23235 8.29891 5.85662 8.89431C6.14169 9.16675 6.51157 9.30568 6.90309 9.3165H8.72899V10.0021C8.27973 10.0021 6.71364 9.98948 6.38166 10.0021C5.90353 10.0202 5.49217 10.3539 5.41097 10.8194C5.1674 10.7364 4.92744 10.6426 4.68747 10.5488C4.68206 9.43017 4.67484 8.31153 4.68747 7.1929C5.01584 7.1929 5.08801 7.06841 5.0826 6.92226C5.07538 6.77612 4.96352 6.65163 4.81196 6.65163H3.36857C3.22783 6.65163 3.09071 6.77612 3.09793 6.92226C3.10515 7.06841 3.21701 7.1929 3.36857 7.1929H4.1462C4.13176 8.37288 4.14078 9.55286 4.1462 10.7328C4.1462 10.8627 4.2328 10.9493 4.34466 10.9945C4.72356 11.1442 5.10606 11.2976 5.49397 11.4184C5.65635 11.7432 5.99555 11.9615 6.37986 11.9778H8.01089V12.7067C8.01089 12.8528 8.13539 12.9773 8.28153 12.9773H8.72718V14.3738C7.5472 14.3955 6.36903 14.5687 5.23055 14.9043C5.11688 14.9385 5.03208 15.045 5.03208 15.1659V15.5971C4.83542 15.6819 4.66943 15.8443 4.61169 16.059C4.53772 16.3332 4.62613 16.6869 4.90759 16.8745C5.13312 17.0261 5.41639 17.0387 5.65635 16.9214C5.95044 16.7789 6.09478 16.4433 6.03885 16.1293C5.99375 15.8767 5.8061 15.6747 5.57516 15.5845V15.3698C6.60719 15.0847 7.66628 14.9331 8.72899 14.9133V15.5881C8.52511 15.6711 8.36272 15.8389 8.29416 16.0572C8.22019 16.2935 8.29597 16.6941 8.59006 16.8727C8.821 17.0134 9.09886 17.0369 9.33882 16.9196C9.61307 16.7861 9.77725 16.4415 9.72132 16.1275C9.67802 15.8804 9.49579 15.6819 9.27206 15.5899V14.9133C10.3348 14.9367 11.3939 15.0919 12.4259 15.3698V15.5808C12.2148 15.6602 12.0434 15.8316 11.9766 16.0554C11.9153 16.2556 11.9387 16.6544 12.2725 16.8709C12.4999 17.0188 12.7813 17.0351 13.0213 16.9178C13.3154 16.7753 13.4597 16.4397 13.4038 16.1257C13.3605 15.884 13.1873 15.6891 12.969 15.5935V15.1587C12.969 15.0396 12.8842 14.9313 12.7705 14.897C11.632 14.5705 10.4538 14.3937 9.27387 14.3684V12.9701H9.71952C9.86566 12.9701 9.99015 12.8456 9.99015 12.6995V11.9705C10.2698 11.9705 11.4011 11.9886 11.6843 11.9687C12.0434 11.9435 12.3537 11.7234 12.5053 11.413C12.8968 11.2903 13.2793 11.1388 13.6582 10.9872C13.7719 10.9421 13.8567 10.8555 13.8567 10.7256C13.8621 9.54564 13.8711 8.36566 13.8567 7.18568H14.6343C14.775 7.18568 14.9121 7.06119 14.9049 6.91505C14.8977 6.7689 14.7858 6.64441 14.6343 6.64441V6.65163ZM5.93962 7.76665C5.93962 7.49241 5.93962 3.13695 5.93962 2.76167C5.93962 2.41886 5.95947 2.0959 6.22289 1.83248C6.49894 1.55643 6.83813 1.54922 7.19718 1.54922C7.63561 1.54922 10.2049 1.5438 11.0492 1.54922C11.605 1.55282 12.0542 1.94795 12.065 2.51629C12.0686 2.70935 12.0921 7.82258 12.038 8.03909C11.9135 8.54067 11.4732 8.77703 10.9879 8.77703H6.90489C6.34016 8.77703 5.94142 8.32056 5.93781 7.76665H5.93962ZM5.32257 16.4577C5.21792 16.4577 5.13132 16.3729 5.13132 16.2665C5.13132 16.16 5.21431 16.0752 5.32257 16.0752C5.4236 16.0752 5.51382 16.1582 5.51382 16.2665C5.51382 16.3675 5.43263 16.4577 5.32257 16.4577ZM12.6821 16.4577C12.5702 16.4577 12.489 16.3675 12.489 16.2665C12.489 16.1546 12.5829 16.0752 12.6821 16.0752C12.7922 16.0752 12.8733 16.1618 12.8733 16.2665C12.8733 16.3585 12.7994 16.4577 12.6821 16.4577ZM9.00143 16.4577C8.90761 16.4577 8.81018 16.3855 8.81018 16.2755C8.81018 16.1654 8.88956 16.0752 9.00143 16.0752C9.10246 16.0752 9.19268 16.151 9.19268 16.2755C9.19268 16.3747 9.10427 16.4577 9.00143 16.4577ZM9.31897 12.4342H8.68388C8.61351 12.4342 8.55578 12.3765 8.55578 12.3061V11.976H9.44527V12.3061C9.44527 12.3765 9.38754 12.4342 9.31717 12.4342H9.31897ZM11.5869 11.4347C10.7335 11.4473 7.26213 11.4347 6.38166 11.4347C5.98833 11.4184 5.77543 10.9295 6.08757 10.6553C6.19943 10.556 6.33114 10.5452 6.47007 10.5452C6.81287 10.5452 11.3343 10.5344 11.605 10.5452C12.2076 10.5686 12.1859 11.4275 11.5851 11.4347H11.5869Z" fill="currentColor"/>
</svg>
