<svg width="28" height="29" viewBox="0 0 28 29" fill="none" xmlns="http://www.w3.org/2000/svg">
<path d="M14 0.5C6.26635 0.5 0 6.76635 0 14.5C0 22.2337 6.26635 28.5 14 28.5C21.7337 28.5 28 22.2337 28 14.5C28 6.76635 21.7337 0.5 14 0.5ZM14 27.3356C6.92596 27.3356 1.16442 21.5808 1.16442 14.5C1.16442 7.42596 6.91923 1.66442 14 1.66442C21.074 1.66442 26.8356 7.41923 26.8356 14.5C26.8356 21.574 21.074 27.3356 14 27.3356Z" fill="currentColor"/>
<path d="M14.2414 7.0957C11.3337 7.0957 9.7116 8.46205 9.69141 11.2822H10.9568C10.9164 9.23609 12.0001 8.15243 14.1808 8.15243C15.7424 8.15243 17.0481 9.24282 17.0481 10.8313C17.0481 11.8611 16.4895 12.6957 15.7424 13.3957C14.2212 14.7957 13.7904 15.8188 13.7164 17.7371H14.9953C15.0693 16.0005 15.0289 15.6707 16.5635 14.1495C17.5866 13.1938 18.3068 12.2447 18.3068 10.7707C18.3068 8.46878 16.4626 7.0957 14.2414 7.0957ZM14.2885 19.6351C13.6558 19.6351 13.1443 20.1399 13.1443 20.7659C13.1443 21.3919 13.6558 21.9034 14.2885 21.9034C14.9212 21.9034 15.4328 21.3986 15.4328 20.7659C15.4328 20.1399 14.9212 19.6351 14.2885 19.6351Z" fill="currentColor"/>
</svg>
