<svg width="18" height="18" viewBox="0 0 18 18" fill="none" xmlns="http://www.w3.org/2000/svg">
<path d="M8.87916 9.60274H14.6937C14.8363 9.60274 14.9518 9.48718 14.9518 9.34467V7.75709C14.9518 7.61458 14.8363 7.49902 14.6937 7.49902H8.87916C8.73653 7.49902 8.62109 7.61458 8.62109 7.75709V9.34467C8.62109 9.48718 8.73653 9.60274 8.87916 9.60274ZM13.0135 8.01515H14.4356V9.08661H13.0135V8.01515ZM11.0755 8.01515H12.4974V9.08661H11.0755V8.01515ZM9.13722 8.01515H10.5593V9.08661H9.13722V8.01515Z" fill="currentColor"/>
<path d="M16.7419 16.4236H16.4516V3.59303C16.7539 3.5304 16.9819 3.26253 16.9819 2.9423V2.60168C16.9819 2.23512 16.6832 1.93698 16.3163 1.93698H7.2543C6.88761 1.93698 6.58947 2.23512 6.58947 2.60168V2.94227C6.58947 2.9935 6.59657 3.04289 6.60759 3.09084H3.78503V2.14441C3.78503 2.00191 3.6696 1.88635 3.52697 1.88635C3.38434 1.88635 3.2689 2.00191 3.2689 2.14441V3.09086H2.42867V1.25806C2.42867 1.11556 2.31324 1 2.17061 1C2.02797 1 1.91254 1.11556 1.91254 1.25806V3.09086H1.57081C1.25605 3.09086 1 3.34728 1 3.66255V4.40803C1 4.72266 1.25605 4.97871 1.57081 4.97871H1.61995V16.4236H1.25806C1.11543 16.4236 1 16.5392 1 16.6817C1 16.8242 1.11543 16.9398 1.25806 16.9398H16.7419C16.8846 16.9398 17 16.8242 17 16.6817C17 16.5392 16.8846 16.4236 16.7419 16.4236ZM3.8231 16.4236V13.8775H5.36619V16.4236H3.8231ZM7.1192 16.4236H5.8823V13.6195C5.8823 13.477 5.76686 13.3614 5.62423 13.3614H3.56501C3.42237 13.3614 3.30694 13.477 3.30694 13.6195V16.4236H2.13608V4.97871H7.1192V16.4236ZM1.87801 4.46258H1.57081C1.54157 4.46258 1.51613 4.43711 1.51613 4.40803V3.66255C1.51613 3.63244 1.54108 3.60699 1.57081 3.60699H7.1192V4.46258H1.87801ZM11.5277 16.4236H10.4337V13.8775H11.5277V16.4236ZM13.1371 16.4236H12.0439V13.8775H13.1371V16.4236ZM15.9355 16.4236H13.6532V13.6195C13.6532 13.477 13.5378 13.3614 13.3951 13.3614H10.1757C10.033 13.3614 9.9176 13.477 9.9176 13.6195V16.4236H7.63533V3.60699H15.9355V16.4236ZM16.3163 3.09086H16.1935H7.37726H7.25427C7.17236 3.09086 7.10557 3.02421 7.10557 2.9423V2.60168C7.10557 2.52116 7.17363 2.45311 7.25427 2.45311H16.3163C16.3972 2.45311 16.4657 2.52116 16.4657 2.60168V2.94227C16.4657 3.02418 16.3987 3.09086 16.3163 3.09086Z" fill="currentColor"/>
<path d="M3.29322 8.23944H5.92628C6.06891 8.23944 6.18434 8.12387 6.18434 7.98137V6.37476C6.18434 6.23226 6.06891 6.1167 5.92628 6.1167H3.29322C3.15059 6.1167 3.03516 6.23226 3.03516 6.37476V7.98137C3.03516 8.12387 3.15056 8.23944 3.29322 8.23944ZM4.8678 6.63283H5.66821V7.72331H4.8678V6.63283ZM3.55129 6.63283H4.3517V7.72331H3.55129V6.63283Z" fill="currentColor"/>
<path d="M3.29322 11.4587H5.92628C6.06891 11.4587 6.18434 11.3431 6.18434 11.2006V9.59303C6.18434 9.45052 6.06891 9.33496 5.92628 9.33496H3.29322C3.15059 9.33496 3.03516 9.45052 3.03516 9.59303V11.2006C3.03516 11.3431 3.15056 11.4587 3.29322 11.4587ZM4.8678 9.85109H5.66821V10.9426H4.8678V9.85109ZM3.55129 9.85109H4.3517V10.9426H3.55129V9.85109Z" fill="currentColor"/>
<path d="M8.87916 12.448H14.6937C14.8363 12.448 14.9518 12.3324 14.9518 12.1899V10.6023C14.9518 10.4598 14.8363 10.3442 14.6937 10.3442H8.87916C8.73653 10.3442 8.62109 10.4598 8.62109 10.6023V12.1899C8.62109 12.3324 8.73653 12.448 8.87916 12.448ZM13.0135 10.8604H14.4356V11.9319H13.0135V10.8604ZM11.0755 10.8604H12.4974V11.9319H11.0755V10.8604ZM9.13722 10.8604H10.5593V11.9319H9.13722V10.8604Z" fill="currentColor"/>
<path d="M8.87916 6.75812H14.6937C14.8363 6.75812 14.9518 6.64255 14.9518 6.50005V4.91236C14.9518 4.76986 14.8363 4.6543 14.6937 4.6543H8.87916C8.73653 4.6543 8.62109 4.76986 8.62109 4.91236V6.50005C8.62109 6.64258 8.73653 6.75812 8.87916 6.75812ZM13.0135 5.17043H14.4356V6.24199H13.0135V5.17043ZM11.0755 5.17043H12.4974V6.24199H11.0755V5.17043ZM9.13722 5.17043H10.5593V6.24199H9.13722V5.17043Z" fill="currentColor"/>
</svg>
