<svg width="18" height="18" viewBox="0 0 18 18" fill="none" xmlns="http://www.w3.org/2000/svg">
<path d="M5.80212 16.9452H2.10527C2.07736 16.9452 2.05058 16.9341 2.03084 16.9144C2.0111 16.8946 2.00001 16.8679 2.00001 16.8399V8.83994C1.99967 8.81581 2.00798 8.79237 2.02342 8.77383C2.03887 8.7553 2.06043 8.7429 2.08422 8.73888L5.78106 7.95573C5.79505 7.94982 5.81009 7.94678 5.82527 7.94678C5.84046 7.94678 5.85549 7.94982 5.86948 7.95573C5.88123 7.96551 5.89071 7.97773 5.89725 7.99155C5.90379 8.00536 5.90725 8.02044 5.90738 8.03573V16.8399C5.90738 16.8679 5.89629 16.8946 5.87655 16.9144C5.85681 16.9341 5.83003 16.9452 5.80212 16.9452ZM2.21054 16.7347H5.7179V8.20415L2.23159 8.94099L2.21054 16.7347Z" fill="currentColor" stroke="currentColor" stroke-width="0.1"/>
<path d="M11.6833 17H9.08544V15.3874C9.10623 15.3241 9.11173 15.2569 9.10148 15.1911C9.09123 15.1253 9.06554 15.0629 9.0265 15.009C8.98747 14.9551 8.9362 14.9112 8.87692 14.8809C8.81763 14.8506 8.75201 14.8348 8.68544 14.8348C8.61888 14.8348 8.55326 14.8506 8.49397 14.8809C8.43469 14.9112 8.38342 14.9551 8.34439 15.009C8.30535 15.0629 8.27965 15.1253 8.26941 15.1911C8.25916 15.2569 8.26466 15.3241 8.28544 15.3874V17H5.63281V1H11.6833V17ZM9.41386 16.6842H11.3675V1.30316H5.96123V16.6842H7.98229V15.3874C7.98229 15.1975 8.0577 15.0155 8.19194 14.8812C8.32617 14.747 8.50824 14.6716 8.69808 14.6716C8.88792 14.6716 9.06998 14.747 9.20422 14.8812C9.33845 15.0155 9.41386 15.1975 9.41386 15.3874V16.6842Z" fill="currentColor" stroke="currentColor" stroke-width="0.1"/>
<path d="M3.50967 10.9116H2.88651C2.8586 10.9116 2.83182 10.9005 2.81208 10.8808C2.79234 10.8611 2.78125 10.8343 2.78125 10.8064V10.179C2.78125 10.1511 2.79234 10.1243 2.81208 10.1046C2.83182 10.0848 2.8586 10.0737 2.88651 10.0737H3.50967C3.53685 10.0748 3.56256 10.0864 3.5814 10.106C3.60024 10.1256 3.61075 10.1518 3.61072 10.179V10.8064C3.61075 10.8336 3.60024 10.8597 3.5814 10.8793C3.56256 10.899 3.53685 10.9105 3.50967 10.9116ZM2.99178 10.7011H3.41283V10.28H2.99178V10.7011Z" fill="currentColor" stroke="currentColor" stroke-width="0.1"/>
<path d="M4.9667 10.9116H4.34354C4.31563 10.9116 4.28885 10.9005 4.26911 10.8808C4.24937 10.8611 4.23828 10.8343 4.23828 10.8064V10.179C4.23828 10.1511 4.24937 10.1243 4.26911 10.1046C4.28885 10.0848 4.31563 10.0737 4.34354 10.0737H4.9667C4.99462 10.0737 5.02139 10.0848 5.04113 10.1046C5.06088 10.1243 5.07197 10.1511 5.07197 10.179V10.8064C5.07197 10.8343 5.06088 10.8611 5.04113 10.8808C5.02139 10.9005 4.99462 10.9116 4.9667 10.9116ZM4.45302 10.7011H4.87407V10.28H4.45302V10.7011Z" fill="currentColor" stroke="currentColor" stroke-width="0.1"/>
<path d="M3.50967 12.1538H2.88651C2.8586 12.1538 2.83182 12.1427 2.81208 12.1229C2.79234 12.1032 2.78125 12.0764 2.78125 12.0485V11.4422C2.78125 11.4143 2.79234 11.3875 2.81208 11.3677C2.83182 11.348 2.8586 11.3369 2.88651 11.3369H3.50967C3.53685 11.338 3.56256 11.3496 3.5814 11.3692C3.60024 11.3888 3.61075 11.415 3.61072 11.4422V12.0653C3.60681 12.0895 3.59457 12.1116 3.57613 12.1277C3.55768 12.1439 3.53418 12.1531 3.50967 12.1538ZM2.99178 11.9432H3.41283V11.5222H2.99178V11.9432Z" fill="currentColor" stroke="currentColor" stroke-width="0.1"/>
<path d="M4.9667 12.1538H4.34354C4.31563 12.1538 4.28885 12.1427 4.26911 12.1229C4.24937 12.1032 4.23828 12.0764 4.23828 12.0485V11.4422C4.23828 11.4143 4.24937 11.3875 4.26911 11.3677C4.28885 11.348 4.31563 11.3369 4.34354 11.3369H4.9667C4.99462 11.3369 5.02139 11.348 5.04113 11.3677C5.06088 11.3875 5.07197 11.4143 5.07197 11.4422V12.0653C5.06793 12.0902 5.05508 12.1129 5.03576 12.1291C5.01644 12.1453 4.99193 12.1541 4.9667 12.1538ZM4.45302 11.9432H4.87407V11.5222H4.45302V11.9432Z" fill="currentColor" stroke="currentColor" stroke-width="0.1"/>
<path d="M3.50216 13.4001H2.87479C2.84688 13.4001 2.8201 13.389 2.80036 13.3693C2.78062 13.3495 2.76953 13.3227 2.76953 13.2948V12.6717C2.76953 12.6438 2.78062 12.617 2.80036 12.5972C2.8201 12.5775 2.84688 12.5664 2.87479 12.5664H3.50216C3.53008 12.5664 3.55685 12.5775 3.5766 12.5972C3.59634 12.617 3.60743 12.6438 3.60743 12.6717V13.2948C3.60743 13.3227 3.59634 13.3495 3.5766 13.3693C3.55685 13.389 3.53008 13.4001 3.50216 13.4001ZM2.98006 13.1896H3.40111V12.7685H2.98006V13.1896Z" fill="currentColor" stroke="currentColor" stroke-width="0.1"/>
<path d="M4.95919 13.4001H4.33183C4.30391 13.4001 4.27713 13.389 4.25739 13.3693C4.23765 13.3495 4.22656 13.3227 4.22656 13.2948V12.6717C4.22656 12.6438 4.23765 12.617 4.25739 12.5972C4.27713 12.5775 4.30391 12.5664 4.33183 12.5664H4.95919C4.98711 12.5664 5.01389 12.5775 5.03363 12.5972C5.05337 12.617 5.06446 12.6438 5.06446 12.6717V13.2948C5.06446 13.3227 5.05337 13.3495 5.03363 13.3693C5.01389 13.389 4.98711 13.4001 4.95919 13.4001ZM4.45393 13.1896H4.87498V12.7685H4.45393V13.1896Z" fill="currentColor" stroke="currentColor" stroke-width="0.1"/>
<path d="M3.50216 14.6465H2.87479C2.84688 14.6465 2.8201 14.6354 2.80036 14.6157C2.78062 14.5959 2.76953 14.5691 2.76953 14.5412V13.9139C2.76953 13.8859 2.78062 13.8592 2.80036 13.8394C2.8201 13.8197 2.84688 13.8086 2.87479 13.8086H3.50216C3.52975 13.8096 3.55592 13.8211 3.57544 13.8406C3.59496 13.8601 3.60638 13.8863 3.60743 13.9139V14.5412C3.60743 14.5691 3.59634 14.5959 3.5766 14.6157C3.55685 14.6354 3.53008 14.6465 3.50216 14.6465ZM2.98006 14.436H3.40111V14.0149H2.98006V14.436Z" fill="currentColor" stroke="currentColor" stroke-width="0.1"/>
<path d="M4.95919 14.6465H4.33183C4.30391 14.6465 4.27713 14.6354 4.25739 14.6157C4.23765 14.5959 4.22656 14.5691 4.22656 14.5412V13.9139C4.22656 13.8859 4.23765 13.8592 4.25739 13.8394C4.27713 13.8197 4.30391 13.8086 4.33183 13.8086H4.95919C4.98711 13.8086 5.01389 13.8197 5.03363 13.8394C5.05337 13.8592 5.06446 13.8859 5.06446 13.9139V14.5412C5.06446 14.5691 5.05337 14.5959 5.03363 14.6157C5.01389 14.6354 4.98711 14.6465 4.95919 14.6465ZM4.45393 14.436H4.87498V14.0149H4.45393V14.436Z" fill="currentColor" stroke="currentColor" stroke-width="0.1"/>
<path d="M4.9667 9.66528H4.34354C4.31563 9.66528 4.28885 9.65419 4.26911 9.63445C4.24937 9.61471 4.23828 9.58794 4.23828 9.56002V8.91581C4.23828 8.88789 4.24937 8.86112 4.26911 8.84138C4.28885 8.82164 4.31563 8.81055 4.34354 8.81055H4.9667C4.99462 8.81055 5.02139 8.82164 5.04113 8.84138C5.06088 8.86112 5.07197 8.88789 5.07197 8.91581V9.54318C5.07442 9.55834 5.07354 9.57386 5.06936 9.58865C5.06518 9.60343 5.05782 9.61712 5.04779 9.62876C5.03776 9.6404 5.0253 9.6497 5.01129 9.65601C4.99728 9.66231 4.98206 9.66548 4.9667 9.66528ZM4.45302 9.45476H4.87407V9.03371H4.45302V9.45476Z" fill="currentColor" stroke="currentColor" stroke-width="0.1"/>
<path d="M15.3292 16.945H11.4219V4.88184H15.3292V16.945ZM11.6324 16.7345H15.1187V5.09236H11.6324V16.7345Z" fill="currentColor" stroke="currentColor" stroke-width="0.1"/>
<path d="M14.44 14.9325H13.5979V14.3262H14.44V14.9325ZM13.8042 14.722H14.2253V14.5367H13.8042V14.722ZM13.1432 14.9241H12.3011V14.3178H13.1432V14.9241ZM12.5074 14.7136H12.9285V14.5283H12.5074V14.7136ZM14.44 14.1452H13.5979V13.5473H14.44V14.1452ZM13.8042 13.9346H14.2253V13.7494H13.8042V13.9346ZM13.1432 14.1367H12.3011V13.5473H13.1432V14.1367ZM12.5074 13.9262H12.9285V13.7409H12.5074V13.9262ZM14.4527 13.3578H13.6106V12.7515H14.4527V13.3578ZM13.8169 13.1473H14.2379V12.962H13.8169V13.1473ZM13.1558 13.3494H12.3137V12.7431H13.1558V13.3494ZM12.52 13.1262H12.9411V12.9409H12.52V13.1262ZM14.4527 12.5578H13.6106V11.9641H14.4527V12.5578ZM13.8169 12.3473H14.2379V12.162H13.8169V12.3473ZM13.1558 12.5494H12.3137V11.9557H13.1558V12.5494ZM12.52 12.3388H12.9411V12.1536H12.52V12.3388ZM14.4485 11.7746H13.6063V11.1809H14.4485V11.7746ZM13.8085 11.5641H14.2295V11.3788H13.8085V11.5641ZM13.1516 11.762H12.3095V11.1683H13.1516V11.762ZM12.5116 11.5515H12.9327V11.3662H12.5116V11.5515ZM14.4485 11.0209H13.6063V10.3936H14.4485V11.0209ZM13.8085 10.8104H14.2295V10.5999H13.8085V10.8104ZM13.1516 11.0083H12.3095V10.3809H13.1516V11.0083ZM12.5116 10.7978H12.9327V10.5999H12.5116V10.7978ZM14.4569 10.2336H13.6148V9.60621H14.4569V10.2336ZM13.8211 10.0231H14.2421V9.83779H13.8211V10.0231ZM13.16 10.2209H12.3179V9.59358H13.16V10.2209ZM12.5242 10.0104H12.9453V9.82516H12.5242V10.0104ZM14.4569 9.44621H13.6148V8.81884H14.4569V9.44621ZM13.8211 9.23569H14.2421V9.05042H13.8211V9.23569ZM13.16 9.43358H12.3179V8.80621H13.16V9.43358ZM12.5242 9.22305H12.9453V9.03779H12.5242V9.22305ZM14.4358 8.65884H13.5937V8.03148H14.4358V8.65884ZM13.8 8.44832H14.2211V8.242H13.8V8.44832ZM13.139 8.64621H12.2969V8.01884H13.139V8.64621ZM12.5032 8.43569H12.9242V8.25042H12.5032V8.43569ZM14.4358 7.87148H13.5937V7.23148H14.4358V7.87148ZM13.8 7.65253H14.2211V7.46726H13.8V7.65253ZM13.139 7.85042H12.2969V7.23148H13.139V7.85042ZM12.5032 7.6399H12.9242V7.442H12.5032V7.6399ZM14.4485 7.07569H13.6063V6.45674H14.4485V7.07569ZM13.8085 6.86516H14.2295V6.6799H13.8085V6.86516ZM13.1516 7.06305H12.3095V6.44411H13.1516V7.06305ZM12.5116 6.85253H12.9327V6.66726H12.5116V6.85253ZM14.4485 6.28832H13.6063V5.66937H14.4485V6.28832ZM13.8085 6.07779H14.2295V5.89253H13.8085V6.07779ZM13.1516 6.27569H12.3095V5.65674H13.1516V6.27569ZM12.5116 6.06516H12.9327V5.8799H12.5116V6.06516Z" fill="currentColor" stroke="currentColor" stroke-width="0.1"/>
<path d="M11.5386 5.09236H5.81229C5.78438 5.09236 5.7576 5.08127 5.73786 5.06153C5.71812 5.04179 5.70703 5.01502 5.70703 4.9871C5.70703 4.95918 5.71812 4.93241 5.73786 4.91267C5.7576 4.89293 5.78438 4.88184 5.81229 4.88184H11.5386C11.5665 4.88184 11.5933 4.89293 11.613 4.91267C11.6328 4.93241 11.6439 4.95918 11.6439 4.9871C11.6428 5.01468 11.6314 5.04086 11.6119 5.06038C11.5924 5.0799 11.5662 5.09132 11.5386 5.09236Z" fill="currentColor" stroke="currentColor" stroke-width="0.1"/>
<path d="M11.5386 7.91365H5.81229C5.78438 7.91365 5.7576 7.90256 5.73786 7.88282C5.71812 7.86308 5.70703 7.83631 5.70703 7.80839C5.70703 7.78047 5.71812 7.7537 5.73786 7.73396C5.7576 7.71422 5.78438 7.70312 5.81229 7.70312H11.5386C11.5665 7.70312 11.5933 7.71422 11.613 7.73396C11.6328 7.7537 11.6439 7.78047 11.6439 7.80839C11.6428 7.83597 11.6314 7.86215 11.6119 7.88166C11.5924 7.90118 11.5662 7.91261 11.5386 7.91365Z" fill="currentColor" stroke="currentColor" stroke-width="0.1"/>
<path d="M11.5386 10.44H5.81229C5.78438 10.44 5.7576 10.4289 5.73786 10.4092C5.71812 10.3894 5.70703 10.3627 5.70703 10.3348C5.70703 10.3068 5.71812 10.2801 5.73786 10.2603C5.7576 10.2406 5.78438 10.2295 5.81229 10.2295H11.5386C11.5665 10.2295 11.5933 10.2406 11.613 10.2603C11.6328 10.2801 11.6439 10.3068 11.6439 10.3348C11.6428 10.3623 11.6314 10.3885 11.6119 10.408C11.5924 10.4276 11.5662 10.439 11.5386 10.44Z" fill="currentColor" stroke="currentColor" stroke-width="0.1"/>
<path d="M11.5269 13.1597H5.80058C5.77266 13.1597 5.74588 13.1487 5.72614 13.1289C5.7064 13.1092 5.69531 13.0824 5.69531 13.0545C5.69531 13.0266 5.7064 12.9998 5.72614 12.98C5.74588 12.9603 5.77266 12.9492 5.80058 12.9492H11.5269C11.5548 12.9492 11.5816 12.9603 11.6013 12.98C11.6211 12.9998 11.6322 13.0266 11.6322 13.0545C11.6322 13.0824 11.6211 13.1092 11.6013 13.1289C11.5816 13.1487 11.5548 13.1597 11.5269 13.1597Z" fill="currentColor" stroke="currentColor" stroke-width="0.1"/>
<path d="M7.71073 13.1514C7.68281 13.1514 7.65604 13.1403 7.6363 13.1206C7.61656 13.1009 7.60547 13.0741 7.60547 13.0462V2.39774C7.60547 2.36983 7.61656 2.34305 7.6363 2.32331C7.65604 2.30357 7.68281 2.29248 7.71073 2.29248C7.73865 2.29248 7.76542 2.30357 7.78516 2.32331C7.8049 2.34305 7.816 2.36983 7.816 2.39774V13.0462C7.816 13.0741 7.8049 13.1009 7.78516 13.1206C7.76542 13.1403 7.73865 13.1514 7.71073 13.1514Z" fill="currentColor" stroke="currentColor" stroke-width="0.1"/>
<path d="M9.71073 13.1598C9.68281 13.1598 9.65604 13.1487 9.6363 13.1289C9.61656 13.1092 9.60547 13.0824 9.60547 13.0545V2.35136C9.60547 2.32344 9.61656 2.29667 9.6363 2.27692C9.65604 2.25718 9.68281 2.24609 9.71073 2.24609C9.73865 2.24609 9.76542 2.25718 9.78516 2.27692C9.8049 2.29667 9.816 2.32344 9.816 2.35136V13.0545C9.816 13.0824 9.8049 13.1092 9.78516 13.1289C9.76542 13.1487 9.73865 13.1598 9.71073 13.1598Z" fill="currentColor" stroke="currentColor" stroke-width="0.1"/>
<path d="M11.5271 2.14111H5.80078V2.56217H11.5271V2.14111Z" fill="currentColor" stroke="currentColor" stroke-width="0.1"/>
<path d="M4.64849 8.37279C4.63397 8.37279 4.62005 8.36703 4.60978 8.35676C4.59952 8.3465 4.59375 8.33257 4.59375 8.31806V6.95806C4.59375 6.94354 4.59952 6.92962 4.60978 6.91935C4.62005 6.90909 4.63397 6.90332 4.64849 6.90332C4.66226 6.90438 4.67513 6.91062 4.6845 6.92077C4.69387 6.93092 4.69905 6.94424 4.69901 6.95806V8.31806C4.69905 8.33187 4.69387 8.34519 4.6845 8.35535C4.67513 8.3655 4.66226 8.37173 4.64849 8.37279Z" fill="currentColor" stroke="currentColor" stroke-width="0.1"/>
<path d="M4.33195 8.4399C4.32495 8.43993 4.31801 8.4385 4.31159 8.4357C4.30517 8.4329 4.2994 8.4288 4.29465 8.42365C4.2899 8.4185 4.28627 8.41242 4.28399 8.4058C4.28172 8.39917 4.28084 8.39215 4.28143 8.38517V7.74517C4.28084 7.73819 4.28172 7.73116 4.28399 7.72454C4.28627 7.71791 4.2899 7.71183 4.29465 7.70668C4.2994 7.70154 4.30517 7.69743 4.31159 7.69464C4.31801 7.69184 4.32495 7.69041 4.33195 7.69043C4.34647 7.69043 4.36039 7.6962 4.37066 7.70646C4.38092 7.71673 4.38669 7.73065 4.38669 7.74517V8.38517C4.38669 8.39968 4.38092 8.41361 4.37066 8.42387C4.36039 8.43414 4.34647 8.4399 4.33195 8.4399Z" fill="currentColor" stroke="currentColor" stroke-width="0.1"/>
<path d="M4.96099 8.30517C4.95401 8.30575 4.94698 8.30488 4.94036 8.3026C4.93373 8.30032 4.92765 8.29669 4.92251 8.29194C4.91736 8.28719 4.91326 8.28142 4.91046 8.275C4.90766 8.26858 4.90623 8.26165 4.90625 8.25464V7.74517C4.90625 7.73065 4.91202 7.71673 4.92228 7.70646C4.93255 7.6962 4.94647 7.69043 4.96099 7.69043C4.96799 7.69041 4.97493 7.69184 4.98135 7.69464C4.98777 7.69743 4.99354 7.70154 4.99829 7.70668C5.00304 7.71183 5.00667 7.71791 5.00895 7.72454C5.01122 7.73116 5.0121 7.73819 5.01151 7.74517V8.25464C5.01151 8.26804 5.00619 8.28089 4.99671 8.29037C4.98724 8.29984 4.97439 8.30517 4.96099 8.30517Z" fill="currentColor" stroke="currentColor" stroke-width="0.1"/>
</svg>
