<svg width="18" height="18" viewBox="0 0 18 18" fill="none" xmlns="http://www.w3.org/2000/svg">
<path d="M11.7613 16.9795H9.006C8.93292 16.9795 8.86284 16.9505 8.81117 16.8988C8.7595 16.8472 8.73047 16.7771 8.73047 16.704V12.2955C8.73047 12.2225 8.7595 12.1524 8.81117 12.1007C8.86284 12.049 8.93292 12.02 9.006 12.02H11.7613C11.8344 12.02 11.9044 12.049 11.9561 12.1007C12.0078 12.1524 12.0368 12.2225 12.0368 12.2955V16.704C12.0368 16.7771 12.0078 16.8472 11.9561 16.8988C11.9044 16.9505 11.8344 16.9795 11.7613 16.9795ZM9.28152 16.4285H11.4857V12.5711H9.28152V16.4285Z" fill="currentColor"/>
<path d="M15.0707 11.1935H10.6622C10.5892 11.1935 10.5191 11.1645 10.4674 11.1128C10.4157 11.0612 10.3867 10.9911 10.3867 10.918V8.16274C10.3867 8.08966 10.4157 8.01958 10.4674 7.96791C10.5191 7.91624 10.5892 7.88721 10.6622 7.88721H15.0707C15.1438 7.88721 15.2139 7.91624 15.2655 7.96791C15.3172 8.01958 15.3462 8.08966 15.3462 8.16274V10.918C15.3462 10.9911 15.3172 11.0612 15.2655 11.1128C15.2139 11.1645 15.1438 11.1935 15.0707 11.1935ZM10.9378 10.6425H14.7952V8.43826H10.9378V10.6425Z" fill="currentColor"/>
<path d="M12.8654 11.1935C12.7923 11.1935 12.7222 11.1645 12.6705 11.1128C12.6189 11.0612 12.5898 10.9911 12.5898 10.918V8.16274C12.5898 8.08966 12.6189 8.01958 12.6705 7.96791C12.7222 7.91624 12.7923 7.88721 12.8654 7.88721C12.9384 7.88721 13.0085 7.91624 13.0602 7.96791C13.1119 8.01958 13.1409 8.08966 13.1409 8.16274V10.918C13.1409 10.9911 13.1119 11.0612 13.0602 11.1128C13.0085 11.1645 12.9384 11.1935 12.8654 11.1935Z" fill="currentColor"/>
<path d="M7.07823 15.3263H3.22084C3.14777 15.3263 3.07768 15.2973 3.02601 15.2456C2.97434 15.194 2.94531 15.1239 2.94531 15.0508V8.43813C2.94531 8.36505 2.97434 8.29497 3.02601 8.2433C3.07768 8.19163 3.14777 8.1626 3.22084 8.1626H7.07823C7.15131 8.1626 7.22139 8.19163 7.27306 8.2433C7.32473 8.29497 7.35376 8.36505 7.35376 8.43813V15.0508C7.35376 15.1239 7.32473 15.194 7.27306 15.2456C7.22139 15.2973 7.15131 15.3263 7.07823 15.3263ZM3.49637 14.7753H6.80271V8.71365H3.49637V14.7753Z" fill="currentColor"/>
<path d="M5.15443 15.3263C5.08136 15.3263 5.01128 15.2973 4.95961 15.2456C4.90793 15.194 4.87891 15.1239 4.87891 15.0508V8.43813C4.87891 8.36505 4.90793 8.29497 4.95961 8.2433C5.01128 8.19163 5.08136 8.1626 5.15443 8.1626C5.22751 8.1626 5.29759 8.19163 5.34926 8.2433C5.40093 8.29497 5.42996 8.36505 5.42996 8.43813V15.0508C5.42996 15.1239 5.40093 15.194 5.34926 15.2456C5.29759 15.2973 5.22751 15.3263 5.15443 15.3263Z" fill="currentColor"/>
<path d="M16.7245 7.06035C16.6671 7.05998 16.6112 7.04167 16.5647 7.008L9.00971 1.61316L1.45473 7.008C1.42572 7.03284 1.39186 7.05138 1.35531 7.06244C1.31875 7.07349 1.28029 7.07683 1.24237 7.07224C1.20446 7.06764 1.16791 7.05521 1.13505 7.03574C1.10219 7.01626 1.07374 6.99017 1.05151 6.95912C1.02927 6.92806 1.01374 6.89273 1.00588 6.85535C0.998033 6.81797 0.998039 6.77937 1.0059 6.74199C1.01376 6.70461 1.02931 6.66928 1.05156 6.63823C1.0738 6.60719 1.10226 6.5811 1.13512 6.56164L8.84991 1.05108C8.89657 1.01785 8.95243 1 9.00971 1C9.067 1 9.12286 1.01785 9.16952 1.05108L16.8843 6.56164C16.9313 6.5957 16.9664 6.64374 16.9845 6.69893C17.0026 6.75411 17.0028 6.8136 16.9851 6.8689C16.9674 6.92421 16.9327 6.9725 16.8858 7.00688C16.839 7.04126 16.7826 7.05997 16.7245 7.06035Z" fill="currentColor"/>
<path d="M16.7246 7.06033H1.29506C1.22198 7.06033 1.1519 7.0313 1.10023 6.97963C1.04856 6.92796 1.01953 6.85788 1.01953 6.78481C1.01953 6.71173 1.04856 6.64165 1.10023 6.58998C1.1519 6.53831 1.22198 6.50928 1.29506 6.50928H16.7246C16.7977 6.50928 16.8678 6.53831 16.9195 6.58998C16.9711 6.64165 17.0002 6.71173 17.0002 6.78481C17.0002 6.85788 16.9711 6.92796 16.9195 6.97963C16.8678 7.0313 16.7977 7.06033 16.7246 7.06033Z" fill="currentColor"/>
<path d="M16.7246 16.9793H1.29506C1.22198 16.9793 1.1519 16.9503 1.10023 16.8986C1.04856 16.847 1.01953 16.7769 1.01953 16.7038V6.78481C1.01953 6.71173 1.04856 6.64165 1.10023 6.58998C1.1519 6.53831 1.22198 6.50928 1.29506 6.50928H16.7246C16.7977 6.50928 16.8678 6.53831 16.9195 6.58998C16.9711 6.64165 17.0002 6.71173 17.0002 6.78481V16.7038C17.0002 16.7769 16.9711 16.847 16.9195 16.8986C16.8678 16.9503 16.7977 16.9793 16.7246 16.9793ZM1.57059 16.4283H16.4491V7.06033H1.57059V16.4283Z" fill="currentColor"/>
<path d="M9.006 16.9793C8.93292 16.9793 8.86284 16.9503 8.81117 16.8986C8.7595 16.847 8.73047 16.7769 8.73047 16.7038V6.78481C8.73047 6.71173 8.7595 6.64165 8.81117 6.58998C8.86284 6.53831 8.93292 6.50928 9.006 6.50928C9.07907 6.50928 9.14915 6.53831 9.20082 6.58998C9.2525 6.64165 9.28152 6.71173 9.28152 6.78481V16.7038C9.28152 16.7769 9.2525 16.847 9.20082 16.8986C9.14915 16.9503 9.07907 16.9793 9.006 16.9793Z" fill="currentColor"/>
</svg>
