<svg width="20" height="16" viewBox="0 0 20 16" fill="none" xmlns="http://www.w3.org/2000/svg">
<path fill-rule="evenodd" clip-rule="evenodd" d="M1.92141 6.8158C7.02307 4.59276 10.4246 3.12782 12.1268 2.41961C16.9871 0.398227 17.9968 0.0468594 18.6551 0.0352383C18.8 0.0331875 19.1234 0.0687341 19.3332 0.238949C19.5103 0.382504 19.5588 0.576645 19.5821 0.71268C19.6053 0.849399 19.6347 1.15907 19.6114 1.40174C19.3483 4.16893 18.2087 10.8839 17.629 13.9833C17.3836 15.2951 16.9003 15.7347 16.4327 15.7777C15.4169 15.8714 14.6451 15.1057 13.6608 14.4604C12.1206 13.4514 11.2504 12.8225 9.75539 11.8375C8.02726 10.6986 9.14768 10.0731 10.1321 9.05047C10.3898 8.7825 14.8673 4.70965 14.9541 4.34051C14.9651 4.29403 14.9753 4.12176 14.8728 4.03084C14.7702 3.93993 14.6192 3.97137 14.5105 3.99598C14.356 4.03084 11.8957 5.65711 7.12902 8.87479C6.43039 9.35467 5.79738 9.58778 5.23068 9.57616C4.60588 9.56248 3.40412 9.22274 2.51066 8.93221C1.41486 8.57606 0.543964 8.38739 0.619843 7.78241C0.658808 7.46727 1.09289 7.1453 1.92141 6.8158Z" fill="currentColor"/>
</svg>
