<svg width="18" height="18" viewBox="0 0 18 18" fill="none" xmlns="http://www.w3.org/2000/svg">
<path d="M9.2284 16.798H5.65924C4.42396 16.7966 3.23966 16.3053 2.36618 15.4318C1.49271 14.5583 1.00138 13.374 1 12.1388V6.61939C1 6.55095 1.02719 6.48531 1.07558 6.43691C1.12398 6.38852 1.18962 6.36133 1.25806 6.36133H13.6296C13.698 6.36133 13.7637 6.38852 13.8121 6.43691C13.8605 6.48531 13.8876 6.55095 13.8876 6.61939V12.1388C13.8863 13.374 13.3949 14.5583 12.5215 15.4318C11.648 16.3053 10.4637 16.7966 9.2284 16.798ZM1.51613 6.87745V12.1388C1.51737 13.2372 1.95427 14.2903 2.73099 15.067C3.5077 15.8437 4.5608 16.2806 5.65924 16.2819H9.2284C10.3268 16.2806 11.3799 15.8437 12.1567 15.067C12.9334 14.2903 13.3703 13.2372 13.3715 12.1388V6.87745H1.51613Z" fill="currentColor"/>
<path d="M13.5658 13.1472C13.5004 13.147 13.4375 13.1219 13.3898 13.0771C13.3422 13.0323 13.3134 12.9711 13.3091 12.9058C13.3049 12.8405 13.3256 12.7761 13.3671 12.7255C13.4086 12.6749 13.4677 12.642 13.5325 12.6333L14.1692 12.5494C14.179 12.5482 14.1888 12.5475 14.1987 12.5473C15.2555 12.5304 16.4841 11.3479 16.4841 9.84856C16.4838 9.54565 16.3633 9.25524 16.1491 9.04105C15.9349 8.82686 15.6445 8.70639 15.3416 8.70607H13.6299C13.5615 8.70607 13.4958 8.67888 13.4474 8.63048C13.3991 8.58209 13.3719 8.51645 13.3719 8.448C13.3719 8.37956 13.3991 8.31392 13.4474 8.26553C13.4958 8.21713 13.5615 8.18994 13.6299 8.18994H15.3416C15.7814 8.19045 16.2029 8.36537 16.5139 8.67631C16.8248 8.98725 16.9997 9.40883 17.0002 9.84856C17.0002 11.6559 15.537 13.0315 14.2224 13.063L13.5998 13.1449C13.5885 13.1464 13.5771 13.1472 13.5658 13.1472Z" fill="currentColor"/>
<path d="M5.771 5.72223C5.70374 5.7223 5.63916 5.69591 5.5912 5.64876C5.44467 5.50796 5.3279 5.33918 5.24782 5.15241C5.16774 4.96565 5.12598 4.7647 5.12502 4.56149C5.12405 4.35828 5.16391 4.15695 5.24222 3.96943C5.32052 3.78191 5.43569 3.61203 5.58088 3.46986C6.29169 2.68886 5.71458 2.03033 5.68976 2.00275C5.66664 1.97765 5.64872 1.94822 5.63705 1.91616C5.62538 1.8841 5.62018 1.85004 5.62176 1.81595C5.62334 1.78187 5.63166 1.74843 5.64625 1.71759C5.66083 1.68674 5.68139 1.65909 5.70673 1.63624C5.73207 1.61339 5.76169 1.59579 5.79387 1.58446C5.82606 1.57313 5.86017 1.5683 5.89424 1.57024C5.9283 1.57218 5.96165 1.58086 5.99234 1.59578C6.02303 1.61069 6.05045 1.63154 6.07303 1.65712C6.39236 2.01147 6.78012 2.91871 5.96266 3.81711C5.86291 3.91085 5.78325 4.02389 5.72851 4.14936C5.67376 4.27482 5.64508 4.4101 5.6442 4.54699C5.64331 4.68387 5.67025 4.81951 5.72337 4.94567C5.77649 5.07183 5.85469 5.18589 5.95321 5.28091C5.98946 5.31698 6.01418 5.363 6.02424 5.41313C6.0343 5.46327 6.02926 5.51526 6.00974 5.56252C5.99023 5.60978 5.95712 5.65019 5.91462 5.67861C5.87211 5.70704 5.82213 5.72224 5.771 5.72223Z" fill="currentColor"/>
<path d="M7.93508 5.14915C7.86783 5.1492 7.80324 5.12282 7.75527 5.07568C7.60873 4.93489 7.49196 4.76611 7.41188 4.57934C7.3318 4.39257 7.29004 4.19163 7.28908 3.98842C7.28812 3.78521 7.32797 3.58388 7.40628 3.39636C7.48458 3.20884 7.59975 3.03896 7.74494 2.89678C8.43583 2.13746 7.91431 1.49873 7.85256 1.42841C7.80765 1.37731 7.78474 1.31054 7.78881 1.24263C7.79287 1.17473 7.82359 1.11117 7.87427 1.0658C7.92496 1.02042 7.99151 0.996893 8.05945 1.00033C8.12739 1.00377 8.19122 1.03389 8.23707 1.08415C8.55637 1.43837 8.94437 2.34574 8.12682 3.24414C8.02708 3.33788 7.94742 3.45092 7.89267 3.57639C7.83793 3.70185 7.80925 3.83713 7.80836 3.97401C7.80748 4.1109 7.83441 4.24654 7.88753 4.3727C7.94065 4.49886 8.01885 4.61292 8.11738 4.70794C8.15361 4.74402 8.17832 4.79003 8.18837 4.84016C8.19843 4.89029 8.19338 4.94228 8.17387 4.98953C8.15436 5.03679 8.12126 5.07719 8.07876 5.10562C8.03627 5.13405 7.98621 5.14915 7.93508 5.14915Z" fill="currentColor"/>
<path d="M10.107 5.72239C10.0397 5.72245 9.97512 5.69606 9.92714 5.64892C9.78061 5.50813 9.66384 5.33935 9.58376 5.15258C9.50368 4.96581 9.46192 4.76487 9.46095 4.56166C9.45999 4.35845 9.49985 4.15712 9.57815 3.9696C9.65646 3.78208 9.77162 3.6122 9.91682 3.47003C10.6077 2.71083 10.0862 2.0721 10.0244 2.00165C9.97953 1.95055 9.95662 1.88378 9.96068 1.81588C9.96475 1.74797 9.99547 1.68442 10.0461 1.63904C10.0968 1.59366 10.1634 1.57013 10.2313 1.57357C10.2993 1.57701 10.3631 1.60713 10.4089 1.65739C10.7282 2.01161 11.1162 2.91898 10.2987 3.81738C10.1989 3.91112 10.1193 4.02416 10.0645 4.14963C10.0098 4.27509 9.98111 4.41037 9.98023 4.54726C9.97934 4.68414 10.0063 4.81978 10.0594 4.94594C10.1125 5.07211 10.1907 5.18616 10.2893 5.28119C10.3255 5.31726 10.3502 5.36328 10.3602 5.4134C10.3703 5.46353 10.3653 5.51552 10.3457 5.56278C10.3262 5.61003 10.2931 5.65044 10.2506 5.67886C10.2081 5.70729 10.1581 5.72239 10.107 5.72239Z" fill="currentColor"/>
<path d="M6.59932 14.1446C6.25185 14.1519 5.91258 14.0385 5.63933 13.8237C5.21611 13.4833 5.02189 12.9231 5.09224 12.2467C5.18483 11.5504 5.47303 10.8947 5.92338 10.3558C6.35326 9.8004 6.93191 9.3784 7.59209 9.13881C8.238 8.92485 8.82658 8.99465 9.24983 9.33493C10.1028 10.021 9.97803 11.5443 8.96581 12.803C8.27423 13.6629 7.37289 14.1446 6.59932 14.1446ZM8.2959 9.53385C8.11151 9.53643 7.92872 9.56846 7.75444 9.62874C7.1885 9.83696 6.69312 10.2012 6.32565 10.6794C5.93744 11.1408 5.68781 11.7026 5.60565 12.3C5.5658 12.5019 5.57765 12.7106 5.64011 12.9066C5.70256 13.1027 5.81359 13.2798 5.96286 13.4215C6.56908 13.9092 7.76037 13.4779 8.56367 12.4795C9.36697 11.4811 9.5329 10.2251 8.9263 9.73725C8.74596 9.59869 8.52322 9.5268 8.2959 9.53385Z" fill="currentColor"/>
<path d="M5.80101 13.8806C5.73688 13.8806 5.67505 13.8567 5.62757 13.8136C5.58008 13.7705 5.55035 13.7113 5.54417 13.6474C5.53799 13.5836 5.5558 13.5198 5.59412 13.4683C5.63245 13.4169 5.68855 13.3816 5.75149 13.3693C6.15742 13.2706 6.51891 13.0395 6.77889 12.7125C7.03888 12.3855 7.18255 11.9812 7.18722 11.5635C7.20355 11.0329 7.39364 10.5224 7.72828 10.1103C8.06292 9.69821 8.5236 9.40742 9.03954 9.28257C9.10649 9.27027 9.17558 9.28492 9.23177 9.32333C9.28796 9.36173 9.3267 9.42078 9.33957 9.48762C9.35243 9.55446 9.33836 9.62367 9.30044 9.68018C9.26251 9.7367 9.20379 9.77595 9.13706 9.78937C8.73136 9.88834 8.37014 10.1195 8.11037 10.4465C7.85059 10.7735 7.70705 11.1776 7.70237 11.5952C7.68607 12.1258 7.49599 12.6363 7.16135 13.0484C6.8267 13.4605 6.366 13.7513 5.85004 13.8761C5.83388 13.8791 5.81746 13.8807 5.80101 13.8806Z" fill="currentColor"/>
</svg>
