<svg width="19" height="13" viewBox="0 0 19 13" fill="none" xmlns="http://www.w3.org/2000/svg">
<path d="M11.5051 6.29029C11.1577 6.15965 11.1577 5.66075 11.1361 5.31333C11.0493 4.0758 11.4835 2.18651 10.9624 1.38327C10.5934 0.905211 8.81254 0.948986 7.72719 1.0143C7.42284 1.05808 7.05388 1.1227 6.79331 1.25333C6.53274 1.38396 6.27217 1.60075 6.27217 1.79601C6.27217 2.07812 6.92394 2.03503 7.16227 2.404C7.42284 2.7952 7.42284 3.64152 7.42284 4.33637C7.42284 5.13962 7.29221 6.20412 6.96702 6.24721C6.46742 6.26875 6.18532 5.76915 5.92475 5.40019C5.40361 4.6838 4.88248 3.793 4.49128 2.92444C4.29602 2.46862 4.18693 1.96902 3.90482 1.77377C3.47054 1.46943 2.68884 1.44789 1.92867 1.46943C1.23383 1.49097 0.234634 1.40411 0.0393817 1.81685C-0.11279 2.27267 0.213094 2.70695 0.386806 3.07661C1.27691 5.00899 2.23232 6.70303 3.40523 8.30952C4.49128 9.80761 5.51131 11.0021 7.509 11.6316C8.07391 11.8053 10.549 12.3049 11.0486 11.6316C11.2223 11.371 11.1792 10.7846 11.266 10.3503C11.3529 9.91601 11.4613 9.48173 11.874 9.46019C12.2215 9.43864 12.4167 9.74229 12.6342 9.95978C12.8732 10.1988 13.0685 10.3941 13.2422 10.6115C13.6549 11.0243 14.0892 11.5885 14.6104 11.806C15.3267 12.1103 16.4343 12.0235 17.4766 11.9797C18.3236 11.9582 18.9316 11.7845 18.9969 11.2849C19.0407 10.8937 18.6057 10.3294 18.3452 10.0036C17.6934 9.20031 17.3897 8.96128 16.6511 8.22266C16.3252 7.89678 15.9125 7.54935 15.9125 7.15885C15.891 6.91982 16.0862 6.70303 16.2599 6.464C17.0201 5.33487 17.7803 4.53163 18.4751 3.35872C18.6704 3.0113 19.1269 2.20805 18.9532 1.81685C18.7579 1.38257 17.6719 1.51251 16.9985 1.51251C16.13 1.51251 15.0009 1.44719 14.7834 1.6209C14.3706 1.90301 14.1969 2.35953 14.0017 2.79381C13.5674 3.793 12.9809 4.81304 12.3729 5.5732C12.1555 5.83377 11.7434 6.37645 11.5044 6.28959L11.5051 6.29029Z" fill="currentColor"/>
</svg>
