<svg width="17" height="18" viewBox="0 0 17 18" fill="none" xmlns="http://www.w3.org/2000/svg">
<path fill-rule="evenodd" clip-rule="evenodd" d="M14.523 2.94125C12.9251 1.34135 10.8 0.459818 8.5357 0.458984C3.86993 0.458984 0.0726667 4.25585 0.0710333 8.92285C0.0702333 10.4148 0.460267 11.871 1.20097 13.1544L0 17.541L4.48723 16.3639C5.72347 17.0385 7.11557 17.3936 8.53207 17.394H8.5357C13.2007 17.394 16.9984 13.5968 17 8.92975C17.0008 6.66792 16.1213 4.54158 14.523 2.94165V2.94125ZM8.5357 15.9646H8.53287C7.2706 15.9642 6.03233 15.6249 4.95193 14.984L4.69503 14.8315L2.03217 15.5299L2.74283 12.9336L2.5756 12.6674C1.87143 11.5472 1.49927 10.2525 1.50007 8.92328C1.5017 5.04442 4.6577 1.88842 8.53857 1.88842C10.4177 1.88925 12.184 2.62185 13.5124 3.95185C14.8408 5.28145 15.5717 7.04942 15.5709 8.92895C15.5693 12.8082 12.4133 15.9642 8.5357 15.9642V15.9646ZM12.3946 10.6957C12.1832 10.5898 11.1434 10.0784 10.9494 10.0077C10.7554 9.93709 10.6146 9.90182 10.4737 10.1137C10.3329 10.3256 9.92743 10.802 9.80403 10.9428C9.68063 11.0841 9.55727 11.1016 9.3458 10.9956C9.13437 10.8897 8.4529 10.6665 7.64483 9.94602C7.01617 9.38512 6.5916 8.69275 6.46827 8.48085C6.34487 8.26902 6.45527 8.15455 6.56077 8.04942C6.65573 7.95448 6.77223 7.80228 6.87817 7.67888C6.9841 7.55548 7.019 7.46705 7.0896 7.32618C7.16027 7.18492 7.12493 7.06162 7.0722 6.95562C7.0194 6.84972 6.5965 5.80865 6.41993 5.38535C6.24823 4.97302 6.07377 5.02902 5.9443 5.02212C5.82087 5.01602 5.68007 5.01482 5.53883 5.01482C5.3976 5.01482 5.16867 5.06755 4.97467 5.27945C4.78067 5.49125 4.23437 6.00308 4.23437 7.04368C4.23437 8.08435 4.99213 9.09052 5.09807 9.23175C5.20397 9.37298 6.58957 11.509 8.71103 12.4255C9.21553 12.6434 9.6096 12.7737 9.91687 12.8711C10.4234 13.0322 10.8844 13.0095 11.2489 12.9551C11.6552 12.8943 12.5002 12.4433 12.6763 11.9494C12.8524 11.4554 12.8524 11.0317 12.7997 10.9436C12.747 10.8556 12.6057 10.8024 12.3943 10.6965L12.3946 10.6957Z" fill="currentColor"/>
</svg>
