<svg width="816" height="817" viewBox="0 0 816 817" fill="none" xmlns="http://www.w3.org/2000/svg">
<path d="M407.736 816.473C632.923 816.473 815.473 633.923 815.473 408.736C815.473 183.55 632.923 1 407.736 1C182.55 1 0 183.55 0 408.736C0 633.923 182.55 816.473 407.736 816.473Z" stroke="#505050" stroke-width="0.787471" stroke-linecap="round" stroke-linejoin="round"/>
<path d="M407.736 751.562C597.073 751.562 750.562 598.073 750.562 408.736C750.562 219.398 597.073 65.9102 407.736 65.9102C218.398 65.9102 64.9102 219.398 64.9102 408.736C64.9102 598.073 218.398 751.562 407.736 751.562Z" stroke="#505050" stroke-width="0.787471" stroke-linecap="round" stroke-linejoin="round"/>
<path d="M407.735 686.652C561.224 686.652 685.65 562.226 685.65 408.737C685.65 255.249 561.224 130.822 407.735 130.822C254.247 130.822 129.82 255.249 129.82 408.737C129.82 562.226 254.247 686.652 407.735 686.652Z" stroke="#505050" stroke-width="0.787471" stroke-linecap="round" stroke-linejoin="round"/>
<path d="M407.737 621.739C525.376 621.739 620.741 526.374 620.741 408.735C620.741 291.096 525.376 195.73 407.737 195.73C290.098 195.73 194.732 291.096 194.732 408.735C194.732 526.374 290.098 621.739 407.737 621.739Z" stroke="#505050" stroke-width="0.787471" stroke-linecap="round" stroke-linejoin="round"/>
<path d="M407.736 556.83C489.526 556.83 555.83 490.526 555.83 408.736C555.83 326.946 489.526 260.643 407.736 260.643C325.946 260.643 259.643 326.946 259.643 408.736C259.643 490.526 325.946 556.83 407.736 556.83Z" stroke="#505050" stroke-width="0.787471" stroke-linecap="round" stroke-linejoin="round"/>
<path d="M407.736 491.921C453.677 491.921 490.919 454.678 490.919 408.738C490.919 362.797 453.677 325.555 407.736 325.555C361.795 325.555 324.553 362.797 324.553 408.738C324.553 454.678 361.795 491.921 407.736 491.921Z" stroke="#505050" stroke-width="0.787471" stroke-linecap="round" stroke-linejoin="round"/>
</svg>
