<svg width="21" height="23" viewBox="0 0 21 23" fill="none" xmlns="http://www.w3.org/2000/svg">
<g id="Layer_x0020_1">
<path id="Vector" d="M1.24415 8.1836H4.24654C4.71435 8.1836 4.38904 8.89359 4.38904 9.27771C4.38904 9.75373 5.14643 10.1059 5.61525 9.64341C5.73436 9.52592 5.80191 9.37139 5.77816 9.2092L5.67072 8.47886C5.64763 8.32174 5.77182 8.18244 5.92934 8.18361H8.92778C9.07013 8.18361 9.18559 8.29906 9.18559 8.44141V11.1456C9.69689 11.0703 10.0687 10.9598 10.4964 11.3933C11.3177 12.2257 10.6324 13.6335 9.62107 13.4848L9.18559 13.4207V16.125C9.18559 16.2674 9.07013 16.3828 8.92778 16.3828H3.92732C2.30913 16.3828 0.986328 15.0599 0.986328 13.4419V8.4414C0.986328 8.29905 1.10179 8.1836 1.24415 8.1836ZM3.94838 8.69922H1.50195V13.4419C1.50195 14.7752 2.59393 15.8672 3.92733 15.8672H8.66998L8.67272 13.0851C8.69343 12.9442 8.82446 12.8468 8.96529 12.8675L9.76414 12.9801C10.2402 12.9801 10.5923 12.2227 10.1298 11.7539C9.7953 11.4148 9.35662 11.7015 8.92779 11.7015C8.78544 11.7015 8.66998 11.5861 8.66998 11.4437V8.69922H6.2236C6.29851 9.20803 6.40503 9.58672 5.97579 10.01C5.14299 10.8314 3.73561 10.1457 3.8843 9.1347L3.94838 8.69922Z" fill="#BCA584" stroke="#BCA584" stroke-width="0.3"/>
<path id="Vector_2" d="M9.18359 1.01561V3.46208C9.67733 3.3894 10.0696 3.26568 10.504 3.72024C11.3145 4.56831 10.6177 5.94798 9.61907 5.80136L9.18359 5.73727V8.18363H11.9281C12.3958 8.18363 12.0708 8.89305 12.0708 9.2756C12.0708 9.75183 12.8139 10.1046 13.2925 9.64708C13.4149 9.53 13.4842 9.37598 13.4597 9.20922L13.3523 8.47889C13.3292 8.32177 13.4533 8.18246 13.6109 8.18363H16.3517V3.44101C16.3517 2.10763 15.2597 1.01561 13.9263 1.01561L9.18359 1.01561ZM8.66797 3.76023V0.757806C8.66797 0.615454 8.78343 0.5 8.92578 0.5H13.9263C15.5444 0.5 16.8673 1.82293 16.8673 3.44101V8.44143C16.8673 8.58378 16.7518 8.69924 16.6095 8.69924H13.9051C13.9778 9.19313 14.1015 9.58517 13.647 10.0197C12.7994 10.83 11.4192 10.1337 11.5658 9.13472L11.6299 8.69924H8.92578C8.78342 8.69924 8.66797 8.58378 8.66797 8.44143L8.67071 5.4016C8.69141 5.26077 8.82245 5.16333 8.96328 5.18404L9.7599 5.2964C10.236 5.2964 10.589 4.55363 10.1314 4.07476C9.80019 3.72814 9.3576 4.01802 8.92578 4.01802C8.78342 4.01802 8.66797 3.90258 8.66797 3.76023Z" fill="#BCA584" stroke="#BCA584" stroke-width="0.3"/>
<path id="Vector_3" d="M9.18559 0.757791V3.46216C9.67948 3.38949 10.0715 3.26576 10.506 3.72027C11.3164 4.56779 10.6202 5.94807 9.62107 5.8014L9.18559 5.7373V8.44143C9.18559 8.58378 9.07013 8.69924 8.92778 8.69924H6.22363C6.29889 9.21054 6.40938 9.58232 5.97587 10.01C5.14348 10.8313 3.73569 10.146 3.88438 9.13472L3.94848 8.69924H1.24414C1.10178 8.69924 0.986328 8.58378 0.986328 8.44143V3.44101C0.986328 1.82302 2.30906 0.5 3.92732 0.5H8.92778C9.07013 0.5 9.18559 0.615439 9.18559 0.757791ZM8.66997 3.76021V1.0156H3.92732C2.59388 1.0156 1.50194 2.10762 1.50194 3.441V8.18361L4.28414 8.18635C4.42497 8.20706 4.52241 8.33809 4.50171 8.47892L4.38915 9.27776C4.38915 9.75389 5.14668 10.1058 5.61536 9.64341C5.95447 9.30882 5.66768 8.8703 5.66768 8.44142C5.66768 8.29907 5.78313 8.18361 5.92549 8.18361H8.66997L8.67271 5.40164C8.69342 5.26081 8.82445 5.16337 8.96528 5.18408L9.762 5.29644C10.2382 5.29644 10.5909 4.55336 10.1334 4.0748C9.80214 3.72823 9.35925 4.01811 8.92778 4.01811C8.78543 4.01811 8.66997 3.90272 8.66997 3.76021Z" fill="#BCA584" stroke="#BCA584" stroke-width="0.3"/>
<path id="Vector_4" d="M14.1883 13.015L16.7722 11.5231C16.8992 11.4498 17.0584 11.493 17.1325 11.6321L19.624 15.9473C20.4332 17.3489 19.9496 19.1549 18.5482 19.964L14.2177 22.4642C14.0907 22.5375 13.9315 22.4943 13.8574 22.3552L12.365 19.7704C12.2857 19.6331 12.3416 19.454 12.5148 19.3942C12.864 19.2557 13.3716 19.1892 13.4746 18.7662C13.572 18.3663 13.3425 17.9645 12.9452 17.8552C12.5258 17.7396 12.1981 18.1587 11.9074 18.3888C11.7757 18.4931 11.5921 18.4433 11.5162 18.3003L10.0244 15.7164C9.95018 15.5878 9.99382 15.4291 10.1393 15.3532L12.7187 13.8641C12.8559 13.7848 13.0345 13.8405 13.0944 14.0136L13.3579 14.6781C13.5458 15.1525 14.437 15.1146 14.6314 14.4494C14.6784 14.2885 14.6639 14.1189 14.5579 13.9849L14.0997 13.4062C13.9982 13.2779 14.0421 13.0861 14.1883 13.015ZM16.807 12.0969L14.687 13.321C14.9996 13.7158 15.2973 14.0023 15.1249 14.5925C14.7969 15.7151 13.2539 15.8085 12.8805 14.8674L12.7179 14.4573L10.5979 15.6811L11.8222 17.8015C12.228 17.4801 12.4939 17.1982 13.0802 17.3597C13.7442 17.5424 14.1374 18.2172 13.9741 18.8871C13.8275 19.4882 13.4433 19.5784 12.9589 19.7705L14.1829 21.8904L18.2904 19.5189C19.445 18.8523 19.8454 17.3596 19.1789 16.2051L16.807 12.0969Z" fill="#BCA584" stroke="#BCA584" stroke-width="0.3"/>
</g>
</svg>
