<svg width="22" height="24" viewBox="0 0 22 24" fill="none" xmlns="http://www.w3.org/2000/svg">
<path id="Vector" d="M21.314 22.6419H19.7056V19.2289C19.7056 17.7641 18.7537 16.482 17.335 16.0308L15.3802 15.4076C15.3802 15.4076 15.3765 15.4076 15.3765 15.404L14.7164 15.1927L13.5821 14.831V13.6313C14.3262 12.9043 14.8842 11.8764 15.1249 10.6803C15.6318 10.4511 15.9674 9.94254 15.9674 9.38385C15.9674 9.26925 15.9491 9.15465 15.9199 9.04363H16.1752H16.1789C16.4123 9.04363 16.6348 8.95409 16.8025 8.79293C16.9703 8.62819 17.0615 8.41332 17.0615 8.18053C17.0615 7.94774 16.9703 7.72929 16.8062 7.56455C16.6384 7.39981 16.4196 7.31027 16.1825 7.30669H16.0804V6.88051C16.0804 6.33257 15.9892 5.79896 15.8142 5.29041C15.5698 4.56341 15.1468 3.8937 14.5887 3.34934C14.5158 3.27771 14.4392 3.20609 14.3663 3.14879C13.914 2.75842 13.3889 2.45043 12.8126 2.23197V1.73059C12.8126 1.3259 12.4771 1 12.0686 1H9.92775C9.51563 1 9.18375 1.32948 9.18375 1.73059V2.23197C8.60386 2.45043 8.07867 2.75842 7.62643 3.15595C6.95537 3.73612 6.45207 4.47745 6.17853 5.29757C5.99983 5.80612 5.9123 6.33974 5.9123 6.88768V7.28162H5.81747H5.81383C5.32876 7.28162 4.93123 7.6684 4.93123 8.14472C4.93123 8.62461 5.32511 9.01498 5.81018 9.01498H6.08006C6.04724 9.13674 6.02536 9.2585 6.02536 9.38743C6.02536 9.94612 6.36089 10.4547 6.86784 10.6839C7.10855 11.88 7.66655 12.9079 8.41056 13.6349V14.8346L6.62713 15.404L4.65769 16.0308C3.23897 16.4784 2.28708 17.7641 2.28708 19.2289V22.6419H0.682355C0.580236 22.6419 0.5 22.7207 0.5 22.8209C0.5 22.9212 0.580236 23 0.682355 23H2.46943H9.89858H12.0978H19.5269H21.3176C21.4198 23 21.5 22.9212 21.5 22.8209C21.5 22.7207 21.4161 22.6419 21.314 22.6419ZM14.5559 15.5222L15.0373 15.6762L13.2357 18.398C13.1883 18.4732 13.1117 18.5234 13.0241 18.5377C12.9366 18.5556 12.8454 18.5341 12.7725 18.484L12.0394 17.9683L11.2699 17.4275L12.4698 16.1848L13.4545 15.1677L14.5559 15.5222ZM11.817 18.2548L12.0394 18.4732L11.4632 19.0391H10.5259L9.94964 18.4732L10.1612 18.2655L10.9964 17.6782L11.817 18.2548ZM8.77162 14.8955V13.9608C9.13633 14.2473 9.53022 14.4586 9.93869 14.5947H9.94234C10.0445 14.6305 10.1502 14.6591 10.256 14.6806C10.2742 14.6842 10.2925 14.6878 10.3107 14.6914C10.4019 14.7093 10.4931 14.7236 10.5842 14.7379C10.6098 14.7415 10.6316 14.7451 10.6572 14.7487C10.7702 14.7594 10.8833 14.7666 10.9964 14.7666C11.1094 14.7666 11.2225 14.7594 11.3319 14.7487C11.3574 14.7451 11.3829 14.7415 11.4085 14.7379C11.4997 14.7272 11.5908 14.7128 11.6784 14.6949C11.7002 14.6914 11.7185 14.6878 11.7404 14.6806C11.8425 14.6591 11.9446 14.6305 12.0431 14.5982C12.0504 14.5947 12.054 14.5947 12.0613 14.5911C12.3968 14.4801 12.7178 14.3153 13.0278 14.1004C13.0314 14.0969 13.0314 14.0969 13.0351 14.0933C13.0971 14.0503 13.1627 14.0037 13.2211 13.9572V14.8919L12.0577 16.0988L10.9964 17.1983L8.77162 14.8955ZM14.3334 3.61078C14.8076 4.07277 15.1686 4.63503 15.4021 5.24385L13.5712 5.84193L14.3298 3.6072C14.3298 3.61078 14.3334 3.61078 14.3334 3.61078ZM7.66655 3.62152L8.4215 5.84552L6.59066 5.24744C6.82407 4.63861 7.19243 4.08709 7.66655 3.62152ZM6.27336 6.88768C6.27336 6.44001 6.34265 6.00309 6.4703 5.58408L8.65127 6.29676C8.6695 6.30392 8.68774 6.3075 8.70962 6.3075C8.75703 6.3075 8.80445 6.2896 8.83727 6.25378C8.88468 6.20723 8.90292 6.1356 8.88104 6.07114L7.95832 3.35292C8.32303 3.04851 8.7315 2.80498 9.1801 2.62233V3.81491C9.1801 3.91519 9.26033 3.99398 9.36245 3.99398C9.46457 3.99398 9.54481 3.91519 9.54481 3.81491V1.73059C9.54481 1.52287 9.71622 1.35813 9.92411 1.35813H12.065C12.2765 1.35813 12.4443 1.52645 12.4443 1.73059V3.81133C12.4443 3.91161 12.5245 3.9904 12.6266 3.9904C12.7287 3.9904 12.809 3.91161 12.809 3.81133V2.61875C13.2576 2.8014 13.666 3.04493 14.0344 3.34934L13.1117 6.06756C13.0898 6.13202 13.108 6.20365 13.1554 6.2502C13.1919 6.28602 13.2357 6.30392 13.2831 6.30392C13.3013 6.30392 13.3232 6.30034 13.3414 6.29318L15.5224 5.5805C15.6501 5.99951 15.7193 6.43643 15.7193 6.8841V7.27804H6.27336V6.88768ZM5.81018 8.66043C5.5257 8.66043 5.29229 8.43122 5.29229 8.1483C5.29229 8.01221 5.347 7.88328 5.44547 7.79017C5.54394 7.69347 5.67159 7.64333 5.81018 7.64333C5.81018 7.64333 5.81018 7.64333 5.81383 7.64333L16.1825 7.67557C16.467 7.67557 16.7004 7.90477 16.7004 8.18769C16.7004 8.32378 16.6457 8.45271 16.5472 8.54582C16.4488 8.64252 16.3211 8.69266 16.1825 8.69266C16.1825 8.69266 16.1825 8.69266 16.1789 8.69266L5.81018 8.66043ZM7.20702 10.5263C7.19243 10.4654 7.15231 10.4117 7.09031 10.3902C6.67089 10.2362 6.39007 9.8351 6.39007 9.39101C6.39007 9.26209 6.41195 9.13674 6.45571 9.01856L15.5443 9.04721C15.5844 9.15823 15.6026 9.27283 15.6026 9.39101C15.6026 9.8351 15.3218 10.2362 14.9024 10.3902C14.844 10.4117 14.7893 10.4618 14.7857 10.5263C14.6143 14.1506 8.83727 16.8616 7.20702 10.5263ZM8.53456 15.1713L10.7192 17.4311L9.21657 18.4875C9.14363 18.5377 9.0561 18.5592 8.96492 18.5413C8.87739 18.5234 8.8008 18.4732 8.75339 18.4016L6.95172 15.6798L8.53456 15.1713ZM9.7381 22.6419H2.64814V19.2289C2.64814 17.9217 3.49792 16.7721 4.76711 16.371L6.59066 15.7908L8.44703 18.595C8.54915 18.7526 8.70962 18.8564 8.89927 18.8922C8.94304 18.8994 8.9868 18.903 9.03057 18.903C9.1728 18.903 9.31139 18.86 9.43175 18.7776L9.6141 18.6487L10.256 19.279L9.7381 22.6419ZM10.1065 22.6419L10.6061 19.3972H11.3866L11.8862 22.6419H10.1065ZM19.3409 22.6419H12.251L11.7331 19.279L12.375 18.6487L12.5573 18.7776C12.6777 18.86 12.8163 18.903 12.9585 18.903C13.0023 18.903 13.046 18.8994 13.0898 18.8922C13.2758 18.8564 13.4363 18.7526 13.542 18.595L15.3984 15.7908L17.222 16.371C18.4911 16.7721 19.3409 17.9181 19.3409 19.2289V22.6419Z" fill="#BCA584" stroke="#BCA584" stroke-width="0.3"/>
</svg>
