<svg width="25" height="23" viewBox="0 0 25 23" fill="none" xmlns="http://www.w3.org/2000/svg">
<g clip-path="url(#clip0_2200_845)">
<path d="M24.4547 7.02293C24.4618 7.00898 24.4684 6.99502 24.4742 6.98054C24.4757 6.97713 24.4769 6.97361 24.4779 6.97001L24.4816 6.96026C24.4879 6.94215 24.4932 6.92368 24.4974 6.90497V6.89786C24.5015 6.87805 24.5043 6.858 24.5058 6.83783V6.83651C24.5071 6.81626 24.5071 6.79594 24.5058 6.77568V6.77042C24.5045 6.75088 24.5019 6.73145 24.4982 6.71223L24.4966 6.70327C24.4926 6.6845 24.4876 6.66595 24.4816 6.64772L24.4784 6.6385C24.4718 6.62046 24.4641 6.60287 24.4552 6.58584L24.4534 6.58163L24.451 6.57741C24.4419 6.56003 24.4317 6.54324 24.4205 6.52712L24.4152 6.51975C24.4038 6.5038 24.3914 6.48859 24.3781 6.4742L24.3731 6.46893L24.3552 6.4505L18.7204 1.13165C18.6304 1.047 18.5116 0.999903 18.3881 1H7.11871C6.99521 0.999903 6.87634 1.047 6.78641 1.13165L1.1516 6.4505L1.13369 6.46893L1.12869 6.47393C1.11543 6.48847 1.10304 6.50377 1.09157 6.51975L1.0863 6.52712C1.07518 6.5433 1.06498 6.56009 1.05576 6.57741L1.05339 6.58163L1.05154 6.58584C1.04268 6.60287 1.03494 6.62046 1.02837 6.6385L1.02521 6.64772C1.0192 6.66595 1.01419 6.6845 1.0102 6.70327L1.00862 6.71223C1.00488 6.73145 1.00233 6.75088 1.00099 6.77042V6.77568C0.999671 6.79594 0.999671 6.81626 1.00099 6.83651V6.83862C1.0025 6.85879 1.00532 6.87884 1.00941 6.89865V6.90576C1.01363 6.92447 1.01891 6.94294 1.02521 6.96105L1.0289 6.9708C1.02985 6.9744 1.03108 6.97792 1.03258 6.98133C1.03838 6.99581 1.04496 7.00977 1.05207 7.02372L1.05628 7.03189C1.06579 7.04938 1.07625 7.06635 1.08762 7.0827V7.08481L12.3572 22.7973L12.3615 22.8023C12.3701 22.8141 12.3796 22.8257 12.3894 22.8368L12.397 22.8454C12.4086 22.8576 12.4204 22.8694 12.4331 22.8805L12.441 22.8868C12.4518 22.8957 12.4631 22.9042 12.4747 22.9131L12.4847 22.9202C12.4986 22.9292 12.5131 22.9379 12.5279 22.9465L12.5352 22.9502C12.5484 22.9566 12.5616 22.9626 12.5755 22.9679L12.5863 22.9721C12.6023 22.9779 12.6186 22.9829 12.6353 22.9871H12.6403C12.6554 22.9906 12.6707 22.9934 12.6861 22.9953L12.699 22.9971C12.7335 23.001 12.7683 23.001 12.8028 22.9971L12.8157 22.9953C12.8311 22.9934 12.8464 22.9906 12.8615 22.9871H12.8665C12.883 22.9829 12.8992 22.9779 12.9152 22.9721L12.9263 22.9679C12.9399 22.9626 12.9526 22.9566 12.9665 22.9502L12.9739 22.9465C12.9887 22.9386 13.003 22.9298 13.0168 22.9202L13.0274 22.9131C13.0387 22.9049 13.05 22.8965 13.0605 22.8868L13.0687 22.8802C13.0813 22.8694 13.0933 22.8577 13.1045 22.8454L13.1124 22.8368C13.1223 22.8257 13.1316 22.8142 13.1403 22.8023L13.1445 22.7973L24.4181 7.08455V7.08244C24.4295 7.06608 24.4399 7.04912 24.4495 7.03162L24.4547 7.02293ZM22.8054 6.31753H17.5721L15.4129 1.9674H18.1961L22.8054 6.31753ZM8.87814 7.28624H16.6289L12.7535 20.7624L8.87814 7.28624ZM14.3318 1.9674L16.4909 6.317H9.01612L11.1753 1.9674H14.3318ZM7.31066 1.9674H10.0941L7.93497 6.31805H2.7017L7.31066 1.9674ZM7.87019 7.28624L11.5136 19.9554L2.42628 7.28624H7.87019ZM13.9934 19.9551L17.6369 7.28624H23.0808L13.9934 19.9551Z" fill="#BCA584"/>
</g>
<defs>
<clipPath id="clip0_2200_845">
<rect width="24" height="22" fill="white" transform="translate(0.5 0.5)"/>
</clipPath>
</defs>
</svg>
