<svg width="19" height="23" viewBox="0 0 19 23" fill="none" xmlns="http://www.w3.org/2000/svg">
<g id="Layer 2">
<path id="Vector" d="M18.3631 3.61305C18.3631 3.61305 14.7753 2.9799 13.7552 2.62815C12.3135 2.22893 10.9655 1.54743 9.78923 0.623181C9.71104 0.547687 9.60766 0.503829 9.49904 0.500069C9.38146 0.498012 9.26777 0.542224 9.18247 0.623181C8.0176 1.55495 6.67367 2.23739 5.23408 2.62815C4.2228 2.9799 0.705312 3.61305 0.634962 3.61305C0.532418 3.62967 0.43907 3.68206 0.371465 3.76093C0.30386 3.8398 0.266365 3.94006 0.265625 4.04394C0.265625 11.1669 0.353562 14.4557 2.53441 17.8061C4.39868 20.6729 9.1297 22.414 9.33196 22.4932C9.38138 22.5023 9.43204 22.5023 9.48145 22.4932H9.63095C9.8332 22.414 14.5994 20.6729 16.4637 17.8061C18.6445 14.4557 18.7325 11.1669 18.7325 4.04394C18.7317 3.94006 18.6942 3.8398 18.6266 3.76093C18.559 3.68206 18.4657 3.62967 18.3631 3.61305ZM15.725 17.3313C14.1949 19.6792 10.2905 21.2884 9.48145 21.605C8.67243 21.2884 4.80319 19.6792 3.27308 17.3313C1.33846 14.359 1.15379 11.7033 1.145 4.41328C2.62518 4.19836 4.09288 3.90482 5.54186 3.53391C6.95974 3.07361 8.29546 2.39091 9.49904 1.51135C10.7161 2.36737 12.0604 3.02619 13.4826 3.46356C14.9316 3.83437 16.3993 4.12791 17.8795 4.34293C17.8443 11.6681 17.6596 14.3238 15.725 17.2961V17.3313Z" fill="#BCA584"/>
<path id="Vector_2" d="M5.38391 11.9411C5.34093 11.9029 5.29073 11.8737 5.23628 11.8551C5.18183 11.8366 5.12422 11.8292 5.06685 11.8333C5.00949 11.8374 4.95352 11.8529 4.90225 11.879C4.85098 11.9051 4.80545 11.9411 4.76834 11.9851C4.6939 12.0754 4.65775 12.1913 4.66761 12.308C4.67747 12.4247 4.73256 12.5328 4.82111 12.6094L9.21797 16.3644C9.29521 16.4336 9.39565 16.4713 9.49937 16.4699H9.56093C9.62289 16.4609 9.68229 16.4391 9.7353 16.4057C9.78831 16.3724 9.83375 16.3284 9.86871 16.2764L14.9867 8.76657C15.0531 8.66979 15.0784 8.55056 15.057 8.43512C15.0355 8.31968 14.9691 8.21748 14.8723 8.15101C14.7756 8.08454 14.6563 8.05925 14.5409 8.08069C14.4254 8.10213 14.3232 8.16854 14.2568 8.26533L9.41143 15.3795L5.38391 11.9411Z" fill="#BCA584"/>
</g>
</svg>
