<svg width="22" height="22" viewBox="0 0 22 22" fill="none" xmlns="http://www.w3.org/2000/svg">
<path id="Vector" d="M21.563 9.77792C21.7598 9.57732 21.8975 9.32624 21.9608 9.05235C22.0241 8.77847 22.0106 8.49241 21.9217 8.22572C21.8329 7.95903 21.6721 7.72207 21.4573 7.54096C21.2424 7.35984 20.9817 7.24162 20.7039 7.19931L15.1802 6.35524C15.1004 6.34287 15.025 6.31097 14.9606 6.26238C14.8961 6.2138 14.8447 6.15003 14.8108 6.07675L12.3745 0.873108C12.2518 0.612054 12.0574 0.391323 11.814 0.236713C11.5707 0.0821028 11.2883 0 11 0C10.7117 0 10.4293 0.0821028 10.186 0.236713C9.94255 0.391323 9.74817 0.612054 9.6255 0.873108L7.18921 6.08019C7.1549 6.15282 7.10326 6.2159 7.03884 6.26387C6.97442 6.31183 6.89921 6.34321 6.81981 6.35524L1.29606 7.20618C1.0183 7.24849 0.757615 7.36672 0.542738 7.54783C0.327861 7.72895 0.16714 7.96591 0.0782935 8.2326C-0.0105531 8.49929 -0.0240748 8.78534 0.0392194 9.05923C0.102514 9.33312 0.240165 9.5842 0.436999 9.7848L4.49692 13.9621C4.55062 14.0177 4.59068 14.085 4.61394 14.1587C4.63719 14.2323 4.64301 14.3104 4.63093 14.3868L3.68081 20.2316C3.63449 20.5133 3.66831 20.8024 3.77841 21.0657C3.88852 21.3291 4.07046 21.5561 4.30344 21.7209C4.53642 21.8857 4.81104 21.9816 5.09591 21.9976C5.38078 22.0136 5.66441 21.9491 5.91437 21.8114L10.7612 19.1211C10.8333 19.0806 10.9147 19.0593 10.9974 19.0593C11.0802 19.0593 11.1615 19.0806 11.2337 19.1211L16.0805 21.8114C16.3304 21.9491 16.6141 22.0136 16.8989 21.9976C17.1838 21.9816 17.4584 21.8857 17.6914 21.7209C17.9244 21.5561 18.1063 21.3291 18.2164 21.0657C18.3265 20.8024 18.3604 20.5133 18.314 20.2316L17.3639 14.3868C17.3517 14.3104 17.3575 14.2323 17.3807 14.1586C17.404 14.0849 17.4441 14.0176 17.4979 13.9621L21.563 9.77792ZM16.3537 14.5466L17.3038 20.3915C17.3201 20.4832 17.3097 20.5778 17.2738 20.6638C17.2378 20.7497 17.1778 20.8235 17.101 20.8763C17.0269 20.93 16.9388 20.9611 16.8474 20.966C16.756 20.9709 16.6651 20.9493 16.5856 20.9038L11.7371 18.2169C11.5121 18.091 11.2586 18.0249 11.0009 18.0249C10.7431 18.0249 10.4896 18.091 10.2646 18.2169L5.41783 20.9038C5.33831 20.9491 5.24745 20.9706 5.15608 20.9657C5.0647 20.9608 4.97665 20.9298 4.90239 20.8763C4.8256 20.8235 4.76563 20.7497 4.72968 20.6638C4.69372 20.5778 4.6833 20.4832 4.69965 20.3915L5.64977 14.5466C5.68816 14.3103 5.67071 14.0683 5.5988 13.8399C5.5269 13.6115 5.40255 13.4032 5.23571 13.2315L1.17579 9.05935C1.11173 8.99438 1.06715 8.91276 1.0471 8.82373C1.02706 8.7347 1.03236 8.64183 1.06239 8.55566C1.08969 8.46945 1.14079 8.39272 1.2098 8.33432C1.27881 8.27592 1.36291 8.23822 1.45241 8.22559L6.97616 7.37809C7.2231 7.34017 7.45687 7.24189 7.65677 7.09196C7.85667 6.94203 8.01652 6.74507 8.12215 6.51855L10.5567 1.30975C10.5957 1.22494 10.6582 1.1531 10.7368 1.10274C10.8153 1.05237 10.9067 1.02561 11 1.02561C11.0933 1.02561 11.1847 1.05237 11.2632 1.10274C11.3418 1.1531 11.4043 1.22494 11.4433 1.30975L13.8778 6.51855C13.9836 6.74529 14.1438 6.94239 14.344 7.09233C14.5442 7.24228 14.7783 7.34044 15.0256 7.37809L20.5493 8.22559C20.6388 8.23822 20.7229 8.27592 20.7919 8.33432C20.8609 8.39272 20.912 8.46945 20.9393 8.55566C20.9694 8.64183 20.9747 8.7347 20.9546 8.82373C20.9346 8.91276 20.89 8.99438 20.8259 9.05935L16.7643 13.2315C16.5981 13.4035 16.4743 13.612 16.403 13.8403C16.3317 14.0687 16.3148 14.3106 16.3537 14.5466Z" fill="#BCA584"/>
</svg>
