<svg width="24" height="24" viewBox="0 0 24 24" fill="none" xmlns="http://www.w3.org/2000/svg">
<g id="06 discount basket">
<path id="Vector" d="M22.0197 9.38678H13.4794C13.3983 9.12011 13.2538 8.87705 13.0583 8.67837L5.88767 1.50771C5.56095 1.18255 5.11875 1 4.6578 1C4.19684 1 3.75465 1.18255 3.42792 1.50771L3.39644 1.54313C3.23432 1.7039 3.10565 1.89517 3.01783 2.10592C2.93002 2.31667 2.88481 2.54273 2.88481 2.77104C2.88481 2.99935 2.93002 3.2254 3.01783 3.43615C3.10565 3.6469 3.23432 3.83818 3.39644 3.99894L8.78033 9.38678H1.97962C1.82249 9.38672 1.66689 9.41763 1.52171 9.47774C1.37653 9.53785 1.24462 9.62598 1.13351 9.73708C1.0224 9.84819 0.934278 9.9801 0.87417 10.1253C0.814063 10.2705 0.783151 10.4261 0.783203 10.5832V11.571C0.783151 11.7282 0.814063 11.8838 0.87417 12.0289C0.934278 12.1741 1.0224 12.306 1.13351 12.4171C1.24462 12.5283 1.37653 12.6164 1.52171 12.6765C1.66689 12.7366 1.82249 12.7675 1.97962 12.7675H2.04653L3.43579 20.7331C3.51686 21.3427 3.81032 21.9043 4.26455 22.3189C4.71877 22.7335 5.30466 22.9747 5.91916 23H18.0801C18.6946 22.9747 19.2805 22.7335 19.7348 22.3189C20.189 21.9043 20.4824 21.3427 20.5635 20.7331L21.9528 12.7675H22.0197C22.1768 12.7675 22.3324 12.7366 22.4776 12.6765C22.6228 12.6164 22.7547 12.5283 22.8658 12.4171C22.9769 12.306 23.065 12.1741 23.1251 12.0289C23.1852 11.8838 23.2162 11.7282 23.2161 11.571V10.5832C23.2162 10.4261 23.1852 10.2705 23.1251 10.1253C23.065 9.9801 22.9769 9.84819 22.8658 9.73708C22.7547 9.62598 22.6228 9.53785 22.4776 9.47774C22.3324 9.41763 22.1768 9.38672 22.0197 9.38678ZM3.95136 3.44403C3.86278 3.35576 3.79249 3.25088 3.74454 3.13539C3.69658 3.0199 3.67189 2.89609 3.67189 2.77104C3.67189 2.64599 3.69658 2.52217 3.74454 2.40669C3.79249 2.2912 3.86278 2.18632 3.95136 2.09805L3.98678 2.06263C4.16549 1.88608 4.40658 1.78707 4.6578 1.78707C4.90901 1.78707 5.15011 1.88608 5.32882 2.06263L12.4995 9.23329C12.6425 9.37564 12.7351 9.56082 12.7632 9.76066C12.7632 9.76853 12.7592 9.77246 12.7592 9.78033C12.7609 9.79784 12.7648 9.81505 12.771 9.8315C12.7824 9.96835 12.7641 10.1061 12.7172 10.2351C12.6703 10.3642 12.596 10.4816 12.4995 10.5793L12.4641 10.6147C12.2832 10.7871 12.0429 10.8833 11.793 10.8833C11.5432 10.8833 11.3029 10.7871 11.122 10.6147L3.95136 3.44403ZM19.7882 20.5954C19.7394 21.0229 19.5413 21.4195 19.2289 21.7153C18.9165 22.0112 18.5097 22.1874 18.0801 22.2129H5.91916C5.48961 22.1874 5.08283 22.0112 4.77039 21.7153C4.45796 21.4195 4.25991 21.0229 4.21111 20.5954L2.84939 12.7675H21.1499L19.7882 20.5954ZM22.429 11.571C22.429 11.6248 22.4185 11.678 22.3979 11.7277C22.3774 11.7774 22.3472 11.8225 22.3092 11.8606C22.2712 11.8986 22.2261 11.9287 22.1764 11.9493C22.1267 11.9698 22.0734 11.9804 22.0197 11.9803H1.97962C1.92586 11.9804 1.87261 11.9698 1.82293 11.9493C1.77325 11.9287 1.72811 11.8986 1.69009 11.8606C1.65207 11.8225 1.62192 11.7774 1.60137 11.7277C1.58082 11.678 1.57027 11.6248 1.57032 11.571V10.5832C1.57027 10.5294 1.58082 10.4762 1.60137 10.4265C1.62192 10.3768 1.65207 10.3317 1.69009 10.2937C1.72811 10.2556 1.77325 10.2255 1.82293 10.2049C1.87261 10.1844 1.92586 10.1738 1.97962 10.1739H9.56745L10.5632 11.1696C10.8903 11.4953 11.3333 11.6779 11.795 11.6773C12.0225 11.6779 12.2478 11.6334 12.4579 11.5462C12.668 11.4591 12.8587 11.3311 13.019 11.1696L13.0544 11.1342H13.0583C13.3152 10.8724 13.4832 10.5364 13.5385 10.1739H22.0197C22.0734 10.1738 22.1267 10.1844 22.1764 10.2049C22.2261 10.2255 22.2712 10.2556 22.3092 10.2937C22.3472 10.3317 22.3774 10.3768 22.3979 10.4265C22.4185 10.4762 22.429 10.5294 22.429 10.5832V11.571Z" fill="#BCA584" stroke="#BCA584" stroke-width="0.2"/>
<path id="Vector_2" d="M8.79268 13.7949C8.43751 13.7953 8.09043 13.901 7.79528 14.0985C7.50014 14.2961 7.27017 14.5767 7.13443 14.9049C6.99869 15.2331 6.96328 15.5942 7.03266 15.9425C7.10205 16.2908 7.27312 16.6108 7.52426 16.8619C7.7754 17.113 8.09534 17.2841 8.44367 17.3535C8.79199 17.4229 9.15306 17.3875 9.48127 17.2517C9.80947 17.116 10.0901 16.886 10.2876 16.5909C10.4852 16.2957 10.5909 15.9487 10.5912 15.5935C10.5914 15.3573 10.545 15.1233 10.4547 14.905C10.3643 14.6867 10.2318 14.4884 10.0648 14.3214C9.89776 14.1543 9.69943 14.0218 9.48114 13.9315C9.26286 13.8412 9.02891 13.7948 8.79268 13.7949ZM8.79268 16.601C8.59302 16.6006 8.39797 16.541 8.23217 16.4298C8.06638 16.3185 7.9373 16.1606 7.86126 15.976C7.78521 15.7914 7.76562 15.5884 7.80495 15.3927C7.84428 15.1969 7.94078 15.0172 8.08223 14.8763C8.22368 14.7354 8.40374 14.6396 8.59964 14.6011C8.79553 14.5625 8.99847 14.5829 9.18278 14.6596C9.36709 14.7364 9.52449 14.8661 9.63509 15.0323C9.74569 15.1985 9.80452 15.3938 9.80413 15.5935C9.80387 15.7261 9.7775 15.8573 9.72653 15.9797C9.67556 16.102 9.60099 16.2132 9.50707 16.3067C9.41314 16.4003 9.30171 16.4744 9.17914 16.5249C9.05657 16.5754 8.92525 16.6013 8.79268 16.601Z" fill="#BCA584" stroke="#BCA584" stroke-width="0.2"/>
<path id="Vector_3" d="M15.2068 17.4038C14.8514 17.4034 14.504 17.5084 14.2083 17.7055C13.9126 17.9026 13.6821 18.1829 13.5457 18.5111C13.4094 18.8392 13.3734 19.2004 13.4423 19.549C13.5113 19.8976 13.682 20.2179 13.933 20.4694C14.184 20.7209 14.5039 20.8924 14.8524 20.9621C15.2008 21.0318 15.5621 20.9966 15.8905 20.861C16.2189 20.7254 16.4998 20.4954 16.6975 20.2002C16.8953 19.9049 17.001 19.5577 17.0014 19.2024C17.0009 18.7262 16.8118 18.2696 16.4754 17.9326C16.1391 17.5955 15.6829 17.4054 15.2068 17.4038ZM15.2068 20.2099C15.0069 20.2103 14.8115 20.1514 14.6452 20.0406C14.4789 19.9298 14.3492 19.7722 14.2725 19.5876C14.1959 19.4031 14.1757 19.2 14.2146 19.004C14.2535 18.8079 14.3497 18.6279 14.491 18.4866C14.6323 18.3453 14.8123 18.2491 15.0083 18.2102C15.2044 18.1713 15.4075 18.1915 15.592 18.2682C15.7766 18.3448 15.9342 18.4745 16.045 18.6408C16.1557 18.8071 16.2147 19.0026 16.2143 19.2024C16.2136 19.4694 16.1072 19.7252 15.9184 19.914C15.7296 20.1028 15.4738 20.2092 15.2068 20.2099Z" fill="#BCA584" stroke="#BCA584" stroke-width="0.2"/>
<path id="Vector_4" d="M8.27372 20.032C8.304 20.0741 8.3423 20.1098 8.38641 20.137C8.43053 20.1643 8.4796 20.1825 8.53081 20.1908C8.58201 20.199 8.63433 20.197 8.68477 20.185C8.73521 20.1729 8.78276 20.151 8.82471 20.1205L16.0387 14.9094C16.1233 14.8482 16.1801 14.7559 16.1967 14.6529C16.2132 14.5498 16.1882 14.4444 16.127 14.3598C16.0658 14.2752 15.9736 14.2183 15.8705 14.2018C15.7674 14.1852 15.662 14.2103 15.5774 14.2714L8.36227 19.4825C8.27769 19.5437 8.22084 19.6359 8.20423 19.7389C8.18763 19.8419 8.21262 19.9473 8.27372 20.032Z" fill="#BCA584" stroke="#BCA584" stroke-width="0.2"/>
<path id="Vector_5" d="M11.6192 10.1737C11.6982 10.1738 11.7754 10.15 11.8408 10.1056C11.9061 10.0612 11.9566 9.99811 11.9856 9.92461C12.0146 9.85111 12.0208 9.77059 12.0034 9.69351C11.986 9.61644 11.9458 9.54639 11.888 9.49247L11.0883 8.74471C11.012 8.67342 10.9105 8.63536 10.8062 8.6389C10.7018 8.64244 10.6031 8.6873 10.5318 8.7636C10.4605 8.8399 10.4225 8.94139 10.426 9.04576C10.4296 9.15012 10.4744 9.2488 10.5507 9.32009L11.3508 10.0679C11.4237 10.1358 11.5196 10.1737 11.6192 10.1737Z" fill="#BCA584" stroke="#BCA584" stroke-width="0.2"/>
</g>
</svg>
