<svg width="23" height="23" viewBox="0 0 23 23" fill="none" xmlns="http://www.w3.org/2000/svg">
<path fill-rule="evenodd" clip-rule="evenodd" d="M9.94339 2.57685V3.1184C9.94339 3.24241 10.044 3.34289 10.1679 3.34289H10.3533V4.38498L7.9589 7.24673C7.83363 7.37473 7.75282 7.53035 7.71645 7.69396H6.176C6.13065 7.69396 6.0862 7.70778 6.04894 7.73364L4.4398 8.84303H3.34294V8.65459C3.34294 8.53058 3.24236 8.4301 3.11845 8.4301H2.57698V8.08003C2.57698 7.95602 2.47641 7.85554 2.35249 7.85554H0.72449C0.600571 7.85554 0.5 7.95602 0.5 8.08003V13.4544C0.5 13.5784 0.600571 13.6789 0.72449 13.6789H2.35249C2.47641 13.6789 2.57698 13.5784 2.57698 13.4544V13.0565H3.11845C3.24236 13.0565 3.34294 12.956 3.34294 12.832V12.6467H4.38502L7.24682 15.0411C7.37478 15.1664 7.53057 15.2473 7.694 15.2837V16.8238C7.694 16.8693 7.70792 16.9138 7.73351 16.9512L8.84294 18.5602V19.6571H8.65437C8.53045 19.6571 8.42988 19.7576 8.42988 19.8815V20.423H8.08012C7.9562 20.423 7.85563 20.5236 7.85563 20.6475V22.2755C7.85563 22.3994 7.9562 22.5 8.08012 22.5H13.4544C13.5783 22.5 13.6789 22.3994 13.6789 22.2755V20.6475C13.6789 20.5236 13.5783 20.423 13.4544 20.423H13.0566V19.8815C13.0566 19.7576 12.956 19.6571 12.8321 19.6571H12.6467V18.615L15.0411 15.7533C15.1664 15.6252 15.2472 15.4696 15.2836 15.306H16.824C16.8694 15.306 16.9138 15.2922 16.9511 15.2664L18.5602 14.157H19.6571V14.3454C19.6571 14.4694 19.7576 14.5699 19.8815 14.5699H20.423V14.92C20.423 15.044 20.5236 15.1445 20.6475 15.1445H22.2755C22.3994 15.1445 22.5 15.044 22.5 14.92V9.54559C22.5 9.42158 22.3994 9.3211 22.2755 9.3211H20.6475C20.5236 9.3211 20.423 9.42158 20.423 9.54559V9.94352H19.8815C19.7576 9.94352 19.6571 10.044 19.6571 10.168V10.3533H18.615L15.7532 7.9589C15.6252 7.83354 15.4694 7.75264 15.306 7.71627V6.17618C15.306 6.1307 15.2921 6.08625 15.2665 6.04876L14.1571 4.4398V3.34289H14.3456C14.4696 3.34289 14.5701 3.24241 14.5701 3.1184V2.57685H14.9199C15.0438 2.57685 15.1444 2.47636 15.1444 2.35236V0.72449C15.1444 0.600527 15.0438 0.5 14.9199 0.5H9.54559C9.42167 0.5 9.3211 0.600527 9.3211 0.72449V2.35236C9.3211 2.47636 9.42167 2.57685 9.54559 2.57685H9.94339ZM8.65437 20.872H12.3953H13.2299V22.051H8.30461V20.872H8.65437ZM8.87886 20.106H12.6076V20.423H8.87886V20.106ZM11.931 13.2329V10.6262C11.931 10.3604 11.7155 10.1445 11.4497 10.1445C11.1835 10.1445 10.968 10.3604 10.968 10.6262V13.6159L10.9675 13.6188V13.6217V13.6246V13.6275V13.6303L10.9671 13.6332V13.636L10.9666 13.6388L10.9662 13.6417V13.6445L10.9657 13.6473L10.9653 13.6501L10.9648 13.6529L10.9644 13.6556L10.9639 13.6584L10.963 13.6612L10.9626 13.6639L10.9621 13.6666L10.9612 13.6693L10.9608 13.672L10.9599 13.6747L10.9594 13.6774L10.9585 13.68L10.9576 13.6827L10.9567 13.6853L10.9558 13.6879L10.9549 13.6905L10.954 13.6931L10.9531 13.6956L10.9522 13.6982L10.9513 13.7008L10.95 13.7033L10.9491 13.7058L10.9478 13.7083L10.9469 13.7108L10.9455 13.7132L10.9446 13.7157L10.9433 13.7181L10.9419 13.7205L10.9406 13.7229L10.9392 13.7253L10.9379 13.7276L10.9365 13.73L10.9352 13.7323L10.9338 13.7346L10.9325 13.7369L10.9311 13.7392L10.9293 13.7414L10.928 13.7436L10.9262 13.7458L10.9249 13.748L10.9231 13.7502L10.9217 13.7524L10.9199 13.7545L10.9181 13.7566L10.9163 13.7587L10.915 13.7607L10.9132 13.7628L10.9114 13.7648L10.9096 13.7669L10.9078 13.7688L10.906 13.7708L10.9038 13.7727L10.902 13.7746L10.9002 13.7765L10.8984 13.7784L10.8961 13.7802L10.8943 13.7821L10.8921 13.7839L10.8903 13.7857L10.888 13.7874L10.8862 13.7891L10.884 13.7908L10.8818 13.7925L10.8795 13.7942L10.8777 13.7958L10.8755 13.7974L10.8732 13.799L10.871 13.8005L10.8687 13.8021L10.8665 13.8035L10.8642 13.805L10.862 13.8065L10.8598 13.8079L10.8575 13.8093L10.8548 13.8107L10.8526 13.812L10.8503 13.8133L10.8481 13.8146L10.8454 13.8158L10.8431 13.817L10.8405 13.8183L10.8382 13.8194L10.8355 13.8206L10.8333 13.8217L10.8306 13.8228L10.8283 13.8238L10.8256 13.8248L10.8229 13.8258L10.8202 13.8268L10.818 13.8277L10.8153 13.8286L10.8126 13.8295L10.8099 13.8303L10.8072 13.8311L10.8045 13.8319L10.8018 13.8326L10.7991 13.8333L10.7969 13.834L10.7938 13.8347L10.7911 13.8353L10.7884 13.8359L10.7857 13.8364L10.783 13.8369L10.7803 13.8374L10.7776 13.8378L10.7749 13.8382L10.7718 13.8386L10.7691 13.839L10.7664 13.8393L10.7632 13.8395L10.7605 13.8398L10.7578 13.8399L10.7547 13.8401L10.752 13.8403L10.7493 13.8404L10.7462 13.8404H10.7435H10.7403L10.7376 13.8404L10.7345 13.8403L10.7318 13.8401L10.7291 13.8399L10.726 13.8398L10.7233 13.8395L10.7201 13.8393L10.7174 13.839L10.7147 13.8386L10.712 13.8382L10.7089 13.8378L10.7062 13.8374L10.7035 13.8369L10.7008 13.8364L10.6981 13.8359L10.6954 13.8353L10.6927 13.8347L10.69 13.834L10.6873 13.8333L10.6847 13.8326C10.589 13.8067 10.519 13.7194 10.519 13.6159V11.2008C10.519 10.9349 10.303 10.719 10.0372 10.719C9.77143 10.719 9.55547 10.9349 9.55547 11.2008V14.0947V14.0976V14.1005L9.55502 14.1034V14.1062V14.1091L9.55457 14.112V14.1148L9.55412 14.1176L9.55367 14.1205V14.1233L9.55322 14.1261L9.55278 14.1289L9.55233 14.1316L9.55188 14.1344L9.55143 14.1372L9.55098 14.1399L9.55008 14.1426L9.54963 14.1454L9.54919 14.1481L9.54829 14.1508L9.54739 14.1535L9.54694 14.1561L9.54604 14.1588L9.54514 14.1614L9.54424 14.1641L9.54335 14.1667L9.54245 14.1693L9.54155 14.1719L9.54065 14.1744L9.53975 14.177L9.53885 14.1796L9.53751 14.1821L9.53661 14.1846L9.53571 14.1871L9.53437 14.1895L9.53302 14.192L9.53212 14.1945L9.53078 14.1969L9.52943 14.1993L9.52808 14.2017L9.52674 14.2041L9.52584 14.2064L9.52404 14.2087L9.52269 14.2111L9.52135 14.2134L9.52 14.2157L9.51865 14.2179L9.51686 14.2202L9.51551 14.2224L9.51371 14.2246L9.51237 14.2268L9.51057 14.229L9.50923 14.2311L9.50743 14.2333L9.50563 14.2354L9.50429 14.2375L9.50249 14.2395L9.50069 14.2416L9.4989 14.2436L9.4971 14.2456L9.49531 14.2476L9.49351 14.2496L9.49127 14.2515L9.48947 14.2534L9.48768 14.2553L9.48588 14.2572L9.48363 14.259L9.48184 14.2609L9.47959 14.2627L9.47779 14.2644L9.47555 14.2662L9.47375 14.2679L9.47151 14.2696L9.46927 14.2713L9.46747 14.2729L9.46523 14.2746L9.46298 14.2762L9.46073 14.2777L9.45849 14.2793L9.45624 14.2808L9.454 14.2823L9.45176 14.2838L9.44951 14.2852L9.44727 14.2867L9.44502 14.2881L9.44233 14.2894L9.44008 14.2908L9.43783 14.2921L9.43559 14.2934L9.4329 14.2946L9.43065 14.2958L9.42796 14.2971L9.42572 14.2982L9.42302 14.2993L9.42077 14.3005L9.41808 14.3015L9.41583 14.3026L9.41314 14.3036L9.41045 14.3046L9.40821 14.3056L9.40551 14.3065L9.40282 14.3074L9.40012 14.3083L9.39743 14.3091L9.39518 14.3099L9.39249 14.3107L9.3898 14.3114L9.3871 14.3121L9.38441 14.3128L9.38171 14.3134L9.37902 14.3141L9.37587 14.3147L9.37318 14.3152L9.37049 14.3157L9.3678 14.3162L9.3651 14.3166L9.36241 14.317L9.35926 14.3174L9.35657 14.3177L9.35388 14.3181L9.35073 14.3183L9.34804 14.3186L9.34535 14.3187L9.3422 14.3189L9.33951 14.3191L9.33681 14.3191L9.33367 14.3192H9.33098H9.32784L9.32515 14.3191L9.322 14.3191L9.31931 14.3189L9.31661 14.3187L9.31347 14.3186L9.31077 14.3183L9.30808 14.3181L9.30494 14.3177L9.30225 14.3174L9.29955 14.317L9.29686 14.3166L9.29371 14.3162L9.29102 14.3157L9.28833 14.3152L9.28563 14.3147L9.28294 14.3141L9.28025 14.3134L9.27755 14.3128L9.27485 14.3121L9.27216 14.3114L9.26947 14.3107L9.26678 14.3099C9.17384 14.2823 9.10649 14.1963 9.10649 14.0947V12.1104C9.10649 11.8446 8.89053 11.6287 8.62473 11.6287C8.35894 11.6287 8.14298 11.8446 8.14298 12.1104V16.7539L9.25241 18.3629C9.278 18.4003 9.29192 18.4448 9.29192 18.4903V19.6571H12.1977V18.5335C12.1977 18.4808 12.2161 18.4298 12.2502 18.3895L14.7026 15.4581C14.7071 15.453 14.7116 15.4481 14.716 15.4433C14.9042 15.2554 14.9042 14.9501 14.716 14.7621C14.5279 14.5741 14.2226 14.5741 14.0349 14.7621L13.7269 15.0701C13.6627 15.1343 13.5662 15.1535 13.4822 15.1188C13.3983 15.084 13.3435 15.0022 13.3435 14.9113V11.105C13.3435 10.8391 13.128 10.6233 12.8618 10.6233C12.596 10.6233 12.38 10.8391 12.38 11.105V13.2329V13.2358V13.2387V13.2415V13.2444L12.3795 13.2473V13.2502V13.253L12.3791 13.2558L12.3787 13.2587L12.3782 13.2615V13.2643L12.3778 13.267L12.3773 13.2698L12.3769 13.2726L12.3764 13.2754L12.3755 13.2781L12.3751 13.2808L12.3746 13.2836L12.3737 13.2863L12.3733 13.289L12.3724 13.2917L12.3715 13.2943L12.371 13.297L12.3701 13.2996L12.3692 13.3022L12.3683 13.3049L12.3674 13.3075L12.3665 13.3101L12.3656 13.3126L12.3647 13.3152L12.3638 13.3177L12.3625 13.3203L12.3616 13.3228L12.3602 13.3252L12.3593 13.3277L12.358 13.3302L12.3567 13.3326L12.3558 13.3351L12.3544 13.3374L12.3531 13.3399L12.3517 13.3423L12.3504 13.3446L12.349 13.3469L12.3477 13.3493L12.3463 13.3516L12.345 13.3538L12.3432 13.3561L12.3418 13.3584L12.3405 13.3606L12.3387 13.3628L12.3373 13.365L12.3356 13.3672L12.3338 13.3693L12.3324 13.3714L12.3306 13.3735L12.3288 13.3757L12.327 13.3777L12.3252 13.3798L12.3239 13.3818L12.3221 13.3838L12.3198 13.3858L12.318 13.3877L12.3162 13.3897L12.3144 13.3916L12.3127 13.3935L12.3104 13.3954L12.3086 13.3972L12.3068 13.399L12.3046 13.4008L12.3028 13.4026L12.3005 13.4043L12.2983 13.4061L12.2965 13.4078L12.2942 13.4095L12.292 13.4111L12.2902 13.4127L12.288 13.4144L12.2857 13.4159L12.2835 13.4175L12.2812 13.419L12.279 13.4205L12.2767 13.422L12.2745 13.4234L12.2722 13.4249L12.2696 13.4263L12.2673 13.4276L12.2651 13.429L12.2628 13.4303L12.2601 13.4316L12.2579 13.4328L12.2556 13.434L12.2529 13.4352L12.2507 13.4364L12.248 13.4375L12.2458 13.4386L12.2431 13.4397L12.2404 13.4408L12.2381 13.4418L12.2354 13.4428L12.2327 13.4438L12.2305 13.4447L12.2278 13.4456L12.2251 13.4465L12.2224 13.4473L12.2197 13.4481L12.217 13.4489L12.2143 13.4496L12.2116 13.4503L12.2089 13.451L12.2062 13.4516L12.2036 13.4523L12.2009 13.4528L12.1982 13.4534L12.1955 13.4539L12.1928 13.4544L12.1901 13.4548L12.1869 13.4552L12.1842 13.4556L12.1816 13.4559L12.1789 13.4562L12.1757 13.4565L12.173 13.4567L12.1699 13.4569L12.1672 13.4571L12.1645 13.4572L12.1613 13.4573L12.1587 13.4574H12.1555H12.1528L12.1501 13.4573L12.147 13.4572L12.1443 13.4571L12.1411 13.4569L12.1384 13.4567L12.1358 13.4565L12.1326 13.4562L12.1299 13.4559L12.1272 13.4556L12.1241 13.4552L12.1214 13.4548L12.1187 13.4544L12.116 13.4539L12.1133 13.4534L12.1106 13.4528L12.1079 13.4523L12.1052 13.4516L12.1021 13.451L12.0998 13.4503L12.0971 13.4496L12.0944 13.4489L12.0918 13.4481C11.9988 13.4205 11.931 13.3345 11.931 13.2329ZM19.6571 10.8022H18.5337C18.4807 10.8022 18.43 10.7837 18.3896 10.7499L15.4582 8.29734C15.4528 8.29307 15.4479 8.28858 15.4434 8.28387C15.2553 8.09588 14.95 8.09588 14.7623 8.28387C14.5742 8.4719 14.5742 8.77716 14.7623 8.96515L15.0703 9.27315C15.1345 9.33735 15.1533 9.43389 15.1188 9.5178C15.0842 9.60167 15.002 9.65636 14.9113 9.65636H12.6485C12.701 9.7726 12.7298 9.90145 12.7298 10.0371C12.7298 10.0875 12.7262 10.137 12.7181 10.1853C12.7648 10.1781 12.8128 10.1743 12.8618 10.1743C13.3754 10.1743 13.7925 10.5914 13.7925 11.105V14.3771C14.158 14.083 14.6945 14.1055 15.0335 14.4446C15.152 14.5633 15.2319 14.706 15.2732 14.8571H16.754L18.3631 13.7476C18.4004 13.7218 18.4448 13.708 18.4902 13.708H19.6571V10.8022ZM10.8894 9.10636C11.1556 9.10636 11.3711 8.89053 11.3711 8.62465C11.3711 8.35876 11.1556 8.14293 10.8894 8.14293H6.24604L4.6369 9.25236C4.59963 9.27818 4.55519 9.29201 4.50984 9.29201H3.34294V12.1978H4.46673C4.51926 12.1978 4.57 12.2163 4.61041 12.2501L7.54179 14.7027C7.54718 14.7069 7.55212 14.7114 7.55661 14.7161C7.59747 14.7571 7.64416 14.7892 7.694 14.8123V12.1104C7.694 11.5968 8.1111 11.1797 8.62473 11.1797C8.80073 11.1797 8.96596 11.2289 9.10649 11.3141V11.2008C9.10649 10.6871 9.52359 10.2701 10.0372 10.2701C10.2231 10.2701 10.3964 10.3247 10.5419 10.419C10.6362 10.0049 11.007 9.69551 11.4497 9.69551C11.7981 9.69551 12.1025 9.88771 12.2619 10.1719C12.2745 10.1291 12.2808 10.0839 12.2808 10.0371C12.2808 9.7712 12.0653 9.55534 11.799 9.55534H8.90534H8.9022L8.89951 9.55529L8.89682 9.5552L8.89367 9.55507L8.89098 9.55489L8.88783 9.5547L8.88514 9.55448L8.88245 9.55421L8.87931 9.5539L8.87661 9.55354L8.87392 9.55318L8.87122 9.55278L8.86853 9.55233L8.86539 9.55183L8.86269 9.55134L8.86 9.5508L8.85731 9.55022L8.85461 9.54959L8.85192 9.54896L8.84922 9.54829L8.84653 9.54757L8.84383 9.54685L8.84114 9.54604L8.83845 9.54523L8.83576 9.54442L8.83351 9.54353L8.83082 9.54263L8.82812 9.54173L8.82543 9.54074L8.82318 9.53976L8.82049 9.53877L8.8178 9.53769L8.81555 9.53661L8.81286 9.53549L8.81061 9.53437L8.80792 9.5332L8.80567 9.53199L8.80298 9.53078L8.80073 9.52952L8.79849 9.52826L8.7958 9.52691L8.79355 9.52561L8.79131 9.52422L8.78906 9.52283L8.78681 9.52139L8.78457 9.51995L8.78188 9.51847L8.77963 9.51699L8.77739 9.51547L8.77559 9.51389L8.77335 9.51232L8.7711 9.51071L8.76886 9.50909L8.76661 9.50743L8.76481 9.50577L8.76257 9.50406L8.76033 9.50236L8.75853 9.50056L8.75629 9.49881L8.75449 9.49701L8.75225 9.49517L8.75045 9.49333L8.74865 9.49144L8.74641 9.48956L8.74461 9.48767L8.74282 9.4857L8.74102 9.48377L8.73922 9.48179L8.73743 9.47977L8.73563 9.47775L8.73384 9.47569L8.73204 9.47362L8.73025 9.47155L8.7289 9.46944L8.7271 9.46729L8.7253 9.46513L8.72396 9.46298L8.72216 9.46078L8.72081 9.45858L8.71902 9.45633L8.71767 9.45409L8.71633 9.4518L8.71498 9.44955L8.71319 9.44722L8.71184 9.44489L8.71049 9.44255L8.70914 9.44022L8.7078 9.43784L8.70645 9.43546L8.70555 9.43303L8.7042 9.43061L8.70286 9.42814L8.70196 9.42567L8.70061 9.4232L8.69971 9.42073L8.69837 9.41822L8.69747 9.4157L8.69657 9.41314L8.69523 9.41058L8.69433 9.40802L8.69343 9.40542L8.69253 9.40281L8.69163 9.40021L8.69074 9.39761L8.69029 9.39496L8.68939 9.39231L8.68849 9.38962L8.68804 9.38692L8.68714 9.38423L8.68669 9.38153L8.68579 9.3788L8.68535 9.37606L8.6849 9.37332L8.68445 9.37058L8.684 9.3678L8.68355 9.36501L8.6831 9.36223L8.68265 9.35944L8.6822 9.35662L8.68175 9.35379V9.35096L8.6813 9.34813V9.34526V9.34238L8.68086 9.33955V9.33664V9.33376V9.33084V9.32797V9.32505V9.32218L8.6813 9.31931V9.31643V9.3136L8.68175 9.31077V9.3079L8.6822 9.30512L8.68265 9.30229L8.6831 9.29946L8.68355 9.29668L8.684 9.29389L8.68445 9.29115L8.6849 9.28837L8.68535 9.28563L8.68579 9.28289L8.68669 9.2802L8.68714 9.27746L8.68804 9.27477L8.68849 9.27212L8.68939 9.26942L8.69029 9.26678L8.69074 9.26413C8.71947 9.17276 8.80477 9.10636 8.90534 9.10636H10.8894ZM20.872 14.3455V14.3454V10.6027V9.77008H22.051V14.6955H20.872V14.3455ZM20.106 10.3925H20.423V14.1209H20.106V13.9325V10.3925ZM2.128 8.6545V8.65459V12.3956V13.2299H0.94898V8.30452H2.128V8.6545ZM2.57698 8.87908V12.6075H2.89396V9.06752V8.87908H2.57698ZM13.7081 3.34289H10.8023V4.46651C10.8023 4.51917 10.7839 4.57018 10.7498 4.61054L8.29743 7.54193C8.29294 7.54705 8.28845 7.55194 8.28396 7.55666C8.24265 7.59765 8.21077 7.64421 8.18788 7.69396H10.8894C11.403 7.69396 11.8201 8.11097 11.8201 8.62465C11.8201 8.80096 11.7712 8.96587 11.6859 9.10636H11.799C11.9512 9.10636 12.0945 9.14277 12.2211 9.20738H14.3771C14.083 8.84209 14.1054 8.30551 14.4449 7.9664C14.5634 7.84782 14.7062 7.76795 14.857 7.72678V6.24609L13.7476 4.63712C13.722 4.59968 13.7081 4.55523 13.7081 4.5097V3.34289ZM10.3924 2.57685H14.1211V2.89391H10.3924V2.57685ZM14.3456 2.12787H10.6034H9.77008V0.94898H14.6954V2.12787H14.3456Z" fill="#BCA584" stroke="#BCA584" stroke-width="0.2"/>
</svg>
