<svg width="23" height="15" viewBox="0 0 23 15" fill="none" xmlns="http://www.w3.org/2000/svg">
<g id="Group">
<path id="Vector" d="M11.4996 3.00684C10.1624 3.00684 9.07617 4.09308 9.07617 5.43027C9.07617 6.73308 10.0937 8.66151 11.4996 8.66151C12.9056 8.66151 13.9231 6.72964 13.9231 5.43027C13.9231 4.09652 12.8368 3.00684 11.4996 3.00684ZM11.4996 7.97745C10.6402 7.97745 9.76368 6.49589 9.76368 5.4337C9.76368 4.47808 10.544 3.69777 11.4996 3.69777C12.4553 3.69777 13.2356 4.47808 13.2356 5.4337C13.2356 6.49589 12.3624 7.97745 11.4996 7.97745Z" fill="#BCA584"/>
<path id="Vector_2" d="M11.4994 10.6072L10.53 8.75439H9.62596C8.25438 8.75439 7.14062 9.86814 7.14062 11.2397V14.3575H15.8651V11.2397C15.8651 9.86814 14.7479 8.75439 13.3763 8.75439H12.4722L11.4994 10.6072ZM13.3729 9.43845C14.3663 9.43845 15.1741 10.2463 15.1741 11.2363V13.6666H7.82813V11.2363C7.82813 10.2428 8.63595 9.43845 9.62596 9.43845H10.1141L11.1763 11.47L11.2657 11.6694L11.7503 11.6591L11.8294 11.4597L12.8882 9.44189H13.3729V9.43845Z" fill="#BCA584"/>
<path id="Vector_3" d="M18.1383 6.30018C19.5442 6.30018 20.5618 4.36831 20.5618 3.06894C20.5618 1.73176 19.4755 0.645508 18.1383 0.645508C16.8011 0.645508 15.7148 1.73176 15.7148 3.06894C15.7148 4.36831 16.7324 6.30018 18.1383 6.30018ZM18.1383 1.32957C19.0939 1.32957 19.8743 2.10988 19.8743 3.0655C19.8743 4.13112 19.0011 5.60925 18.1383 5.60925C17.2755 5.60925 16.4023 4.12769 16.4023 3.0655C16.4023 2.10988 17.1827 1.32957 18.1383 1.32957Z" fill="#BCA584"/>
<path id="Vector_4" d="M20.0103 6.38623H19.1062L18.1368 8.24248L17.1674 6.38623H16.2634C15.1943 6.38623 14.249 7.06342 13.9121 8.07404L14.5652 8.2906C14.8093 7.56185 15.4899 7.07029 16.2634 7.07029H16.7481L17.8103 9.10185C17.8721 9.2256 17.9959 9.30122 18.1334 9.30122L18.3603 9.29091L19.5222 7.07029H20.0068C21.0003 7.07029 21.8081 7.8781 21.8081 8.8681V11.2984H16.5487V11.9859H22.499V8.8681C22.499 7.49998 21.3819 6.38623 20.0103 6.38623Z" fill="#BCA584"/>
<path id="Vector_5" d="M2.43945 3.06552C2.43945 4.36833 3.45696 6.29676 4.86291 6.29676C6.26886 6.29676 7.28636 4.36489 7.28636 3.06552C7.28636 1.72834 6.20011 0.64209 4.86291 0.64209C3.52571 0.64209 2.43945 1.73177 2.43945 3.06552ZM6.59886 3.06552C6.59886 4.13114 5.72573 5.60927 4.86291 5.60927C4.00009 5.60927 3.12696 4.12771 3.12696 3.06552C3.12696 2.1099 3.90728 1.32959 4.86291 1.32959C5.81854 1.32959 6.59886 2.1099 6.59886 3.06552Z" fill="#BCA584"/>
<path id="Vector_6" d="M6.45379 11.3018H1.18751V8.87154C1.18751 7.88154 1.99532 7.07373 2.98877 7.07373H3.47346L4.53565 9.10529C4.59753 9.22904 4.72128 9.30466 4.85878 9.30466L5.08566 9.29435L6.24754 7.07373H6.73223C7.50568 7.07373 8.18974 7.56529 8.43381 8.29404L9.08694 8.07404C8.74662 7.06342 7.8013 6.38623 6.73223 6.38623H5.82816L4.85878 8.24248L3.8894 6.38623H2.98877C1.6172 6.38623 0.5 7.49998 0.5 8.87154V11.9893H6.45379V11.3018Z" fill="#BCA584"/>
</g>
</svg>
