<svg width="23" height="23" viewBox="0 0 23 23" fill="none" xmlns="http://www.w3.org/2000/svg">
<g clip-path="url(#clip0_2200_882)">
<path d="M1.46084 12.4146C1.6624 12.4146 1.82598 12.2513 1.82598 12.0494C1.82598 6.41202 6.41251 1.8255 12.0499 1.8255C14.3602 1.8255 16.5696 2.59777 18.3676 4.01634H16.4316C16.23 4.01634 16.0665 4.17955 16.0665 4.38148C16.0665 4.5834 16.23 4.74662 16.4316 4.74662H19.3217C19.3458 4.74881 19.3684 4.74917 19.3922 4.74662H19.7175V1.46036C19.7175 1.25843 19.5539 1.09521 19.3524 1.09521C19.1508 1.09521 18.9872 1.25843 18.9872 1.46036V3.58182C17.0315 1.97447 14.599 1.09521 12.0499 1.09521C6.00976 1.09521 1.0957 6.00927 1.0957 12.0494C1.0957 12.2513 1.25929 12.4146 1.46084 12.4146Z" fill="#BCA584" stroke="#BCA584" stroke-width="0.1"/>
<path d="M12.0507 4.01611C7.62115 4.01611 4.01758 7.61968 4.01758 12.0492C4.01758 16.4787 7.62115 20.0823 12.0507 20.0823C16.4802 20.0823 20.0838 16.4787 20.0838 12.0492C20.0838 7.61968 16.4802 4.01611 12.0507 4.01611ZM12.0507 19.352C8.0239 19.352 4.74786 16.076 4.74786 12.0492C4.74786 8.02243 8.0239 4.74639 12.0507 4.74639C16.0774 4.74639 19.3535 8.02243 19.3535 12.0492C19.3535 16.076 16.0774 19.352 12.0507 19.352Z" fill="#BCA584" stroke="#BCA584" stroke-width="0.1"/>
<path d="M12.0487 6.57238C12.2503 6.57238 12.4139 6.40916 12.4139 6.20724V5.47696C12.4139 5.27503 12.2503 5.11182 12.0487 5.11182C11.8472 5.11182 11.6836 5.27503 11.6836 5.47696V6.20724C11.6836 6.40916 11.8472 6.57238 12.0487 6.57238Z" fill="#BCA584" stroke="#BCA584" stroke-width="0.1"/>
<path d="M12.0487 17.5269C11.8472 17.5269 11.6836 17.6901 11.6836 17.892V18.6223C11.6836 18.8242 11.8472 18.9874 12.0487 18.9874C12.2503 18.9874 12.4139 18.8242 12.4139 18.6223V17.892C12.4139 17.6901 12.2503 17.5269 12.0487 17.5269Z" fill="#BCA584" stroke="#BCA584" stroke-width="0.1"/>
<path d="M17.8905 12.4149H18.6208C18.8224 12.4149 18.986 12.2516 18.986 12.0497C18.986 11.8478 18.8224 11.6846 18.6208 11.6846H17.8905C17.689 11.6846 17.5254 11.8478 17.5254 12.0497C17.5254 12.2516 17.689 12.4149 17.8905 12.4149Z" fill="#BCA584" stroke="#BCA584" stroke-width="0.1"/>
<path d="M6.20675 11.6846H5.47647C5.27491 11.6846 5.11133 11.8478 5.11133 12.0497C5.11133 12.2516 5.27491 12.4149 5.47647 12.4149H6.20675C6.40831 12.4149 6.57189 12.2516 6.57189 12.0497C6.57189 11.8478 6.40831 11.6846 6.20675 11.6846Z" fill="#BCA584" stroke="#BCA584" stroke-width="0.1"/>
<path d="M12.4149 10.2754V8.39786C12.4149 8.19593 12.2513 8.03271 12.0497 8.03271C11.8482 8.03271 11.6846 8.19593 11.6846 8.39786V10.2754C11.0566 10.4386 10.5892 11.0053 10.5892 11.6841C10.5892 11.9543 10.6677 12.2041 10.7962 12.4213L7.77505 15.4425C7.63228 15.5853 7.63228 15.816 7.77505 15.9588C7.84625 16.03 7.93972 16.0658 8.0332 16.0658C8.12668 16.0658 8.22015 16.03 8.29135 15.9588L11.3125 12.9376C11.5298 13.0662 11.7795 13.1447 12.0497 13.1447C12.8552 13.1447 13.5103 12.4896 13.5103 11.6841C13.5103 11.0053 13.0429 10.4386 12.4149 10.2754ZM12.0497 12.4144C11.647 12.4144 11.3195 12.0869 11.3195 11.6841C11.3195 11.2814 11.647 10.9538 12.0497 10.9538C12.4525 10.9538 12.78 11.2814 12.78 11.6841C12.78 12.0869 12.4525 12.4144 12.0497 12.4144Z" fill="#BCA584" stroke="#BCA584" stroke-width="0.1"/>
<path d="M5.43568 20.3234C5.31518 20.4837 5.34804 20.7137 5.51236 20.8342C5.57443 20.8817 5.65111 20.9036 5.72779 20.9036C5.84098 20.9036 5.95052 20.8561 6.02355 20.7575C6.1404 20.5972 6.10753 20.3672 5.94687 20.2467C5.78621 20.1262 5.55654 20.1591 5.43568 20.3234Z" fill="#BCA584" stroke="#BCA584" stroke-width="0.1"/>
<path d="M3.7357 17.9904C3.61885 17.8301 3.38881 17.7896 3.2245 17.9068C3.06019 18.0273 3.02367 18.2536 3.14052 18.4176C3.21355 18.5166 3.32309 18.571 3.43993 18.571C3.51296 18.571 3.58599 18.549 3.65172 18.5019C3.81566 18.3847 3.85254 18.1547 3.7357 17.9904Z" fill="#BCA584" stroke="#BCA584" stroke-width="0.1"/>
<path d="M3.8779 18.7863C3.72819 18.9211 3.71359 19.1515 3.84869 19.3008C3.91807 19.3848 4.0203 19.4253 4.12254 19.4253C4.20653 19.4253 4.29416 19.3961 4.36354 19.334C4.51324 19.1989 4.52785 18.9689 4.39275 18.8192C4.26166 18.6658 4.03162 18.6549 3.8779 18.7863Z" fill="#BCA584" stroke="#BCA584" stroke-width="0.1"/>
<path d="M5.1339 19.5714C4.98785 19.4363 4.75416 19.4472 4.61905 19.5936C4.4803 19.743 4.49125 19.9734 4.64096 20.1121C4.71034 20.1742 4.79797 20.2071 4.88561 20.2071C4.98419 20.2071 5.08278 20.1669 5.15581 20.0902C5.29091 19.9405 5.28361 19.7105 5.1339 19.5754C5.1339 19.5714 5.1339 19.5714 5.1339 19.5714Z" fill="#BCA584" stroke="#BCA584" stroke-width="0.1"/>
<path d="M3.16714 17.1034C3.16349 17.1034 3.16349 17.1034 3.16349 17.1034C3.0649 16.9282 2.84217 16.8661 2.6669 16.9683C2.49163 17.0673 2.42956 17.2896 2.5318 17.4649C2.59752 17.5814 2.72167 17.6475 2.84947 17.6475C2.90789 17.6475 2.97362 17.6329 3.02839 17.6C3.20366 17.5014 3.26573 17.2783 3.16714 17.1034Z" fill="#BCA584" stroke="#BCA584" stroke-width="0.1"/>
<path d="M22.6164 12.8233C22.6237 12.8233 22.6274 12.8233 22.631 12.8233C22.8282 12.8233 22.9888 12.6659 22.9962 12.4728C23.0035 12.2679 22.8464 12.1 22.6456 12.093C22.4448 12.0854 22.2732 12.2427 22.2659 12.4436C22.2586 12.6444 22.4152 12.816 22.6164 12.8233Z" fill="#BCA584" stroke="#BCA584" stroke-width="0.1"/>
<path d="M1.55617 13.506C1.757 13.4838 1.90306 13.3048 1.88115 13.104C1.85924 12.9032 1.68032 12.7571 1.47949 12.779C1.27867 12.7973 1.13261 12.9799 1.15452 13.177C1.17278 13.3669 1.33344 13.5057 1.51601 13.5057C1.53061 13.506 1.54157 13.506 1.55617 13.506Z" fill="#BCA584" stroke="#BCA584" stroke-width="0.1"/>
<path d="M1.76175 14.5804C1.95892 14.5402 2.08672 14.3467 2.04291 14.1495C2.00274 13.9523 1.80922 13.8242 1.61204 13.868C1.41486 13.9081 1.28707 14.102 1.33088 14.2992C1.36374 14.4708 1.5171 14.5877 1.68507 14.5877C1.71026 14.5877 1.73619 14.5877 1.76175 14.5804Z" fill="#BCA584" stroke="#BCA584" stroke-width="0.1"/>
<path d="M2.68698 16.1571C2.60665 15.9746 2.39122 15.8906 2.205 15.9709C2.02243 16.0513 1.93844 16.2667 2.01877 16.4525C2.08085 16.5876 2.2123 16.672 2.3547 16.672C2.40217 16.672 2.45329 16.661 2.50076 16.6388C2.68296 16.5588 2.76695 16.3434 2.68698 16.1571Z" fill="#BCA584" stroke="#BCA584" stroke-width="0.1"/>
<path d="M2.31113 15.1716C2.2527 14.9781 2.04457 14.8722 1.8547 14.9343C1.66118 14.9963 1.55528 15.2008 1.61736 15.3947C1.66848 15.5481 1.81088 15.6463 1.96424 15.6463C2.00076 15.6463 2.04092 15.6426 2.07744 15.6317C2.26767 15.5696 2.37356 15.3611 2.31113 15.1716Z" fill="#BCA584" stroke="#BCA584" stroke-width="0.1"/>
<path d="M11.853 22.2696C11.6521 22.2656 11.4842 22.4266 11.4805 22.6271C11.4769 22.8319 11.6375 22.9959 11.8384 22.9999C11.842 22.9999 11.8457 22.9999 11.8457 22.9999C12.0465 22.9999 12.2072 22.8425 12.2108 22.642C12.2141 22.4412 12.0538 22.2733 11.853 22.2696Z" fill="#BCA584" stroke="#BCA584" stroke-width="0.1"/>
<path d="M20.1299 18.308C20.0057 18.465 20.035 18.6954 20.192 18.8192C20.2613 18.8703 20.338 18.8959 20.4184 18.8959C20.5242 18.8959 20.6338 18.8484 20.7068 18.7531C20.831 18.5961 20.8018 18.366 20.6411 18.2423C20.4804 18.1185 20.254 18.1473 20.1299 18.308Z" fill="#BCA584" stroke="#BCA584" stroke-width="0.1"/>
<path d="M17.8309 20.4771C17.6666 20.5903 17.6228 20.82 17.7396 20.9846C17.809 21.0869 17.9222 21.1417 18.0391 21.1417C18.1121 21.1417 18.1815 21.1234 18.2472 21.0796C18.4115 20.9664 18.4553 20.7367 18.3385 20.572C18.2253 20.4041 17.9993 20.3639 17.8309 20.4771Z" fill="#BCA584" stroke="#BCA584" stroke-width="0.1"/>
<path d="M18.669 19.8341C18.5157 19.9656 18.4974 20.1956 18.6289 20.349C18.7019 20.433 18.8041 20.4771 18.9064 20.4771C18.9903 20.4771 19.0743 20.4479 19.1437 20.3895C19.2971 20.258 19.3153 20.028 19.1839 19.8747C19.0521 19.7213 18.8224 19.703 18.669 19.8341Z" fill="#BCA584" stroke="#BCA584" stroke-width="0.1"/>
<path d="M21.2347 17.3218C21.0631 17.2159 20.8367 17.2706 20.7308 17.4386C20.6249 17.6102 20.6761 17.8366 20.8477 17.9425C20.9098 17.9794 20.9755 17.9973 21.0412 17.9973C21.1617 17.9973 21.2822 17.9388 21.3516 17.8253C21.4578 17.6544 21.4067 17.4276 21.2347 17.3218Z" fill="#BCA584" stroke="#BCA584" stroke-width="0.1"/>
<path d="M19.4407 19.1072C19.2983 19.2529 19.3056 19.4829 19.4516 19.622C19.521 19.691 19.6123 19.7239 19.7036 19.7239C19.7985 19.7239 19.8971 19.6874 19.9665 19.6107C20.1053 19.4646 20.1016 19.2346 19.9555 19.0958C19.8095 18.9571 19.5791 18.9611 19.4407 19.1072Z" fill="#BCA584" stroke="#BCA584" stroke-width="0.1"/>
<path d="M22.5845 13.1844C22.3873 13.1555 22.2011 13.2979 22.1719 13.4951C22.1426 13.6959 22.2814 13.8785 22.4822 13.9077C22.5005 13.9114 22.5187 13.9114 22.5333 13.9114C22.7123 13.9114 22.8693 13.7803 22.8948 13.5977C22.9244 13.4002 22.7857 13.2136 22.5845 13.1844Z" fill="#BCA584" stroke="#BCA584" stroke-width="0.1"/>
<path d="M22.4109 14.2657C22.2137 14.2182 22.0165 14.3387 21.9654 14.5323C21.918 14.7294 22.0385 14.9266 22.232 14.9777C22.2612 14.9854 22.2904 14.9887 22.3196 14.9887C22.4839 14.9887 22.6336 14.8755 22.6738 14.7112C22.7249 14.5144 22.6041 14.3172 22.4109 14.2657Z" fill="#BCA584" stroke="#BCA584" stroke-width="0.1"/>
<path d="M6.82867 20.8343C6.6534 20.7324 6.43066 20.7868 6.32842 20.9625C6.22253 21.1341 6.28096 21.3605 6.45257 21.4627C6.51099 21.4992 6.57672 21.5138 6.63879 21.5138C6.76294 21.5138 6.88344 21.4517 6.95281 21.3349C7.05871 21.1629 7.00065 20.9402 6.82867 20.8343Z" fill="#BCA584" stroke="#BCA584" stroke-width="0.1"/>
<path d="M22.1268 15.3248C21.9369 15.2558 21.7251 15.354 21.6594 15.5439C21.59 15.7341 21.6849 15.9423 21.8748 16.0113C21.915 16.0259 21.9588 16.0335 21.999 16.0335C22.1487 16.0335 22.2911 15.9423 22.3422 15.7926C22.4119 15.6019 22.3166 15.3942 22.1268 15.3248Z" fill="#BCA584" stroke="#BCA584" stroke-width="0.1"/>
<path d="M21.7326 16.3469C21.5537 16.2596 21.331 16.3323 21.2434 16.5148C21.1557 16.6974 21.2324 16.9168 21.4113 17.0041C21.4624 17.0297 21.5172 17.041 21.572 17.041C21.7071 17.041 21.8385 16.9643 21.9006 16.8361C21.9882 16.6532 21.9152 16.4345 21.7326 16.3469Z" fill="#BCA584" stroke="#BCA584" stroke-width="0.1"/>
<path d="M10.7989 22.1968C10.5981 22.1713 10.4192 22.3133 10.3936 22.5145C10.368 22.7153 10.5104 22.8979 10.7113 22.9194V22.9234C10.7259 22.9234 10.7405 22.9234 10.7551 22.9234C10.9377 22.9234 11.0947 22.7883 11.1166 22.6018C11.1421 22.4013 10.9994 22.222 10.7989 22.1968Z" fill="#BCA584" stroke="#BCA584" stroke-width="0.1"/>
<path d="M8.74148 21.7255C8.55161 21.6594 8.34347 21.7584 8.27775 21.9519C8.21202 22.1418 8.31426 22.3499 8.50414 22.4156C8.5443 22.4266 8.58447 22.4339 8.62463 22.4339C8.77434 22.4339 8.91675 22.339 8.96787 22.1893C9.03359 21.9957 8.93135 21.7876 8.74148 21.7255Z" fill="#BCA584" stroke="#BCA584" stroke-width="0.1"/>
<path d="M9.75752 22.0144C9.56035 21.9705 9.36682 22.091 9.31935 22.2882C9.27554 22.4854 9.39968 22.6826 9.59321 22.7264C9.62242 22.7337 9.64798 22.7337 9.67719 22.7337C9.8415 22.7337 9.99486 22.6205 10.0314 22.4525C10.0785 22.2553 9.9547 22.0582 9.75752 22.0144Z" fill="#BCA584" stroke="#BCA584" stroke-width="0.1"/>
<path d="M7.7618 21.331C7.57558 21.2434 7.36014 21.3234 7.27616 21.5059C7.19218 21.6885 7.26886 21.908 7.45143 21.9916C7.50255 22.0138 7.55367 22.0244 7.60479 22.0244C7.74354 22.0244 7.87499 21.9478 7.93707 21.813C8.02105 21.6305 7.94437 21.4147 7.7618 21.331Z" fill="#BCA584" stroke="#BCA584" stroke-width="0.1"/>
<path d="M13.9564 22.0946C13.7592 22.1311 13.6278 22.3246 13.6643 22.5218C13.6972 22.6971 13.8542 22.8179 14.0258 22.8179C14.0477 22.8179 14.0696 22.8179 14.0915 22.8139C14.2887 22.7741 14.4201 22.5839 14.3836 22.3867C14.3471 22.1859 14.1536 22.0581 13.9564 22.0946Z" fill="#BCA584" stroke="#BCA584" stroke-width="0.1"/>
<path d="M14.9811 21.8458C14.7875 21.9002 14.678 22.1051 14.7364 22.2982C14.7839 22.4556 14.9299 22.5578 15.087 22.5578C15.1198 22.5578 15.1563 22.5538 15.1928 22.5432C15.3864 22.4848 15.4959 22.28 15.4375 22.0868C15.3787 21.8969 15.1746 21.7874 14.9811 21.8458Z" fill="#BCA584" stroke="#BCA584" stroke-width="0.1"/>
<path d="M15.9788 21.4887C15.7926 21.5654 15.705 21.7808 15.7816 21.9674C15.8401 22.1061 15.9752 22.1897 16.1176 22.1897C16.165 22.1897 16.2125 22.1824 16.26 22.1646C16.4462 22.0839 16.5338 21.8721 16.4572 21.6859C16.3765 21.4996 16.165 21.412 15.9788 21.4887Z" fill="#BCA584" stroke="#BCA584" stroke-width="0.1"/>
<path d="M12.908 22.2363C12.7072 22.255 12.5575 22.4299 12.5757 22.6307C12.5903 22.8209 12.751 22.9666 12.9409 22.9666C12.9482 22.9666 12.9591 22.9666 12.9701 22.9666V22.963C13.1709 22.9484 13.3206 22.7731 13.3024 22.5723C13.2877 22.3718 13.1092 22.2217 12.908 22.2363Z" fill="#BCA584" stroke="#BCA584" stroke-width="0.1"/>
<path d="M16.9302 21.0317C16.7513 21.1266 16.6855 21.3494 16.7841 21.525C16.8499 21.6491 16.974 21.7182 17.1055 21.7182C17.1639 21.7182 17.2223 21.7035 17.2771 21.6707C17.456 21.5758 17.5217 21.353 17.4231 21.1777C17.3286 20.9988 17.1055 20.9331 16.9302 21.0317Z" fill="#BCA584" stroke="#BCA584" stroke-width="0.1"/>
</g>
<defs>
<clipPath id="clip0_2200_882">
<rect width="23" height="23" fill="white"/>
</clipPath>
</defs>
</svg>
