<svg width="19" height="23" viewBox="0 0 19 23" fill="none" xmlns="http://www.w3.org/2000/svg">
<g id="Group">
<path id="Vector" d="M12.2233 8.44993L11.878 10.6012C11.6567 11.7344 10.6563 12.5578 9.50541 12.5578C8.3545 12.5578 7.3541 11.7344 7.13277 10.6101L6.7875 8.44993C6.75209 8.21089 6.53076 8.05154 6.29173 8.08695C6.05269 8.12236 5.89333 8.34369 5.92875 8.58272L6.28287 10.7606C6.58388 12.301 7.93841 13.4165 9.50541 13.4165C11.0724 13.4165 12.4269 12.301 12.7368 10.7429L13.0821 8.58272C13.1175 8.34369 12.9581 8.12236 12.7191 8.08695C12.4889 8.05154 12.2676 8.21089 12.2233 8.44993Z" fill="#BCA584"/>
<path id="Vector_2" d="M4.84779 4.12978L5.32586 7.13099C5.34356 7.26378 5.42324 7.37002 5.53833 7.44084C5.65342 7.50282 5.78622 7.52052 5.91016 7.4674C7.03451 7.04245 8.24738 6.82998 9.50453 6.82998C10.7617 6.82998 11.9745 7.04245 13.0989 7.4674C13.152 7.48511 13.1963 7.49396 13.2494 7.49396C13.3291 7.49396 13.3999 7.47626 13.4707 7.43199C13.5858 7.37002 13.6566 7.25493 13.6832 7.12213L14.1613 4.12093C14.781 3.99698 15.2502 3.44809 15.2502 2.79296C15.2502 2.38571 15.0643 1.99618 14.7456 1.73944C14.4269 1.4827 14.0108 1.38531 13.5947 1.47384C13.0723 1.58893 12.6562 2.02274 12.5589 2.55392C12.4969 2.8992 12.5766 3.25332 12.7536 3.53662C12.4083 3.93501 12.0896 4.12978 11.8152 4.10322C11.5407 4.08551 11.0892 3.83763 10.4961 2.81952C10.6466 2.66016 10.7617 2.46539 10.8236 2.25292C10.9299 1.87223 10.8768 1.46499 10.6554 1.10201C10.4341 0.730181 10.0003 0.5 9.49567 0.5C8.9999 0.5 8.55724 0.730181 8.33592 1.10201C8.11459 1.46499 8.05262 1.88109 8.16771 2.25292C8.22968 2.46539 8.34477 2.66016 8.49527 2.81952C7.91097 3.83763 7.46831 4.08551 7.18501 4.10322C6.91056 4.12978 6.59185 3.93501 6.24658 3.53662C6.43249 3.25332 6.50332 2.8992 6.44135 2.54507C6.34396 2.01388 5.92787 1.58008 5.40553 1.47384C4.99829 1.38531 4.58219 1.4827 4.25463 1.73944C3.92706 1.99618 3.75 2.38571 3.75 2.79296C3.75885 3.45694 4.22807 4.00584 4.84779 4.12978ZM13.4176 2.70443C13.453 2.51851 13.6035 2.35915 13.7894 2.32374C13.8337 2.31489 13.8691 2.31489 13.9045 2.31489C14.055 2.31489 14.1524 2.37686 14.2144 2.42113C14.3295 2.51851 14.4003 2.65131 14.4003 2.80181C14.4003 3.0674 14.179 3.28873 13.9134 3.28873C13.8957 3.28873 13.878 3.28873 13.8603 3.28873C13.8071 3.27988 13.754 3.28873 13.7098 3.29759C13.6832 3.25332 13.6478 3.21791 13.6124 3.19135C13.453 3.0674 13.3822 2.89034 13.4176 2.70443ZM9.08843 1.55352C9.1504 1.44728 9.31861 1.37646 9.50453 1.37646C9.69044 1.37646 9.8498 1.44728 9.92062 1.55352C10.018 1.71288 10.0446 1.87223 10.0003 2.01388C9.96489 2.14668 9.8675 2.25292 9.74356 2.31489C9.63732 2.36801 9.55765 2.45654 9.52223 2.57163C9.51338 2.59819 9.50453 2.6336 9.50453 2.66901C9.50453 2.6336 9.49567 2.60704 9.48682 2.57163C9.45141 2.45654 9.37173 2.36801 9.26549 2.31489C9.14155 2.25292 9.04416 2.13783 9.00875 2.01388C8.96449 1.87223 8.9999 1.70402 9.08843 1.55352ZM7.25583 4.97083C8.02606 4.90885 8.74316 4.23602 9.45141 2.90805C9.47797 2.85493 9.49567 2.80181 9.50453 2.73984C9.51338 2.79296 9.52223 2.85493 9.55765 2.90805C10.2659 4.23602 10.983 4.90885 11.7532 4.97083C12.2667 5.00624 12.7625 4.78491 13.2582 4.27143L12.9041 6.47586C11.824 6.13058 10.682 5.95352 9.50453 5.95352C8.32706 5.95352 7.18501 6.13058 6.10493 6.47586L5.7508 4.27143C6.24658 4.78491 6.74235 5.00624 7.25583 4.97083ZM4.80352 2.42113C4.87435 2.36801 5.016 2.27948 5.21962 2.32374C5.40553 2.35915 5.55604 2.51851 5.59145 2.70443C5.62686 2.89034 5.55604 3.07626 5.41439 3.18249C5.37897 3.20905 5.34356 3.25332 5.317 3.28873C5.29044 3.27988 5.25503 3.27988 5.21962 3.27988C5.20191 3.27988 5.18421 3.27988 5.15765 3.27988C5.13994 3.27988 5.12223 3.27988 5.10453 3.27988C4.83893 3.27988 4.61761 3.05855 4.61761 2.79296C4.62646 2.65131 4.68843 2.50966 4.80352 2.42113Z" fill="#BCA584"/>
<path id="Vector_3" d="M18.3409 21.473L17.2696 16.4444C17.1723 15.9752 16.827 15.5857 16.3755 15.4263L12.9405 14.2046C12.79 14.1515 12.6218 14.1869 12.4978 14.2931L9.50545 17.0995L6.50425 14.302C6.38916 14.1869 6.21209 14.1515 6.06159 14.2134L2.62658 15.4352C2.17507 15.5945 1.8298 15.9841 1.73242 16.4533L0.661189 21.4818C0.60807 21.7297 0.670042 21.9865 0.829398 22.1901C0.988754 22.3849 1.22779 22.5 1.48453 22.5H17.5087C17.7654 22.5 18.0044 22.3849 18.1638 22.1901C18.3232 21.9953 18.394 21.7209 18.3409 21.473ZM1.52879 21.6146L2.59117 16.6215C2.62658 16.4444 2.75938 16.2939 2.92759 16.2408L6.11471 15.1076L9.2133 18.0026C9.38151 18.1619 9.63825 18.1619 9.80646 18.0026L12.9051 15.1076L16.0922 16.2408C16.2604 16.3028 16.3932 16.4444 16.4286 16.6215L17.491 21.6146H1.52879Z" fill="#BCA584"/>
</g>
</svg>
