<svg width="23" height="23" viewBox="0 0 23 23" fill="none" xmlns="http://www.w3.org/2000/svg">
<g id="icons">
<g id="XMLID_453_">
<path id="XMLID_477_" d="M9.49805 17.6621V21.3883C9.49805 21.4349 9.54462 21.4815 9.63778 21.4815L11.5474 20.6897L13.4571 21.4815C13.5037 21.5281 13.5968 21.4815 13.5968 21.3883V17.6621" stroke="#BCA584" stroke-width="1.5" stroke-miterlimit="10"/>
<path id="XMLID_715_" d="M15.8781 17.8952L11.7328 15.7992C11.6396 15.7526 11.5465 15.7526 11.4533 15.7992L7.35453 18.0349C7.16822 18.1281 6.93534 17.9884 6.93534 17.7555L7.68057 13.1443C7.68057 13.0511 7.68057 12.958 7.58741 12.9114L4.23388 9.69751C4.04757 9.55777 4.14072 9.27831 4.37361 9.23173L8.98472 8.48649C9.07787 8.48649 9.17103 8.39333 9.17103 8.34675L11.1738 4.15475C11.267 3.96844 11.5465 3.92186 11.6862 4.15475L13.7821 8.30017C13.8287 8.39333 13.9219 8.43991 14.015 8.43991L18.6261 9.04542C18.859 9.092 18.9522 9.37146 18.7659 9.5112L15.4589 12.8182C15.4123 12.8648 15.3658 12.958 15.3658 13.0511L16.2041 17.6157C16.2973 17.8486 16.0644 18.0349 15.8781 17.8952Z" stroke="#BCA584" stroke-width="1.5" stroke-miterlimit="10"/>
<path id="XMLID_459_" d="M18.5801 4.43457C20.3966 6.2511 21.5144 8.7663 21.5144 11.5144C21.5144 14.2625 20.3966 16.7777 18.5801 18.5942" stroke="#BCA584" stroke-width="1.5" stroke-miterlimit="10"/>
<path id="XMLID_457_" d="M4.42188 4.4344C6.23837 2.61787 8.75353 1.5 11.5016 1.5C14.2496 1.5 16.7648 2.61787 18.5813 4.4344" stroke="#BCA584" stroke-width="1.5" stroke-miterlimit="10" stroke-dasharray="2 2"/>
<path id="XMLID_456_" d="M4.42067 18.6411C2.60417 16.8246 1.48633 14.3094 1.48633 11.5613C1.48633 8.81318 2.60417 6.29798 4.42067 4.48145" stroke="#BCA584" stroke-width="1.5" stroke-miterlimit="10"/>
</g>
</g>
</svg>
