<svg width="23" height="24" viewBox="0 0 23 24" fill="none" xmlns="http://www.w3.org/2000/svg">
<g id="Group 1321317137">
<path id="Vector" d="M11.8409 23.0003H0.79184C0.728425 23.0003 0.667608 22.9752 0.622767 22.9303C0.577926 22.8855 0.552734 22.8247 0.552734 22.7612V21.1616C0.553368 20.8171 0.690688 20.4868 0.934555 20.2434C1.17842 20 1.50891 19.8633 1.85347 19.8633H10.7745C11.119 19.8633 11.4495 20 11.6934 20.2434C11.9373 20.4868 12.0746 20.8171 12.0752 21.1616V22.7612C12.0752 22.8238 12.0507 22.8839 12.0069 22.9286C11.9631 22.9733 11.9035 22.9991 11.8409 23.0003ZM1.03095 22.5221H11.6018V21.1616C11.6015 21.0534 11.5798 20.9463 11.538 20.8465C11.4963 20.7467 11.4352 20.656 11.3583 20.5799C11.2815 20.5037 11.1904 20.4434 11.0902 20.4025C10.99 20.3616 10.8827 20.3409 10.7745 20.3415H1.85347C1.63573 20.3415 1.42688 20.4278 1.2727 20.5816C1.11852 20.7353 1.03158 20.9439 1.03095 21.1616V22.5221Z" fill="#BCA584" stroke="#BCA584" stroke-width="0.5"/>
<path id="Vector_2" d="M9.76383 20.3414H2.86803C2.80462 20.3414 2.7438 20.3163 2.69896 20.2714C2.65412 20.2266 2.62893 20.1658 2.62893 20.1023C2.62618 19.3159 2.87611 18.5494 3.34188 17.9157C3.80765 17.2821 4.46464 16.8148 5.21605 16.5827C5.27629 16.5639 5.34152 16.5697 5.39751 16.5988C5.45349 16.628 5.4957 16.678 5.51493 16.7381C5.52459 16.7681 5.52823 16.7997 5.52564 16.8311C5.52305 16.8625 5.51428 16.8931 5.49984 16.9211C5.4854 16.9491 5.46557 16.9739 5.44148 16.9942C5.4174 17.0145 5.38954 17.0299 5.35951 17.0394C4.74576 17.2301 4.20392 17.6017 3.80499 18.1056C3.40606 18.6095 3.16865 19.2221 3.12388 19.8632H9.51755C9.47255 19.2205 9.23395 18.6065 8.83318 18.102C8.43241 17.5975 7.88825 17.2262 7.27235 17.037C7.24148 17.0285 7.21264 17.0139 7.18752 16.994C7.16241 16.9742 7.14154 16.9495 7.12615 16.9214C7.11077 16.8933 7.10118 16.8624 7.09796 16.8305C7.09474 16.7987 7.09794 16.7665 7.1074 16.7359C7.11685 16.7053 7.13234 16.6769 7.15297 16.6525C7.1736 16.628 7.19894 16.6079 7.22748 16.5934C7.25602 16.5788 7.28719 16.5702 7.31913 16.568C7.35107 16.5657 7.38314 16.5699 7.41343 16.5803C8.16567 16.8121 8.82347 17.2796 9.28974 17.9137C9.75601 18.5479 10.006 19.3152 10.0029 20.1023C10.0029 20.1658 9.97775 20.2266 9.93291 20.2714C9.88806 20.3163 9.82725 20.3414 9.76383 20.3414Z" fill="#BCA584" stroke="#BCA584" stroke-width="0.5"/>
<path id="Vector_3" d="M6.31609 18.3966C5.97999 18.3966 5.65766 18.2631 5.42 18.0254C5.18234 17.7878 5.04883 17.4655 5.04883 17.1294V11.5726C5.04883 11.5091 5.07402 11.4483 5.11886 11.4035C5.1637 11.3586 5.22452 11.3334 5.28793 11.3334C5.35135 11.3334 5.41217 11.3586 5.45701 11.4035C5.50185 11.4483 5.52704 11.5091 5.52704 11.5726V17.1294C5.53816 17.3314 5.62626 17.5216 5.77324 17.6607C5.92022 17.7998 6.11491 17.8773 6.31728 17.8773C6.51966 17.8773 6.71434 17.7998 6.86132 17.6607C7.0083 17.5216 7.09641 17.3314 7.10753 17.1294V11.5702C7.10753 11.5067 7.13272 11.4459 7.17756 11.4011C7.2224 11.3562 7.28322 11.3311 7.34663 11.3311C7.41005 11.3311 7.47086 11.3562 7.5157 11.4011C7.56054 11.4459 7.58574 11.5067 7.58574 11.5702V17.1294C7.5851 17.4657 7.45106 17.788 7.21302 18.0256C6.97498 18.2632 6.6524 18.3966 6.31609 18.3966Z" fill="#BCA584" stroke="#BCA584" stroke-width="0.5"/>
<path id="Vector_4" d="M6.95023 7.93684C6.9186 7.93671 6.8873 7.9303 6.85816 7.91799C6.82902 7.90568 6.80261 7.8877 6.78047 7.86511C6.73593 7.82031 6.71094 7.75971 6.71094 7.69654C6.71094 7.63337 6.73593 7.57277 6.78047 7.52797L10.5512 3.75489C10.5735 3.7326 10.5999 3.71491 10.629 3.70285C10.6582 3.69078 10.6894 3.68457 10.7209 3.68457C10.7525 3.68457 10.7837 3.69078 10.8128 3.70285C10.8419 3.71491 10.8684 3.7326 10.8907 3.75489C10.913 3.77718 10.9307 3.80365 10.9427 3.83278C10.9548 3.86191 10.961 3.89313 10.961 3.92465C10.961 3.95618 10.9548 3.9874 10.9427 4.01653C10.9307 4.04566 10.913 4.07213 10.8907 4.09442L7.12 7.86272C7.09805 7.88575 7.07174 7.90416 7.04258 7.91689C7.01343 7.92962 6.98204 7.9364 6.95023 7.93684Z" fill="#BCA584" stroke="#BCA584" stroke-width="0.5"/>
<path id="Vector_5" d="M8.36744 9.43079C8.33598 9.43097 8.30478 9.42494 8.27565 9.41304C8.24652 9.40114 8.22002 9.38361 8.19768 9.36145C8.17527 9.33922 8.15748 9.31277 8.14534 9.28364C8.1332 9.2545 8.12695 9.22325 8.12695 9.19168C8.12695 9.16012 8.1332 9.12887 8.14534 9.09973C8.15748 9.07059 8.17527 9.04415 8.19768 9.02192L11.9971 5.22253C12.0428 5.18336 12.1016 5.16289 12.1618 5.16522C12.222 5.16754 12.2791 5.19249 12.3217 5.23507C12.3642 5.27766 12.3892 5.33474 12.3915 5.39492C12.3938 5.45509 12.3734 5.51393 12.3342 5.55967L8.53721 9.37101C8.49057 9.41229 8.42966 9.43373 8.36744 9.43079Z" fill="#BCA584" stroke="#BCA584" stroke-width="0.5"/>
<path id="Vector_6" d="M18.3205 7.6593C18.289 7.65948 18.2578 7.65345 18.2287 7.64155C18.1996 7.62966 18.1731 7.61212 18.1507 7.58996L14.6383 4.0799C14.6132 4.05846 14.5929 4.03208 14.5786 4.00242C14.5642 3.97275 14.5561 3.94044 14.5549 3.90751C14.5536 3.87458 14.5591 3.84175 14.5712 3.81106C14.5832 3.78038 14.6014 3.75251 14.6247 3.72921C14.648 3.70591 14.6759 3.68768 14.7066 3.67566C14.7373 3.66363 14.7701 3.65809 14.803 3.65936C14.836 3.66063 14.8683 3.66869 14.8979 3.68305C14.9276 3.6974 14.954 3.71773 14.9754 3.74276L18.4879 7.25043C18.5214 7.28373 18.5444 7.32624 18.5538 7.37258C18.5632 7.41893 18.5587 7.46702 18.5408 7.51078C18.5229 7.55455 18.4924 7.59202 18.4532 7.61845C18.4139 7.64489 18.3678 7.6591 18.3205 7.6593Z" fill="#BCA584" stroke="#BCA584" stroke-width="0.5"/>
<path id="Vector_7" d="M16.751 9.00681C16.7195 9.00699 16.6883 9.00096 16.6592 8.98906C16.6301 8.97716 16.6036 8.95963 16.5812 8.93747L13.2074 5.55652C13.185 5.53429 13.1672 5.50785 13.1551 5.47871C13.143 5.44957 13.1367 5.41832 13.1367 5.38676C13.1367 5.35519 13.143 5.32394 13.1551 5.2948C13.1672 5.26566 13.185 5.23922 13.2074 5.21699C13.2522 5.17246 13.3128 5.14746 13.376 5.14746C13.4392 5.14746 13.4998 5.17246 13.5446 5.21699L16.9255 8.60033C16.9583 8.63375 16.9805 8.67605 16.9895 8.72199C16.9984 8.76793 16.9937 8.81549 16.9759 8.85877C16.9581 8.90205 16.9279 8.93914 16.8892 8.96546C16.8505 8.99177 16.805 9.00615 16.7582 9.00681H16.751Z" fill="#BCA584" stroke="#BCA584" stroke-width="0.5"/>
<path id="Vector_8" d="M6.31528 17.5004C6.28419 17.5008 6.25333 17.4951 6.22442 17.4837C6.19527 17.4721 6.16912 17.4542 6.1479 17.4311C6.12531 17.4089 6.10734 17.3825 6.09502 17.3534C6.08271 17.3242 6.0763 17.293 6.07617 17.2613C6.07707 17.1982 6.10285 17.1381 6.1479 17.0939C6.1927 17.0494 6.2533 17.0244 6.31647 17.0244C6.37964 17.0244 6.44024 17.0494 6.48504 17.0939C6.52922 17.1385 6.55412 17.1986 6.55438 17.2613C6.55438 17.3247 6.52919 17.3855 6.48435 17.4304C6.43951 17.4752 6.37869 17.5004 6.31528 17.5004Z" fill="#BCA584" stroke="#BCA584" stroke-width="0.5"/>
<path id="Vector_9" d="M18.8655 13.1005C18.8456 13.1028 18.8256 13.1028 18.8057 13.1005L17.1894 12.6701C17.1491 12.6589 17.1124 12.6373 17.083 12.6076C17.0536 12.5778 17.0326 12.5408 17.022 12.5003L16.319 9.87017C16.3063 9.82864 16.3052 9.78444 16.3157 9.74232C16.3263 9.70019 16.3481 9.66173 16.3788 9.63106L16.8809 9.12894C16.9272 9.08265 16.99 9.05664 17.0555 9.05664C17.1209 9.05664 17.1837 9.08265 17.23 9.12894C17.2763 9.17523 17.3023 9.23802 17.3023 9.30349C17.3023 9.36895 17.2763 9.43174 17.23 9.47803L16.8259 9.88212L17.4476 12.2397L18.9277 12.6366C18.9911 12.6449 19.0486 12.678 19.0876 12.7286C19.1266 12.7793 19.1439 12.8434 19.1357 12.9068C19.1274 12.9702 19.0943 13.0278 19.0437 13.0668C18.993 13.1058 18.9289 13.1231 18.8655 13.1148V13.1005Z" fill="#BCA584" stroke="#BCA584" stroke-width="0.5"/>
<path id="Vector_10" d="M22.1913 9.84905C22.1373 9.8509 22.0843 9.83442 22.0409 9.80229C21.9975 9.77016 21.9662 9.72428 21.9522 9.67211L21.5386 8.12271L19.1929 7.50582L18.8797 7.81665C18.8583 7.84168 18.8319 7.86201 18.8022 7.87637C18.7726 7.89072 18.7402 7.89878 18.7073 7.90005C18.6744 7.90133 18.6416 7.89578 18.6109 7.88376C18.5802 7.87174 18.5523 7.8535 18.529 7.8302C18.5057 7.8069 18.4875 7.77903 18.4755 7.74835C18.4634 7.71766 18.4579 7.68483 18.4592 7.6519C18.4604 7.61897 18.4685 7.58666 18.4829 7.55699C18.4972 7.52733 18.5175 7.50095 18.5426 7.47952L18.9514 7.06826C18.9821 7.03752 19.0206 7.01572 19.0627 7.00519C19.1048 6.99465 19.149 6.99579 19.1905 7.00848L21.8207 7.70667C21.8614 7.71748 21.8986 7.73888 21.9284 7.7687C21.9582 7.79851 21.9796 7.83568 21.9905 7.87643L22.4376 9.55017C22.4464 9.58209 22.4485 9.6155 22.4438 9.64828C22.4391 9.68106 22.4276 9.71249 22.41 9.74059C22.3925 9.76869 22.3693 9.79284 22.3419 9.81151C22.3146 9.83018 22.2836 9.84297 22.2511 9.84905C22.2313 9.85249 22.2111 9.85249 22.1913 9.84905Z" fill="#BCA584" stroke="#BCA584" stroke-width="0.5"/>
<path id="Vector_11" d="M6.31505 12.0803C5.84829 12.0803 5.39201 11.9419 5.00392 11.6826C4.61582 11.4232 4.31334 11.0547 4.13472 10.6234C3.9561 10.1922 3.90937 9.7177 4.00043 9.25991C4.09149 8.80213 4.31625 8.38162 4.6463 8.05157C4.97635 7.72152 5.39685 7.49676 5.85464 7.4057C6.31243 7.31464 6.78694 7.36137 7.21817 7.53999C7.6494 7.71861 8.01798 8.0211 8.27729 8.40919C8.53661 8.79729 8.67502 9.25356 8.67502 9.72032C8.67439 10.346 8.42554 10.9459 7.9831 11.3884C7.54066 11.8308 6.94076 12.0797 6.31505 12.0803ZM6.31505 7.84095C5.94277 7.84095 5.57886 7.95138 5.26935 8.15825C4.95985 8.36513 4.71866 8.65916 4.5763 9.00315C4.43395 9.34713 4.39682 9.72562 4.46962 10.0907C4.54243 10.4558 4.72188 10.7911 4.98529 11.0542C5.2487 11.3172 5.58422 11.4963 5.9494 11.5686C6.31459 11.6409 6.69302 11.6033 7.03683 11.4605C7.38063 11.3178 7.67435 11.0762 7.88084 10.7664C8.08732 10.4567 8.19728 10.0926 8.19681 9.72032C8.19617 9.22166 7.99764 8.74364 7.64481 8.39126C7.29198 8.03888 6.81371 7.84095 6.31505 7.84095Z" fill="#BCA584" stroke="#BCA584" stroke-width="0.5"/>
<path id="Vector_12" d="M6.31384 10.6667C6.12468 10.6667 5.93977 10.6107 5.78248 10.5056C5.6252 10.4005 5.50261 10.2511 5.43023 10.0763C5.35784 9.90157 5.3389 9.70927 5.3758 9.52374C5.4127 9.33821 5.50379 9.16779 5.63755 9.03404C5.77131 8.90028 5.94173 8.80919 6.12726 8.77228C6.31278 8.73538 6.50509 8.75432 6.67985 8.82671C6.85461 8.8991 7.00399 9.02169 7.10908 9.17897C7.21417 9.33625 7.27027 9.52116 7.27027 9.71033C7.27027 9.96399 7.1695 10.2073 6.99014 10.3866C6.81077 10.566 6.5675 10.6667 6.31384 10.6667ZM6.31384 9.25125C6.21926 9.25125 6.12681 9.27929 6.04816 9.33184C5.96952 9.38438 5.90823 9.45907 5.87203 9.54645C5.83584 9.63383 5.82637 9.72999 5.84482 9.82275C5.86327 9.91551 5.90882 10.0007 5.9757 10.0676C6.04258 10.1345 6.12779 10.18 6.22055 10.1985C6.31331 10.2169 6.40947 10.2075 6.49685 10.1713C6.58423 10.1351 6.65891 10.0738 6.71146 9.99514C6.76401 9.91649 6.79205 9.82404 6.79205 9.72946C6.79205 9.60263 6.74167 9.48099 6.65199 9.39131C6.56231 9.30163 6.44067 9.25125 6.31384 9.25125Z" fill="#BCA584" stroke="#BCA584" stroke-width="0.5"/>
<path id="Vector_13" d="M12.7647 5.71994C12.2977 5.72041 11.8411 5.58234 11.4527 5.32321C11.0642 5.06407 10.7614 4.69552 10.5824 4.2642C10.4035 3.83287 10.3566 3.35816 10.4476 2.90015C10.5386 2.44214 10.7634 2.02141 11.0936 1.69122C11.4238 1.36103 11.8445 1.13621 12.3025 1.04523C12.7605 0.954247 13.2352 1.00118 13.6665 1.1801C14.0979 1.35902 14.4664 1.66187 14.7256 2.05033C14.9847 2.43879 15.1228 2.8954 15.1223 3.36236C15.121 3.98724 14.8722 4.58617 14.4304 5.02802C13.9885 5.46988 13.3896 5.71868 12.7647 5.71994ZM12.7647 1.4806C12.3924 1.48013 12.0284 1.59009 11.7186 1.79657C11.4088 2.00305 11.1673 2.29678 11.0245 2.64058C10.8817 2.98439 10.8441 3.36282 10.9164 3.72801C10.9888 4.09319 11.1678 4.42871 11.4309 4.69212C11.6939 4.95553 12.0292 5.13498 12.3943 5.20779C12.7594 5.28059 13.1379 5.24346 13.4819 5.10111C13.8259 4.95875 14.1199 4.71756 14.3268 4.40806C14.5336 4.09855 14.6441 3.73464 14.6441 3.36236C14.6434 2.86389 14.4453 2.38599 14.0931 2.0333C13.7408 1.6806 13.2632 1.48187 12.7647 1.4806Z" fill="#BCA584" stroke="#BCA584" stroke-width="0.5"/>
<path id="Vector_14" d="M12.765 4.30737C12.5759 4.30737 12.3909 4.25128 12.2337 4.14619C12.0764 4.0411 11.9538 3.89172 11.8814 3.71696C11.809 3.5422 11.7901 3.34989 11.827 3.16436C11.8639 2.97884 11.955 2.80842 12.0887 2.67466C12.2225 2.5409 12.3929 2.44981 12.5784 2.41291C12.764 2.37601 12.9563 2.39495 13.131 2.46734C13.3058 2.53972 13.4552 2.66231 13.5603 2.81959C13.6653 2.97688 13.7214 3.16179 13.7214 3.35095C13.7214 3.60461 13.6207 3.84788 13.4413 4.02725C13.2619 4.20661 13.0187 4.30737 12.765 4.30737ZM12.765 2.89426C12.6704 2.89426 12.578 2.92231 12.4993 2.97485C12.4207 3.0274 12.3594 3.10209 12.3232 3.18947C12.287 3.27685 12.2775 3.373 12.296 3.46577C12.3144 3.55853 12.36 3.64374 12.4269 3.71062C12.4937 3.7775 12.579 3.82304 12.6717 3.84149C12.7645 3.85995 12.8606 3.85048 12.948 3.81428C13.0354 3.77809 13.1101 3.71679 13.1626 3.63815C13.2152 3.55951 13.2432 3.46705 13.2432 3.37247C13.2432 3.24564 13.1928 3.12401 13.1032 3.03433C13.0135 2.94464 12.8918 2.89426 12.765 2.89426Z" fill="#BCA584" stroke="#BCA584" stroke-width="0.5"/>
<path id="Vector_15" d="M17.9481 9.95483C17.6671 9.9553 17.3922 9.87241 17.1583 9.71663C16.9245 9.56085 16.7421 9.3392 16.6342 9.07972C16.5263 8.82024 16.4979 8.53459 16.5524 8.25893C16.6069 7.98326 16.742 7.72997 16.9405 7.5311C17.1391 7.33223 17.3921 7.19672 17.6677 7.14172C17.9433 7.08673 18.229 7.11471 18.4886 7.22214C18.7483 7.32957 18.9703 7.51161 19.1264 7.74523C19.2826 7.97884 19.366 8.25353 19.366 8.53454C19.366 8.91081 19.2167 9.2717 18.9508 9.53799C18.685 9.80428 18.3243 9.95419 17.9481 9.95483ZM17.9481 7.59486C17.7615 7.59439 17.5791 7.6493 17.4238 7.75263C17.2685 7.85596 17.1474 8.00307 17.0758 8.17531C17.0042 8.34755 16.9853 8.53717 17.0216 8.72013C17.0579 8.9031 17.1476 9.07118 17.2795 9.20308C17.4114 9.33497 17.5795 9.42475 17.7625 9.46102C17.9454 9.49729 18.1351 9.47844 18.3073 9.40684C18.4795 9.33524 18.6266 9.21412 18.73 9.05883C18.8333 8.90354 18.8882 8.72107 18.8878 8.53454C18.8878 8.28532 18.7888 8.04631 18.6125 7.87009C18.4363 7.69386 18.1973 7.59486 17.9481 7.59486Z" fill="#BCA584" stroke="#BCA584" stroke-width="0.5"/>
<path id="Vector_16" d="M17.9481 8.77297C17.9171 8.77335 17.8862 8.76767 17.8573 8.75623C17.8279 8.74382 17.8011 8.72597 17.7784 8.70363C17.756 8.68181 17.7381 8.65581 17.7258 8.62712C17.714 8.59746 17.7083 8.56575 17.709 8.53387C17.7093 8.47114 17.7342 8.41103 17.7784 8.36649C17.8117 8.33291 17.8543 8.30999 17.9007 8.30062C17.9471 8.29126 17.9952 8.29588 18.039 8.31389C18.0681 8.32544 18.0943 8.34342 18.1155 8.36649C18.1606 8.41064 18.1864 8.4708 18.1873 8.53387C18.1872 8.56592 18.1807 8.59763 18.1681 8.62712C18.1566 8.65626 18.1386 8.68242 18.1155 8.70363C18.071 8.7478 18.0109 8.77271 17.9481 8.77297Z" fill="#BCA584" stroke="#BCA584" stroke-width="0.5"/>
<path id="Vector_17" d="M5.34848 5.82007C5.28507 5.82007 5.22425 5.79488 5.17941 5.75004C5.13457 5.7052 5.10938 5.64438 5.10938 5.58096C5.11001 4.7314 5.44778 3.91682 6.04851 3.31609C6.64924 2.71535 7.46382 2.37759 8.31339 2.37695C8.3768 2.37695 8.43762 2.40214 8.48246 2.44699C8.5273 2.49183 8.55249 2.55264 8.55249 2.61606C8.55249 2.67947 8.5273 2.74029 8.48246 2.78513C8.43762 2.82997 8.3768 2.85516 8.31339 2.85516C7.59065 2.8558 6.8977 3.14318 6.38665 3.65423C5.8756 4.16528 5.58822 4.85823 5.58759 5.58096C5.58759 5.61236 5.5814 5.64346 5.56938 5.67247C5.55737 5.70148 5.53976 5.72783 5.51755 5.75004C5.49535 5.77224 5.46899 5.78985 5.43998 5.80187C5.41097 5.81389 5.37988 5.82007 5.34848 5.82007Z" fill="#BCA584" stroke="#BCA584" stroke-width="0.5"/>
<path id="Vector_18" d="M4.19614 5.82075C4.13272 5.82075 4.0719 5.79556 4.02706 5.75072C3.98222 5.70588 3.95703 5.64506 3.95703 5.58165C3.9583 4.42725 4.41744 3.32051 5.23372 2.50423C6.05 1.68795 7.15675 1.2288 8.31114 1.22754C8.37455 1.22754 8.43537 1.25273 8.48021 1.29757C8.52505 1.34241 8.55025 1.40323 8.55025 1.46664C8.55025 1.53006 8.52505 1.59088 8.48021 1.63572C8.43537 1.68056 8.37455 1.70575 8.31114 1.70575C7.28358 1.70702 6.29846 2.11577 5.57186 2.84237C4.84527 3.56897 4.43651 4.55408 4.43524 5.58165C4.43524 5.64506 4.41005 5.70588 4.36521 5.75072C4.32037 5.79556 4.25955 5.82075 4.19614 5.82075Z" fill="#BCA584" stroke="#BCA584" stroke-width="0.5"/>
<path id="Vector_19" d="M6.49692 5.82036C6.4335 5.82036 6.37269 5.79517 6.32784 5.75033C6.283 5.70549 6.25781 5.64467 6.25781 5.58126C6.25845 5.03672 6.47504 4.51467 6.86009 4.12962C7.24514 3.74457 7.76719 3.52798 8.31173 3.52734C8.37514 3.52734 8.43596 3.55253 8.4808 3.59738C8.52564 3.64222 8.55083 3.70303 8.55083 3.76645C8.55083 3.82986 8.52564 3.89068 8.4808 3.93552C8.43596 3.98036 8.37514 4.00555 8.31173 4.00555C7.89382 4.00555 7.49304 4.17157 7.19754 4.46707C6.90203 4.76257 6.73602 5.16336 6.73602 5.58126C6.73602 5.64467 6.71083 5.70549 6.66599 5.75033C6.62115 5.79517 6.56033 5.82036 6.49692 5.82036Z" fill="#BCA584" stroke="#BCA584" stroke-width="0.5"/>
</g>
</svg>
