<svg width="25" height="23" viewBox="0 0 25 23" fill="none" xmlns="http://www.w3.org/2000/svg">
<path id="Vector" d="M24.0569 22.1019C21.3099 22.1019 20.4935 19.8889 20.2772 19.0048L21.061 18.73C21.1159 18.7107 21.1666 18.6806 21.21 18.6414C21.2535 18.6023 21.2889 18.5549 21.3143 18.5018C21.3397 18.4488 21.3545 18.3912 21.3579 18.3324C21.3613 18.2735 21.3533 18.2146 21.3343 18.1589L18.9004 11.042H21.8039C21.9213 11.042 22.0338 10.9947 22.1168 10.9105C22.1998 10.8264 22.2464 10.7122 22.2464 10.5932V9.83422H23.2167V10.5825C23.2167 10.7016 23.2633 10.8157 23.3463 10.8999C23.4293 10.984 23.5418 11.0313 23.6592 11.0313C23.7766 11.0313 23.8891 10.984 23.9721 10.8999C24.0551 10.8157 24.1017 10.7016 24.1017 10.5825V8.19004C24.1017 8.07102 24.0551 7.95688 23.9721 7.87272C23.8891 7.78856 23.7766 7.74127 23.6592 7.74127C23.5418 7.74127 23.4293 7.78856 23.3463 7.87272C23.2633 7.95688 23.2167 8.07102 23.2167 8.19004V8.93893H22.2475V6.99239C22.2475 6.87337 22.2009 6.75922 22.1179 6.67506C22.0349 6.5909 21.9224 6.54362 21.805 6.54362H14.5719V5.21078C15.1419 4.98165 15.6311 4.58443 15.9763 4.07043C16.3214 3.55643 16.5066 2.94928 16.5079 2.32743V0.897539H16.9682C17.0855 0.897539 17.1981 0.850258 17.2811 0.766097C17.3641 0.681937 17.4107 0.567791 17.4107 0.44877C17.4107 0.329748 17.3641 0.215602 17.2811 0.131442C17.1981 0.047281 17.0855 0 16.9682 0H9.92974C9.81237 0 9.69981 0.047281 9.61682 0.131442C9.53383 0.215602 9.48721 0.329748 9.48721 0.44877C9.48721 0.567791 9.53383 0.681937 9.61682 0.766097C9.69981 0.850258 9.81237 0.897539 9.92974 0.897539H10.3905V2.32743C10.3918 2.94929 10.577 3.55648 10.9221 4.07049C11.2672 4.58451 11.7565 4.98172 12.3266 5.21078V6.54362H7.64352C7.52616 6.54362 7.4136 6.5909 7.33061 6.67506C7.24762 6.75922 7.20099 6.87337 7.20099 6.99239V7.19658L5.2417 8.34375H4.5165C4.39914 8.34375 4.28658 8.39103 4.20359 8.47519C4.1206 8.55935 4.07397 8.6735 4.07397 8.79252C4.07397 8.91154 4.1206 9.02568 4.20359 9.10985C4.28658 9.19401 4.39914 9.24129 4.5165 9.24129H5.2417L7.20099 10.3885V10.5921C7.20099 10.7111 7.24762 10.8253 7.33061 10.9094C7.4136 10.9936 7.52616 11.0409 7.64352 11.0409H10.7462V15.1836L9.72286 16.2213C9.68178 16.263 9.6492 16.3125 9.62698 16.367C9.60476 16.4214 9.59334 16.4798 9.59337 16.5388C9.59339 16.5977 9.60486 16.6561 9.62713 16.7105C9.64939 16.7649 9.68202 16.8144 9.72313 16.8561C9.76425 16.8977 9.81305 16.9308 9.86676 16.9533C9.92046 16.9758 9.97802 16.9874 10.0361 16.9874C10.0943 16.9874 10.1518 16.9757 10.2055 16.9531C10.2592 16.9306 10.308 16.8975 10.349 16.8558L11.504 15.6873C11.5145 15.6766 11.5245 15.6654 11.5339 15.6542L11.545 15.6391L11.5593 15.6189C11.5638 15.6127 11.5671 15.606 11.571 15.5998L11.582 15.5813L11.5914 15.5611C11.5942 15.5544 11.5975 15.5482 11.6003 15.5414C11.6031 15.5347 11.6053 15.528 11.6075 15.5213C11.6104 15.5143 11.6128 15.5072 11.6147 15.4999C11.6147 15.4932 11.6185 15.4865 11.6202 15.4792C11.6219 15.4719 11.6241 15.4646 11.6252 15.4573C11.6263 15.45 11.6279 15.441 11.629 15.4332C11.6302 15.4253 11.629 15.4203 11.629 15.4141C11.6299 15.3994 11.6299 15.3846 11.629 15.3698V11.0409H14.1636C14.5449 11.041 14.9166 11.1615 15.2272 11.3856C15.5377 11.6098 15.7718 11.9265 15.8967 12.2918L18.2692 19.2337C18.2882 19.2894 18.3179 19.3407 18.3565 19.3848C18.3951 19.4289 18.4419 19.4648 18.4941 19.4906C18.5464 19.5163 18.6032 19.5313 18.6612 19.5348C18.7193 19.5383 18.7774 19.5301 18.8323 19.5108L19.4408 19.2977C19.5869 19.8519 19.813 20.3812 20.1118 20.8683C20.7153 21.8399 21.8902 23 24.0575 23C24.1748 23 24.2874 22.9527 24.3704 22.8686C24.4534 22.7844 24.5 22.6703 24.5 22.5512C24.5 22.4322 24.4534 22.3181 24.3704 22.2339C24.2874 22.1497 24.1748 22.1025 24.0575 22.1025L24.0569 22.1019ZM13.2116 5.42001H13.2277C13.2526 5.42001 13.2775 5.42338 13.3024 5.4245C13.3145 5.4245 13.3261 5.4245 13.3383 5.4245C13.3748 5.4245 13.4119 5.4245 13.4489 5.4245C13.486 5.4245 13.5236 5.4245 13.5596 5.4245H13.5933C13.6188 5.4245 13.6448 5.4245 13.6702 5.42001H13.6857V6.54194H13.2105L13.2116 5.42001ZM11.2756 2.32743V0.897539H15.6229V2.32743C15.623 2.64431 15.5557 2.95748 15.4255 3.24556C15.2953 3.53364 15.1054 3.78984 14.8687 3.99668C14.632 4.20351 14.354 4.35611 14.0538 4.44404C13.7536 4.53198 13.4382 4.55318 13.1292 4.50621C13.0468 4.49427 12.9651 4.47722 12.8847 4.45516C12.4236 4.32847 12.0163 4.05158 11.7255 3.66712C11.4348 3.28266 11.2767 2.81194 11.2756 2.32743ZM6.24513 8.79252L7.20099 8.23156V9.35348L6.24513 8.79252ZM18.1569 16.1585L17.3675 13.8457C17.4416 13.8788 17.5113 13.9212 17.575 13.9719C17.825 14.166 18.0413 14.4902 18.168 14.861C18.3444 15.381 18.3079 15.8719 18.1569 16.1585ZM18.4811 17.1054C19.1327 16.6684 19.3661 15.6267 19.0032 14.5671C18.8185 14.0269 18.5021 13.5624 18.1126 13.2595C17.7747 12.9969 17.3991 12.8741 17.0445 12.9021L16.7353 11.9984C16.55 11.4569 16.2031 10.9873 15.7427 10.6548C15.2822 10.3224 14.7311 10.1436 14.1658 10.1433H8.08605V10.1383C8.08605 10.1383 8.08605 10.1327 8.08605 10.1293V7.45518C8.08605 7.45238 8.08605 7.44957 8.08605 7.44621V7.44116H21.3619V10.1433H18.2797C18.2091 10.1433 18.1396 10.1604 18.0769 10.1932C18.0141 10.226 17.9601 10.2735 17.9191 10.3318C17.8782 10.3901 17.8516 10.4575 17.8416 10.5284C17.8316 10.5992 17.8384 10.6714 17.8615 10.7391L20.3507 18.0276L19.6239 18.2829H19.6206L18.9606 18.5145L18.4811 17.1054ZM2.48751 9.24129H0.942529C0.825163 9.24129 0.712604 9.19401 0.629614 9.10985C0.546624 9.02568 0.5 8.91154 0.5 8.79252C0.5 8.6735 0.546624 8.55935 0.629614 8.47519C0.712604 8.39103 0.825163 8.34375 0.942529 8.34375H2.48751C2.60487 8.34375 2.71743 8.39103 2.80042 8.47519C2.88341 8.55935 2.93004 8.6735 2.93004 8.79252C2.93004 8.91154 2.88341 9.02568 2.80042 9.10985C2.71743 9.19401 2.60487 9.24129 2.48751 9.24129ZM3.25585 7.5584C3.2268 7.60946 3.18812 7.65422 3.14201 7.69011C3.0959 7.72601 3.04327 7.75234 2.98712 7.7676C2.93098 7.78286 2.87242 7.78676 2.81478 7.77907C2.75715 7.77137 2.70158 7.75224 2.65124 7.72276L1.31481 6.93742C1.26287 6.90882 1.21712 6.86996 1.18023 6.82314C1.14335 6.77632 1.11609 6.72248 1.10005 6.6648C1.08402 6.60712 1.07954 6.54677 1.08688 6.4873C1.09422 6.42784 1.11323 6.37047 1.14278 6.31858C1.17234 6.26668 1.21185 6.22132 1.25897 6.18516C1.3061 6.149 1.35989 6.12278 1.41717 6.10805C1.47445 6.09331 1.53406 6.09036 1.59248 6.09937C1.65091 6.10837 1.70696 6.12915 1.75734 6.16048L3.09377 6.94583C3.14406 6.97543 3.1881 7.01479 3.22338 7.06165C3.25865 7.10852 3.28448 7.16198 3.29938 7.21897C3.31428 7.27596 3.31795 7.33537 3.3102 7.39381C3.30244 7.45224 3.28341 7.50855 3.25419 7.55952L3.25585 7.5584ZM3.25585 10.0266C3.31438 10.1297 3.33019 10.2521 3.2998 10.3669C3.26941 10.4818 3.19531 10.5797 3.09377 10.6392L1.75734 11.4246C1.70699 11.454 1.65142 11.4731 1.59379 11.4808C1.53617 11.4885 1.47761 11.4846 1.42147 11.4694C1.30808 11.4385 1.21141 11.3633 1.15273 11.2602C1.09405 11.1571 1.07816 11.0346 1.10855 10.9196C1.13895 10.8046 1.21314 10.7066 1.31481 10.6471L2.65124 9.86171C2.75269 9.80266 2.87306 9.78675 2.98605 9.81744C3.09903 9.84813 3.19544 9.92294 3.25419 10.0255L3.25585 10.0266Z" fill="#BCA584"/>
</svg>
