<svg width="40" height="40" viewBox="0 0 40 40" fill="none" xmlns="http://www.w3.org/2000/svg">
<g id="&#209;&#128;&#208;&#176;&#208;&#186;&#208;&#181;&#209;&#130;&#208;&#176;">
<g id="Group">
<g id="Group_2">
<path id="Vector" d="M17.08 8.68387C13.6842 8.04451 10.1983 9.12169 7.75494 11.5651L2.59104 16.729C2.38448 16.9356 2.30982 17.2399 2.39742 17.5186C2.48501 17.7973 2.72027 18.0042 3.00784 18.0556C11.5883 19.5812 11.0947 19.5087 11.2265 19.5087C11.5993 19.5087 11.93 19.2418 11.9976 18.862C12.0737 18.4356 11.7897 18.0284 11.3633 17.9523L4.76273 16.7753L8.86396 12.6741C10.9406 10.5974 13.9036 9.68192 16.7898 10.2251C17.2154 10.3057 17.6254 10.0252 17.7055 9.5995C17.7857 9.17391 17.5056 8.76401 17.08 8.68387Z" fill="#5B5B5B"/>
<path id="Vector_2" d="M31.3171 22.9197C31.237 22.494 30.8274 22.2136 30.4014 22.294C29.9757 22.3741 29.6957 22.7841 29.7758 23.2097C30.319 26.096 29.4035 29.0589 27.3268 31.1356L23.2256 35.2368L22.0486 28.6363C21.9725 28.2099 21.5658 27.9261 21.1388 28.0019C20.7125 28.078 20.4284 28.4852 20.5045 28.9117L21.9453 36.9917C21.9966 37.2793 22.2036 37.5145 22.4823 37.6021C22.7632 37.6904 23.0671 37.6134 23.2719 37.4085L28.4358 32.2446C30.8792 29.8014 31.9562 26.3153 31.3171 22.9197Z" fill="#5B5B5B"/>
<path id="Vector_3" d="M25.4169 19.663C26.7736 19.663 28.049 19.1347 29.0084 18.1753C29.9676 17.216 30.496 15.9406 30.496 14.5839C30.496 13.2273 29.9677 11.9519 29.0084 10.9925C28.049 10.0333 26.7736 9.50488 25.4169 9.50488C24.0603 9.50488 22.7849 10.0332 21.8255 10.9925C20.8663 11.9518 20.3379 13.2273 20.3379 14.5839C20.3379 15.9406 20.8662 17.216 21.8255 18.1753C22.7848 19.1347 24.0603 19.663 25.4169 19.663ZM22.9345 12.1016C23.5976 11.4386 24.4792 11.0734 25.4169 11.0734C26.3545 11.0734 27.2361 11.4386 27.8992 12.1016C28.5622 12.7647 28.9274 13.6463 28.9274 14.5839C28.9274 15.5216 28.5622 16.4032 27.8992 17.0663C27.2361 17.7293 26.3545 18.0945 25.4169 18.0945C24.4792 18.0945 23.5976 17.7293 22.9345 17.0663C22.2715 16.4032 21.9063 15.5216 21.9063 14.5839C21.9063 13.6463 22.2715 12.7647 22.9345 12.1016Z" fill="#5B5B5B"/>
</g>
<g id="Group_3">
<path id="Vector_4" d="M39.3363 1.22923C39.2652 0.951619 39.0484 0.734787 38.7708 0.663738C34.3758 -0.460418 29.8313 -0.152304 25.6285 1.5553C21.4256 3.26274 17.9539 6.21135 15.5882 10.0822C14.911 11.1903 9.32958 20.3236 8.68128 21.3844L4.18717 23.3105C3.94799 23.413 3.77523 23.6275 3.72606 23.8831C3.67681 24.1386 3.75758 24.4018 3.94156 24.5859L5.31486 25.9592C4.68506 26.272 4.10601 26.6867 3.60412 27.1885C2.56865 28.2239 1.64761 30.5664 0.866619 34.151C0.301444 36.745 0.0178761 39.024 0.00603461 39.1197C-0.0564664 39.6266 0.37563 40.0567 0.880186 39.9939C0.975937 39.9821 3.25483 39.6985 5.84882 39.1333C9.43341 38.3523 11.7759 37.4313 12.8114 36.3958C13.3133 35.8939 13.7279 35.3149 14.0407 34.6851L15.414 36.0584C15.8058 36.45 16.4709 36.3225 16.6893 35.8128L18.6154 31.3186C19.6787 30.6688 28.8006 25.0943 29.9177 24.4117C33.7885 22.0461 36.7371 18.5742 38.4445 14.3715C40.1522 10.1687 40.4605 5.62414 39.3363 1.22923ZM37.9274 2.07264C38.6307 5.11542 38.5894 8.1844 37.8914 11.0667C35.8295 10.3539 33.9372 9.17242 32.3824 7.61758C30.8276 6.0629 29.6461 4.17062 28.9333 2.10879C31.8156 1.41077 34.8846 1.36936 37.9274 2.07264ZM11.4177 19.9145L20.0854 28.5823L18.1112 29.7888L10.2112 21.8888L11.4177 19.9145ZM11.7024 35.2868C10.2175 36.7718 4.68185 37.8561 1.70156 38.2984C2.14401 35.3182 3.22825 29.7825 4.71321 28.2976C5.22287 27.788 5.83666 27.3972 6.50716 27.1514L12.8486 33.4928C12.6028 34.1633 12.212 34.7771 11.7024 35.2868ZM15.7041 34.1303L5.86968 24.2958L9.041 22.9366L17.0633 30.9589L15.7041 34.1303ZM29.0998 23.0734L21.4622 27.7409L12.2591 18.5377L16.9266 10.9001C19.4104 6.83565 23.1581 3.94782 27.4236 2.53955C28.2107 4.85695 29.5303 6.98363 31.2733 8.72668C33.0164 10.4698 35.143 11.7894 37.4605 12.5765C36.0522 16.8418 33.1643 20.5896 29.0998 23.0734Z" fill="#5B5B5B"/>
</g>
</g>
</g>
</svg>
