<svg width="18" height="18" viewBox="0 0 18 18" fill="none" xmlns="http://www.w3.org/2000/svg">
<g id="key_regular_icon_203514 1" clip-path="url(#clip0_5434_1063)">
<g id="Layer_1">
<path id="Vector" d="M9.67547 4.22516C11.2079 2.69268 13.6927 2.69268 15.2252 4.22516C16.7576 5.75764 16.7576 8.24236 15.2252 9.77484C14.0968 10.9032 12.4511 11.2002 11.051 10.6666L10.7869 10.9307L11.0066 12.1731L9.25216 11.9297L8.42392 12.8069L8.47291 13.9765L7.59568 13.8786L7.93708 15.0482L6.2316 14.9992L5.96368 15.8519L4.0477 15.5924L3.15363 14.781L9.02482 8.90986C8.18892 7.41718 8.40631 5.49431 9.67547 4.22516Z" stroke="white" stroke-width="0.551693" stroke-miterlimit="10" stroke-linecap="round" stroke-linejoin="round"/>
<path id="Vector_2" d="M3.94792 15.4945L9.72266 9.71973" stroke="white" stroke-width="0.551693" stroke-miterlimit="10" stroke-linecap="round" stroke-linejoin="round"/>
<path id="Vector_3" d="M12.6014 6.84935C12.1706 6.41856 12.1706 5.72011 12.6014 5.28932C13.0321 4.85853 13.7306 4.85853 14.1614 5.28932C14.5922 5.72011 14.5922 6.41856 14.1614 6.84935C13.7306 7.28015 13.0321 7.28015 12.6014 6.84935Z" stroke="white" stroke-width="0.551693" stroke-miterlimit="10" stroke-linecap="round" stroke-linejoin="round"/>
</g>
</g>
<defs>
<clipPath id="clip0_5434_1063">
<rect width="18" height="18" fill="white"/>
</clipPath>
</defs>
</svg>
