<svg width="18" height="18" viewBox="0 0 18 18" fill="none" xmlns="http://www.w3.org/2000/svg">
<g id="construction_project_plan_building_architect_design_develop-79_icon-icons.com_60231 1">
<g id="Group">
<path id="Vector" d="M5.43555 10.5255H12.1022V10.9357L8.64068 11.3203V12.8972H8.19196V15.9742H9.60221V12.8972H9.1535V11.7819L12.615 11.3972V10.5255V10.269V7.76904H5.43555V10.5255ZM9.08939 15.4614H8.70478V13.4101H9.08939V15.4614ZM5.94837 8.28186H12.1022V10.0126H5.94837V8.28186Z" fill="white"/>
<path id="Vector_2" d="M3.02564 9.02564V17H15.0769V9.02564L16.1026 10.0513L17.1026 9.05128L15.0769 7.02564V2.38462H12.641V4.58974L9.05128 1L1 9.05128L2 10.0513L3.02564 9.02564ZM14.5641 8.53846V16.4872H3.53846V8.53846H3.51282L9.05128 3L14.5897 8.53846H14.5641ZM9.05128 1.71795L13.1538 5.82051V2.89744H14.5641V7.23077L16.3846 9.05128L16.1026 9.33333L9.05128 2.28205L2 9.33333L1.71795 9.05128L9.05128 1.71795Z" fill="white"/>
</g>
</g>
</svg>
