<svg width="18" height="18" viewBox="0 0 18 18" fill="none" xmlns="http://www.w3.org/2000/svg">
<g id="Frame">
<g id="Group 1321317146">
<g id="Group">
<g id="Group_2">
<path id="Vector" d="M13.7622 2.08702C12.33 2.08702 10.8978 2.08702 9.46552 2.08702C7.88217 2.08702 6.29553 2.08702 4.71219 2.08702C4.58407 2.08702 4.47238 2.04317 4.40011 1.93667C4.26543 1.7362 4.44282 1.47621 4.67934 1.47621C4.82059 1.47621 4.95856 1.47621 5.09981 1.47621C5.90134 1.47621 6.70287 1.47621 7.5044 1.47621C9.41296 1.47621 11.3248 1.47621 13.2334 1.47621C13.3976 1.47621 13.5651 1.47621 13.7294 1.47621C13.8378 1.47621 13.9265 1.5044 14.0053 1.57958C14.2057 1.77065 14.0152 2.07763 13.7622 2.08702C13.4469 2.09955 13.4436 2.56941 13.7622 2.55688C14.1761 2.54122 14.5211 2.26244 14.5703 1.86462C14.6163 1.48561 14.3634 1.16297 13.9988 1.03767C13.8411 0.984424 13.6308 1.00322 13.4633 1.00322C12.7111 1.00322 11.9588 1.00322 11.2098 1.00322C9.26185 1.00322 7.31387 1.00322 5.36589 1.00322C5.15565 1.00322 4.9487 1.00322 4.73847 1.00322C4.24244 1.00322 3.80882 1.36344 3.87124 1.86462C3.9238 2.31569 4.32456 2.55688 4.77131 2.55688C5.00126 2.55688 5.23121 2.55688 5.45787 2.55688C7.42227 2.55688 9.38996 2.55688 11.3544 2.55688C12.1559 2.55688 12.9574 2.55688 13.759 2.55688C14.0809 2.55688 14.0809 2.08702 13.7622 2.08702Z" fill="white"/>
</g>
</g>
<g id="Group_3">
<g id="Group_4">
<g id="Group_5">
<path id="Vector_2" d="M5.60798 6.09956C5.60798 4.99383 5.60798 3.89123 5.60798 2.7855C5.60798 2.48166 5.11523 2.48166 5.11523 2.7855C5.11523 3.89123 5.11523 4.99383 5.11523 6.09956C5.11523 6.4034 5.60798 6.4034 5.60798 6.09956Z" fill="white"/>
</g>
</g>
<g id="Group_6">
<g id="Group_7">
<path id="Vector_3" d="M7.23145 8.11693C7.22488 8.80605 6.82083 9.40747 6.18026 9.72071C5.55284 10.0277 4.74802 9.93058 4.19943 9.51397C3.63771 9.08484 3.38476 8.38005 3.54244 7.71285C3.70012 7.05192 4.25528 6.54447 4.93526 6.38472C6.10142 6.10594 7.21831 7.0018 7.23145 8.11693C7.23473 8.42077 7.72748 8.42077 7.72419 8.11693C7.71434 7.37769 7.34314 6.71362 6.72228 6.27822C6.10799 5.84908 5.26376 5.75824 4.55421 6.00257C3.84137 6.25003 3.30264 6.81699 3.08912 7.50611C2.86903 8.2203 3.06941 8.9846 3.54901 9.55783C4.1633 10.2877 5.25719 10.5477 6.17041 10.2313C7.10005 9.90865 7.71434 9.05351 7.72419 8.11693C7.72748 7.81309 7.23473 7.81309 7.23145 8.11693Z" fill="white"/>
</g>
</g>
<g id="Group_8">
<g id="Group_9">
<path id="Vector_4" d="M8.68806 13.6291C8.68806 12.0723 8.68806 10.5124 8.68806 8.95561C8.68806 7.84987 8.68806 6.74414 8.68806 5.63841C8.68806 4.6893 8.68806 3.73705 8.68806 2.78794C8.68806 2.4841 8.19531 2.4841 8.19531 2.78794C8.19531 4.138 8.19531 5.48492 8.19531 6.83498C8.19531 8.29467 8.19531 9.75436 8.19531 11.2141C8.19531 12.0191 8.19531 12.821 8.19531 13.626C8.19531 13.9298 8.68806 13.9298 8.68806 13.6291Z" fill="white"/>
</g>
</g>
<g id="Group_10">
<g id="Group_11">
<path id="Vector_5" d="M9.83734 15.1952C9.82748 15.8718 9.29203 16.4576 8.57591 16.5233C7.84665 16.5891 7.20937 16.1067 7.06155 15.4333C6.91373 14.7629 7.39004 14.0989 8.06018 13.9109C8.74345 13.7198 9.49242 14.0863 9.74536 14.7159C9.80777 14.8694 9.83734 15.0292 9.83734 15.1952C9.84062 15.499 10.3334 15.499 10.3301 15.1952C10.3202 14.4372 9.84062 13.7982 9.11465 13.5131C8.39853 13.2312 7.53787 13.4567 7.0287 13.9955C6.49654 14.5562 6.41441 15.38 6.77247 16.0472C7.12396 16.6987 7.91235 17.0746 8.66789 16.9869C9.61396 16.8742 10.3202 16.1036 10.3334 15.1983C10.3366 14.8914 9.84391 14.8914 9.83734 15.1952Z" fill="white"/>
</g>
</g>
<g id="Group_12">
<g id="Group_13">
<path id="Vector_6" d="M10.9849 4.9994C10.9849 4.26329 10.9849 3.52405 10.9849 2.78794C10.9849 2.4841 10.4922 2.4841 10.4922 2.78794C10.4922 3.52405 10.4922 4.26329 10.4922 4.9994C10.4922 5.30324 10.9849 5.30324 10.9849 4.9994Z" fill="white"/>
</g>
</g>
<g id="Group_14">
<g id="Group_15">
<path id="Vector_7" d="M11.8493 6.29991C11.8395 6.88566 11.35 7.35239 10.7357 7.36178C10.1214 7.37118 9.63199 6.87313 9.62214 6.29991C9.61228 5.71415 10.1346 5.24743 10.7357 5.23803C11.35 5.2255 11.8395 5.72668 11.8493 6.29991C11.8559 6.60375 12.3486 6.60375 12.3421 6.29991C12.3289 5.5544 11.7639 4.89973 10.9821 4.78696C10.1871 4.6742 9.44146 5.13466 9.19509 5.85824C8.95529 6.57242 9.35277 7.37118 10.0525 7.68442C10.785 8.01332 11.6391 7.75647 12.0859 7.12999C12.26 6.88879 12.3388 6.58809 12.3421 6.29991C12.3486 5.99607 11.8559 5.99607 11.8493 6.29991Z" fill="white"/>
</g>
</g>
<g id="Group_16">
<g id="Group_17">
<path id="Vector_8" d="M12.8379 2.78794C12.8379 4.16932 12.8379 5.5507 12.8379 6.93208C12.8379 7.18894 12.8379 7.4458 12.8379 7.69952C12.8379 8.00336 13.3306 8.00336 13.3306 7.69952C13.3306 6.2085 13.3306 4.72062 13.3306 3.22961C13.3306 3.08238 13.3306 2.93516 13.3306 2.78794C13.3306 2.4841 12.8379 2.4841 12.8379 2.78794Z" fill="white"/>
</g>
</g>
<g id="Group_18">
<g id="Group_19">
<path id="Vector_9" d="M14.9502 9.71656C14.9436 10.4057 14.5396 11.0102 13.899 11.3203C13.2716 11.6273 12.4668 11.5302 11.9182 11.1136C11.3565 10.6845 11.1035 9.97968 11.2612 9.30935C11.4189 8.64842 11.974 8.14097 12.654 7.97808C13.8202 7.70557 14.9371 8.60143 14.9502 9.71656C14.9535 10.0204 15.4462 10.0204 15.4429 9.71656C15.4331 8.97732 15.0652 8.31325 14.441 7.87472C13.8267 7.44245 12.9825 7.35474 12.273 7.59907C11.5601 7.84652 11.0214 8.41349 10.8079 9.10261C10.5878 9.8168 10.7882 10.5842 11.2678 11.1575C11.882 11.8873 12.9759 12.1473 13.8892 11.8309C14.8188 11.5083 15.4331 10.65 15.4429 9.71343C15.4462 9.41585 14.9535 9.41585 14.9502 9.71656Z" fill="white"/>
</g>
</g>
</g>
</g>
</g>
</svg>
