<svg width="13" height="16" viewBox="0 0 13 16" fill="none" xmlns="http://www.w3.org/2000/svg">
<g id="Frame 1618872592">
<g id="Group">
<path id="Vector" d="M12.8 6.07533V1.56545H12.0248V0.934446C12.0248 0.41918 11.5894 0 11.0542 0H0.970988C0.435594 0 0 0.419217 0 0.934446V1.14041V2.16562V2.63669C0 3.15196 0.435594 3.57114 0.970988 3.57114H2.45009C2.53476 3.95742 2.89159 4.24828 3.31781 4.24828C3.74403 4.24828 4.10085 3.95742 4.18553 3.57114H11.0542C11.5894 3.57114 12.0248 3.15192 12.0248 2.63669V2.00554H12.3427V5.70661L6.1232 6.77198V8.06458H5.05226V14.7493C5.05226 15.4389 5.63524 16 6.35183 16C7.06842 16 7.65141 15.4389 7.65141 14.7493V8.06462H6.58047V7.1407L12.8 6.07533ZM11.5676 1.72513L10.1067 3.13105H8.61409L10.3631 1.4478L10.0398 1.13663L7.96739 3.13109H6.47015L6.71567 2.8948L6.3923 2.58363L5.82345 3.13109H4.3447L7.14086 0.440084H8.61958L6.71621 2.27194L7.0395 2.58311L9.26628 0.440048H10.7635L10.392 0.797616L10.7153 1.10879L11.3294 0.517796C11.4723 0.605666 11.5675 0.759366 11.5675 0.934409V1.72513H11.5676ZM4.20469 1.22982L5.02505 0.440084H6.49424L4.20469 2.64351V1.22982ZM4.20469 0.607316V0.440048H4.37846L4.20469 0.607316ZM0.462078 2.70043C0.495687 2.70648 0.53025 2.71 0.565651 2.71C0.877551 2.71 1.13126 2.46579 1.13126 2.16562V2.08244C1.13126 1.99347 1.20649 1.92108 1.29893 1.92108C1.39138 1.92108 1.4666 1.99347 1.4666 2.08244V2.43194C1.4666 2.80913 1.78547 3.11602 2.1774 3.11602C2.20792 3.11602 2.23707 3.12148 2.26417 3.13105H0.970988C0.710226 3.13105 0.494735 2.94295 0.462078 2.70043ZM3.31781 3.80823C3.08094 3.80823 2.88823 3.62277 2.88823 3.39477V3.36004C2.88823 2.98282 2.56936 2.67597 2.17744 2.67597C2.03762 2.67597 1.92391 2.56654 1.92391 2.43198V2.08248C1.92391 1.75084 1.64357 1.48103 1.29897 1.48103C0.954374 1.48103 0.674025 1.75084 0.674025 2.08248V2.16566C0.674025 2.22316 0.625439 2.26995 0.565689 2.26995C0.505938 2.26995 0.457314 2.2232 0.457314 2.16566V1.14041V0.934446C0.457314 0.661813 0.687781 0.440084 0.971026 0.440084H3.74746V3.39477C3.74742 3.62277 3.55471 3.80823 3.31781 3.80823ZM11.0543 3.13105H10.7535L11.5676 2.34752V2.63666C11.5676 2.90929 11.3373 3.13105 11.0543 3.13105ZM6.35183 15.56C5.88739 15.56 5.50953 15.1963 5.50953 14.7493V9.17646H7.1941V14.7493C7.19414 15.1963 6.81627 15.56 6.35183 15.56ZM7.19414 8.73637H5.50957V8.5047H7.19414V8.73637Z" fill="white"/>
<path id="Vector_2" d="M6.58032 9.61523H6.12305V10.1709H6.58032V9.61523Z" fill="white"/>
<path id="Vector_3" d="M6.58032 10.5356H6.12305V14.7209H6.58032V10.5356Z" fill="white"/>
</g>
</g>
</svg>
