<svg width="54" height="40" viewBox="0 0 54 40" fill="none" xmlns="http://www.w3.org/2000/svg">
<path id="&#209;&#132;&#208;&#184;&#208;&#189;&#208;&#184;&#209;&#136;" d="M44.0348 3.7305H44.0243C40.6648 3.79841 37.4915 3.85412 35.4851 1.23633L35.6151 0.924668C35.6511 0.845097 35.6707 0.759178 35.6727 0.671985C35.6746 0.584791 35.659 0.49809 35.6266 0.416999C35.5942 0.335909 35.5457 0.262073 35.4841 0.19985C35.4225 0.137627 35.3489 0.0882784 35.2677 0.0547175C35.1865 0.0211565 35.0993 0.00406364 35.0114 0.00444751C34.9234 0.00483138 34.8364 0.0226842 34.7555 0.0569525C34.6746 0.0912207 34.6015 0.14121 34.5404 0.203968C34.4793 0.266727 34.4315 0.340983 34.3999 0.422353L34.1259 1.07702L31.9817 6.21335L27.0004 18.134L22.0192 6.20726L19.875 1.07092L19.601 0.422353C19.5698 0.34049 19.5224 0.265673 19.4615 0.202348C19.4006 0.139022 19.3275 0.0884792 19.2465 0.053722C19.1655 0.0189649 19.0783 0.000702268 18.99 1.98587e-05C18.9018 -0.000662551 18.8143 0.0162489 18.7328 0.0497493C18.6512 0.0832498 18.5773 0.132656 18.5154 0.195032C18.4535 0.257409 18.4049 0.331482 18.3725 0.412853C18.34 0.494224 18.3244 0.581231 18.3265 0.668705C18.3287 0.75618 18.3485 0.842337 18.3849 0.922057L18.5149 1.23372C16.5085 3.85151 13.3343 3.79405 9.9757 3.72789C6.3054 3.65302 2.50603 3.57815 0.11419 7.06564C0.0527048 7.15517 0.014653 7.25847 0.00346333 7.36622C-0.00772632 7.47397 0.00829786 7.58279 0.050092 7.68287L5.31846 20.3008C5.36407 20.4095 5.43837 20.504 5.53356 20.5743C5.62874 20.6446 5.74129 20.6882 5.85935 20.7004L5.92696 20.7065C6.03441 20.7064 6.14022 20.6804 6.23523 20.6306C6.33024 20.5809 6.41159 20.5089 6.47224 20.421C8.46192 17.5176 11.7406 17.5812 15.2177 17.6543C18.5386 17.7179 21.9577 17.7806 24.3496 15.2167L26.2813 19.8447L18.2418 39.0972C18.1749 39.2573 18.1749 39.4373 18.2417 39.5974C18.3086 39.7575 18.4368 39.8848 18.5983 39.9512C18.6783 39.9834 18.7639 40 18.8503 40C18.9805 40.0003 19.1079 39.9622 19.2162 39.8906C19.3245 39.819 19.409 39.7171 19.4588 39.5978L27.0004 21.5458L34.5421 39.5978C34.5919 39.7171 34.6763 39.819 34.7847 39.8906C34.893 39.9622 35.0204 40.0003 35.1506 40C35.237 39.9999 35.3225 39.9834 35.4026 39.9512C35.5641 39.8848 35.6923 39.7575 35.7592 39.5974C35.826 39.4373 35.826 39.2573 35.7591 39.0972L27.7134 19.836L29.6452 15.2072C32.0396 17.7745 35.4614 17.7118 38.777 17.6447C42.2532 17.5751 45.5328 17.5072 47.5225 20.4114C47.5826 20.502 47.6645 20.5763 47.7607 20.6278C47.8569 20.6794 47.9646 20.7064 48.0739 20.7065H48.1407C48.2587 20.6943 48.3713 20.6507 48.4664 20.5804C48.5616 20.5101 48.6359 20.4156 48.6815 20.3069L53.9499 7.68896C53.9917 7.58888 54.0077 7.48006 53.9965 7.37232C53.9853 7.26457 53.9473 7.16127 53.8858 7.07173C51.4984 3.57989 47.7034 3.65302 44.0348 3.7305ZM4.3684 14.6126L3.1558 11.7058C3.95751 10.6546 5.09612 9.90515 6.38443 9.5807L7.65586 12.6225C6.39526 12.9711 5.25712 13.6601 4.3684 14.6126ZM7.70503 9.3265C8.88803 9.20184 10.0785 9.16198 11.2673 9.20723L12.4966 12.1567C11.3154 12.122 10.1334 12.1837 8.96242 12.3413L7.70503 9.3265ZM12.703 9.23248C13.8841 9.26803 15.0663 9.2063 16.2372 9.04792L17.4972 12.0644C16.3132 12.1872 15.1217 12.2241 13.9322 12.175L12.703 9.23248ZM17.5437 8.76237C18.8037 8.41482 19.9416 7.72703 20.8303 6.77574L21.538 8.46986L22.0438 9.67907C21.2422 10.7307 20.1036 11.4808 18.8151 11.8059L17.5437 8.76237ZM19.0891 2.60747L20.2622 5.41592C19.4606 6.46737 18.322 7.21709 17.0336 7.54184L15.7964 4.58191C17.0569 4.23762 18.1961 3.55249 19.0865 2.60312L19.0891 2.60747ZM14.4924 4.87094L15.7156 7.79865C14.5329 7.92343 13.3426 7.963 12.1542 7.91705L10.9583 5.05463C12.1386 5.08917 13.3199 5.02657 14.4898 4.86746L14.4924 4.87094ZM9.52174 5.02938L10.7177 7.89267C9.5365 7.85683 8.35437 7.91827 7.18347 8.07636L5.95681 5.1443C7.13983 5.01996 8.33035 4.98039 9.51911 5.0259L9.52174 5.02938ZM4.6406 5.40286L5.87691 8.36278C4.61709 8.70934 3.47922 9.39624 2.59032 10.3468L1.40758 7.52007C2.20961 6.46932 3.34915 5.72123 4.63796 5.39937L4.6406 5.40286ZM6.1096 18.7765L4.93651 15.968C5.73796 14.9165 6.87613 14.1662 8.16426 13.8404L9.40057 16.8003C8.13981 17.1433 7.00027 17.8276 6.1096 18.7765ZM10.7071 16.513L9.47784 13.5809C10.6611 13.4562 11.852 13.4175 13.041 13.4652L14.2369 16.3285C13.0572 16.2939 11.8766 16.355 10.7071 16.513ZM15.6734 16.3537L14.4775 13.4904C15.6587 13.5255 16.8408 13.4638 18.0117 13.3059L19.2366 16.237C18.0534 16.3625 16.8624 16.4015 15.6734 16.3537ZM20.5555 15.982L19.3183 13.022C20.5803 12.6752 21.7201 11.9871 22.6101 11.0345L23.7902 13.8595C22.9875 14.9103 21.8479 15.6588 20.559 15.982H20.5555ZM48.0388 5.1443L46.8148 8.07288C45.6438 7.91523 44.4617 7.85379 43.2806 7.88919L44.4765 5.0259C45.667 4.97972 46.8593 5.01929 48.0441 5.1443H48.0388ZM49.6316 14.6126C48.7433 13.6609 47.6053 12.9734 46.345 12.6268L47.6164 9.57983C48.9048 9.90428 50.0434 10.6537 50.8451 11.7049L49.6316 14.6126ZM45.0385 12.3413C43.8676 12.1831 42.6855 12.121 41.5043 12.1558L42.7335 9.20636C43.9223 9.16198 45.1128 9.20184 46.2958 9.32562L45.0385 12.3413ZM32.4655 8.46551L33.1732 6.77139C34.0617 7.72321 35.1996 8.41135 36.4598 8.75889L35.1884 11.8059C33.8999 11.4808 32.7613 10.7307 31.9597 9.67907L32.4655 8.46551ZM37.7655 9.0453C38.9367 9.20307 40.1191 9.26422 41.3006 9.22812L40.0686 12.175C38.8796 12.2226 37.6887 12.1839 36.5055 12.0592L37.7655 9.0453ZM43.0453 5.05115L41.8493 7.91444C40.6606 7.96037 39.47 7.9208 38.287 7.79604L39.5111 4.86746C40.682 5.02512 41.8641 5.08656 43.0453 5.05115ZM38.2045 4.58104L36.97 7.54097C35.6815 7.21642 34.5428 6.46665 33.7413 5.41504L34.9144 2.6066C35.805 3.55473 36.9442 4.23839 38.2045 4.58104ZM30.2141 13.8595L31.3907 11.0345C32.2797 11.9854 33.4175 12.6729 34.6773 13.0203L33.4401 15.9802C32.1524 15.657 31.0139 14.9091 30.2115 13.8595H30.2141ZM34.7634 16.2379L35.9856 13.3067C37.1566 13.4646 38.3387 13.5264 39.5198 13.4913L38.3274 16.3537C37.1373 16.4015 35.9452 16.3628 34.7607 16.2379H34.7634ZM39.7613 16.3319L40.9581 13.466C42.1468 13.4198 43.3374 13.4591 44.5204 13.5836L43.2964 16.5139C42.3225 16.376 41.3394 16.3125 40.3558 16.3241C40.1556 16.3241 39.9571 16.3302 39.7587 16.3319H39.7613ZM47.8939 18.7765C47.0025 17.8282 45.8623 17.1448 44.6012 16.8029L45.8384 13.843C47.1266 14.1681 48.2651 14.9178 49.067 15.9689L47.8939 18.7765ZM51.4106 10.3468C50.5221 9.39511 49.3842 8.70725 48.124 8.36017L49.3603 5.40025C50.6489 5.7231 51.7882 6.47135 52.5907 7.52181L51.4106 10.3468Z" fill="#5B5B5B"/>
</svg>
