<svg width="199" height="40" viewBox="0 0 199 40" fill="none" xmlns="http://www.w3.org/2000/svg">
<path d="M46.207 26.4621V13.731H52.609C53.3486 13.731 54.0094 13.8946 54.5914 14.222C55.1734 14.5494 55.6341 14.998 55.9736 15.5679C56.3131 16.1377 56.4829 16.7864 56.4829 17.5139C56.4829 18.2899 56.301 18.981 55.9372 19.5873C55.5856 20.1935 55.1067 20.6724 54.5004 21.0241C53.9063 21.3757 53.2273 21.5515 52.4635 21.5515H47.6256V26.4621H46.207ZM47.6256 20.1693H52.4271C52.9121 20.1693 53.3486 20.0541 53.7366 19.8237C54.1246 19.5812 54.4216 19.2599 54.6277 18.8598C54.846 18.4597 54.9551 18.005 54.9551 17.4957C54.9551 17.035 54.846 16.6288 54.6277 16.2772C54.4216 15.9134 54.1246 15.6285 53.7366 15.4224C53.3486 15.2163 52.9121 15.1132 52.4271 15.1132H47.6256V20.1693Z" fill="white"/>
<path d="M110.359 26.4626V13.7314H116.761C117.501 13.7314 118.162 13.8951 118.744 14.2225C119.326 14.5499 119.786 14.9985 120.126 15.5684C120.465 16.1382 120.635 16.7869 120.635 17.5144C120.635 18.2904 120.453 18.9815 120.09 19.5878C119.738 20.194 119.259 20.6729 118.653 21.0245C118.059 21.3762 117.38 21.552 116.616 21.552H111.778V26.4626H110.359ZM111.778 20.1697H116.579C117.064 20.1697 117.501 20.0546 117.889 19.8242C118.277 19.5817 118.574 19.2604 118.78 18.8603C118.998 18.4601 119.107 18.0055 119.107 17.4962C119.107 17.0355 118.998 16.6293 118.78 16.2777C118.574 15.9139 118.277 15.629 117.889 15.4229C117.501 15.2167 117.064 15.1137 116.579 15.1137H111.778V20.1697Z" fill="white"/>
<path d="M128.387 26.4626V15.1137H123.949V13.7314H134.407V15.1137H129.806V26.4626H128.387Z" fill="white"/>
<path d="M138.652 26.4621V13.731H140.053L145.709 21.5151H145.127L150.838 13.731H152.184V26.4621H150.765V20.5694C150.753 19.5145 150.765 18.5506 150.801 17.6776C150.838 16.7925 150.911 15.9074 151.02 15.0223L151.238 15.5315L145.873 22.7155H144.891L139.598 15.5679L139.816 15.0404C139.913 15.8771 139.98 16.7319 140.016 17.6049C140.065 18.4778 140.089 19.466 140.089 20.5694L140.071 26.4621H138.652Z" fill="white"/>
<path d="M61.7773 26.4626V13.7314H71.1074V15.1137H63.196V25.0803H71.0711V26.4626H61.7773ZM62.5048 20.6062V19.224H70.0889V20.6062H62.5048Z" fill="white"/>
<path d="M158.006 26.4626V13.7314H167.336V15.1137H159.424V25.0803H167.3V26.4626H158.006ZM158.733 20.6062V19.224H166.317V20.6062H158.733Z" fill="white"/>
<path d="M182.789 26.4621V13.731H184.207V26.4621H182.789ZM172.658 26.4621V13.731H174.077V26.4621H172.658ZM173.349 20.8604V19.4781H183.389V20.8604H173.349Z" fill="white"/>
<path d="M192.959 26.4621V15.1132H188.521V13.731H198.979V15.1132H194.378V26.4621H192.959Z" fill="white"/>
<path d="M93.0391 26.4626L98.7681 13.7314H100.496L106.17 26.4626H104.588L100.569 17.5144C100.447 17.1992 100.332 16.9142 100.223 16.6596C100.126 16.405 100.029 16.1685 99.932 15.9503C99.835 15.732 99.738 15.5077 99.641 15.2774C99.5562 15.0349 99.4652 14.7681 99.3682 14.4771L99.7865 14.4589C99.6653 14.7984 99.5562 15.0955 99.4592 15.3501C99.3622 15.5926 99.2652 15.829 99.1682 16.0594C99.0833 16.2777 98.9863 16.508 98.8772 16.7505C98.7681 16.993 98.6468 17.278 98.5134 17.6053L94.5122 26.4626H93.0391ZM95.4216 23.0615L95.9854 21.6793H103.133L103.515 23.0615H95.4216Z" fill="white"/>
<path d="M86.5717 26.4049V13.6738H87.9903V26.4049H86.5717ZM76.4414 26.4049V13.6738H77.86V26.4049H76.4414ZM77.1507 15.0561V13.6738H87.1901V15.0561H77.1507Z" fill="white"/>
<path d="M18.9844 14.3969C18.9844 13.4701 18.2983 12.7158 17.4555 12.7158H11.418V16.0779H17.4555C18.3082 16.0779 18.9844 15.3344 18.9844 14.3969Z" fill="white"/>
<path d="M25.6397 33.6315C25.5025 33.6315 25.3555 33.5991 25.2281 33.556L25.1595 33.5237C24.6988 33.3513 24.2676 33.0603 23.9147 32.6832L20.0041 28.5668C25.9926 27.2306 30.5011 21.4116 30.5011 14.4289C30.5011 6.45474 24.6204 0 17.3774 0H0V28.8685H5.77286V22.5V17.8987V6.36853H17.5734C21.6213 6.36853 24.9046 9.98922 24.9046 14.4289C24.9046 18.8793 21.6115 22.4892 17.5734 22.4892H11.4281V28.8578L19.9257 37.8125L21.3565 39.0992C21.8074 39.444 23.0228 40 23.5717 40H31.2067V33.653L25.6397 33.6315Z" fill="white"/>
</svg>
