<svg width="62" height="60" viewBox="0 0 62 60" fill="none" xmlns="http://www.w3.org/2000/svg">
<path d="M0 21.3613C0.34799 17.0157 1.88495 13.2461 4.61088 10.0524C7.3948 6.85864 11.0777 4.39791 15.6596 2.67016C20.2415 0.890053 25.4613 0 31.3191 0C36.887 0 41.7589 0.785341 45.9348 2.35602C50.1686 3.9267 53.4455 6.12565 55.7655 8.95288C58.1434 11.7801 59.3324 15.0524 59.3324 18.7696C59.3324 21.6492 58.5494 24.3194 56.9835 26.7801C55.4755 29.2408 52.9526 31.7539 49.4147 34.3194C45.9348 36.8325 41.2079 39.6859 35.234 42.8796L13.5716 54.4241L12.0927 51.3613H61.3333V60H0.608983V52.4607L28.3612 37.2251C33.2331 34.555 37.061 32.2513 39.8449 30.3141C42.6868 28.3246 44.7168 26.466 45.9348 24.7382C47.1527 23.0105 47.7617 21.178 47.7617 19.2408C47.7617 17.199 47.1527 15.3665 45.9348 13.7435C44.7168 12.1204 42.8608 10.8377 40.3669 9.89529C37.931 8.95288 34.7991 8.48168 30.9712 8.48168C26.6213 8.48168 23.0544 9.05759 20.2704 10.2094C17.4865 11.3613 15.3986 12.9319 14.0066 14.9215C12.6727 16.8586 11.8607 19.0052 11.5707 21.3613H0Z" fill="#BCA584"/>
</svg>
