<svg width="56" height="60" viewBox="0 0 56 60" fill="none" xmlns="http://www.w3.org/2000/svg">
<path d="M29.5021 0C34.0724 0 38.1293 0.694088 41.6726 2.08226C45.216 3.47044 48.1174 5.37275 50.3769 7.7892C52.6364 10.1542 54.0486 12.8792 54.6135 15.964H44.5997C43.7781 13.856 42.2375 12.0823 39.978 10.6427C37.7185 9.15167 34.3035 8.40617 29.7331 8.40617C25.1114 8.40617 21.337 9.28021 18.4099 11.0283C15.4828 12.7249 13.326 15.1671 11.9395 18.3548C10.6043 21.491 9.93673 25.2699 9.93673 29.6915C9.93673 34.2674 10.707 38.2005 12.2476 41.491C13.7882 44.7815 16.0734 47.3008 19.1032 49.0488C22.133 50.7455 25.8817 51.5938 30.3494 51.5938C33.7387 51.5938 36.563 51.1311 38.8226 50.2057C41.1334 49.2288 42.8537 47.892 43.9835 46.1954C45.1646 44.4987 45.7552 42.5964 45.7552 40.4884C45.7552 38.4833 45.2416 36.7095 44.2146 35.1671C43.1875 33.5733 41.5956 32.3136 39.4388 31.3882C37.3333 30.4627 34.6116 30 31.2737 30C26.8061 30 22.6722 31.0797 18.8721 33.2391C15.072 35.3985 11.9138 38.2005 9.39752 41.6452L5.08391 38.4833C6.77854 35.347 8.96103 32.5193 11.6314 30C14.3531 27.4293 17.5112 25.3985 21.1059 23.9075C24.7519 22.365 28.8088 21.5938 33.2765 21.5938C37.8469 21.5938 41.8267 22.365 45.216 23.9075C48.6566 25.3985 51.3012 27.5321 53.1499 30.3085C55.05 33.0848 56 36.3753 56 40.1799C56 44.0874 54.9473 47.5321 52.8418 50.5141C50.7364 53.4961 47.7579 55.8355 43.9065 57.5321C40.1064 59.1774 35.5873 60 30.3494 60C23.7249 60 18.1531 58.7404 13.6341 56.2211C9.11508 53.6504 5.70014 50.1028 3.38927 45.5784C1.12976 41.054 0 35.8612 0 30C0 24.1388 1.12976 18.946 3.38927 14.4216C5.64879 9.89717 8.96103 6.37532 13.326 3.85604C17.7423 1.28535 23.1343 0 29.5021 0Z" fill="#BCA584"/>
</svg>
