<svg width="55" height="60" viewBox="0 0 55 60" fill="none" xmlns="http://www.w3.org/2000/svg">
<path d="M1.61313 18.8946C1.9716 15.347 3.25186 12.1594 5.45391 9.33162C7.70717 6.45244 10.831 4.19023 14.8254 2.54499C18.871 0.84833 23.6848 0 29.2668 0C34.2342 0 38.5358 0.668381 42.1718 2.00514C45.8589 3.29049 48.7011 5.11568 50.6983 7.48072C52.6955 9.79434 53.6941 12.545 53.6941 15.7327C53.6941 18.4062 52.9004 20.8226 51.3128 22.982C49.7765 25.09 47.4209 26.7609 44.2458 27.9949C41.0708 29.2288 37.102 29.8458 32.3394 29.8458V28.3805C37.0507 28.1748 41.0964 28.6118 44.4762 29.6915C47.8561 30.7198 50.4423 32.3136 52.2346 34.473C54.0782 36.581 55 39.1774 55 42.2622C55 45.7069 53.9502 48.7661 51.8506 51.4396C49.7509 54.1131 46.7039 56.2211 42.7095 57.7635C38.7663 59.2545 33.9269 60 28.1913 60C22.6094 60 17.7444 59.2031 13.5964 57.6093C9.44832 55.964 6.19646 53.6761 3.84078 50.7455C1.53631 47.8149 0.256052 44.3959 0 40.4884H10.2165C10.6774 44.0874 12.4185 46.8638 15.4399 48.8175C18.4614 50.7198 22.7118 51.671 28.1913 51.671C33.6709 51.671 37.7933 50.7712 40.5587 48.9717C43.324 47.1722 44.7067 44.7044 44.7067 41.5681C44.7067 39.7172 44.2202 38.1748 43.2472 36.9409C42.3254 35.6555 40.7635 34.6787 38.5615 34.0103C36.4106 33.3419 33.4916 33.0077 29.8045 33.0077H19.3575V25.4499H29.8045C34.567 25.4499 38.0237 24.6787 40.1746 23.1363C42.3254 21.5424 43.4008 19.5116 43.4008 17.0437C43.4008 14.3188 42.1974 12.1851 39.7905 10.6427C37.4348 9.10026 33.7477 8.32905 28.7291 8.32905C23.8129 8.32905 19.8953 9.2545 16.9763 11.1054C14.1085 12.9049 12.3929 15.5013 11.8296 18.8946H1.61313Z" fill="#BCA584"/>
</svg>
