<svg width="55" height="60" viewBox="0 0 55 60" fill="none" xmlns="http://www.w3.org/2000/svg">
<path d="M7.22857 0H50.2857V8.40314H10.6071L14.9286 5.65445L11.6286 30.4712L8.56429 30.5497C9.76905 28.7173 11.3929 26.9895 13.4357 25.3665C15.531 23.7435 18.0452 22.4346 20.9786 21.4398C23.9643 20.3927 27.3167 19.8691 31.0357 19.8691C36.169 19.8691 40.5167 20.7592 44.0786 22.5393C47.6405 24.267 50.3381 26.623 52.1714 29.6073C54.0571 32.5916 55 35.9686 55 39.7382C55 43.6649 53.9 47.1466 51.7 50.1832C49.5 53.2199 46.3833 55.6283 42.35 57.4084C38.369 59.1361 33.6286 60 28.1286 60C22.6286 60 17.8619 59.1885 13.8286 57.5654C9.79524 55.9424 6.6 53.7435 4.24286 50.9686C1.9381 48.1414 0.52381 45 0 41.5445H10.45C11.1833 44.6335 13.069 47.0681 16.1071 48.8482C19.1452 50.6283 23.1524 51.5183 28.1286 51.5183C31.481 51.5183 34.3619 51.0471 36.7714 50.1047C39.2333 49.1099 41.1452 47.7487 42.5071 46.0209C43.869 44.2408 44.55 42.1466 44.55 39.7382C44.55 37.3822 43.9738 35.3403 42.8214 33.6126C41.7214 31.8325 40.019 30.4712 37.7143 29.5288C35.4619 28.534 32.581 28.0367 29.0714 28.0367C26.1905 28.0367 23.5976 28.377 21.2929 29.0576C19.0405 29.7382 17.0762 30.6021 15.4 31.6492C13.7762 32.6963 12.4143 33.7958 11.3143 34.9476H2.67143L7.22857 0Z" fill="#BCA584"/>
</svg>
