<svg width="0" height="0" class="hidden">
  <symbol fill="none" xmlns="http://www.w3.org/2000/svg" viewBox="0 0 9 16" id="ic_arr_hor">
    <path d="M7.43643 15.0313C7.61026 15.0313 7.78409 14.9652 7.91628 14.8321C8.18155 14.5677 8.18155 14.1368 7.91628 13.8715L1.76338 7.71137L7.91628 1.55213C8.18065 1.28686 8.18065 0.855902 7.91628 0.591533C7.65101 0.32626 7.22096 0.32626 6.95568 0.591533L0.323837 7.23062C0.0585632 7.49589 0.0585632 7.92595 0.323837 8.19122L6.95568 14.8303C7.08877 14.9652 7.2626 15.0313 7.43643 15.0313Z" fill="currentColor"></path>
  </symbol>
  <symbol fill="none" xmlns="http://www.w3.org/2000/svg" viewBox="0 0 8 14" id="ic_arr_hor2">
    <path d="M1 0.999999L7 7L1 13" stroke="currentColor" stroke-width="0.823677"></path>
  </symbol>
  <symbol fill="none" xmlns="http://www.w3.org/2000/svg" viewBox="0 0 9 15" id="ic_arr_hor3">
    <path d="M1.9125 14.6538L9 7.5L1.9125 0.346154C1.6875 0.115385 1.35 0 1.125 0C0.9 0 0.5625 0.115385 0.3375 0.346154C0.1125 0.576923 0 0.807693 0 1.15385L0 13.8462C0 14.1923 0.1125 14.4231 0.3375 14.6538C0.5625 14.8846 0.7875 15 1.125 15C1.4625 15 1.6875 14.8846 1.9125 14.6538Z" fill="currentColor"></path>
  </symbol>
  <symbol fill="none" xmlns="http://www.w3.org/2000/svg" viewBox="0 0 16 16" id="ic_arr_ver">
    <path d="M3.82133 6.04615L7.63672 9.92308L11.4521 6.04615C11.5752 5.92308 11.6367 5.73846 11.6367 5.61538C11.6367 5.49231 11.5752 5.30769 11.4521 5.18462C11.329 5.06154 11.2059 5 11.0213 5H4.2521C4.06749 5 3.94441 5.06154 3.82133 5.18462C3.69826 5.30769 3.63672 5.43077 3.63672 5.61538C3.63672 5.8 3.69826 5.92308 3.82133 6.04615Z" fill="currentColor"></path>
  </symbol>
  <symbol fill="none" xmlns="http://www.w3.org/2000/svg" viewBox="0 0 42 23" id="ic_arr_ver2">
    <path d="M0.438195 1.1709L20.9857 21.7242L41.5332 1.1709" stroke="currentColor" stroke-width="0.823677"></path>
  </symbol>
  <symbol fill="none" xmlns="http://www.w3.org/2000/svg" viewBox="0 0 15 9" id="ic_arr_ver3">
    <path d="M0.999399 1L7.73017 8L14.4609 1" stroke="currentColor" stroke-width="0.823677"></path>
  </symbol>
  <symbol fill="none" xmlns="http://www.w3.org/2000/svg" viewBox="0 0 24 24" id="ic_arrow_hor">
    <path fill-rule="evenodd" clip-rule="evenodd" d="M13.1613 7.68671C12.9453 7.47079 12.9462 7.11988 13.1631 6.90292C13.3801 6.68596 13.731 6.68512 13.9469 6.90103L18.6383 11.5924C18.8542 11.8083 18.8534 12.1592 18.6364 12.3762L13.9224 17.0902C13.7054 17.3072 13.3545 17.308 13.1386 17.0921C12.9227 16.8762 12.9235 16.5253 13.1405 16.3083L16.9061 12.5427L5.70357 12.5697C5.39748 12.5704 5.14995 12.3229 5.15069 12.0168C5.15142 11.7107 5.40015 11.462 5.70624 11.4612L16.9088 11.4343L13.1613 7.68671Z" fill="currentColor"></path>
  </symbol>
  <symbol fill="none" xmlns="http://www.w3.org/2000/svg" viewBox="0 0 15 16" id="ic_close">
    <rect x="1.15039" y="0.5" width="19.5856" height="1.62733" transform="rotate(45 1.15039 0.5)" fill="currentColor"></rect>
    <rect y="14.3491" width="19.5856" height="1.62733" transform="rotate(-45 0 14.3491)" fill="currentColor"></rect>
  </symbol>
  <symbol fill="none" xmlns="http://www.w3.org/2000/svg" viewBox="0 0 19 19" id="ic_instagram">
    <path fill-rule="evenodd" clip-rule="evenodd" d="M9.50018 14.682C12.362 14.682 14.682 12.362 14.682 9.50018C14.682 6.63834 12.362 4.31836 9.50018 4.31836C6.63834 4.31836 4.31836 6.63834 4.31836 9.50018C4.31836 12.362 6.63834 14.682 9.50018 14.682ZM9.50018 12.9547C11.408 12.9547 12.9547 11.408 12.9547 9.50018C12.9547 7.59228 11.408 6.04563 9.50018 6.04563C7.59228 6.04563 6.04563 7.59228 6.04563 9.50018C6.04563 11.408 7.59228 12.9547 9.50018 12.9547Z" fill="currentColor"></path>
    <path d="M14.682 3.4541C14.205 3.4541 13.8184 3.84077 13.8184 4.31774C13.8184 4.79471 14.205 5.18137 14.682 5.18137C15.159 5.18137 15.5456 4.79471 15.5456 4.31774C15.5456 3.84077 15.159 3.4541 14.682 3.4541Z" fill="currentColor"></path>
    <path fill-rule="evenodd" clip-rule="evenodd" d="M0.564784 2.82932C0 3.93778 0 5.38882 0 8.29091V10.7091C0 13.6112 0 15.0623 0.564784 16.1706C1.06158 17.1457 1.8543 17.9384 2.82932 18.4352C3.93778 19 5.38882 19 8.29091 19H10.7091C13.6112 19 15.0623 19 16.1706 18.4352C17.1457 17.9384 17.9384 17.1457 18.4352 16.1706C19 15.0623 19 13.6112 19 10.7091V8.29091C19 5.38882 19 3.93778 18.4352 2.82932C17.9384 1.8543 17.1457 1.06158 16.1706 0.564784C15.0623 0 13.6112 0 10.7091 0H8.29091C5.38882 0 3.93778 0 2.82932 0.564784C1.8543 1.06158 1.06158 1.8543 0.564784 2.82932ZM10.7091 1.72727H8.29091C6.81136 1.72727 5.80558 1.72862 5.02816 1.79213C4.27089 1.854 3.88363 1.96615 3.61349 2.10379C2.96347 2.435 2.435 2.96347 2.10379 3.61349C1.96615 3.88363 1.854 4.27089 1.79213 5.02816C1.72862 5.80558 1.72727 6.81136 1.72727 8.29091V10.7091C1.72727 12.1887 1.72862 13.1944 1.79213 13.9718C1.854 14.7291 1.96615 15.1164 2.10379 15.3865C2.435 16.0365 2.96347 16.565 3.61349 16.8962C3.88363 17.0338 4.27089 17.146 5.02816 17.2079C5.80558 17.2713 6.81136 17.2727 8.29091 17.2727H10.7091C12.1887 17.2727 13.1944 17.2713 13.9718 17.2079C14.7291 17.146 15.1164 17.0338 15.3865 16.8962C16.0365 16.565 16.565 16.0365 16.8962 15.3865C17.0338 15.1164 17.146 14.7291 17.2079 13.9718C17.2713 13.1944 17.2727 12.1887 17.2727 10.7091V8.29091C17.2727 6.81136 17.2713 5.80558 17.2079 5.02816C17.146 4.27089 17.0338 3.88363 16.8962 3.61349C16.565 2.96347 16.0365 2.435 15.3865 2.10379C15.1164 1.96615 14.7291 1.854 13.9718 1.79213C13.1944 1.72862 12.1887 1.72727 10.7091 1.72727Z" fill="currentColor"></path>
  </symbol>
  <symbol fill="none" xmlns="http://www.w3.org/2000/svg" viewBox="0 0 24 24" id="ic_link_arrow">
    <path fill-rule="evenodd" clip-rule="evenodd" d="M9.76442 8.11111C9.45907 8.11111 9.21154 7.86238 9.21154 7.55556C9.21154 7.24873 9.45907 7 9.76442 7H16.399C16.7044 7 16.9519 7.24873 16.9519 7.55556V14.2222C16.9519 14.529 16.7044 14.7778 16.399 14.7778C16.0937 14.7778 15.8462 14.529 15.8462 14.2222V8.89679L7.94383 16.8373C7.72792 17.0542 7.37785 17.0542 7.16194 16.8373C6.94602 16.6203 6.94602 16.2686 7.16194 16.0516L15.0643 8.11111H9.76442Z" fill="currentColor"></path>
  </symbol>
  <symbol fill="none" xmlns="http://www.w3.org/2000/svg" viewBox="0 0 14 14" id="ic_location">
    <path d="M6.89615 12.923C7.25156 13.9913 7.92574 14.029 8.40132 13.0106L13.808 1.42641C14.2835 0.405979 13.8426 -0.0339649 12.8232 0.441623L1.23797 5.84723C0.218567 6.32282 0.257266 6.99699 1.32454 7.35343L5.50299 8.74557L6.89615 12.923Z" fill="currentColor"></path>
  </symbol>
  <symbol fill="none" xmlns="http://www.w3.org/2000/svg" viewBox="0 0 21 16" id="ic_menu">
    <rect y="1.07715" width="21" height="2" fill="currentColor"></rect>
    <rect x="6" y="7.07715" width="15" height="2" fill="currentColor"></rect>
    <path d="M0 13.0771H21V15.0771H0V13.0771Z" fill="currentColor"></path>
  </symbol>
  <symbol fill="none" xmlns="http://www.w3.org/2000/svg" viewBox="0 0 24 24" id="ic_phone">
    <path fill-rule="evenodd" clip-rule="evenodd" d="M16.969 10.6071C16.969 10.8636 16.7612 11.0714 16.5047 11.0714L13.719 11.0714C13.4626 11.0714 13.2547 10.8636 13.2547 10.6071V7.82143C13.2547 7.56501 13.4626 7.35714 13.719 7.35714C13.9754 7.35714 14.1833 7.56501 14.1833 7.82143V9.48626L17.105 6.56456C17.2863 6.38324 17.5803 6.38324 17.7616 6.56456C17.9429 6.74587 17.9429 7.03984 17.7616 7.22116L14.8399 10.1429L16.5047 10.1429C16.7612 10.1429 16.969 10.3507 16.969 10.6071Z" fill="currentColor"></path>
    <path fill-rule="evenodd" clip-rule="evenodd" d="M5.82617 7.35714C5.82617 6.33147 6.65764 5.5 7.68331 5.5H8.53242C9.06503 5.5 9.5293 5.86249 9.65847 6.3792L10.343 9.11736C10.4563 9.57042 10.287 10.0472 9.91339 10.3274L9.11257 10.9281C9.02942 10.9904 9.01134 11.0818 9.0347 11.1455C9.73763 13.0644 11.2617 14.5885 13.1807 15.2915C13.2444 15.3148 13.3357 15.2968 13.3981 15.2136L13.9987 14.4128C14.2789 14.0392 14.7557 13.8699 15.2088 13.9832L17.947 14.6677C18.4637 14.7969 18.8262 15.2611 18.8262 15.7938V16.6429C18.8262 17.6685 17.9947 18.5 16.969 18.5H15.5762C10.1914 18.5 5.82617 14.1348 5.82617 8.75V7.35714Z" fill="currentColor"></path>
  </symbol>
  <symbol fill="none" xmlns="http://www.w3.org/2000/svg" viewBox="0 0 20 16" id="ic_tg">
    <path fill-rule="evenodd" clip-rule="evenodd" d="M1.92141 6.8158C7.02307 4.59276 10.4246 3.12782 12.1268 2.41961C16.9871 0.398227 17.9968 0.0468594 18.6551 0.0352383C18.8 0.0331875 19.1234 0.0687341 19.3332 0.238949C19.5103 0.382504 19.5588 0.576645 19.5821 0.71268C19.6053 0.849399 19.6347 1.15907 19.6114 1.40174C19.3483 4.16893 18.2087 10.8839 17.629 13.9833C17.3836 15.2951 16.9003 15.7347 16.4327 15.7777C15.4169 15.8714 14.6451 15.1057 13.6608 14.4604C12.1206 13.4514 11.2504 12.8225 9.75539 11.8375C8.02726 10.6986 9.14768 10.0731 10.1321 9.05047C10.3898 8.7825 14.8673 4.70965 14.9541 4.34051C14.9651 4.29403 14.9753 4.12176 14.8728 4.03084C14.7702 3.93993 14.6192 3.97137 14.5105 3.99598C14.356 4.03084 11.8957 5.65711 7.12902 8.87479C6.43039 9.35467 5.79738 9.58778 5.23068 9.57616C4.60588 9.56248 3.40412 9.22274 2.51066 8.93221C1.41486 8.57606 0.543964 8.38739 0.619843 7.78241C0.658808 7.46727 1.09289 7.1453 1.92141 6.8158Z" fill="currentColor"></path>
  </symbol>
  <symbol fill="none" xmlns="http://www.w3.org/2000/svg" viewBox="0 0 28 29" id="ic_tooltip">
    <path d="M14 0.5C6.26635 0.5 0 6.76635 0 14.5C0 22.2337 6.26635 28.5 14 28.5C21.7337 28.5 28 22.2337 28 14.5C28 6.76635 21.7337 0.5 14 0.5ZM14 27.3356C6.92596 27.3356 1.16442 21.5808 1.16442 14.5C1.16442 7.42596 6.91923 1.66442 14 1.66442C21.074 1.66442 26.8356 7.41923 26.8356 14.5C26.8356 21.574 21.074 27.3356 14 27.3356Z" fill="currentColor"></path>
    <path d="M14.2414 7.0957C11.3337 7.0957 9.7116 8.46205 9.69141 11.2822H10.9568C10.9164 9.23609 12.0001 8.15243 14.1808 8.15243C15.7424 8.15243 17.0481 9.24282 17.0481 10.8313C17.0481 11.8611 16.4895 12.6957 15.7424 13.3957C14.2212 14.7957 13.7904 15.8188 13.7164 17.7371H14.9953C15.0693 16.0005 15.0289 15.6707 16.5635 14.1495C17.5866 13.1938 18.3068 12.2447 18.3068 10.7707C18.3068 8.46878 16.4626 7.0957 14.2414 7.0957ZM14.2885 19.6351C13.6558 19.6351 13.1443 20.1399 13.1443 20.7659C13.1443 21.3919 13.6558 21.9034 14.2885 21.9034C14.9212 21.9034 15.4328 21.3986 15.4328 20.7659C15.4328 20.1399 14.9212 19.6351 14.2885 19.6351Z" fill="currentColor"></path>
  </symbol>
  <symbol fill="none" xmlns="http://www.w3.org/2000/svg" viewBox="0 0 19 13" id="ic_vk">
    <path d="M11.5051 6.29029C11.1577 6.15965 11.1577 5.66075 11.1361 5.31333C11.0493 4.0758 11.4835 2.18651 10.9624 1.38327C10.5934 0.905211 8.81254 0.948986 7.72719 1.0143C7.42284 1.05808 7.05388 1.1227 6.79331 1.25333C6.53274 1.38396 6.27217 1.60075 6.27217 1.79601C6.27217 2.07812 6.92394 2.03503 7.16227 2.404C7.42284 2.7952 7.42284 3.64152 7.42284 4.33637C7.42284 5.13962 7.29221 6.20412 6.96702 6.24721C6.46742 6.26875 6.18532 5.76915 5.92475 5.40019C5.40361 4.6838 4.88248 3.793 4.49128 2.92444C4.29602 2.46862 4.18693 1.96902 3.90482 1.77377C3.47054 1.46943 2.68884 1.44789 1.92867 1.46943C1.23383 1.49097 0.234634 1.40411 0.0393817 1.81685C-0.11279 2.27267 0.213094 2.70695 0.386806 3.07661C1.27691 5.00899 2.23232 6.70303 3.40523 8.30952C4.49128 9.80761 5.51131 11.0021 7.509 11.6316C8.07391 11.8053 10.549 12.3049 11.0486 11.6316C11.2223 11.371 11.1792 10.7846 11.266 10.3503C11.3529 9.91601 11.4613 9.48173 11.874 9.46019C12.2215 9.43864 12.4167 9.74229 12.6342 9.95978C12.8732 10.1988 13.0685 10.3941 13.2422 10.6115C13.6549 11.0243 14.0892 11.5885 14.6104 11.806C15.3267 12.1103 16.4343 12.0235 17.4766 11.9797C18.3236 11.9582 18.9316 11.7845 18.9969 11.2849C19.0407 10.8937 18.6057 10.3294 18.3452 10.0036C17.6934 9.20031 17.3897 8.96128 16.6511 8.22266C16.3252 7.89678 15.9125 7.54935 15.9125 7.15885C15.891 6.91982 16.0862 6.70303 16.2599 6.464C17.0201 5.33487 17.7803 4.53163 18.4751 3.35872C18.6704 3.0113 19.1269 2.20805 18.9532 1.81685C18.7579 1.38257 17.6719 1.51251 16.9985 1.51251C16.13 1.51251 15.0009 1.44719 14.7834 1.6209C14.3706 1.90301 14.1969 2.35953 14.0017 2.79381C13.5674 3.793 12.9809 4.81304 12.3729 5.5732C12.1555 5.83377 11.7434 6.37645 11.5044 6.28959L11.5051 6.29029Z" fill="currentColor"></path>
  </symbol>
  <symbol fill="none" xmlns="http://www.w3.org/2000/svg" viewBox="0 0 17 18" id="ic_whatsapp">
    <path fill-rule="evenodd" clip-rule="evenodd" d="M14.523 2.94125C12.9251 1.34135 10.8 0.459818 8.5357 0.458984C3.86993 0.458984 0.0726667 4.25585 0.0710333 8.92285C0.0702333 10.4148 0.460267 11.871 1.20097 13.1544L0 17.541L4.48723 16.3639C5.72347 17.0385 7.11557 17.3936 8.53207 17.394H8.5357C13.2007 17.394 16.9984 13.5968 17 8.92975C17.0008 6.66792 16.1213 4.54158 14.523 2.94165V2.94125ZM8.5357 15.9646H8.53287C7.2706 15.9642 6.03233 15.6249 4.95193 14.984L4.69503 14.8315L2.03217 15.5299L2.74283 12.9336L2.5756 12.6674C1.87143 11.5472 1.49927 10.2525 1.50007 8.92328C1.5017 5.04442 4.6577 1.88842 8.53857 1.88842C10.4177 1.88925 12.184 2.62185 13.5124 3.95185C14.8408 5.28145 15.5717 7.04942 15.5709 8.92895C15.5693 12.8082 12.4133 15.9642 8.5357 15.9642V15.9646ZM12.3946 10.6957C12.1832 10.5898 11.1434 10.0784 10.9494 10.0077C10.7554 9.93709 10.6146 9.90182 10.4737 10.1137C10.3329 10.3256 9.92743 10.802 9.80403 10.9428C9.68063 11.0841 9.55727 11.1016 9.3458 10.9956C9.13437 10.8897 8.4529 10.6665 7.64483 9.94602C7.01617 9.38512 6.5916 8.69275 6.46827 8.48085C6.34487 8.26902 6.45527 8.15455 6.56077 8.04942C6.65573 7.95448 6.77223 7.80228 6.87817 7.67888C6.9841 7.55548 7.019 7.46705 7.0896 7.32618C7.16027 7.18492 7.12493 7.06162 7.0722 6.95562C7.0194 6.84972 6.5965 5.80865 6.41993 5.38535C6.24823 4.97302 6.07377 5.02902 5.9443 5.02212C5.82087 5.01602 5.68007 5.01482 5.53883 5.01482C5.3976 5.01482 5.16867 5.06755 4.97467 5.27945C4.78067 5.49125 4.23437 6.00308 4.23437 7.04368C4.23437 8.08435 4.99213 9.09052 5.09807 9.23175C5.20397 9.37298 6.58957 11.509 8.71103 12.4255C9.21553 12.6434 9.6096 12.7737 9.91687 12.8711C10.4234 13.0322 10.8844 13.0095 11.2489 12.9551C11.6552 12.8943 12.5002 12.4433 12.6763 11.9494C12.8524 11.4554 12.8524 11.0317 12.7997 10.9436C12.747 10.8556 12.6057 10.8024 12.3943 10.6965L12.3946 10.6957Z" fill="currentColor"></path>
  </symbol>
</svg>