<svg width="0" height="0" class="hidden">
  <symbol fill="none" xmlns="http://www.w3.org/2000/svg" viewBox="0 0 9 16" id="ic_arr_hor">
    <path d="M7.43643 15.0313C7.61026 15.0313 7.78409 14.9652 7.91628 14.8321C8.18155 14.5677 8.18155 14.1368 7.91628 13.8715L1.76338 7.71137L7.91628 1.55213C8.18065 1.28686 8.18065 0.855902 7.91628 0.591533C7.65101 0.32626 7.22096 0.32626 6.95568 0.591533L0.323837 7.23062C0.0585632 7.49589 0.0585632 7.92595 0.323837 8.19122L6.95568 14.8303C7.08877 14.9652 7.2626 15.0313 7.43643 15.0313Z" fill="currentColor"></path>
  </symbol>
  <symbol fill="none" xmlns="http://www.w3.org/2000/svg" viewBox="0 0 8 14" id="ic_arr_hor2">
    <path d="M1 0.999999L7 7L1 13" stroke="currentColor" stroke-width="0.823677"></path>
  </symbol>
  <symbol fill="none" xmlns="http://www.w3.org/2000/svg" viewBox="0 0 9 15" id="ic_arr_hor3">
    <path d="M1.9125 14.6538L9 7.5L1.9125 0.346154C1.6875 0.115385 1.35 0 1.125 0C0.9 0 0.5625 0.115385 0.3375 0.346154C0.1125 0.576923 0 0.807693 0 1.15385L0 13.8462C0 14.1923 0.1125 14.4231 0.3375 14.6538C0.5625 14.8846 0.7875 15 1.125 15C1.4625 15 1.6875 14.8846 1.9125 14.6538Z" fill="currentColor"></path>
  </symbol>
  <symbol fill="none" xmlns="http://www.w3.org/2000/svg" viewBox="0 0 16 16" id="ic_arr_ver">
    <path d="M3.82133 6.04615L7.63672 9.92308L11.4521 6.04615C11.5752 5.92308 11.6367 5.73846 11.6367 5.61538C11.6367 5.49231 11.5752 5.30769 11.4521 5.18462C11.329 5.06154 11.2059 5 11.0213 5H4.2521C4.06749 5 3.94441 5.06154 3.82133 5.18462C3.69826 5.30769 3.63672 5.43077 3.63672 5.61538C3.63672 5.8 3.69826 5.92308 3.82133 6.04615Z" fill="currentColor"></path>
  </symbol>
  <symbol fill="none" xmlns="http://www.w3.org/2000/svg" viewBox="0 0 42 23" id="ic_arr_ver2">
    <path d="M0.438195 1.1709L20.9857 21.7242L41.5332 1.1709" stroke="currentColor" stroke-width="0.823677"></path>
  </symbol>
  <symbol fill="none" xmlns="http://www.w3.org/2000/svg" viewBox="0 0 15 9" id="ic_arr_ver3">
    <path d="M0.999399 1L7.73017 8L14.4609 1" stroke="currentColor" stroke-width="0.823677"></path>
  </symbol>
  <symbol fill="none" xmlns="http://www.w3.org/2000/svg" viewBox="0 0 24 24" id="ic_arrow_hor">
    <path fill-rule="evenodd" clip-rule="evenodd" d="M13.1613 7.68671C12.9453 7.47079 12.9462 7.11988 13.1631 6.90292C13.3801 6.68596 13.731 6.68512 13.9469 6.90103L18.6383 11.5924C18.8542 11.8083 18.8534 12.1592 18.6364 12.3762L13.9224 17.0902C13.7054 17.3072 13.3545 17.308 13.1386 17.0921C12.9227 16.8762 12.9235 16.5253 13.1405 16.3083L16.9061 12.5427L5.70357 12.5697C5.39748 12.5704 5.14995 12.3229 5.15069 12.0168C5.15142 11.7107 5.40015 11.462 5.70624 11.4612L16.9088 11.4343L13.1613 7.68671Z" fill="currentColor"></path>
  </symbol>
  <symbol fill="none" xmlns="http://www.w3.org/2000/svg" viewBox="0 0 19 24" id="ic_before_after">
    <path d="M10.5992 3.2H2.89921C1.68419 3.2 0.699219 4.18497 0.699219 5.39999V18.6C0.699219 19.815 1.68419 20.8 2.89921 20.8H10.5992M14.9992 3.2H16.0992C17.3142 3.2 18.2992 4.18497 18.2992 5.39999V6.49999M18.2992 17.5V18.6C18.2992 19.815 17.3142 20.8 16.0992 20.8H14.9992M18.2992 10.9V13.1M9.4992 1V23" stroke="currentColor" stroke-linecap="round" stroke-linejoin="round"></path>
  </symbol>
  <symbol fill="none" xmlns="http://www.w3.org/2000/svg" viewBox="0 0 15 16" id="ic_close">
    <rect x="1.15039" y="0.5" width="19.5856" height="1.62733" transform="rotate(45 1.15039 0.5)" fill="currentColor"></rect>
    <rect y="14.3491" width="19.5856" height="1.62733" transform="rotate(-45 0 14.3491)" fill="currentColor"></rect>
  </symbol>
  <symbol fill="none" xmlns="http://www.w3.org/2000/svg" viewBox="0 0 17 19" id="ic_download">
    <path d="M9 11.7929L12.1464 8.64645C12.3417 8.45118 12.6583 8.45118 12.8536 8.64645C13.0488 8.84171 13.0488 9.15829 12.8536 9.35355L8.85355 13.3536C8.65829 13.5488 8.34171 13.5488 8.14645 13.3536L4.14645 9.35355C3.95118 9.15829 3.95118 8.84171 4.14645 8.64645C4.34171 8.45118 4.65829 8.45118 4.85355 8.64645L8 11.7929V1C8 0.723858 8.22386 0.5 8.5 0.5C8.77614 0.5 9 0.723858 9 1V11.7929ZM16 13C16 12.7239 16.2239 12.5 16.5 12.5C16.7761 12.5 17 12.7239 17 13V16C17 17.3807 15.8807 18.5 14.5 18.5H2.5C1.11929 18.5 0 17.3807 0 16V13C0 12.7239 0.223858 12.5 0.5 12.5C0.776142 12.5 1 12.7239 1 13L1 16C1 16.8284 1.67157 17.5 2.5 17.5H14.5C15.3284 17.5 16 16.8284 16 16V13Z" fill="currentColor"></path>
  </symbol>
  <symbol fill="none" xmlns="http://www.w3.org/2000/svg" viewBox="0 0 19 19" id="ic_instagram">
    <path fill-rule="evenodd" clip-rule="evenodd" d="M9.50018 14.682C12.362 14.682 14.682 12.362 14.682 9.50018C14.682 6.63834 12.362 4.31836 9.50018 4.31836C6.63834 4.31836 4.31836 6.63834 4.31836 9.50018C4.31836 12.362 6.63834 14.682 9.50018 14.682ZM9.50018 12.9547C11.408 12.9547 12.9547 11.408 12.9547 9.50018C12.9547 7.59228 11.408 6.04563 9.50018 6.04563C7.59228 6.04563 6.04563 7.59228 6.04563 9.50018C6.04563 11.408 7.59228 12.9547 9.50018 12.9547Z" fill="currentColor"></path>
    <path d="M14.682 3.4541C14.205 3.4541 13.8184 3.84077 13.8184 4.31774C13.8184 4.79471 14.205 5.18137 14.682 5.18137C15.159 5.18137 15.5456 4.79471 15.5456 4.31774C15.5456 3.84077 15.159 3.4541 14.682 3.4541Z" fill="currentColor"></path>
    <path fill-rule="evenodd" clip-rule="evenodd" d="M0.564784 2.82932C0 3.93778 0 5.38882 0 8.29091V10.7091C0 13.6112 0 15.0623 0.564784 16.1706C1.06158 17.1457 1.8543 17.9384 2.82932 18.4352C3.93778 19 5.38882 19 8.29091 19H10.7091C13.6112 19 15.0623 19 16.1706 18.4352C17.1457 17.9384 17.9384 17.1457 18.4352 16.1706C19 15.0623 19 13.6112 19 10.7091V8.29091C19 5.38882 19 3.93778 18.4352 2.82932C17.9384 1.8543 17.1457 1.06158 16.1706 0.564784C15.0623 0 13.6112 0 10.7091 0H8.29091C5.38882 0 3.93778 0 2.82932 0.564784C1.8543 1.06158 1.06158 1.8543 0.564784 2.82932ZM10.7091 1.72727H8.29091C6.81136 1.72727 5.80558 1.72862 5.02816 1.79213C4.27089 1.854 3.88363 1.96615 3.61349 2.10379C2.96347 2.435 2.435 2.96347 2.10379 3.61349C1.96615 3.88363 1.854 4.27089 1.79213 5.02816C1.72862 5.80558 1.72727 6.81136 1.72727 8.29091V10.7091C1.72727 12.1887 1.72862 13.1944 1.79213 13.9718C1.854 14.7291 1.96615 15.1164 2.10379 15.3865C2.435 16.0365 2.96347 16.565 3.61349 16.8962C3.88363 17.0338 4.27089 17.146 5.02816 17.2079C5.80558 17.2713 6.81136 17.2727 8.29091 17.2727H10.7091C12.1887 17.2727 13.1944 17.2713 13.9718 17.2079C14.7291 17.146 15.1164 17.0338 15.3865 16.8962C16.0365 16.565 16.565 16.0365 16.8962 15.3865C17.0338 15.1164 17.146 14.7291 17.2079 13.9718C17.2713 13.1944 17.2727 12.1887 17.2727 10.7091V8.29091C17.2727 6.81136 17.2713 5.80558 17.2079 5.02816C17.146 4.27089 17.0338 3.88363 16.8962 3.61349C16.565 2.96347 16.0365 2.435 15.3865 2.10379C15.1164 1.96615 14.7291 1.854 13.9718 1.79213C13.1944 1.72862 12.1887 1.72727 10.7091 1.72727Z" fill="currentColor"></path>
  </symbol>
  <symbol fill="none" xmlns="http://www.w3.org/2000/svg" viewBox="0 0 24 24" id="ic_link_arrow">
    <path fill-rule="evenodd" clip-rule="evenodd" d="M9.76442 8.11111C9.45907 8.11111 9.21154 7.86238 9.21154 7.55556C9.21154 7.24873 9.45907 7 9.76442 7H16.399C16.7044 7 16.9519 7.24873 16.9519 7.55556V14.2222C16.9519 14.529 16.7044 14.7778 16.399 14.7778C16.0937 14.7778 15.8462 14.529 15.8462 14.2222V8.89679L7.94383 16.8373C7.72792 17.0542 7.37785 17.0542 7.16194 16.8373C6.94602 16.6203 6.94602 16.2686 7.16194 16.0516L15.0643 8.11111H9.76442Z" fill="currentColor"></path>
  </symbol>
  <symbol fill="none" xmlns="http://www.w3.org/2000/svg" viewBox="0 0 14 14" id="ic_location">
    <path d="M6.89615 12.923C7.25156 13.9913 7.92574 14.029 8.40132 13.0106L13.808 1.42641C14.2835 0.405979 13.8426 -0.0339649 12.8232 0.441623L1.23797 5.84723C0.218567 6.32282 0.257266 6.99699 1.32454 7.35343L5.50299 8.74557L6.89615 12.923Z" fill="currentColor"></path>
  </symbol>
  <symbol fill="none" xmlns="http://www.w3.org/2000/svg" viewBox="0 0 21 16" id="ic_menu">
    <rect y="1.07715" width="21" height="2" fill="currentColor"></rect>
    <rect x="6" y="7.07715" width="15" height="2" fill="currentColor"></rect>
    <path d="M0 13.0771H21V15.0771H0V13.0771Z" fill="currentColor"></path>
  </symbol>
  <symbol fill="none" xmlns="http://www.w3.org/2000/svg" viewBox="0 0 18 18" id="ic_type_apartments">
    <path d="M8.87916 9.60274H14.6937C14.8363 9.60274 14.9518 9.48718 14.9518 9.34467V7.75709C14.9518 7.61458 14.8363 7.49902 14.6937 7.49902H8.87916C8.73653 7.49902 8.62109 7.61458 8.62109 7.75709V9.34467C8.62109 9.48718 8.73653 9.60274 8.87916 9.60274ZM13.0135 8.01515H14.4356V9.08661H13.0135V8.01515ZM11.0755 8.01515H12.4974V9.08661H11.0755V8.01515ZM9.13722 8.01515H10.5593V9.08661H9.13722V8.01515Z" fill="currentColor"></path>
    <path d="M16.7419 16.4236H16.4516V3.59303C16.7539 3.5304 16.9819 3.26253 16.9819 2.9423V2.60168C16.9819 2.23512 16.6832 1.93698 16.3163 1.93698H7.2543C6.88761 1.93698 6.58947 2.23512 6.58947 2.60168V2.94227C6.58947 2.9935 6.59657 3.04289 6.60759 3.09084H3.78503V2.14441C3.78503 2.00191 3.6696 1.88635 3.52697 1.88635C3.38434 1.88635 3.2689 2.00191 3.2689 2.14441V3.09086H2.42867V1.25806C2.42867 1.11556 2.31324 1 2.17061 1C2.02797 1 1.91254 1.11556 1.91254 1.25806V3.09086H1.57081C1.25605 3.09086 1 3.34728 1 3.66255V4.40803C1 4.72266 1.25605 4.97871 1.57081 4.97871H1.61995V16.4236H1.25806C1.11543 16.4236 1 16.5392 1 16.6817C1 16.8242 1.11543 16.9398 1.25806 16.9398H16.7419C16.8846 16.9398 17 16.8242 17 16.6817C17 16.5392 16.8846 16.4236 16.7419 16.4236ZM3.8231 16.4236V13.8775H5.36619V16.4236H3.8231ZM7.1192 16.4236H5.8823V13.6195C5.8823 13.477 5.76686 13.3614 5.62423 13.3614H3.56501C3.42237 13.3614 3.30694 13.477 3.30694 13.6195V16.4236H2.13608V4.97871H7.1192V16.4236ZM1.87801 4.46258H1.57081C1.54157 4.46258 1.51613 4.43711 1.51613 4.40803V3.66255C1.51613 3.63244 1.54108 3.60699 1.57081 3.60699H7.1192V4.46258H1.87801ZM11.5277 16.4236H10.4337V13.8775H11.5277V16.4236ZM13.1371 16.4236H12.0439V13.8775H13.1371V16.4236ZM15.9355 16.4236H13.6532V13.6195C13.6532 13.477 13.5378 13.3614 13.3951 13.3614H10.1757C10.033 13.3614 9.9176 13.477 9.9176 13.6195V16.4236H7.63533V3.60699H15.9355V16.4236ZM16.3163 3.09086H16.1935H7.37726H7.25427C7.17236 3.09086 7.10557 3.02421 7.10557 2.9423V2.60168C7.10557 2.52116 7.17363 2.45311 7.25427 2.45311H16.3163C16.3972 2.45311 16.4657 2.52116 16.4657 2.60168V2.94227C16.4657 3.02418 16.3987 3.09086 16.3163 3.09086Z" fill="currentColor"></path>
    <path d="M3.29322 8.23944H5.92628C6.06891 8.23944 6.18434 8.12387 6.18434 7.98137V6.37476C6.18434 6.23226 6.06891 6.1167 5.92628 6.1167H3.29322C3.15059 6.1167 3.03516 6.23226 3.03516 6.37476V7.98137C3.03516 8.12387 3.15056 8.23944 3.29322 8.23944ZM4.8678 6.63283H5.66821V7.72331H4.8678V6.63283ZM3.55129 6.63283H4.3517V7.72331H3.55129V6.63283Z" fill="currentColor"></path>
    <path d="M3.29322 11.4587H5.92628C6.06891 11.4587 6.18434 11.3431 6.18434 11.2006V9.59303C6.18434 9.45052 6.06891 9.33496 5.92628 9.33496H3.29322C3.15059 9.33496 3.03516 9.45052 3.03516 9.59303V11.2006C3.03516 11.3431 3.15056 11.4587 3.29322 11.4587ZM4.8678 9.85109H5.66821V10.9426H4.8678V9.85109ZM3.55129 9.85109H4.3517V10.9426H3.55129V9.85109Z" fill="currentColor"></path>
    <path d="M8.87916 12.448H14.6937C14.8363 12.448 14.9518 12.3324 14.9518 12.1899V10.6023C14.9518 10.4598 14.8363 10.3442 14.6937 10.3442H8.87916C8.73653 10.3442 8.62109 10.4598 8.62109 10.6023V12.1899C8.62109 12.3324 8.73653 12.448 8.87916 12.448ZM13.0135 10.8604H14.4356V11.9319H13.0135V10.8604ZM11.0755 10.8604H12.4974V11.9319H11.0755V10.8604ZM9.13722 10.8604H10.5593V11.9319H9.13722V10.8604Z" fill="currentColor"></path>
    <path d="M8.87916 6.75812H14.6937C14.8363 6.75812 14.9518 6.64255 14.9518 6.50005V4.91236C14.9518 4.76986 14.8363 4.6543 14.6937 4.6543H8.87916C8.73653 4.6543 8.62109 4.76986 8.62109 4.91236V6.50005C8.62109 6.64258 8.73653 6.75812 8.87916 6.75812ZM13.0135 5.17043H14.4356V6.24199H13.0135V5.17043ZM11.0755 5.17043H12.4974V6.24199H11.0755V5.17043ZM9.13722 5.17043H10.5593V6.24199H9.13722V5.17043Z" fill="currentColor"></path>
  </symbol>
  <symbol fill="none" xmlns="http://www.w3.org/2000/svg" viewBox="0 0 18 18" id="ic_type_beauty_salons">
    <path fill-rule="evenodd" clip-rule="evenodd" d="M3.83021 9.84891V10.3636C3.83021 10.6349 4.05028 10.8552 4.32163 10.8552H4.44375V16.168C4.44375 16.6271 4.81666 17 5.27608 17C5.73551 17 6.10808 16.6271 6.10808 16.168V10.8552H6.23053C6.50188 10.8552 6.72196 10.6349 6.72196 10.3636V9.84891C7.80604 9.31432 8.55216 8.19804 8.55216 6.90883V4.27611C8.55216 2.46798 7.08441 1 5.27608 1C3.46808 1 2 2.46798 2 4.27611V6.90883C2 8.19804 2.74612 9.31432 3.83021 9.84891ZM5.78155 10.8552H4.77028V16.168C4.77028 16.4469 4.9969 16.6735 5.27608 16.6735C5.55527 16.6735 5.78155 16.4469 5.78155 16.168V10.8552ZM12.2949 10.4883C12.3458 10.6127 12.4255 10.7224 12.5254 10.8093L11.9135 11.8694C11.3198 11.6197 10.6185 11.8449 10.2883 12.4169C9.93045 13.0368 10.143 13.8306 10.7631 14.1885C11.3829 14.5463 12.1767 14.3336 12.5345 13.7138C12.8647 13.1418 12.7092 12.4218 12.1962 12.0327L12.8082 10.9728C12.8957 11.003 12.9894 11.0194 13.087 11.0194C13.1827 11.0194 13.2748 11.0036 13.361 10.9746L13.9719 12.0327C13.4586 12.4218 13.3032 13.1418 13.6333 13.7138C13.9912 14.3336 14.785 14.5463 15.4051 14.1885C16.0248 13.8306 16.2374 13.0368 15.8795 12.4169C15.5494 11.8449 14.848 11.6197 14.2547 11.8694L13.6447 10.8129C13.7551 10.7178 13.8413 10.595 13.8922 10.4553L16.8614 5.31246C16.8895 5.2641 16.8905 5.20486 16.865 5.15536L16.1195 3.72555C16.0921 3.67272 16.0379 3.63909 15.9784 3.63781C15.9187 3.63651 15.8632 3.66779 15.8335 3.71941L13.0841 8.4816L10.3344 3.71941C10.3047 3.66779 10.2491 3.63651 10.1897 3.63781C10.13 3.63909 10.0758 3.67272 10.0483 3.72555L9.30318 5.15536C9.27739 5.20486 9.27869 5.2641 9.30645 5.31246L12.2949 10.4883ZM11.8965 12.225C12.3605 12.4928 12.5195 13.0867 12.2518 13.5505C11.984 14.0143 11.39 14.1735 10.9264 13.9057C10.4624 13.6379 10.3033 13.044 10.5711 12.5802C10.8389 12.1164 11.4328 11.9572 11.8965 12.225ZM14.2713 12.225C14.735 11.9572 15.329 12.1164 15.5967 12.5802C15.8645 13.044 15.7055 13.6379 15.2418 13.9057C14.7778 14.1735 14.1838 14.0143 13.9161 13.5505C13.6483 13.0867 13.8073 12.4928 14.2713 12.225ZM15.1004 12.4696C14.7716 12.2797 14.3507 12.3925 14.1607 12.7213C13.9709 13.0502 14.0836 13.4713 14.4124 13.6611C14.7412 13.851 15.1624 13.7382 15.3522 13.4093C15.5422 13.0805 15.4292 12.6594 15.1004 12.4696ZM11.7554 12.4696C11.4266 12.2797 11.0054 12.3925 10.8157 12.7213C10.6256 13.0502 10.7386 13.4713 11.0674 13.6611C11.3962 13.851 11.8175 13.7382 12.0072 13.4093C12.1969 13.0805 12.0842 12.6594 11.7554 12.4696ZM14.9371 12.7523C15.1099 12.852 15.1693 13.0733 15.0694 13.2461C14.9698 13.4188 14.7484 13.4781 14.5757 13.3783C14.4029 13.2786 14.3438 13.0574 14.4434 12.8846C14.5433 12.7119 14.7644 12.6526 14.9371 12.7523ZM11.5922 12.7523C11.7649 12.8521 11.8243 13.0733 11.7244 13.2461C11.6248 13.4188 11.4034 13.4781 11.2307 13.3783C11.058 13.2786 10.9985 13.0574 11.0984 12.8846C11.198 12.7119 11.4194 12.6526 11.5922 12.7523ZM12.6851 9.81793C12.6054 9.91066 12.5574 10.0312 12.5574 10.163C12.5574 10.4554 12.7948 10.6928 13.087 10.6928C13.3796 10.6928 13.617 10.4554 13.617 10.163C13.617 9.87056 13.3796 9.63314 13.087 9.63314C12.929 9.63314 12.7869 9.70256 12.69 9.81251C12.6883 9.81437 12.6867 9.81616 12.6851 9.81793ZM6.39543 9.98841C6.04637 10.1156 5.66923 10.1849 5.27608 10.1849C4.88294 10.1849 4.50612 10.1156 4.15674 9.98841V10.3636C4.15674 10.4547 4.23053 10.5287 4.32163 10.5287H6.23053C6.32163 10.5287 6.39543 10.4547 6.39543 10.3636V9.98841ZM8.22563 4.27611V6.90883C8.22563 8.53675 6.90417 9.85842 5.27608 9.85842C3.64833 9.85842 2.32653 8.53675 2.32653 6.90883V4.27611C2.32653 2.6482 3.64833 1.32653 5.27608 1.32653C6.90417 1.32653 8.22563 2.6482 8.22563 4.27611ZM12.8953 8.80813L10.2005 4.14021L9.63396 5.22681L12.2952 9.83624C12.3288 9.75494 12.3749 9.6799 12.4304 9.61342L12.8953 8.80813ZM13.2447 8.85642C13.2372 8.88333 13.2232 8.90838 13.2029 8.92872L12.9809 9.31314C13.0155 9.30883 13.0511 9.30661 13.087 9.30661C13.4416 9.30661 13.746 9.52252 13.8762 9.82998L16.5339 5.22681L15.9674 4.14021L13.2447 8.85642ZM7.90596 4.3741C7.90596 2.92268 6.72751 1.74429 5.27608 1.74429C3.82466 1.74429 2.64621 2.92268 2.64621 4.3741V6.81084C2.64621 8.26227 3.82466 9.44065 5.27608 9.44065C6.72751 9.44065 7.90596 8.26227 7.90596 6.81084V4.3741ZM7.57943 4.3741V6.81084C7.57943 8.08206 6.54727 9.11412 5.27608 9.11412C4.0049 9.11412 2.97274 8.08206 2.97274 6.81084V4.3741C2.97274 3.10289 4.0049 2.07082 5.27608 2.07082C6.54727 2.07082 7.57943 3.10289 7.57943 4.3741ZM5.11282 7.48875V7.84741C5.11282 7.93754 5.18596 8.01068 5.27608 8.01068C5.36621 8.01068 5.43935 7.93754 5.43935 7.84741V7.48875C5.43935 7.39863 5.36621 7.32549 5.27608 7.32549C5.18596 7.32549 5.11282 7.39863 5.11282 7.48875ZM3.83021 7.48875V7.84741C3.83021 7.93754 3.90335 8.01068 3.99347 8.01068C4.08359 8.01068 4.15674 7.93754 4.15674 7.84741V7.48875C4.15674 7.39863 4.08359 7.32549 3.99347 7.32549C3.90335 7.32549 3.83021 7.39863 3.83021 7.48875ZM6.39543 7.48875V7.84741C6.39543 7.93754 6.46857 8.01068 6.55869 8.01068C6.64882 8.01068 6.72196 7.93754 6.72196 7.84741V7.48875C6.72196 7.39863 6.64882 7.32549 6.55869 7.32549C6.46857 7.32549 6.39543 7.39863 6.39543 7.48875ZM6.39543 6.10387V6.46256C6.39543 6.55265 6.46857 6.62583 6.55869 6.62583C6.64882 6.62583 6.72196 6.55265 6.72196 6.46256V6.10387C6.72196 6.01378 6.64882 5.9406 6.55869 5.9406C6.46857 5.9406 6.39543 6.01378 6.39543 6.10387ZM3.83021 6.10387V6.46256C3.83021 6.55265 3.90335 6.62583 3.99347 6.62583C4.08359 6.62583 4.15674 6.55265 4.15674 6.46256V6.10387C4.15674 6.01378 4.08359 5.9406 3.99347 5.9406C3.90335 5.9406 3.83021 6.01378 3.83021 6.10387ZM5.11282 6.10387V6.46256C5.11282 6.55265 5.18596 6.62583 5.27608 6.62583C5.36621 6.62583 5.43935 6.55265 5.43935 6.46256V6.10387C5.43935 6.01378 5.36621 5.9406 5.27608 5.9406C5.18596 5.9406 5.11282 6.01378 5.11282 6.10387ZM6.39543 4.73894V5.0976C6.39543 5.18772 6.46857 5.26087 6.55869 5.26087C6.64882 5.26087 6.72196 5.18772 6.72196 5.0976V4.73894C6.72196 4.64885 6.64882 4.57567 6.55869 4.57567C6.46857 4.57567 6.39543 4.64885 6.39543 4.73894ZM3.83021 4.73894V5.0976C3.83021 5.18772 3.90335 5.26087 3.99347 5.26087C4.08359 5.26087 4.15674 5.18772 4.15674 5.0976V4.73894C4.15674 4.64885 4.08359 4.57567 3.99347 4.57567C3.90335 4.57567 3.83021 4.64885 3.83021 4.73894ZM5.11282 4.73894V5.0976C5.11282 5.18772 5.18596 5.26087 5.27608 5.26087C5.36621 5.26087 5.43935 5.18772 5.43935 5.0976V4.73894C5.43935 4.64885 5.36621 4.57567 5.27608 4.57567C5.18596 4.57567 5.11282 4.64885 5.11282 4.73894ZM6.39543 3.44376V3.80242C6.39543 3.89251 6.46857 3.96568 6.55869 3.96568C6.64882 3.96568 6.72196 3.89251 6.72196 3.80242V3.44376C6.72196 3.35363 6.64882 3.28049 6.55869 3.28049C6.46857 3.28049 6.39543 3.35363 6.39543 3.44376ZM3.83021 3.44376V3.80242C3.83021 3.89251 3.90335 3.96568 3.99347 3.96568C4.08359 3.96568 4.15674 3.89251 4.15674 3.80242V3.44376C4.15674 3.35363 4.08359 3.28049 3.99347 3.28049C3.90335 3.28049 3.83021 3.35363 3.83021 3.44376ZM5.11282 3.44376V3.80242C5.11282 3.89251 5.18596 3.96568 5.27608 3.96568C5.36621 3.96568 5.43935 3.89251 5.43935 3.80242V3.44376C5.43935 3.35363 5.36621 3.28049 5.27608 3.28049C5.18596 3.28049 5.11282 3.35363 5.11282 3.44376Z" fill="currentColor"></path>
  </symbol>
  <symbol fill="none" xmlns="http://www.w3.org/2000/svg" viewBox="0 0 18 18" id="ic_type_cafes">
    <path d="M9.2284 16.798H5.65924C4.42396 16.7966 3.23966 16.3053 2.36618 15.4318C1.49271 14.5583 1.00138 13.374 1 12.1388V6.61939C1 6.55095 1.02719 6.48531 1.07558 6.43691C1.12398 6.38852 1.18962 6.36133 1.25806 6.36133H13.6296C13.698 6.36133 13.7637 6.38852 13.8121 6.43691C13.8605 6.48531 13.8876 6.55095 13.8876 6.61939V12.1388C13.8863 13.374 13.3949 14.5583 12.5215 15.4318C11.648 16.3053 10.4637 16.7966 9.2284 16.798ZM1.51613 6.87745V12.1388C1.51737 13.2372 1.95427 14.2903 2.73099 15.067C3.5077 15.8437 4.5608 16.2806 5.65924 16.2819H9.2284C10.3268 16.2806 11.3799 15.8437 12.1567 15.067C12.9334 14.2903 13.3703 13.2372 13.3715 12.1388V6.87745H1.51613Z" fill="currentColor"></path>
    <path d="M13.5658 13.1472C13.5004 13.147 13.4375 13.1219 13.3898 13.0771C13.3422 13.0323 13.3134 12.9711 13.3091 12.9058C13.3049 12.8405 13.3256 12.7761 13.3671 12.7255C13.4086 12.6749 13.4677 12.642 13.5325 12.6333L14.1692 12.5494C14.179 12.5482 14.1888 12.5475 14.1987 12.5473C15.2555 12.5304 16.4841 11.3479 16.4841 9.84856C16.4838 9.54565 16.3633 9.25524 16.1491 9.04105C15.9349 8.82686 15.6445 8.70639 15.3416 8.70607H13.6299C13.5615 8.70607 13.4958 8.67888 13.4474 8.63048C13.3991 8.58209 13.3719 8.51645 13.3719 8.448C13.3719 8.37956 13.3991 8.31392 13.4474 8.26553C13.4958 8.21713 13.5615 8.18994 13.6299 8.18994H15.3416C15.7814 8.19045 16.2029 8.36537 16.5139 8.67631C16.8248 8.98725 16.9997 9.40883 17.0002 9.84856C17.0002 11.6559 15.537 13.0315 14.2224 13.063L13.5998 13.1449C13.5885 13.1464 13.5771 13.1472 13.5658 13.1472Z" fill="currentColor"></path>
    <path d="M5.771 5.72223C5.70374 5.7223 5.63916 5.69591 5.5912 5.64876C5.44467 5.50796 5.3279 5.33918 5.24782 5.15241C5.16774 4.96565 5.12598 4.7647 5.12502 4.56149C5.12405 4.35828 5.16391 4.15695 5.24222 3.96943C5.32052 3.78191 5.43569 3.61203 5.58088 3.46986C6.29169 2.68886 5.71458 2.03033 5.68976 2.00275C5.66664 1.97765 5.64872 1.94822 5.63705 1.91616C5.62538 1.8841 5.62018 1.85004 5.62176 1.81595C5.62334 1.78187 5.63166 1.74843 5.64625 1.71759C5.66083 1.68674 5.68139 1.65909 5.70673 1.63624C5.73207 1.61339 5.76169 1.59579 5.79387 1.58446C5.82606 1.57313 5.86017 1.5683 5.89424 1.57024C5.9283 1.57218 5.96165 1.58086 5.99234 1.59578C6.02303 1.61069 6.05045 1.63154 6.07303 1.65712C6.39236 2.01147 6.78012 2.91871 5.96266 3.81711C5.86291 3.91085 5.78325 4.02389 5.72851 4.14936C5.67376 4.27482 5.64508 4.4101 5.6442 4.54699C5.64331 4.68387 5.67025 4.81951 5.72337 4.94567C5.77649 5.07183 5.85469 5.18589 5.95321 5.28091C5.98946 5.31698 6.01418 5.363 6.02424 5.41313C6.0343 5.46327 6.02926 5.51526 6.00974 5.56252C5.99023 5.60978 5.95712 5.65019 5.91462 5.67861C5.87211 5.70704 5.82213 5.72224 5.771 5.72223Z" fill="currentColor"></path>
    <path d="M7.93508 5.14915C7.86783 5.1492 7.80324 5.12282 7.75527 5.07568C7.60873 4.93489 7.49196 4.76611 7.41188 4.57934C7.3318 4.39257 7.29004 4.19163 7.28908 3.98842C7.28812 3.78521 7.32797 3.58388 7.40628 3.39636C7.48458 3.20884 7.59975 3.03896 7.74494 2.89678C8.43583 2.13746 7.91431 1.49873 7.85256 1.42841C7.80765 1.37731 7.78474 1.31054 7.78881 1.24263C7.79287 1.17473 7.82359 1.11117 7.87427 1.0658C7.92496 1.02042 7.99151 0.996893 8.05945 1.00033C8.12739 1.00377 8.19122 1.03389 8.23707 1.08415C8.55637 1.43837 8.94437 2.34574 8.12682 3.24414C8.02708 3.33788 7.94742 3.45092 7.89267 3.57639C7.83793 3.70185 7.80925 3.83713 7.80836 3.97401C7.80748 4.1109 7.83441 4.24654 7.88753 4.3727C7.94065 4.49886 8.01885 4.61292 8.11738 4.70794C8.15361 4.74402 8.17832 4.79003 8.18837 4.84016C8.19843 4.89029 8.19338 4.94228 8.17387 4.98953C8.15436 5.03679 8.12126 5.07719 8.07876 5.10562C8.03627 5.13405 7.98621 5.14915 7.93508 5.14915Z" fill="currentColor"></path>
    <path d="M10.107 5.72239C10.0397 5.72245 9.97512 5.69606 9.92714 5.64892C9.78061 5.50813 9.66384 5.33935 9.58376 5.15258C9.50368 4.96581 9.46192 4.76487 9.46095 4.56166C9.45999 4.35845 9.49985 4.15712 9.57815 3.9696C9.65646 3.78208 9.77162 3.6122 9.91682 3.47003C10.6077 2.71083 10.0862 2.0721 10.0244 2.00165C9.97953 1.95055 9.95662 1.88378 9.96068 1.81588C9.96475 1.74797 9.99547 1.68442 10.0461 1.63904C10.0968 1.59366 10.1634 1.57013 10.2313 1.57357C10.2993 1.57701 10.3631 1.60713 10.4089 1.65739C10.7282 2.01161 11.1162 2.91898 10.2987 3.81738C10.1989 3.91112 10.1193 4.02416 10.0645 4.14963C10.0098 4.27509 9.98111 4.41037 9.98023 4.54726C9.97934 4.68414 10.0063 4.81978 10.0594 4.94594C10.1125 5.07211 10.1907 5.18616 10.2893 5.28119C10.3255 5.31726 10.3502 5.36328 10.3602 5.4134C10.3703 5.46353 10.3653 5.51552 10.3457 5.56278C10.3262 5.61003 10.2931 5.65044 10.2506 5.67886C10.2081 5.70729 10.1581 5.72239 10.107 5.72239Z" fill="currentColor"></path>
    <path d="M6.59932 14.1446C6.25185 14.1519 5.91258 14.0385 5.63933 13.8237C5.21611 13.4833 5.02189 12.9231 5.09224 12.2467C5.18483 11.5504 5.47303 10.8947 5.92338 10.3558C6.35326 9.8004 6.93191 9.3784 7.59209 9.13881C8.238 8.92485 8.82658 8.99465 9.24983 9.33493C10.1028 10.021 9.97803 11.5443 8.96581 12.803C8.27423 13.6629 7.37289 14.1446 6.59932 14.1446ZM8.2959 9.53385C8.11151 9.53643 7.92872 9.56846 7.75444 9.62874C7.1885 9.83696 6.69312 10.2012 6.32565 10.6794C5.93744 11.1408 5.68781 11.7026 5.60565 12.3C5.5658 12.5019 5.57765 12.7106 5.64011 12.9066C5.70256 13.1027 5.81359 13.2798 5.96286 13.4215C6.56908 13.9092 7.76037 13.4779 8.56367 12.4795C9.36697 11.4811 9.5329 10.2251 8.9263 9.73725C8.74596 9.59869 8.52322 9.5268 8.2959 9.53385Z" fill="currentColor"></path>
    <path d="M5.80101 13.8806C5.73688 13.8806 5.67505 13.8567 5.62757 13.8136C5.58008 13.7705 5.55035 13.7113 5.54417 13.6474C5.53799 13.5836 5.5558 13.5198 5.59412 13.4683C5.63245 13.4169 5.68855 13.3816 5.75149 13.3693C6.15742 13.2706 6.51891 13.0395 6.77889 12.7125C7.03888 12.3855 7.18255 11.9812 7.18722 11.5635C7.20355 11.0329 7.39364 10.5224 7.72828 10.1103C8.06292 9.69821 8.5236 9.40742 9.03954 9.28257C9.10649 9.27027 9.17558 9.28492 9.23177 9.32333C9.28796 9.36173 9.3267 9.42078 9.33957 9.48762C9.35243 9.55446 9.33836 9.62367 9.30044 9.68018C9.26251 9.7367 9.20379 9.77595 9.13706 9.78937C8.73136 9.88834 8.37014 10.1195 8.11037 10.4465C7.85059 10.7735 7.70705 11.1776 7.70237 11.5952C7.68607 12.1258 7.49599 12.6363 7.16135 13.0484C6.8267 13.4605 6.366 13.7513 5.85004 13.8761C5.83388 13.8791 5.81746 13.8807 5.80101 13.8806Z" fill="currentColor"></path>
  </symbol>
  <symbol fill="none" xmlns="http://www.w3.org/2000/svg" viewBox="0 0 18 18" id="ic_type_flats">
    <path d="M5.80212 16.9452H2.10527C2.07736 16.9452 2.05058 16.9341 2.03084 16.9144C2.0111 16.8946 2.00001 16.8679 2.00001 16.8399V8.83994C1.99967 8.81581 2.00798 8.79237 2.02342 8.77383C2.03887 8.7553 2.06043 8.7429 2.08422 8.73888L5.78106 7.95573C5.79505 7.94982 5.81009 7.94678 5.82527 7.94678C5.84046 7.94678 5.85549 7.94982 5.86948 7.95573C5.88123 7.96551 5.89071 7.97773 5.89725 7.99155C5.90379 8.00536 5.90725 8.02044 5.90738 8.03573V16.8399C5.90738 16.8679 5.89629 16.8946 5.87655 16.9144C5.85681 16.9341 5.83003 16.9452 5.80212 16.9452ZM2.21054 16.7347H5.7179V8.20415L2.23159 8.94099L2.21054 16.7347Z" fill="currentColor" stroke="currentColor" stroke-width="0.1"></path>
    <path d="M11.6833 17H9.08544V15.3874C9.10623 15.3241 9.11173 15.2569 9.10148 15.1911C9.09123 15.1253 9.06554 15.0629 9.0265 15.009C8.98747 14.9551 8.9362 14.9112 8.87692 14.8809C8.81763 14.8506 8.75201 14.8348 8.68544 14.8348C8.61888 14.8348 8.55326 14.8506 8.49397 14.8809C8.43469 14.9112 8.38342 14.9551 8.34439 15.009C8.30535 15.0629 8.27965 15.1253 8.26941 15.1911C8.25916 15.2569 8.26466 15.3241 8.28544 15.3874V17H5.63281V1H11.6833V17ZM9.41386 16.6842H11.3675V1.30316H5.96123V16.6842H7.98229V15.3874C7.98229 15.1975 8.0577 15.0155 8.19194 14.8812C8.32617 14.747 8.50824 14.6716 8.69808 14.6716C8.88792 14.6716 9.06998 14.747 9.20422 14.8812C9.33845 15.0155 9.41386 15.1975 9.41386 15.3874V16.6842Z" fill="currentColor" stroke="currentColor" stroke-width="0.1"></path>
    <path d="M3.50967 10.9116H2.88651C2.8586 10.9116 2.83182 10.9005 2.81208 10.8808C2.79234 10.8611 2.78125 10.8343 2.78125 10.8064V10.179C2.78125 10.1511 2.79234 10.1243 2.81208 10.1046C2.83182 10.0848 2.8586 10.0737 2.88651 10.0737H3.50967C3.53685 10.0748 3.56256 10.0864 3.5814 10.106C3.60024 10.1256 3.61075 10.1518 3.61072 10.179V10.8064C3.61075 10.8336 3.60024 10.8597 3.5814 10.8793C3.56256 10.899 3.53685 10.9105 3.50967 10.9116ZM2.99178 10.7011H3.41283V10.28H2.99178V10.7011Z" fill="currentColor" stroke="currentColor" stroke-width="0.1"></path>
    <path d="M4.9667 10.9116H4.34354C4.31563 10.9116 4.28885 10.9005 4.26911 10.8808C4.24937 10.8611 4.23828 10.8343 4.23828 10.8064V10.179C4.23828 10.1511 4.24937 10.1243 4.26911 10.1046C4.28885 10.0848 4.31563 10.0737 4.34354 10.0737H4.9667C4.99462 10.0737 5.02139 10.0848 5.04113 10.1046C5.06088 10.1243 5.07197 10.1511 5.07197 10.179V10.8064C5.07197 10.8343 5.06088 10.8611 5.04113 10.8808C5.02139 10.9005 4.99462 10.9116 4.9667 10.9116ZM4.45302 10.7011H4.87407V10.28H4.45302V10.7011Z" fill="currentColor" stroke="currentColor" stroke-width="0.1"></path>
    <path d="M3.50967 12.1538H2.88651C2.8586 12.1538 2.83182 12.1427 2.81208 12.1229C2.79234 12.1032 2.78125 12.0764 2.78125 12.0485V11.4422C2.78125 11.4143 2.79234 11.3875 2.81208 11.3677C2.83182 11.348 2.8586 11.3369 2.88651 11.3369H3.50967C3.53685 11.338 3.56256 11.3496 3.5814 11.3692C3.60024 11.3888 3.61075 11.415 3.61072 11.4422V12.0653C3.60681 12.0895 3.59457 12.1116 3.57613 12.1277C3.55768 12.1439 3.53418 12.1531 3.50967 12.1538ZM2.99178 11.9432H3.41283V11.5222H2.99178V11.9432Z" fill="currentColor" stroke="currentColor" stroke-width="0.1"></path>
    <path d="M4.9667 12.1538H4.34354C4.31563 12.1538 4.28885 12.1427 4.26911 12.1229C4.24937 12.1032 4.23828 12.0764 4.23828 12.0485V11.4422C4.23828 11.4143 4.24937 11.3875 4.26911 11.3677C4.28885 11.348 4.31563 11.3369 4.34354 11.3369H4.9667C4.99462 11.3369 5.02139 11.348 5.04113 11.3677C5.06088 11.3875 5.07197 11.4143 5.07197 11.4422V12.0653C5.06793 12.0902 5.05508 12.1129 5.03576 12.1291C5.01644 12.1453 4.99193 12.1541 4.9667 12.1538ZM4.45302 11.9432H4.87407V11.5222H4.45302V11.9432Z" fill="currentColor" stroke="currentColor" stroke-width="0.1"></path>
    <path d="M3.50216 13.4001H2.87479C2.84688 13.4001 2.8201 13.389 2.80036 13.3693C2.78062 13.3495 2.76953 13.3227 2.76953 13.2948V12.6717C2.76953 12.6438 2.78062 12.617 2.80036 12.5972C2.8201 12.5775 2.84688 12.5664 2.87479 12.5664H3.50216C3.53008 12.5664 3.55685 12.5775 3.5766 12.5972C3.59634 12.617 3.60743 12.6438 3.60743 12.6717V13.2948C3.60743 13.3227 3.59634 13.3495 3.5766 13.3693C3.55685 13.389 3.53008 13.4001 3.50216 13.4001ZM2.98006 13.1896H3.40111V12.7685H2.98006V13.1896Z" fill="currentColor" stroke="currentColor" stroke-width="0.1"></path>
    <path d="M4.95919 13.4001H4.33183C4.30391 13.4001 4.27713 13.389 4.25739 13.3693C4.23765 13.3495 4.22656 13.3227 4.22656 13.2948V12.6717C4.22656 12.6438 4.23765 12.617 4.25739 12.5972C4.27713 12.5775 4.30391 12.5664 4.33183 12.5664H4.95919C4.98711 12.5664 5.01389 12.5775 5.03363 12.5972C5.05337 12.617 5.06446 12.6438 5.06446 12.6717V13.2948C5.06446 13.3227 5.05337 13.3495 5.03363 13.3693C5.01389 13.389 4.98711 13.4001 4.95919 13.4001ZM4.45393 13.1896H4.87498V12.7685H4.45393V13.1896Z" fill="currentColor" stroke="currentColor" stroke-width="0.1"></path>
    <path d="M3.50216 14.6465H2.87479C2.84688 14.6465 2.8201 14.6354 2.80036 14.6157C2.78062 14.5959 2.76953 14.5691 2.76953 14.5412V13.9139C2.76953 13.8859 2.78062 13.8592 2.80036 13.8394C2.8201 13.8197 2.84688 13.8086 2.87479 13.8086H3.50216C3.52975 13.8096 3.55592 13.8211 3.57544 13.8406C3.59496 13.8601 3.60638 13.8863 3.60743 13.9139V14.5412C3.60743 14.5691 3.59634 14.5959 3.5766 14.6157C3.55685 14.6354 3.53008 14.6465 3.50216 14.6465ZM2.98006 14.436H3.40111V14.0149H2.98006V14.436Z" fill="currentColor" stroke="currentColor" stroke-width="0.1"></path>
    <path d="M4.95919 14.6465H4.33183C4.30391 14.6465 4.27713 14.6354 4.25739 14.6157C4.23765 14.5959 4.22656 14.5691 4.22656 14.5412V13.9139C4.22656 13.8859 4.23765 13.8592 4.25739 13.8394C4.27713 13.8197 4.30391 13.8086 4.33183 13.8086H4.95919C4.98711 13.8086 5.01389 13.8197 5.03363 13.8394C5.05337 13.8592 5.06446 13.8859 5.06446 13.9139V14.5412C5.06446 14.5691 5.05337 14.5959 5.03363 14.6157C5.01389 14.6354 4.98711 14.6465 4.95919 14.6465ZM4.45393 14.436H4.87498V14.0149H4.45393V14.436Z" fill="currentColor" stroke="currentColor" stroke-width="0.1"></path>
    <path d="M4.9667 9.66528H4.34354C4.31563 9.66528 4.28885 9.65419 4.26911 9.63445C4.24937 9.61471 4.23828 9.58794 4.23828 9.56002V8.91581C4.23828 8.88789 4.24937 8.86112 4.26911 8.84138C4.28885 8.82164 4.31563 8.81055 4.34354 8.81055H4.9667C4.99462 8.81055 5.02139 8.82164 5.04113 8.84138C5.06088 8.86112 5.07197 8.88789 5.07197 8.91581V9.54318C5.07442 9.55834 5.07354 9.57386 5.06936 9.58865C5.06518 9.60343 5.05782 9.61712 5.04779 9.62876C5.03776 9.6404 5.0253 9.6497 5.01129 9.65601C4.99728 9.66231 4.98206 9.66548 4.9667 9.66528ZM4.45302 9.45476H4.87407V9.03371H4.45302V9.45476Z" fill="currentColor" stroke="currentColor" stroke-width="0.1"></path>
    <path d="M15.3292 16.945H11.4219V4.88184H15.3292V16.945ZM11.6324 16.7345H15.1187V5.09236H11.6324V16.7345Z" fill="currentColor" stroke="currentColor" stroke-width="0.1"></path>
    <path d="M14.44 14.9325H13.5979V14.3262H14.44V14.9325ZM13.8042 14.722H14.2253V14.5367H13.8042V14.722ZM13.1432 14.9241H12.3011V14.3178H13.1432V14.9241ZM12.5074 14.7136H12.9285V14.5283H12.5074V14.7136ZM14.44 14.1452H13.5979V13.5473H14.44V14.1452ZM13.8042 13.9346H14.2253V13.7494H13.8042V13.9346ZM13.1432 14.1367H12.3011V13.5473H13.1432V14.1367ZM12.5074 13.9262H12.9285V13.7409H12.5074V13.9262ZM14.4527 13.3578H13.6106V12.7515H14.4527V13.3578ZM13.8169 13.1473H14.2379V12.962H13.8169V13.1473ZM13.1558 13.3494H12.3137V12.7431H13.1558V13.3494ZM12.52 13.1262H12.9411V12.9409H12.52V13.1262ZM14.4527 12.5578H13.6106V11.9641H14.4527V12.5578ZM13.8169 12.3473H14.2379V12.162H13.8169V12.3473ZM13.1558 12.5494H12.3137V11.9557H13.1558V12.5494ZM12.52 12.3388H12.9411V12.1536H12.52V12.3388ZM14.4485 11.7746H13.6063V11.1809H14.4485V11.7746ZM13.8085 11.5641H14.2295V11.3788H13.8085V11.5641ZM13.1516 11.762H12.3095V11.1683H13.1516V11.762ZM12.5116 11.5515H12.9327V11.3662H12.5116V11.5515ZM14.4485 11.0209H13.6063V10.3936H14.4485V11.0209ZM13.8085 10.8104H14.2295V10.5999H13.8085V10.8104ZM13.1516 11.0083H12.3095V10.3809H13.1516V11.0083ZM12.5116 10.7978H12.9327V10.5999H12.5116V10.7978ZM14.4569 10.2336H13.6148V9.60621H14.4569V10.2336ZM13.8211 10.0231H14.2421V9.83779H13.8211V10.0231ZM13.16 10.2209H12.3179V9.59358H13.16V10.2209ZM12.5242 10.0104H12.9453V9.82516H12.5242V10.0104ZM14.4569 9.44621H13.6148V8.81884H14.4569V9.44621ZM13.8211 9.23569H14.2421V9.05042H13.8211V9.23569ZM13.16 9.43358H12.3179V8.80621H13.16V9.43358ZM12.5242 9.22305H12.9453V9.03779H12.5242V9.22305ZM14.4358 8.65884H13.5937V8.03148H14.4358V8.65884ZM13.8 8.44832H14.2211V8.242H13.8V8.44832ZM13.139 8.64621H12.2969V8.01884H13.139V8.64621ZM12.5032 8.43569H12.9242V8.25042H12.5032V8.43569ZM14.4358 7.87148H13.5937V7.23148H14.4358V7.87148ZM13.8 7.65253H14.2211V7.46726H13.8V7.65253ZM13.139 7.85042H12.2969V7.23148H13.139V7.85042ZM12.5032 7.6399H12.9242V7.442H12.5032V7.6399ZM14.4485 7.07569H13.6063V6.45674H14.4485V7.07569ZM13.8085 6.86516H14.2295V6.6799H13.8085V6.86516ZM13.1516 7.06305H12.3095V6.44411H13.1516V7.06305ZM12.5116 6.85253H12.9327V6.66726H12.5116V6.85253ZM14.4485 6.28832H13.6063V5.66937H14.4485V6.28832ZM13.8085 6.07779H14.2295V5.89253H13.8085V6.07779ZM13.1516 6.27569H12.3095V5.65674H13.1516V6.27569ZM12.5116 6.06516H12.9327V5.8799H12.5116V6.06516Z" fill="currentColor" stroke="currentColor" stroke-width="0.1"></path>
    <path d="M11.5386 5.09236H5.81229C5.78438 5.09236 5.7576 5.08127 5.73786 5.06153C5.71812 5.04179 5.70703 5.01502 5.70703 4.9871C5.70703 4.95918 5.71812 4.93241 5.73786 4.91267C5.7576 4.89293 5.78438 4.88184 5.81229 4.88184H11.5386C11.5665 4.88184 11.5933 4.89293 11.613 4.91267C11.6328 4.93241 11.6439 4.95918 11.6439 4.9871C11.6428 5.01468 11.6314 5.04086 11.6119 5.06038C11.5924 5.0799 11.5662 5.09132 11.5386 5.09236Z" fill="currentColor" stroke="currentColor" stroke-width="0.1"></path>
    <path d="M11.5386 7.91365H5.81229C5.78438 7.91365 5.7576 7.90256 5.73786 7.88282C5.71812 7.86308 5.70703 7.83631 5.70703 7.80839C5.70703 7.78047 5.71812 7.7537 5.73786 7.73396C5.7576 7.71422 5.78438 7.70312 5.81229 7.70312H11.5386C11.5665 7.70312 11.5933 7.71422 11.613 7.73396C11.6328 7.7537 11.6439 7.78047 11.6439 7.80839C11.6428 7.83597 11.6314 7.86215 11.6119 7.88166C11.5924 7.90118 11.5662 7.91261 11.5386 7.91365Z" fill="currentColor" stroke="currentColor" stroke-width="0.1"></path>
    <path d="M11.5386 10.44H5.81229C5.78438 10.44 5.7576 10.4289 5.73786 10.4092C5.71812 10.3894 5.70703 10.3627 5.70703 10.3348C5.70703 10.3068 5.71812 10.2801 5.73786 10.2603C5.7576 10.2406 5.78438 10.2295 5.81229 10.2295H11.5386C11.5665 10.2295 11.5933 10.2406 11.613 10.2603C11.6328 10.2801 11.6439 10.3068 11.6439 10.3348C11.6428 10.3623 11.6314 10.3885 11.6119 10.408C11.5924 10.4276 11.5662 10.439 11.5386 10.44Z" fill="currentColor" stroke="currentColor" stroke-width="0.1"></path>
    <path d="M11.5269 13.1597H5.80058C5.77266 13.1597 5.74588 13.1487 5.72614 13.1289C5.7064 13.1092 5.69531 13.0824 5.69531 13.0545C5.69531 13.0266 5.7064 12.9998 5.72614 12.98C5.74588 12.9603 5.77266 12.9492 5.80058 12.9492H11.5269C11.5548 12.9492 11.5816 12.9603 11.6013 12.98C11.6211 12.9998 11.6322 13.0266 11.6322 13.0545C11.6322 13.0824 11.6211 13.1092 11.6013 13.1289C11.5816 13.1487 11.5548 13.1597 11.5269 13.1597Z" fill="currentColor" stroke="currentColor" stroke-width="0.1"></path>
    <path d="M7.71073 13.1514C7.68281 13.1514 7.65604 13.1403 7.6363 13.1206C7.61656 13.1009 7.60547 13.0741 7.60547 13.0462V2.39774C7.60547 2.36983 7.61656 2.34305 7.6363 2.32331C7.65604 2.30357 7.68281 2.29248 7.71073 2.29248C7.73865 2.29248 7.76542 2.30357 7.78516 2.32331C7.8049 2.34305 7.816 2.36983 7.816 2.39774V13.0462C7.816 13.0741 7.8049 13.1009 7.78516 13.1206C7.76542 13.1403 7.73865 13.1514 7.71073 13.1514Z" fill="currentColor" stroke="currentColor" stroke-width="0.1"></path>
    <path d="M9.71073 13.1598C9.68281 13.1598 9.65604 13.1487 9.6363 13.1289C9.61656 13.1092 9.60547 13.0824 9.60547 13.0545V2.35136C9.60547 2.32344 9.61656 2.29667 9.6363 2.27692C9.65604 2.25718 9.68281 2.24609 9.71073 2.24609C9.73865 2.24609 9.76542 2.25718 9.78516 2.27692C9.8049 2.29667 9.816 2.32344 9.816 2.35136V13.0545C9.816 13.0824 9.8049 13.1092 9.78516 13.1289C9.76542 13.1487 9.73865 13.1598 9.71073 13.1598Z" fill="currentColor" stroke="currentColor" stroke-width="0.1"></path>
    <path d="M11.5271 2.14111H5.80078V2.56217H11.5271V2.14111Z" fill="currentColor" stroke="currentColor" stroke-width="0.1"></path>
    <path d="M4.64849 8.37279C4.63397 8.37279 4.62005 8.36703 4.60978 8.35676C4.59952 8.3465 4.59375 8.33257 4.59375 8.31806V6.95806C4.59375 6.94354 4.59952 6.92962 4.60978 6.91935C4.62005 6.90909 4.63397 6.90332 4.64849 6.90332C4.66226 6.90438 4.67513 6.91062 4.6845 6.92077C4.69387 6.93092 4.69905 6.94424 4.69901 6.95806V8.31806C4.69905 8.33187 4.69387 8.34519 4.6845 8.35535C4.67513 8.3655 4.66226 8.37173 4.64849 8.37279Z" fill="currentColor" stroke="currentColor" stroke-width="0.1"></path>
    <path d="M4.33195 8.4399C4.32495 8.43993 4.31801 8.4385 4.31159 8.4357C4.30517 8.4329 4.2994 8.4288 4.29465 8.42365C4.2899 8.4185 4.28627 8.41242 4.28399 8.4058C4.28172 8.39917 4.28084 8.39215 4.28143 8.38517V7.74517C4.28084 7.73819 4.28172 7.73116 4.28399 7.72454C4.28627 7.71791 4.2899 7.71183 4.29465 7.70668C4.2994 7.70154 4.30517 7.69743 4.31159 7.69464C4.31801 7.69184 4.32495 7.69041 4.33195 7.69043C4.34647 7.69043 4.36039 7.6962 4.37066 7.70646C4.38092 7.71673 4.38669 7.73065 4.38669 7.74517V8.38517C4.38669 8.39968 4.38092 8.41361 4.37066 8.42387C4.36039 8.43414 4.34647 8.4399 4.33195 8.4399Z" fill="currentColor" stroke="currentColor" stroke-width="0.1"></path>
    <path d="M4.96099 8.30517C4.95401 8.30575 4.94698 8.30488 4.94036 8.3026C4.93373 8.30032 4.92765 8.29669 4.92251 8.29194C4.91736 8.28719 4.91326 8.28142 4.91046 8.275C4.90766 8.26858 4.90623 8.26165 4.90625 8.25464V7.74517C4.90625 7.73065 4.91202 7.71673 4.92228 7.70646C4.93255 7.6962 4.94647 7.69043 4.96099 7.69043C4.96799 7.69041 4.97493 7.69184 4.98135 7.69464C4.98777 7.69743 4.99354 7.70154 4.99829 7.70668C5.00304 7.71183 5.00667 7.71791 5.00895 7.72454C5.01122 7.73116 5.0121 7.73819 5.01151 7.74517V8.25464C5.01151 8.26804 5.00619 8.28089 4.99671 8.29037C4.98724 8.29984 4.97439 8.30517 4.96099 8.30517Z" fill="currentColor" stroke="currentColor" stroke-width="0.1"></path>
  </symbol>
  <symbol fill="none" xmlns="http://www.w3.org/2000/svg" viewBox="0 0 24 24" id="ic_phone">
    <path fill-rule="evenodd" clip-rule="evenodd" d="M16.969 10.6071C16.969 10.8636 16.7612 11.0714 16.5047 11.0714L13.719 11.0714C13.4626 11.0714 13.2547 10.8636 13.2547 10.6071V7.82143C13.2547 7.56501 13.4626 7.35714 13.719 7.35714C13.9754 7.35714 14.1833 7.56501 14.1833 7.82143V9.48626L17.105 6.56456C17.2863 6.38324 17.5803 6.38324 17.7616 6.56456C17.9429 6.74587 17.9429 7.03984 17.7616 7.22116L14.8399 10.1429L16.5047 10.1429C16.7612 10.1429 16.969 10.3507 16.969 10.6071Z" fill="currentColor"></path>
    <path fill-rule="evenodd" clip-rule="evenodd" d="M5.82617 7.35714C5.82617 6.33147 6.65764 5.5 7.68331 5.5H8.53242C9.06503 5.5 9.5293 5.86249 9.65847 6.3792L10.343 9.11736C10.4563 9.57042 10.287 10.0472 9.91339 10.3274L9.11257 10.9281C9.02942 10.9904 9.01134 11.0818 9.0347 11.1455C9.73763 13.0644 11.2617 14.5885 13.1807 15.2915C13.2444 15.3148 13.3357 15.2968 13.3981 15.2136L13.9987 14.4128C14.2789 14.0392 14.7557 13.8699 15.2088 13.9832L17.947 14.6677C18.4637 14.7969 18.8262 15.2611 18.8262 15.7938V16.6429C18.8262 17.6685 17.9947 18.5 16.969 18.5H15.5762C10.1914 18.5 5.82617 14.1348 5.82617 8.75V7.35714Z" fill="currentColor"></path>
  </symbol>
  <symbol fill="none" xmlns="http://www.w3.org/2000/svg" viewBox="0 0 18 18" id="ic_type_offices">
    <path d="M14.6343 6.65163H13.1909C13.0502 6.65163 12.913 6.77612 12.9203 6.92226C12.9275 7.06841 12.9672 7.18208 13.3154 7.1929C13.3298 8.31153 13.3208 9.43017 13.3154 10.5488C13.0736 10.6444 12.8318 10.7382 12.5865 10.8212C12.5251 10.473 12.2797 10.1681 11.9297 10.0526C11.6392 9.95701 9.8386 10.0021 9.27206 10.0021V9.3165H10.7696C11.1792 9.3165 11.5725 9.30387 11.9315 9.06391C12.3916 8.75538 12.6045 8.2556 12.6045 7.71433C12.6045 7.37152 12.6063 2.85369 12.6045 2.55418C12.5991 1.91728 12.2382 1.34173 11.6356 1.10717C11.3145 0.982682 10.9681 1.00614 10.6307 1.00614C10.1165 1.00614 6.89046 0.979073 6.58915 1.03861C5.88549 1.18115 5.40917 1.81985 5.39474 2.5217C5.38932 2.78152 5.39474 5.44278 5.39474 6.5145C5.39474 7.29755 5.23235 8.29891 5.85662 8.89431C6.14169 9.16675 6.51157 9.30568 6.90309 9.3165H8.72899V10.0021C8.27973 10.0021 6.71364 9.98948 6.38166 10.0021C5.90353 10.0202 5.49217 10.3539 5.41097 10.8194C5.1674 10.7364 4.92744 10.6426 4.68747 10.5488C4.68206 9.43017 4.67484 8.31153 4.68747 7.1929C5.01584 7.1929 5.08801 7.06841 5.0826 6.92226C5.07538 6.77612 4.96352 6.65163 4.81196 6.65163H3.36857C3.22783 6.65163 3.09071 6.77612 3.09793 6.92226C3.10515 7.06841 3.21701 7.1929 3.36857 7.1929H4.1462C4.13176 8.37288 4.14078 9.55286 4.1462 10.7328C4.1462 10.8627 4.2328 10.9493 4.34466 10.9945C4.72356 11.1442 5.10606 11.2976 5.49397 11.4184C5.65635 11.7432 5.99555 11.9615 6.37986 11.9778H8.01089V12.7067C8.01089 12.8528 8.13539 12.9773 8.28153 12.9773H8.72718V14.3738C7.5472 14.3955 6.36903 14.5687 5.23055 14.9043C5.11688 14.9385 5.03208 15.045 5.03208 15.1659V15.5971C4.83542 15.6819 4.66943 15.8443 4.61169 16.059C4.53772 16.3332 4.62613 16.6869 4.90759 16.8745C5.13312 17.0261 5.41639 17.0387 5.65635 16.9214C5.95044 16.7789 6.09478 16.4433 6.03885 16.1293C5.99375 15.8767 5.8061 15.6747 5.57516 15.5845V15.3698C6.60719 15.0847 7.66628 14.9331 8.72899 14.9133V15.5881C8.52511 15.6711 8.36272 15.8389 8.29416 16.0572C8.22019 16.2935 8.29597 16.6941 8.59006 16.8727C8.821 17.0134 9.09886 17.0369 9.33882 16.9196C9.61307 16.7861 9.77725 16.4415 9.72132 16.1275C9.67802 15.8804 9.49579 15.6819 9.27206 15.5899V14.9133C10.3348 14.9367 11.3939 15.0919 12.4259 15.3698V15.5808C12.2148 15.6602 12.0434 15.8316 11.9766 16.0554C11.9153 16.2556 11.9387 16.6544 12.2725 16.8709C12.4999 17.0188 12.7813 17.0351 13.0213 16.9178C13.3154 16.7753 13.4597 16.4397 13.4038 16.1257C13.3605 15.884 13.1873 15.6891 12.969 15.5935V15.1587C12.969 15.0396 12.8842 14.9313 12.7705 14.897C11.632 14.5705 10.4538 14.3937 9.27387 14.3684V12.9701H9.71952C9.86566 12.9701 9.99015 12.8456 9.99015 12.6995V11.9705C10.2698 11.9705 11.4011 11.9886 11.6843 11.9687C12.0434 11.9435 12.3537 11.7234 12.5053 11.413C12.8968 11.2903 13.2793 11.1388 13.6582 10.9872C13.7719 10.9421 13.8567 10.8555 13.8567 10.7256C13.8621 9.54564 13.8711 8.36566 13.8567 7.18568H14.6343C14.775 7.18568 14.9121 7.06119 14.9049 6.91505C14.8977 6.7689 14.7858 6.64441 14.6343 6.64441V6.65163ZM5.93962 7.76665C5.93962 7.49241 5.93962 3.13695 5.93962 2.76167C5.93962 2.41886 5.95947 2.0959 6.22289 1.83248C6.49894 1.55643 6.83813 1.54922 7.19718 1.54922C7.63561 1.54922 10.2049 1.5438 11.0492 1.54922C11.605 1.55282 12.0542 1.94795 12.065 2.51629C12.0686 2.70935 12.0921 7.82258 12.038 8.03909C11.9135 8.54067 11.4732 8.77703 10.9879 8.77703H6.90489C6.34016 8.77703 5.94142 8.32056 5.93781 7.76665H5.93962ZM5.32257 16.4577C5.21792 16.4577 5.13132 16.3729 5.13132 16.2665C5.13132 16.16 5.21431 16.0752 5.32257 16.0752C5.4236 16.0752 5.51382 16.1582 5.51382 16.2665C5.51382 16.3675 5.43263 16.4577 5.32257 16.4577ZM12.6821 16.4577C12.5702 16.4577 12.489 16.3675 12.489 16.2665C12.489 16.1546 12.5829 16.0752 12.6821 16.0752C12.7922 16.0752 12.8733 16.1618 12.8733 16.2665C12.8733 16.3585 12.7994 16.4577 12.6821 16.4577ZM9.00143 16.4577C8.90761 16.4577 8.81018 16.3855 8.81018 16.2755C8.81018 16.1654 8.88956 16.0752 9.00143 16.0752C9.10246 16.0752 9.19268 16.151 9.19268 16.2755C9.19268 16.3747 9.10427 16.4577 9.00143 16.4577ZM9.31897 12.4342H8.68388C8.61351 12.4342 8.55578 12.3765 8.55578 12.3061V11.976H9.44527V12.3061C9.44527 12.3765 9.38754 12.4342 9.31717 12.4342H9.31897ZM11.5869 11.4347C10.7335 11.4473 7.26213 11.4347 6.38166 11.4347C5.98833 11.4184 5.77543 10.9295 6.08757 10.6553C6.19943 10.556 6.33114 10.5452 6.47007 10.5452C6.81287 10.5452 11.3343 10.5344 11.605 10.5452C12.2076 10.5686 12.1859 11.4275 11.5851 11.4347H11.5869Z" fill="currentColor"></path>
  </symbol>
  <symbol fill="none" xmlns="http://www.w3.org/2000/svg" viewBox="0 0 16 16" id="ic_type_private_clinics">
    <path d="M13.2501 6.00875C12.5082 6.00875 11.8926 6.5505 11.773 7.25875H11.7541C10.6513 7.25875 9.7542 8.156 9.7542 9.25875V9.75V11.7275V13.5C9.7542 14.6027 8.85795 15.5 7.7567 15.5C6.65533 15.5 5.75933 14.6027 5.75933 13.5V8.72787C7.87008 8.37025 9.50758 3.5955 9.7517 2.03863C9.81545 1.63162 9.69345 1.22362 9.4082 0.890125C9.06508 0.489375 8.54095 0.25 8.0062 0.25H7.3037C7.3037 0.112 6.55458 0 6.55458 0C6.41658 0 6.30483 0.112 6.30483 0.25V0.75C6.30483 0.888 6.4167 1 6.55458 1C6.55458 1 7.3037 0.888 7.3037 0.75H8.0062C8.39095 0.75 8.78245 0.92825 9.02808 1.21525C9.16158 1.3715 9.30983 1.62762 9.25758 1.96137C8.96483 3.828 7.19945 8.25 5.50908 8.25C3.81845 8.25 2.0532 3.828 1.76058 1.96125C1.70833 1.62762 1.85645 1.3715 1.98995 1.21537C2.23545 0.92825 2.62708 0.75 3.01183 0.75H3.80758C3.80758 0.888 4.5567 1 4.5567 1C4.69458 1 4.80645 0.888 4.80645 0.75V0.25C4.80645 0.112 4.69458 0 4.5567 0C4.5567 0 3.80758 0.112 3.80758 0.25H3.01183C2.47695 0.25 1.95283 0.489375 1.60995 0.890375C1.3247 1.22388 1.2027 1.63175 1.26658 2.03875C1.51058 3.59562 3.14808 8.37025 5.25908 8.728V13.5C5.25908 14.8784 6.37945 16 7.75645 16C9.13358 16 10.254 14.8784 10.254 13.5V11.7275V9.75V9.25875C10.254 8.43163 10.9268 7.75875 11.7538 7.75875H11.7726C11.8922 8.46712 12.5082 9.00875 13.2498 9.00875C14.0768 9.00875 14.7497 8.33587 14.7497 7.50875C14.75 6.68175 14.0771 6.00875 13.2501 6.00875ZM13.2501 8.75875C12.6465 8.75875 12.1416 8.32862 12.0253 7.75875H12.8196C12.9061 7.9075 13.0657 8.00875 13.2501 8.00875C13.5262 8.00875 13.7501 7.78487 13.7501 7.50875C13.7501 7.23263 13.5262 7.00875 13.2501 7.00875C13.0653 7.00875 12.9061 7.11 12.8196 7.25875H12.0253C12.1416 6.68888 12.6465 6.25875 13.2501 6.25875C13.9395 6.25875 14.5 6.8195 14.5 7.50875C14.5 8.198 13.9395 8.75875 13.2501 8.75875Z" fill="currentColor"></path>
  </symbol>
  <symbol fill="none" xmlns="http://www.w3.org/2000/svg" viewBox="0 0 18 18" id="ic_type_private_houses">
    <path d="M14.2413 16.9999H11.4829C11.4097 16.9999 11.3396 16.9708 11.2878 16.9191C11.2361 16.8673 11.207 16.7972 11.207 16.724V12.3105C11.207 12.2374 11.2361 12.1672 11.2878 12.1155C11.3396 12.0637 11.4097 12.0347 11.4829 12.0347H14.2413C14.3145 12.0347 14.3846 12.0637 14.4364 12.1155C14.4881 12.1672 14.5172 12.2374 14.5172 12.3105V16.724C14.5172 16.7972 14.4881 16.8673 14.4364 16.9191C14.3846 16.9708 14.3145 16.9999 14.2413 16.9999ZM11.7587 16.4482H13.9655V12.5864H11.7587V16.4482Z" fill="currentColor"></path>
    <path d="M8.7245 14.2418H4.311C4.23784 14.2418 4.16768 14.2127 4.11595 14.161C4.06422 14.1092 4.03516 14.0391 4.03516 13.9659V11.2075C4.03516 11.1343 4.06422 11.0642 4.11595 11.0124C4.16768 10.9607 4.23784 10.9316 4.311 10.9316H8.7245C8.79765 10.9316 8.86782 10.9607 8.91955 11.0124C8.97128 11.0642 9.00034 11.1343 9.00034 11.2075V13.9659C9.00034 14.0391 8.97128 14.1092 8.91955 14.161C8.86782 14.2127 8.79765 14.2418 8.7245 14.2418ZM4.58684 13.6901H8.44865V11.4833H4.58684V13.6901Z" fill="currentColor"></path>
    <path d="M6.51803 14.2418C6.44487 14.2418 6.37471 14.2127 6.32298 14.161C6.27125 14.1092 6.24219 14.0391 6.24219 13.9659V11.2075C6.24219 11.1343 6.27125 11.0642 6.32298 11.0124C6.37471 10.9607 6.44487 10.9316 6.51803 10.9316C6.59119 10.9316 6.66135 10.9607 6.71308 11.0124C6.76481 11.0642 6.79387 11.1343 6.79387 11.2075V13.9659C6.79387 14.0391 6.76481 14.1092 6.71308 14.161C6.66135 14.2127 6.59119 14.2418 6.51803 14.2418Z" fill="currentColor"></path>
    <path d="M16.7231 16.9999H1.27584C1.20269 16.9999 1.13252 16.9709 1.08079 16.9191C1.02906 16.8674 1 16.7972 1 16.7241V9.00045C1 8.92729 1.02906 8.85713 1.08079 8.8054C1.13252 8.75367 1.20269 8.72461 1.27584 8.72461H16.7231C16.7962 8.72461 16.8664 8.75367 16.9181 8.8054C16.9699 8.85713 16.9989 8.92729 16.9989 9.00045V16.7241C16.9989 16.7972 16.9699 16.8674 16.9181 16.9191C16.8664 16.9709 16.7962 16.9999 16.7231 16.9999ZM1.55169 16.4482H16.4472V9.2763H1.55169V16.4482Z" fill="currentColor"></path>
    <path d="M16.7221 9.27627H8.9985C8.92534 9.27627 8.85518 9.24721 8.80345 9.19548C8.75172 9.14375 8.72266 9.07358 8.72266 9.00043V1.27681C8.72293 1.22235 8.73931 1.16919 8.76975 1.12403C8.80018 1.07887 8.84331 1.04373 8.89368 1.02303C8.94391 1.00191 8.99928 0.996137 9.05279 1.00645C9.1063 1.01676 9.15556 1.04268 9.19435 1.08096L16.918 8.80458C16.9562 8.84337 16.9822 8.89262 16.9925 8.94614C17.0028 8.99965 16.997 9.05501 16.9759 9.10525C16.9552 9.15562 16.9201 9.19874 16.8749 9.22918C16.8297 9.25961 16.7766 9.276 16.7221 9.27627ZM9.27434 8.72458H16.0573L9.27434 1.94159V8.72458Z" fill="currentColor"></path>
    <path d="M8.99884 9.2764H4.03366C3.9605 9.2764 3.89034 9.24734 3.83861 9.19561C3.78687 9.14388 3.75781 9.07372 3.75781 9.00056V4.03537C3.7579 3.9865 3.77097 3.93852 3.79569 3.89635C3.8204 3.85418 3.85588 3.81934 3.89849 3.79539L8.86368 1.03696C8.90561 1.01275 8.95318 1 9.0016 1C9.05002 1 9.09759 1.01275 9.13952 1.03696C9.1811 1.06161 9.21548 1.09675 9.2392 1.13887C9.26292 1.18099 9.27516 1.2286 9.27468 1.27694V9.00056C9.27468 9.07372 9.24562 9.14388 9.19389 9.19561C9.14216 9.24734 9.072 9.2764 8.99884 9.2764ZM4.3095 8.72471H8.723V1.74587L4.3095 4.19812V8.72471Z" fill="currentColor"></path>
    <path d="M7.89756 8.17282H5.13912C5.06597 8.17282 4.9958 8.14376 4.94407 8.09203C4.89234 8.0403 4.86328 7.97014 4.86328 7.89698V5.05855C4.86357 5.01041 4.87646 4.96319 4.90065 4.92157C4.92485 4.87995 4.95951 4.84539 5.0012 4.82132L7.75964 3.2435C7.80157 3.21929 7.84914 3.20654 7.89756 3.20654C7.94598 3.20654 7.99355 3.21929 8.03548 3.2435C8.07758 3.2678 8.1125 3.3028 8.13672 3.34494C8.16094 3.38708 8.1736 3.43488 8.1734 3.48348V7.89698C8.1734 7.97014 8.14434 8.0403 8.09261 8.09203C8.04088 8.14376 7.97072 8.17282 7.89756 8.17282ZM5.41497 7.62114H7.62172V3.95793L5.41497 5.21854V7.62114Z" fill="currentColor"></path>
  </symbol>
  <symbol fill="none" xmlns="http://www.w3.org/2000/svg" viewBox="0 0 18 18" id="ic_type_townhouses">
    <path d="M11.7613 16.9795H9.006C8.93292 16.9795 8.86284 16.9505 8.81117 16.8988C8.7595 16.8472 8.73047 16.7771 8.73047 16.704V12.2955C8.73047 12.2225 8.7595 12.1524 8.81117 12.1007C8.86284 12.049 8.93292 12.02 9.006 12.02H11.7613C11.8344 12.02 11.9044 12.049 11.9561 12.1007C12.0078 12.1524 12.0368 12.2225 12.0368 12.2955V16.704C12.0368 16.7771 12.0078 16.8472 11.9561 16.8988C11.9044 16.9505 11.8344 16.9795 11.7613 16.9795ZM9.28152 16.4285H11.4857V12.5711H9.28152V16.4285Z" fill="currentColor"></path>
    <path d="M15.0707 11.1935H10.6622C10.5892 11.1935 10.5191 11.1645 10.4674 11.1128C10.4157 11.0612 10.3867 10.9911 10.3867 10.918V8.16274C10.3867 8.08966 10.4157 8.01958 10.4674 7.96791C10.5191 7.91624 10.5892 7.88721 10.6622 7.88721H15.0707C15.1438 7.88721 15.2139 7.91624 15.2655 7.96791C15.3172 8.01958 15.3462 8.08966 15.3462 8.16274V10.918C15.3462 10.9911 15.3172 11.0612 15.2655 11.1128C15.2139 11.1645 15.1438 11.1935 15.0707 11.1935ZM10.9378 10.6425H14.7952V8.43826H10.9378V10.6425Z" fill="currentColor"></path>
    <path d="M12.8654 11.1935C12.7923 11.1935 12.7222 11.1645 12.6705 11.1128C12.6189 11.0612 12.5898 10.9911 12.5898 10.918V8.16274C12.5898 8.08966 12.6189 8.01958 12.6705 7.96791C12.7222 7.91624 12.7923 7.88721 12.8654 7.88721C12.9384 7.88721 13.0085 7.91624 13.0602 7.96791C13.1119 8.01958 13.1409 8.08966 13.1409 8.16274V10.918C13.1409 10.9911 13.1119 11.0612 13.0602 11.1128C13.0085 11.1645 12.9384 11.1935 12.8654 11.1935Z" fill="currentColor"></path>
    <path d="M7.07823 15.3263H3.22084C3.14777 15.3263 3.07768 15.2973 3.02601 15.2456C2.97434 15.194 2.94531 15.1239 2.94531 15.0508V8.43813C2.94531 8.36505 2.97434 8.29497 3.02601 8.2433C3.07768 8.19163 3.14777 8.1626 3.22084 8.1626H7.07823C7.15131 8.1626 7.22139 8.19163 7.27306 8.2433C7.32473 8.29497 7.35376 8.36505 7.35376 8.43813V15.0508C7.35376 15.1239 7.32473 15.194 7.27306 15.2456C7.22139 15.2973 7.15131 15.3263 7.07823 15.3263ZM3.49637 14.7753H6.80271V8.71365H3.49637V14.7753Z" fill="currentColor"></path>
    <path d="M5.15443 15.3263C5.08136 15.3263 5.01128 15.2973 4.95961 15.2456C4.90793 15.194 4.87891 15.1239 4.87891 15.0508V8.43813C4.87891 8.36505 4.90793 8.29497 4.95961 8.2433C5.01128 8.19163 5.08136 8.1626 5.15443 8.1626C5.22751 8.1626 5.29759 8.19163 5.34926 8.2433C5.40093 8.29497 5.42996 8.36505 5.42996 8.43813V15.0508C5.42996 15.1239 5.40093 15.194 5.34926 15.2456C5.29759 15.2973 5.22751 15.3263 5.15443 15.3263Z" fill="currentColor"></path>
    <path d="M16.7245 7.06035C16.6671 7.05998 16.6112 7.04167 16.5647 7.008L9.00971 1.61316L1.45473 7.008C1.42572 7.03284 1.39186 7.05138 1.35531 7.06244C1.31875 7.07349 1.28029 7.07683 1.24237 7.07224C1.20446 7.06764 1.16791 7.05521 1.13505 7.03574C1.10219 7.01626 1.07374 6.99017 1.05151 6.95912C1.02927 6.92806 1.01374 6.89273 1.00588 6.85535C0.998033 6.81797 0.998039 6.77937 1.0059 6.74199C1.01376 6.70461 1.02931 6.66928 1.05156 6.63823C1.0738 6.60719 1.10226 6.5811 1.13512 6.56164L8.84991 1.05108C8.89657 1.01785 8.95243 1 9.00971 1C9.067 1 9.12286 1.01785 9.16952 1.05108L16.8843 6.56164C16.9313 6.5957 16.9664 6.64374 16.9845 6.69893C17.0026 6.75411 17.0028 6.8136 16.9851 6.8689C16.9674 6.92421 16.9327 6.9725 16.8858 7.00688C16.839 7.04126 16.7826 7.05997 16.7245 7.06035Z" fill="currentColor"></path>
    <path d="M16.7246 7.06033H1.29506C1.22198 7.06033 1.1519 7.0313 1.10023 6.97963C1.04856 6.92796 1.01953 6.85788 1.01953 6.78481C1.01953 6.71173 1.04856 6.64165 1.10023 6.58998C1.1519 6.53831 1.22198 6.50928 1.29506 6.50928H16.7246C16.7977 6.50928 16.8678 6.53831 16.9195 6.58998C16.9711 6.64165 17.0002 6.71173 17.0002 6.78481C17.0002 6.85788 16.9711 6.92796 16.9195 6.97963C16.8678 7.0313 16.7977 7.06033 16.7246 7.06033Z" fill="currentColor"></path>
    <path d="M16.7246 16.9793H1.29506C1.22198 16.9793 1.1519 16.9503 1.10023 16.8986C1.04856 16.847 1.01953 16.7769 1.01953 16.7038V6.78481C1.01953 6.71173 1.04856 6.64165 1.10023 6.58998C1.1519 6.53831 1.22198 6.50928 1.29506 6.50928H16.7246C16.7977 6.50928 16.8678 6.53831 16.9195 6.58998C16.9711 6.64165 17.0002 6.71173 17.0002 6.78481V16.7038C17.0002 16.7769 16.9711 16.847 16.9195 16.8986C16.8678 16.9503 16.7977 16.9793 16.7246 16.9793ZM1.57059 16.4283H16.4491V7.06033H1.57059V16.4283Z" fill="currentColor"></path>
    <path d="M9.006 16.9793C8.93292 16.9793 8.86284 16.9503 8.81117 16.8986C8.7595 16.847 8.73047 16.7769 8.73047 16.7038V6.78481C8.73047 6.71173 8.7595 6.64165 8.81117 6.58998C8.86284 6.53831 8.93292 6.50928 9.006 6.50928C9.07907 6.50928 9.14915 6.53831 9.20082 6.58998C9.2525 6.64165 9.28152 6.71173 9.28152 6.78481V16.7038C9.28152 16.7769 9.2525 16.847 9.20082 16.8986C9.14915 16.9503 9.07907 16.9793 9.006 16.9793Z" fill="currentColor"></path>
  </symbol>
  <symbol fill="none" xmlns="http://www.w3.org/2000/svg" viewBox="0 0 20 16" id="ic_tg">
    <path fill-rule="evenodd" clip-rule="evenodd" d="M1.92141 6.8158C7.02307 4.59276 10.4246 3.12782 12.1268 2.41961C16.9871 0.398227 17.9968 0.0468594 18.6551 0.0352383C18.8 0.0331875 19.1234 0.0687341 19.3332 0.238949C19.5103 0.382504 19.5588 0.576645 19.5821 0.71268C19.6053 0.849399 19.6347 1.15907 19.6114 1.40174C19.3483 4.16893 18.2087 10.8839 17.629 13.9833C17.3836 15.2951 16.9003 15.7347 16.4327 15.7777C15.4169 15.8714 14.6451 15.1057 13.6608 14.4604C12.1206 13.4514 11.2504 12.8225 9.75539 11.8375C8.02726 10.6986 9.14768 10.0731 10.1321 9.05047C10.3898 8.7825 14.8673 4.70965 14.9541 4.34051C14.9651 4.29403 14.9753 4.12176 14.8728 4.03084C14.7702 3.93993 14.6192 3.97137 14.5105 3.99598C14.356 4.03084 11.8957 5.65711 7.12902 8.87479C6.43039 9.35467 5.79738 9.58778 5.23068 9.57616C4.60588 9.56248 3.40412 9.22274 2.51066 8.93221C1.41486 8.57606 0.543964 8.38739 0.619843 7.78241C0.658808 7.46727 1.09289 7.1453 1.92141 6.8158Z" fill="currentColor"></path>
  </symbol>
  <symbol fill="none" xmlns="http://www.w3.org/2000/svg" viewBox="0 0 12 16" id="ic_video_play">
    <path d="M0 0.5V15.5L12 8L0 0.5Z" fill="currentColor"></path>
  </symbol>
  <symbol fill="none" xmlns="http://www.w3.org/2000/svg" viewBox="0 0 28 29" id="ic_tooltip">
    <path d="M14 0.5C6.26635 0.5 0 6.76635 0 14.5C0 22.2337 6.26635 28.5 14 28.5C21.7337 28.5 28 22.2337 28 14.5C28 6.76635 21.7337 0.5 14 0.5ZM14 27.3356C6.92596 27.3356 1.16442 21.5808 1.16442 14.5C1.16442 7.42596 6.91923 1.66442 14 1.66442C21.074 1.66442 26.8356 7.41923 26.8356 14.5C26.8356 21.574 21.074 27.3356 14 27.3356Z" fill="currentColor"></path>
    <path d="M14.2414 7.0957C11.3337 7.0957 9.7116 8.46205 9.69141 11.2822H10.9568C10.9164 9.23609 12.0001 8.15243 14.1808 8.15243C15.7424 8.15243 17.0481 9.24282 17.0481 10.8313C17.0481 11.8611 16.4895 12.6957 15.7424 13.3957C14.2212 14.7957 13.7904 15.8188 13.7164 17.7371H14.9953C15.0693 16.0005 15.0289 15.6707 16.5635 14.1495C17.5866 13.1938 18.3068 12.2447 18.3068 10.7707C18.3068 8.46878 16.4626 7.0957 14.2414 7.0957ZM14.2885 19.6351C13.6558 19.6351 13.1443 20.1399 13.1443 20.7659C13.1443 21.3919 13.6558 21.9034 14.2885 21.9034C14.9212 21.9034 15.4328 21.3986 15.4328 20.7659C15.4328 20.1399 14.9212 19.6351 14.2885 19.6351Z" fill="currentColor"></path>
  </symbol>
  <symbol fill="none" xmlns="http://www.w3.org/2000/svg" viewBox="0 0 19 13" id="ic_vk">
    <path d="M11.5051 6.29029C11.1577 6.15965 11.1577 5.66075 11.1361 5.31333C11.0493 4.0758 11.4835 2.18651 10.9624 1.38327C10.5934 0.905211 8.81254 0.948986 7.72719 1.0143C7.42284 1.05808 7.05388 1.1227 6.79331 1.25333C6.53274 1.38396 6.27217 1.60075 6.27217 1.79601C6.27217 2.07812 6.92394 2.03503 7.16227 2.404C7.42284 2.7952 7.42284 3.64152 7.42284 4.33637C7.42284 5.13962 7.29221 6.20412 6.96702 6.24721C6.46742 6.26875 6.18532 5.76915 5.92475 5.40019C5.40361 4.6838 4.88248 3.793 4.49128 2.92444C4.29602 2.46862 4.18693 1.96902 3.90482 1.77377C3.47054 1.46943 2.68884 1.44789 1.92867 1.46943C1.23383 1.49097 0.234634 1.40411 0.0393817 1.81685C-0.11279 2.27267 0.213094 2.70695 0.386806 3.07661C1.27691 5.00899 2.23232 6.70303 3.40523 8.30952C4.49128 9.80761 5.51131 11.0021 7.509 11.6316C8.07391 11.8053 10.549 12.3049 11.0486 11.6316C11.2223 11.371 11.1792 10.7846 11.266 10.3503C11.3529 9.91601 11.4613 9.48173 11.874 9.46019C12.2215 9.43864 12.4167 9.74229 12.6342 9.95978C12.8732 10.1988 13.0685 10.3941 13.2422 10.6115C13.6549 11.0243 14.0892 11.5885 14.6104 11.806C15.3267 12.1103 16.4343 12.0235 17.4766 11.9797C18.3236 11.9582 18.9316 11.7845 18.9969 11.2849C19.0407 10.8937 18.6057 10.3294 18.3452 10.0036C17.6934 9.20031 17.3897 8.96128 16.6511 8.22266C16.3252 7.89678 15.9125 7.54935 15.9125 7.15885C15.891 6.91982 16.0862 6.70303 16.2599 6.464C17.0201 5.33487 17.7803 4.53163 18.4751 3.35872C18.6704 3.0113 19.1269 2.20805 18.9532 1.81685C18.7579 1.38257 17.6719 1.51251 16.9985 1.51251C16.13 1.51251 15.0009 1.44719 14.7834 1.6209C14.3706 1.90301 14.1969 2.35953 14.0017 2.79381C13.5674 3.793 12.9809 4.81304 12.3729 5.5732C12.1555 5.83377 11.7434 6.37645 11.5044 6.28959L11.5051 6.29029Z" fill="currentColor"></path>
  </symbol>
  <symbol fill="none" xmlns="http://www.w3.org/2000/svg" viewBox="0 0 17 18" id="ic_whatsapp">
    <path fill-rule="evenodd" clip-rule="evenodd" d="M14.523 2.94125C12.9251 1.34135 10.8 0.459818 8.5357 0.458984C3.86993 0.458984 0.0726667 4.25585 0.0710333 8.92285C0.0702333 10.4148 0.460267 11.871 1.20097 13.1544L0 17.541L4.48723 16.3639C5.72347 17.0385 7.11557 17.3936 8.53207 17.394H8.5357C13.2007 17.394 16.9984 13.5968 17 8.92975C17.0008 6.66792 16.1213 4.54158 14.523 2.94165V2.94125ZM8.5357 15.9646H8.53287C7.2706 15.9642 6.03233 15.6249 4.95193 14.984L4.69503 14.8315L2.03217 15.5299L2.74283 12.9336L2.5756 12.6674C1.87143 11.5472 1.49927 10.2525 1.50007 8.92328C1.5017 5.04442 4.6577 1.88842 8.53857 1.88842C10.4177 1.88925 12.184 2.62185 13.5124 3.95185C14.8408 5.28145 15.5717 7.04942 15.5709 8.92895C15.5693 12.8082 12.4133 15.9642 8.5357 15.9642V15.9646ZM12.3946 10.6957C12.1832 10.5898 11.1434 10.0784 10.9494 10.0077C10.7554 9.93709 10.6146 9.90182 10.4737 10.1137C10.3329 10.3256 9.92743 10.802 9.80403 10.9428C9.68063 11.0841 9.55727 11.1016 9.3458 10.9956C9.13437 10.8897 8.4529 10.6665 7.64483 9.94602C7.01617 9.38512 6.5916 8.69275 6.46827 8.48085C6.34487 8.26902 6.45527 8.15455 6.56077 8.04942C6.65573 7.95448 6.77223 7.80228 6.87817 7.67888C6.9841 7.55548 7.019 7.46705 7.0896 7.32618C7.16027 7.18492 7.12493 7.06162 7.0722 6.95562C7.0194 6.84972 6.5965 5.80865 6.41993 5.38535C6.24823 4.97302 6.07377 5.02902 5.9443 5.02212C5.82087 5.01602 5.68007 5.01482 5.53883 5.01482C5.3976 5.01482 5.16867 5.06755 4.97467 5.27945C4.78067 5.49125 4.23437 6.00308 4.23437 7.04368C4.23437 8.08435 4.99213 9.09052 5.09807 9.23175C5.20397 9.37298 6.58957 11.509 8.71103 12.4255C9.21553 12.6434 9.6096 12.7737 9.91687 12.8711C10.4234 13.0322 10.8844 13.0095 11.2489 12.9551C11.6552 12.8943 12.5002 12.4433 12.6763 11.9494C12.8524 11.4554 12.8524 11.0317 12.7997 10.9436C12.747 10.8556 12.6057 10.8024 12.3943 10.6965L12.3946 10.6957Z" fill="currentColor"></path>
  </symbol>
</svg>